# Blender 4.5.1 LTS
# www.blender.org
o Floor
v -1.000000 -1.200000 1.000000
v -1.000000 -0.999990 1.000000
v -1.000000 -1.200000 -9.000000
v -1.000000 -0.999990 -9.000000
v 1.000000 -1.200000 1.000000
v 1.000000 -0.999990 1.000000
v 1.000000 -0.999990 -9.000000
v 1.000000 -1.200000 -9.000000
v -1.000000 -1.200000 -11.000000
v -1.000000 -0.999990 -11.000000
v 1.000000 -1.200000 -11.000000
v 1.000000 -0.999990 -11.000000
v 5.000000 -1.200000 -9.000000
v 5.000000 -0.999990 -9.000000
v 5.000000 -1.200000 -11.000000
v 5.000000 -0.999990 -11.000000
v 11.066667 -1.200000 3.000000
v 10.999997 -0.999990 3.000000
v 9.000000 -0.999990 -9.000000
v 9.000000 -1.200000 -9.000000
v 9.000000 -0.999990 -11.000000
v 9.000000 -1.200000 -11.000000
v 5.000000 -0.999990 -15.000000
v 5.000000 -1.200000 -15.000000
v 9.000000 -1.200000 -15.000000
v 9.000000 -0.999990 -15.000000
v 9.000000 -1.200000 3.000000
v 9.000000 -0.999990 3.000000
v 11.000000 -1.200000 -9.000000
v 11.000000 -0.999990 -9.000000
v 11.000000 -1.200000 -11.000000
v 11.000000 -0.999990 -11.000000
v 11.000000 -1.200000 -15.000000
v 11.000000 -0.999990 -15.000000
v 15.000000 -1.200000 -9.000000
v 15.000000 -0.999990 -9.000000
v 15.000000 -1.200000 -11.000000
v 15.000000 -0.999990 -11.000000
v 15.000000 -0.999990 -15.000000
v 15.000000 -1.200000 -15.000000
v 5.000000 -0.999990 -5.000000
v 5.000000 -1.200000 -5.000000
v 9.000000 -0.999990 -5.000000
v 9.000000 -1.200000 -5.000000
v 11.000000 -0.999990 -5.000000
v 11.000000 -1.200000 -5.000000
v 15.000000 -0.999990 -5.000000
v 15.000000 -1.200000 -5.000000
v 9.000000 -1.200000 5.000000
v 9.000000 -0.999990 5.000000
v 11.066667 -1.200000 5.000000
v 10.999997 -0.999990 5.000000
v 14.999997 2.000010 3.000000
v 15.066667 1.800000 3.000000
v 14.999997 2.000010 5.000000
v 15.066667 1.800000 5.000000
v 24.000000 2.000010 3.000000
v 24.000000 1.800000 3.000000
v 24.000000 2.000010 5.000000
v 24.000000 1.800000 5.000000
v 9.000000 -1.200000 -23.000000
v 9.000000 -0.999990 -23.000000
v 11.000000 -1.200000 -23.000000
v 11.000000 -0.999990 -23.000000
v 9.000000 -0.999990 -25.000000
v 9.000000 -1.200000 -25.000000
v 11.000000 -0.999990 -25.000000
v 11.000000 -1.200000 -25.000000
v 19.000000 -1.200000 -23.000000
v 19.000000 -0.999990 -23.000000
v 19.000000 -1.200000 -25.000000
v 19.000000 -0.999990 -25.000000
v 21.000000 -1.200000 -23.000000
v 21.000000 -0.999990 -23.000000
v 21.000000 -1.200000 -25.000000
v 21.000000 -0.999990 -25.000000
v 19.000000 -1.200000 -27.000000
v 19.000000 -0.999990 -27.000000
v 21.000000 -1.200000 -27.000000
v 21.000000 -0.999990 -27.000000
v 19.000000 -0.999990 -32.000000
v 19.000000 -1.200000 -32.000000
v 21.000000 -1.200000 -32.000000
v 21.000000 -0.999990 -32.000000
v 19.000000 -0.999990 -34.000000
v 19.000000 -1.200000 -34.000000
v 21.000000 -0.999990 -34.000000
v 21.000000 -1.200000 -34.000000
v 26.000000 -1.200000 -27.000000
v 26.000000 -0.999990 -27.000000
v 25.958948 -1.200000 -32.000000
v 26.000002 -0.999990 -32.000000
v 25.958948 -1.200000 -34.000000
v 26.000002 -0.999990 -34.000000
v 33.000004 -3.999990 -32.000000
v 32.958950 -4.200000 -32.000000
v 33.000004 -3.999990 -34.000000
v 32.958950 -4.200000 -34.000000
v 35.000000 -3.999990 -32.000000
v 35.000000 -4.200000 -32.000000
v 35.000000 -3.999990 -34.000000
v 35.000000 -4.200000 -34.000000
vn -1.0000 -0.0000 -0.0000
vn 1.0000 -0.0000 -0.0000
vn -0.0000 -0.0000 1.0000
vn -0.0000 -0.0000 -1.0000
vn 0.9864 0.1644 -0.0041
vn 0.9948 -0.1021 -0.0041
vn -0.0000 1.0000 -0.0000
vn -0.0000 -1.0000 -0.0000
vn -0.6000 0.8000 -0.0000
vn 0.6000 -0.8000 -0.0000
vn 0.3939 0.9191 -0.0000
vn -0.3939 -0.9191 -0.0000
vt 0.055113 0.790893
vt 0.055113 0.959760
vt 0.051735 0.959760
vt 0.051735 0.790893
vt 0.072000 0.757119
vt 0.072000 0.925987
vt 0.068623 0.925987
vt 0.068623 0.757119
vt 0.126047 0.757119
vt 0.126047 0.790893
vt 0.122669 0.790893
vt 0.122669 0.757119
vt 0.088894 0.824666
vt 0.088894 0.858440
vt 0.085517 0.858440
vt 0.085517 0.824666
vt 0.055113 0.757119
vt 0.051735 0.757119
vt 0.085517 0.757119
vt 0.088894 0.757119
vt 0.109159 0.824666
vt 0.109159 0.757119
vt 0.112537 0.757119
vt 0.112537 0.824666
vt 0.095649 0.824666
vt 0.095649 0.757119
vt 0.099027 0.757119
vt 0.099027 0.824666
vt 0.115914 0.757119
vt 0.115914 0.824666
vt 0.112537 0.824666
vt 0.115914 0.757119
vt 0.119292 0.757119
vt 0.119292 0.824666
vt 0.075378 0.824666
vt 0.075378 0.858440
vt 0.072000 0.858440
vt 0.072000 0.824666
vt 0.075378 0.925987
vt 0.072000 0.925987
vt 0.102404 0.824666
vt 0.102404 0.757119
vt 0.105782 0.757119
vt 0.105782 0.824666
vt 0.105782 0.757119
vt 0.109159 0.757119
vt 0.109159 0.824666
vt 0.075378 0.757119
vt 0.072000 0.757119
vt 0.099027 0.757119
vt 0.102404 0.824666
vt 0.068623 0.757119
vt 0.068623 0.892213
vt 0.065245 0.892213
vt 0.065245 0.757119
vt 0.078756 0.892214
vt 0.078755 0.757120
vt 0.082139 0.757119
vt 0.082133 0.892214
vt 0.970254 0.258961
vt 0.962368 0.224964
vt 0.965913 0.225297
vt 0.973544 0.258197
vt 0.065245 0.925987
vt 0.068623 0.925987
vt 0.996456 0.147717
vt 1.000000 0.148050
vt 0.003545 0.904836
vt 0.037632 0.982083
vt 0.034087 0.982417
vt 0.000000 0.905169
vt 0.129424 0.790893
vt 0.129424 0.757119
vt 0.132802 0.757119
vt 0.132802 0.790893
vt 0.034342 0.757119
vt 0.037632 0.757882
vt 0.965659 -0.000000
vt 0.962368 0.000763
vt 0.055113 0.925987
vt 0.055113 0.790893
vt 0.058490 0.790893
vt 0.058490 0.925987
vt 0.082139 0.892213
vt 0.082139 0.757119
vt 0.085517 0.757119
vt 0.085517 0.892213
vt 0.058490 0.925987
vt 0.058490 0.892213
vt 0.061868 0.892213
vt 0.061868 0.925987
vt 0.055113 0.757119
vt 0.058490 0.757119
vt 0.065245 0.757119
vt 0.065245 0.892213
vt 0.061868 0.892213
vt 0.061868 0.757119
vt 0.058490 0.757119
vt 0.061868 0.757119
vt 0.122669 0.790893
vt 0.119292 0.790893
vt 0.119292 0.757119
vt 0.061868 0.925987
vt 0.065245 0.925987
vt 0.122669 0.824666
vt 0.119292 0.824666
vt 0.078755 0.875327
vt 0.078755 0.909100
vt 0.075378 0.909100
vt 0.075378 0.875327
vt 0.075378 0.790893
vt 0.078755 0.790893
vt 0.965670 0.258961
vt 0.972767 0.291980
vt 0.969465 0.292690
vt 0.962368 0.259670
vt 0.075378 0.757119
vt 0.078755 0.757119
vt 0.092272 0.841554
vt 0.092275 0.757119
vt 0.095649 0.757120
vt 0.095649 0.841554
vt 0.088894 0.841553
vt 0.088894 0.757119
vt 0.092272 0.757119
vt 0.092272 0.841553
vt 0.990508 0.374529
vt 0.987060 0.374561
vt 0.041055 0.757530
vt 0.051735 0.885691
vt 0.048312 0.885281
vt 0.037632 0.757119
vt 0.962368 0.500774
vt 0.965816 0.500742
vt 0.126047 0.790893
vt 0.126047 0.757119
vt 0.129424 0.757119
vt 0.129424 0.790893
vt 0.972913 0.533762
vt 0.969610 0.534472
vt 0.037632 0.917321
vt 0.040836 0.918389
vt 0.042045 0.187679
vt 0.009697 0.177984
vt 0.058180 0.016226
vt 0.090528 0.025921
vt 0.920324 0.187679
vt 0.871840 0.025921
vt 0.904188 0.016226
vt 0.952672 0.177984
vt 0.032348 0.220031
vt 0.000000 0.210335
vt 0.962368 0.210335
vt 0.930020 0.220031
vt 0.097044 0.239422
vt 0.106740 0.207070
vt 0.171436 0.226461
vt 0.161739 0.258813
vt 0.865325 0.239422
vt 0.800629 0.258813
vt 0.790932 0.226461
vt 0.855628 0.207070
vt 0.142346 0.323516
vt 0.194087 0.268508
vt 0.174694 0.333212
vt 0.820022 0.323516
vt 0.787674 0.333212
vt 0.768281 0.268508
vt 0.077650 0.304125
vt 0.884718 0.304125
vt 0.203784 0.236157
vt 0.268480 0.255548
vt 0.258783 0.287899
vt 0.703585 0.287899
vt 0.693889 0.255548
vt 0.758584 0.236157
vt 0.239390 0.352603
vt 0.722979 0.352603
vt 0.135907 0.462618
vt 0.103559 0.452922
vt 0.858809 0.452922
vt 0.826461 0.462618
vt 0.190829 0.161758
vt 0.223177 0.171454
vt 0.739191 0.171454
vt 0.771539 0.161758
vt 0.126134 0.142367
vt 0.836235 0.142367
vt 0.287873 0.190845
vt 0.674495 0.190845
vt 0.261964 0.042047
vt 0.229616 0.032352
vt 0.239313 0.000000
vt 0.271660 0.009696
vt 0.699326 0.042370
vt 0.689630 0.010019
vt 0.723056 0.000000
vt 0.732752 0.032352
vt 0.325922 0.061217
vt 0.335619 0.028866
vt 0.481184 0.072496
vt 0.471487 0.104847
vt 0.635368 0.061540
vt 0.490881 0.104847
vt 0.481184 0.072496
vt 0.625671 0.029189
vt 0.126211 0.494970
vt 0.093863 0.485274
vt 0.868506 0.485274
vt 0.836158 0.494970
vt 0.255602 0.533752
vt 0.265299 0.501400
vt 0.297647 0.511096
vt 0.287950 0.543447
vt 0.706766 0.533752
vt 0.674418 0.543447
vt 0.664722 0.511096
vt 0.697070 0.501400
vt 0.278253 0.575799
vt 0.245905 0.566103
vt 0.716463 0.566103
vt 0.684115 0.575799
vt 0.221664 0.646982
vt 0.254012 0.656678
vt 0.244315 0.689030
vt 0.211967 0.679334
vt 0.740704 0.646982
vt 0.750401 0.679334
vt 0.718053 0.689030
vt 0.708357 0.656678
vt 0.359123 0.600038
vt 0.334881 0.680917
vt 0.628151 0.680718
vt 0.603245 0.600038
vt 0.325185 0.713268
vt 0.637848 0.713069
vt 0.439140 0.747424
vt 0.448836 0.715072
vt 0.481184 0.724768
vt 0.471487 0.757119
vt 0.523893 0.747225
vt 0.490881 0.757119
vt 0.481184 0.724768
vt 0.514196 0.714873
s 0
f 3/1/1 1/2/1 2/3/1 4/4/1
f 5/5/2 8/6/2 7/7/2 6/8/2
f 1/9/3 5/10/3 6/11/3 2/12/3
f 11/13/4 9/14/4 10/15/4 12/16/4
f 9/17/1 3/1/1 4/4/1 10/18/1
f 12/16/4 16/19/4 15/20/4 11/13/4
f 14/21/3 7/22/3 8/23/3 13/24/3
f 23/25/4 26/26/4 25/27/4 24/28/4
f 24/29/1 15/30/1 16/31/1 23/23/1
f 34/30/4 39/32/4 40/33/4 33/34/4
f 35/35/2 37/36/2 38/37/2 36/38/2
f 37/36/2 40/39/2 39/40/2 38/37/2
f 43/41/3 41/42/3 42/43/3 44/44/3
f 47/44/3 45/45/3 46/46/3 48/47/3
f 48/48/2 35/35/2 36/38/2 47/49/2
f 41/28/1 14/50/1 13/42/1 42/51/1
f 44/52/1 27/53/1 28/54/1 43/55/1
f 45/56/5 18/57/5 17/58/5 46/59/5
f 49/60/3 51/61/3 52/62/3 50/63/3
f 50/64/1 28/54/1 27/53/1 49/65/1
f 51/61/3 56/66/3 55/67/3 52/62/3
f 54/68/4 17/69/4 18/70/4 53/71/4
f 57/72/2 59/73/2 60/74/2 58/75/2
f 53/71/4 57/76/4 58/77/4 54/68/4
f 59/78/3 55/67/3 56/66/3 60/79/3
f 26/80/1 62/81/1 61/82/1 25/83/1
f 64/84/2 34/85/2 33/86/2 63/87/2
f 65/88/4 67/89/4 68/90/4 66/91/4
f 62/81/1 65/92/1 66/93/1 61/82/1
f 63/94/3 69/95/3 70/96/3 64/97/3
f 67/89/4 72/98/4 71/99/4 68/90/4
f 73/12/2 75/100/2 76/101/2 74/102/2
f 74/103/3 70/96/3 69/95/3 73/104/3
f 75/100/2 79/105/2 80/106/2 76/101/2
f 77/107/1 71/108/1 72/109/1 78/110/1
f 78/110/1 81/111/1 82/112/1 77/107/1
f 85/113/4 87/114/4 88/115/4 86/116/4
f 81/111/1 85/117/1 86/118/1 82/112/1
f 89/119/6 91/120/6 92/121/6 90/122/6
f 90/123/3 80/124/3 79/125/3 89/126/3
f 87/114/4 94/127/4 93/128/4 88/115/4
f 91/129/3 96/130/3 95/131/3 92/132/3
f 98/133/4 93/128/4 94/127/4 97/134/4
f 101/135/2 99/136/2 100/137/2 102/138/2
f 97/134/4 101/139/4 102/140/4 98/133/4
f 99/141/3 95/131/3 96/130/3 100/142/3
f 7/143/7 4/144/7 2/145/7 6/146/7
f 8/147/8 5/148/8 1/149/8 3/150/8
f 4/144/7 7/143/7 12/151/7 10/152/7
f 3/150/8 9/153/8 11/154/8 8/147/8
f 16/155/7 14/156/7 19/157/7 21/158/7
f 15/159/8 22/160/8 20/161/8 13/162/8
f 12/151/7 7/143/7 14/156/7 16/155/7
f 11/154/8 15/159/8 13/162/8 8/147/8
f 26/163/7 21/158/7 32/164/7 34/165/7
f 25/166/8 33/167/8 31/168/8 22/160/8
f 16/155/7 21/158/7 26/163/7 23/169/7
f 15/159/8 24/170/8 25/166/8 22/160/8
f 32/164/7 30/171/7 36/172/7 38/173/7
f 31/168/8 37/174/8 35/175/8 29/176/8
f 34/165/7 32/164/7 38/173/7 39/177/7
f 33/167/8 40/178/8 37/174/8 31/168/8
f 26/163/7 34/165/7 64/179/7 62/180/7
f 25/166/8 61/181/8 63/182/8 33/167/8
f 21/158/7 19/157/7 30/171/7 32/164/7
f 22/160/8 31/168/8 29/176/8 20/161/8
f 30/171/7 19/157/7 43/183/7 45/184/7
f 29/176/8 46/185/8 44/186/8 20/161/8
f 19/157/7 14/156/7 41/187/7 43/183/7
f 20/161/8 44/186/8 42/188/8 13/162/8
f 36/172/7 30/171/7 45/184/7 47/189/7
f 35/175/8 48/190/8 46/185/8 29/176/8
f 18/191/7 28/192/7 50/193/7 52/194/7
f 17/195/8 51/196/8 49/197/8 27/198/8
f 45/184/7 43/183/7 28/192/7 18/191/7
f 46/185/8 17/195/8 27/198/8 44/186/8
f 53/199/7 55/200/7 59/201/7 57/202/7
f 54/203/8 58/204/8 60/205/8 56/206/8
f 18/191/9 52/194/9 55/200/9 53/199/9
f 17/195/10 54/203/10 56/206/10 51/196/10
f 62/180/7 64/179/7 67/207/7 65/208/7
f 61/181/8 66/209/8 68/210/8 63/182/8
f 72/211/7 70/212/7 74/213/7 76/214/7
f 71/215/8 75/216/8 73/217/8 69/218/8
f 67/207/7 64/179/7 70/212/7 72/211/7
f 68/210/8 71/215/8 69/218/8 63/182/8
f 72/211/7 76/214/7 80/219/7 78/220/7
f 71/215/8 77/221/8 79/222/8 75/216/8
f 81/223/7 84/224/7 87/225/7 85/226/7
f 82/227/8 86/228/8 88/229/8 83/230/8
f 78/220/7 80/219/7 84/224/7 81/223/7
f 77/221/8 82/227/8 83/230/8 79/222/8
f 84/224/7 80/219/7 90/231/7 92/232/7
f 83/230/8 91/233/8 89/234/8 79/222/8
f 87/225/7 84/224/7 92/232/7 94/235/7
f 88/229/8 93/236/8 91/233/8 83/230/8
f 97/237/7 95/238/7 99/239/7 101/240/7
f 98/241/8 102/242/8 100/243/8 96/244/8
f 94/235/11 92/232/11 95/238/11 97/237/11
f 93/236/12 98/241/12 96/244/12 91/233/12
