# Blender 4.5.1 LTS
# www.blender.org
o Roof
v -1.000000 1.200000 1.000000
v -1.000000 0.999990 1.000000
v -1.000000 1.200000 -9.000000
v -1.000000 0.999990 -9.000000
v 1.000000 1.200000 1.000000
v 1.000000 0.999990 1.000000
v 1.000000 1.200000 -9.000000
v 1.000000 0.999990 -9.000000
v -1.000000 1.200000 -11.000000
v -1.000000 0.999990 -11.000000
v 1.000000 1.200000 -11.000000
v 1.000000 0.999990 -11.000000
v 5.000000 0.999990 -9.000000
v 5.000000 1.200000 -9.000000
v 5.000000 0.999990 -11.000000
v 5.000000 1.200000 -11.000000
v 10.933333 1.200000 3.000000
v 11.000003 0.999990 3.000000
v 9.000000 1.200000 -15.000000
v 9.000000 0.999990 -15.000000
v 9.000000 1.200000 3.000000
v 9.000000 0.999990 3.000000
v 11.000000 1.200000 -15.000000
v 11.000000 0.999990 -15.000000
v 9.000000 1.200000 -5.000000
v 9.000000 0.999990 -5.000000
v 11.000000 1.200000 -5.000000
v 11.000000 0.999990 -5.000000
v 5.000000 2.200000 -9.000000
v 5.000000 1.999990 -9.000000
v 5.000000 2.200000 -11.000000
v 5.000000 1.999990 -11.000000
v 15.000000 1.999990 -5.000000
v 15.000000 2.200000 -5.000000
v 15.000000 1.999990 -9.000000
v 15.000000 2.200000 -9.000000
v 9.000000 2.200000 -9.000000
v 9.000000 1.999990 -9.000000
v 9.000000 2.200000 -11.000000
v 9.000000 1.999990 -11.000000
v 5.000000 2.200000 -15.000000
v 5.000000 1.999990 -15.000000
v 9.000000 2.200000 -15.000000
v 9.000000 1.999990 -15.000000
v 11.000000 1.999990 -9.000000
v 11.000000 2.200000 -9.000000
v 11.000000 1.999990 -5.000000
v 11.000000 2.200000 -5.000000
v 11.000000 2.200000 -11.000000
v 11.000000 1.999990 -11.000000
v 11.000000 1.999990 -15.000000
v 11.000000 2.200000 -15.000000
v 15.000000 1.999990 -11.000000
v 15.000000 2.200000 -11.000000
v 15.000000 2.200000 -15.000000
v 15.000000 1.999990 -15.000000
v 5.000000 1.999990 -5.000000
v 5.000000 2.200000 -5.000000
v 9.000000 1.999990 -5.000000
v 9.000000 2.200000 -5.000000
v 9.000000 0.999990 5.000000
v 9.000000 1.200000 5.000000
v 11.000003 0.999990 5.000000
v 10.933333 1.200000 5.000000
v 14.880000 4.160000 3.000000
v 15.000006 3.999992 3.000000
v 14.880000 4.160000 5.000000
v 15.000006 3.999992 5.000000
v 15.000000 4.999990 3.000000
v 15.000000 5.200000 3.000000
v 15.000000 4.999990 5.000000
v 15.000000 5.200000 5.000000
v 24.000000 5.200000 3.000000
v 24.000000 4.999990 3.000000
v 24.000000 5.200000 5.000000
v 24.000000 4.999990 5.000000
v 9.000000 1.200000 -23.000000
v 9.000000 0.999990 -23.000000
v 11.000000 1.200000 -23.000000
v 11.000000 0.999990 -23.000000
v 9.000000 0.999990 -25.000000
v 9.000000 1.200000 -25.000000
v 11.000000 0.999990 -25.000000
v 11.000000 1.200000 -25.000000
v 19.000000 0.999990 -23.000000
v 19.000000 1.200000 -23.000000
v 19.000000 0.999990 -25.000000
v 19.000000 1.200000 -25.000000
v 21.000000 1.200000 -23.000000
v 21.000000 0.999990 -23.000000
v 21.000000 1.200000 -25.000000
v 21.000000 0.999990 -25.000000
v 19.000000 0.999990 -27.000000
v 19.000000 1.200000 -27.000000
v 21.000000 0.999990 -27.000000
v 21.000000 1.200000 -27.000000
v 33.041050 -1.800000 -32.000000
v 32.999996 -2.000010 -32.000000
v 26.078783 1.183829 -32.000000
v 25.999996 0.999991 -32.000000
v 26.078783 1.183829 -34.000000
v 25.999996 0.999991 -34.000000
v 21.000000 2.200000 -27.000000
v 21.000000 1.999990 -27.000000
v 19.000000 2.200000 -27.000000
v 19.000000 1.999990 -27.000000
v 21.000000 2.200000 -32.000000
v 21.000000 1.999990 -32.000000
v 19.000000 2.200000 -32.000000
v 19.000000 1.999990 -32.000000
v 21.000000 1.999990 -34.000000
v 21.000000 2.200000 -34.000000
v 19.000000 1.999990 -34.000000
v 19.000000 2.200000 -34.000000
v 26.000000 1.999990 -27.000000
v 26.000000 2.200000 -27.000000
v 26.000000 1.999990 -32.000000
v 26.000000 2.200000 -32.000000
v 26.000000 1.999990 -34.000000
v 26.000000 2.200000 -34.000000
v 33.041050 -1.800000 -34.000000
v 32.999996 -2.000010 -34.000000
v 35.000000 -2.000010 -32.000000
v 35.000000 -1.800000 -32.000000
v 35.000000 -2.000010 -34.000000
v 35.000000 -1.800000 -34.000000
vn -1.0000 -0.0000 -0.0000
vn 1.0000 -0.0000 -0.0000
vn -0.0000 -0.0000 1.0000
vn -0.0000 -0.0000 -1.0000
vn 0.9864 0.1644 0.0041
vn 0.8000 0.6000 -0.0000
vn -0.9191 0.3939 -0.0000
vn -0.0000 -1.0000 -0.0000
vn -0.0000 1.0000 -0.0000
vn 0.6000 -0.8000 -0.0000
vn -0.6000 0.8000 -0.0000
vn -0.3939 -0.9191 -0.0000
vn 0.3939 0.9191 -0.0000
vt 0.958084 0.927456
vt 0.958085 0.628022
vt 0.964071 0.628022
vt 0.964071 0.927456
vt 0.988748 0.000000
vt 0.988748 0.299434
vt 0.982760 0.299434
vt 0.982760 0.000000
vt 0.822724 0.778528
vt 0.822724 0.718641
vt 0.828713 0.718641
vt 0.828713 0.778528
vt 0.798769 0.898301
vt 0.798769 0.838415
vt 0.804757 0.838415
vt 0.804757 0.898301
vt 0.964071 0.568136
vt 0.958085 0.568136
vt 0.840690 0.778528
vt 0.840690 0.718641
vt 0.846679 0.718641
vt 0.846679 0.778528
vt 0.816736 0.718641
vt 0.816735 0.838415
vt 0.810746 0.838415
vt 0.810746 0.718641
vt 0.804758 0.718641
vt 0.798769 0.718641
vt 0.828713 0.778528
vt 0.828713 0.718641
vt 0.834702 0.718641
vt 0.834702 0.778528
vt 0.828713 0.838414
vt 0.828713 0.778528
vt 0.834702 0.778528
vt 0.834702 0.838414
vt 0.988027 0.747796
vt 0.988027 0.687909
vt 0.994013 0.687909
vt 0.994013 0.747796
vt 0.982038 0.867569
vt 0.982038 0.747796
vt 0.988027 0.747796
vt 0.988027 0.867569
vt 0.976049 0.867569
vt 0.976049 0.747796
vt 0.982038 0.747796
vt 0.982038 0.867569
vt 0.994013 0.568135
vt 0.988027 0.568135
vt 0.982038 0.687909
vt 0.976049 0.687909
vt 0.982038 0.687909
vt 0.988027 0.687909
vt 0.988027 0.568136
vt 0.982038 0.568136
vt 0.982038 0.568135
vt 0.976049 0.568135
vt 0.305388 0.359321
vt 0.305388 0.479094
vt 0.299399 0.479094
vt 0.299399 0.359321
vt 0.305388 0.538981
vt 0.299399 0.538981
vt 0.305388 0.658754
vt 0.299399 0.658754
vt 0.994013 0.867569
vt 0.988027 0.867569
vt 1.000000 0.568136
vt 1.000000 0.807683
vt 0.994013 0.807683
vt 0.994013 0.568136
vt 0.762813 0.958188
vt 0.762813 0.718641
vt 0.768802 0.718641
vt 0.768827 0.958189
vt 0.745486 0.919507
vt 0.718558 0.866015
vt 0.724805 0.865106
vt 0.750835 0.916814
vt 1.000000 0.867569
vt 0.994013 0.867569
vt 0.857085 0.778529
vt 0.857085 0.838416
vt 0.852248 0.838415
vt 0.852248 0.778528
vt 0.750835 0.719696
vt 0.744940 0.718641
vt 0.810746 0.718641
vt 0.810746 0.868358
vt 0.804757 0.866362
vt 0.804757 0.718641
vt 0.840690 0.838415
vt 0.834704 0.838415
vt 0.834704 0.778528
vt 0.846679 0.778528
vt 0.846679 0.838415
vt 0.840691 0.838415
vt 0.840691 0.778528
vt 0.750835 0.988131
vt 0.750835 0.718641
vt 0.756824 0.718641
vt 0.756824 0.988131
vt 0.762813 0.718641
vt 0.762813 0.988131
vt 0.756824 0.988131
vt 0.756824 0.718641
vt 0.988748 0.299434
vt 0.988748 0.059887
vt 0.994735 0.059887
vt 0.994735 0.299434
vt 0.774815 0.718641
vt 0.774815 0.958188
vt 0.768827 0.958188
vt 0.768827 0.718641
vt 0.970060 0.807683
vt 0.970060 0.867569
vt 0.964071 0.867569
vt 0.964071 0.807683
vt 0.994735 0.000000
vt 0.988748 0.000000
vt 0.970060 0.807683
vt 0.970060 0.568136
vt 0.976049 0.568136
vt 0.976049 0.807683
vt 0.970060 0.568135
vt 0.964071 0.568135
vt 0.822724 0.778528
vt 0.822724 0.838414
vt 0.816735 0.778528
vt 0.970060 0.867569
vt 0.976049 0.867569
vt 0.816735 0.718641
vt 0.822724 0.718641
vt 0.852666 0.718641
vt 0.852666 0.778528
vt 0.846679 0.778528
vt 0.846679 0.718641
vt 0.846679 0.838415
vt 0.846679 0.778528
vt 0.852248 0.778528
vt 0.852248 0.838415
vt 0.774815 0.778528
vt 0.780804 0.718641
vt 0.780804 0.778528
vt 0.798769 0.778528
vt 0.798769 0.928245
vt 0.792782 0.928245
vt 0.792782 0.778528
vt 0.786793 0.868358
vt 0.786793 0.928245
vt 0.780804 0.928245
vt 0.780804 0.868358
vt 0.792782 0.718641
vt 0.798769 0.718641
vt 0.786793 0.778528
vt 0.792782 0.778528
vt 0.792782 0.928245
vt 0.786793 0.718641
vt 0.792782 0.718641
vt 0.786793 0.718641
vt 0.780804 0.718641
vt 0.774815 0.928245
vt 0.780804 0.928245
vt 0.976690 0.226540
vt 0.958084 0.000491
vt 0.964053 -0.000000
vt 0.982760 0.227273
vt 0.958084 0.511341
vt 0.976791 0.284068
vt 0.982760 0.284559
vt 0.964154 0.510607
vt 0.834702 0.718641
vt 0.840690 0.718641
vt 0.840690 0.778528
vt 0.958084 0.282168
vt 0.963764 0.284068
vt 0.977080 0.568136
vt 0.982760 0.566236
vt 0.778438 0.059887
vt 0.718558 0.059887
vt 0.718558 -0.000000
vt 0.778438 0.000000
vt 0.778438 0.658754
vt 0.778438 0.718641
vt 0.718558 0.718641
vt 0.718558 0.658754
vt 0.778438 0.359321
vt 0.718558 0.359321
vt 0.898198 0.000000
vt 0.898198 0.059887
vt 0.898198 0.658754
vt 0.898198 0.718641
vt 0.540284 0.359321
vt 0.600163 0.359321
vt 0.600163 0.598868
vt 0.540284 0.598868
vt 0.365584 0.658754
vt 0.365584 0.419207
vt 0.423467 0.419207
vt 0.425463 0.658754
vt 0.119760 0.479094
vt 0.119760 0.359321
vt 0.179640 0.359321
vt 0.179640 0.479094
vt 0.119760 0.838415
vt 0.179640 0.838415
vt 0.179640 0.958188
vt 0.119760 0.958188
vt 0.000000 0.538981
vt 0.000000 0.479094
vt 0.119760 0.538981
vt 0.000000 0.778528
vt 0.119760 0.778528
vt 0.000000 0.838415
vt 0.179640 0.538981
vt 0.179640 0.658754
vt 0.119760 0.658754
vt 0.119760 0.658754
vt 0.179640 0.658754
vt 0.179640 0.778528
vt 0.000000 0.359321
vt -0.000000 0.958188
vt 0.299399 0.359321
vt 0.299399 0.479094
vt 0.299399 0.838415
vt 0.299399 0.958188
vt 0.299399 0.538981
vt 0.299399 0.778528
vt 0.299399 0.658754
vt -0.000000 0.658754
vt 0.000000 0.658754
vt 0.600163 0.658754
vt 0.540284 0.658754
vt 0.365584 0.359321
vt 0.423467 0.359321
vt 0.718558 0.598868
vt 0.718558 0.658754
vt 0.540284 0.359321
vt 0.540284 0.419207
vt 0.898198 0.000000
vt 0.958084 0.000000
vt 0.958084 0.269459
vt 0.898198 0.269459
vt 0.958084 0.538919
vt 0.898198 0.538919
vt 0.059880 0.359320
vt 0.000000 0.359320
vt 0.000000 0.119773
vt 0.059880 0.119773
vt 0.419159 0.000000
vt 0.419159 0.239547
vt 0.359279 0.239547
vt 0.359279 -0.000000
vt 0.000000 0.059887
vt 0.059880 0.059887
vt 0.419159 0.299434
vt 0.359279 0.299434
vt 0.299399 0.059887
vt 0.299399 0.119773
vt 0.658678 0.239547
vt 0.658678 0.299434
vt 0.359279 0.059887
vt 0.359279 0.119773
vt 0.718558 0.239547
vt 0.718558 0.299434
vt 0.299399 -0.000000
vt 0.359279 -0.000000
vt 0.718558 0.359321
vt 0.658678 0.359321
vt 0.359279 0.868358
vt 0.299399 0.868358
vt 0.299399 0.718641
vt 0.359279 0.718641
vt 0.568859 0.658754
vt 0.568859 0.808471
vt 0.508979 0.808471
vt 0.508979 0.658754
vt 0.359279 0.658754
vt 0.508979 0.658754
vt 0.508979 0.718641
vt 0.718558 0.808471
vt 0.718558 0.868358
vt 0.568859 0.868358
vt 0.508979 0.868358
vt 0.508979 0.868358
vt 0.718558 0.658754
vt 0.305697 0.359321
vt 0.365584 0.359321
vt 0.365584 0.570265
vt 0.305697 0.570265
vt 0.958084 0.538919
vt 0.958084 0.748726
vt 0.898198 0.748726
vt 0.365584 0.630145
vt 0.305697 0.630145
vt 0.958084 0.807377
vt 0.898198 0.807377
s 0
f 1/1/1 3/2/1 4/3/1 2/4/1
f 7/5/2 5/6/2 6/7/2 8/8/2
f 5/9/3 1/10/3 2/11/3 6/12/3
f 9/13/4 11/14/4 12/15/4 10/16/4
f 10/17/1 4/3/1 3/2/1 9/18/1
f 13/19/2 15/20/2 16/21/2 14/22/2
f 8/23/3 13/24/3 14/25/3 7/26/3
f 15/27/4 12/15/4 11/14/4 16/28/4
f 23/29/3 19/30/3 20/31/3 24/32/3
f 25/33/4 27/34/4 28/35/4 26/36/4
f 29/37/1 31/38/1 32/39/1 30/40/1
f 33/41/2 35/42/2 36/43/2 34/44/2
f 41/45/4 43/46/4 44/47/4 42/48/4
f 42/49/1 32/39/1 31/38/1 41/50/1
f 51/51/4 44/47/4 43/46/4 52/52/4
f 35/42/2 53/53/2 54/54/2 36/43/2
f 55/55/2 54/54/2 53/53/2 56/56/2
f 56/57/4 51/51/4 52/52/4 55/58/4
f 57/59/3 59/60/3 60/61/3 58/62/3
f 59/60/3 47/63/3 48/64/3 60/61/3
f 47/63/3 33/65/3 34/66/3 48/64/3
f 30/40/1 57/67/1 58/68/1 29/37/1
f 26/69/1 22/70/1 21/71/1 25/72/1
f 18/73/5 28/74/5 27/75/5 17/76/5
f 61/77/3 63/78/3 64/79/3 62/80/3
f 22/70/1 61/81/1 62/82/1 21/71/1
f 65/83/6 67/84/6 68/85/6 66/86/6
f 67/87/3 64/79/3 63/78/3 68/88/3
f 66/89/4 18/90/4 17/91/4 65/92/4
f 69/19/1 71/93/1 72/94/1 70/95/1
f 73/96/2 75/97/2 76/98/2 74/99/2
f 70/100/4 73/101/4 74/102/4 69/103/4
f 71/104/3 76/105/3 75/106/3 72/107/3
f 19/108/1 77/109/1 78/110/1 20/111/1
f 79/112/2 23/113/2 24/114/2 80/115/2
f 83/116/4 81/117/4 82/118/4 84/119/4
f 81/120/1 78/110/1 77/109/1 82/121/1
f 86/122/3 79/123/3 80/124/3 85/125/3
f 87/126/4 83/116/4 84/119/4 88/127/4
f 91/128/2 89/129/2 90/24/2 92/130/2
f 89/131/3 86/122/3 85/125/3 90/132/3
f 95/34/4 93/33/4 94/129/4 96/128/4
f 92/130/2 95/133/2 96/134/2 91/128/2
f 93/135/1 87/136/1 88/137/1 94/138/1
f 99/139/7 101/140/7 102/141/7 100/142/7
f 103/143/3 105/112/3 106/144/3 104/145/3
f 110/146/1 106/147/1 105/148/1 109/149/1
f 111/150/4 113/151/4 114/152/4 112/153/4
f 109/149/1 114/154/1 113/155/1 110/146/1
f 115/151/2 117/156/2 118/157/2 116/158/2
f 117/156/2 119/159/2 120/160/2 118/157/2
f 119/161/4 111/150/4 112/153/4 120/162/4
f 116/163/3 103/143/3 104/145/3 115/164/3
f 97/165/3 99/166/3 100/167/3 98/168/3
f 122/169/4 102/170/4 101/171/4 121/172/4
f 123/35/2 125/173/2 126/174/2 124/175/2
f 124/176/3 97/165/3 98/168/3 123/177/3
f 125/178/4 122/169/4 121/172/4 126/179/4
f 8/180/8 4/181/8 10/182/8 12/183/8
f 7/184/9 11/185/9 9/186/9 3/187/9
f 4/181/8 8/180/8 6/188/8 2/189/8
f 3/187/9 1/189/9 5/188/9 7/184/9
f 8/180/8 12/183/8 15/190/8 13/191/8
f 7/184/9 14/192/9 16/193/9 11/185/9
f 26/194/8 28/195/8 18/196/8 22/197/8
f 25/198/9 21/199/9 17/200/9 27/201/9
f 40/202/8 44/203/8 51/204/8 50/205/8
f 39/206/9 49/207/9 52/208/9 43/209/9
f 30/210/8 32/211/8 40/202/8 38/212/8
f 29/213/9 37/214/9 39/206/9 31/215/9
f 38/212/8 45/216/8 47/217/8 59/218/8
f 37/214/9 60/219/9 48/220/9 46/221/9
f 40/202/8 32/211/8 42/222/8 44/203/8
f 39/206/9 43/209/9 41/223/9 31/215/9
f 38/212/8 40/202/8 50/205/8 45/216/8
f 37/214/9 46/221/9 49/207/9 39/206/9
f 50/205/8 51/204/8 56/224/8 53/225/8
f 49/207/9 54/226/9 55/227/9 52/208/9
f 45/216/8 50/205/8 53/225/8 35/228/8
f 46/221/9 36/229/9 54/226/9 49/207/9
f 45/216/8 35/228/8 33/230/8 47/217/8
f 46/221/9 48/220/9 34/230/9 36/229/9
f 30/210/8 38/212/8 59/218/8 57/231/8
f 29/213/9 58/232/9 60/219/9 37/214/9
f 22/197/8 18/196/8 63/233/8 61/234/8
f 21/199/9 62/235/9 64/236/9 17/200/9
f 63/233/10 18/196/10 66/237/10 68/238/10
f 64/236/11 67/239/11 65/240/11 17/200/11
f 71/241/8 69/242/8 74/243/8 76/244/8
f 72/243/9 75/245/9 73/246/9 70/244/9
f 24/247/8 20/248/8 78/249/8 80/250/8
f 23/251/9 79/252/9 77/253/9 19/254/9
f 80/250/8 78/249/8 81/255/8 83/256/8
f 79/252/9 84/257/9 82/258/9 77/253/9
f 80/250/8 83/256/8 87/259/8 85/260/8
f 79/252/9 86/261/9 88/262/9 84/257/9
f 85/260/8 87/259/8 92/263/8 90/264/8
f 86/261/9 89/265/9 91/266/9 88/262/9
f 92/263/8 87/259/8 93/267/8 95/268/8
f 91/266/9 96/269/9 94/270/9 88/262/9
f 104/271/8 106/272/8 110/273/8 108/274/8
f 103/275/9 107/276/9 109/277/9 105/278/9
f 108/274/8 111/279/8 119/280/8 117/281/8
f 107/276/9 118/282/9 120/283/9 112/284/9
f 108/274/8 110/273/8 113/230/8 111/279/8
f 107/276/9 112/284/9 114/285/9 109/277/9
f 104/271/8 108/274/8 117/281/8 115/286/8
f 103/275/9 116/287/9 118/282/9 107/276/9
f 100/288/12 102/289/12 122/290/12 98/291/12
f 99/292/13 97/293/13 121/294/13 101/246/13
f 98/291/8 122/290/8 125/295/8 123/296/8
f 97/293/9 124/297/9 126/298/9 121/294/9
