# Blender 4.5.1 LTS
# www.blender.org
o Walls
v -0.999990 -1.000000 0.999990
v -1.200000 -1.000000 1.200000
v -1.200000 1.000000 1.200000
v -0.999990 1.000000 0.999990
v -0.999990 -1.000000 -9.000000
v -1.200000 -1.000000 -9.000000
v -0.999990 1.000000 -9.000000
v -1.200000 1.000000 -9.000000
v 0.999990 -1.000000 0.999990
v 1.200000 -1.000000 1.200000
v 0.999990 1.000000 0.999990
v 1.200000 1.000000 1.200000
v 0.999990 -1.000000 -9.000010
v 1.200000 -1.000000 -8.800000
v 0.999990 1.000000 -9.000010
v 1.200000 1.000000 -8.800000
v -0.999990 1.000000 -10.999990
v -1.200000 1.000000 -11.200000
v -0.999990 -1.000000 -10.999990
v -1.200000 -1.000000 -11.200000
v 1.000000 -1.000000 -10.999990
v 1.000000 -1.000000 -11.200000
v 1.000000 1.000000 -10.999990
v 1.000000 1.000000 -11.200000
v 5.000010 1.000000 -9.000010
v 4.800000 1.000000 -8.800000
v 5.000010 -1.000000 -9.000010
v 4.800000 -1.000000 -8.800000
v 4.800000 1.000000 -11.200000
v 5.000010 1.000000 -10.999990
v 4.800000 -1.000000 -11.200000
v 5.000010 -1.000000 -10.999990
v 11.200000 -1.000000 2.800000
v 10.999990 -1.000000 3.000010
v 11.200000 1.000000 2.800000
v 10.999990 1.000000 3.000010
v 5.000010 1.000000 -14.999990
v 4.800000 1.000000 -15.200000
v 5.000010 -1.000000 -14.999990
v 4.800000 -1.000000 -15.200000
v 8.800000 1.000000 -15.200000
v 9.000010 1.000000 -14.999990
v 8.800000 -1.000000 -15.200000
v 9.000010 -1.000000 -14.999990
v 9.000010 -1.000000 3.000000
v 8.800000 -1.000000 3.000000
v 9.000010 1.000000 3.000000
v 8.800000 1.000000 3.000000
v 11.200000 1.000000 -15.200000
v 10.999990 1.000000 -14.999990
v 11.200000 -1.000000 -15.200000
v 10.999990 -1.000000 -14.999990
v 14.999990 1.000000 -9.000000
v 15.200000 1.000000 -9.000000
v 14.999990 -1.000000 -9.000000
v 15.200000 -1.000000 -9.000000
v 14.999990 1.000000 -11.000000
v 15.200000 1.000000 -11.000000
v 14.999990 -1.000000 -11.000000
v 15.200000 -1.000000 -11.000000
v 14.999990 1.000000 -14.999990
v 15.200000 1.000000 -15.200000
v 15.200000 -1.000000 -15.200000
v 14.999990 -1.000000 -14.999990
v 4.800000 1.000000 -4.800000
v 5.000010 1.000000 -5.000010
v 4.800000 -1.000000 -4.800000
v 5.000010 -1.000000 -5.000010
v 9.000010 1.000000 -5.000010
v 8.800000 1.000000 -4.800000
v 9.000010 -1.000000 -5.000010
v 8.800000 -1.000000 -4.800000
v 11.200000 1.000000 -4.800000
v 10.999990 1.000000 -5.000010
v 11.200000 -1.000000 -4.800000
v 10.999990 -1.000000 -5.000010
v 14.999990 1.000000 -5.000010
v 15.200000 1.000000 -4.800000
v 15.200000 -1.000000 -4.800000
v 14.999990 -1.000000 -5.000010
v 4.800000 2.000000 -9.000000
v 5.000010 2.000000 -9.000000
v 5.000010 2.000000 -11.000000
v 4.800000 2.000000 -11.000000
v 15.200000 2.000000 -4.800000
v 14.999990 2.000000 -5.000010
v 14.999990 2.000000 -9.000000
v 15.200000 2.000000 -9.000000
v 5.000010 2.000000 -14.999990
v 4.800000 2.000000 -15.200000
v 9.000000 2.000000 -15.200000
v 9.000000 2.000000 -14.999990
v 11.000000 2.000000 -4.800000
v 11.000000 2.000000 -5.000010
v 11.000000 2.000000 -15.200000
v 11.000000 2.000000 -14.999990
v 14.999990 2.000000 -11.000000
v 15.200000 2.000000 -11.000000
v 14.999990 2.000000 -14.999990
v 15.200000 2.000000 -15.200000
v 4.800000 2.000000 -4.800000
v 5.000010 2.000000 -5.000010
v 9.000000 2.000000 -5.000010
v 9.000000 2.000000 -4.800000
v 8.800000 1.000000 5.200000
v 9.000010 1.000000 4.999990
v 8.800000 -1.000000 5.200000
v 9.000010 -1.000000 4.999990
v 11.000000 1.000000 4.999990
v 11.000000 1.000000 5.200000
v 11.000000 -1.000000 4.999990
v 11.000000 -1.000000 5.200000
v 14.800000 4.000000 2.800000
v 15.000010 4.000000 3.000010
v 15.000000 2.000000 2.800000
v 15.000000 2.000000 3.000010
v 15.000010 4.000000 4.999990
v 14.800000 4.000000 5.200000
v 15.000000 2.000000 4.999990
v 15.000000 2.000000 5.200000
v 23.999990 4.000000 3.000010
v 24.200001 4.000000 2.800000
v 23.999990 2.000000 3.000010
v 24.200001 2.000000 2.800000
v 24.200001 4.000000 5.200000
v 23.999990 4.000000 4.999990
v 24.200001 2.000000 5.200000
v 23.999990 2.000000 4.999990
v 14.800000 5.000000 2.800000
v 15.000010 5.000000 3.000010
v 14.800000 5.000000 5.200000
v 15.000010 5.000000 4.999990
v 23.999990 5.000000 3.000010
v 24.200001 5.000000 2.800000
v 23.999990 5.000000 4.999990
v 24.200001 5.000000 5.200000
v 8.800000 -1.000000 -23.000000
v 9.000010 -1.000000 -23.000000
v 11.200000 -1.000000 -22.799999
v 10.999990 -1.000000 -23.000010
v 8.800000 1.000000 -23.000000
v 9.000010 1.000000 -23.000000
v 11.200000 1.000000 -22.799999
v 10.999990 1.000000 -23.000010
v 8.800000 -1.000000 -25.200001
v 9.000010 -1.000000 -24.999990
v 11.000000 -1.000000 -25.200001
v 11.000000 -1.000000 -24.999990
v 9.000010 1.000000 -24.999990
v 8.800000 1.000000 -25.200001
v 11.000000 1.000000 -25.200001
v 11.000000 1.000000 -24.999990
v 19.000000 1.000000 -23.000010
v 19.000000 1.000000 -22.799999
v 19.000000 -1.000000 -23.000010
v 19.000000 -1.000000 -22.799999
v 18.799999 1.000000 -25.200001
v 19.000010 1.000000 -24.999990
v 18.799999 -1.000000 -25.200001
v 19.000010 -1.000000 -24.999990
v 21.200001 1.000000 -22.799999
v 20.999990 1.000000 -23.000010
v 21.200001 -1.000000 -22.799999
v 20.999990 -1.000000 -23.000010
v 20.999990 1.000000 -25.000000
v 21.200001 1.000000 -25.000000
v 20.999990 -1.000000 -25.000000
v 21.200001 -1.000000 -25.000000
v 18.799999 1.000000 -26.799999
v 19.000010 1.000000 -27.000010
v 18.799999 -1.000000 -27.000000
v 19.000010 -1.000000 -27.000000
v 20.999990 1.000000 -27.000010
v 21.200001 1.000000 -26.799999
v 20.999990 -1.000000 -27.000010
v 21.200001 -1.000000 -26.799999
v 18.799999 1.000000 -32.000000
v 19.000010 1.000000 -32.000000
v 18.799999 -1.000000 -32.000000
v 19.000010 -1.000000 -32.000000
v 33.000000 -2.000000 -32.000011
v 33.000000 -2.000000 -31.799999
v 19.000010 1.000000 -33.999989
v 18.799999 1.000000 -34.200001
v 19.000010 -1.000000 -33.999989
v 18.799999 -1.000000 -34.200001
v 21.000000 1.000000 -34.200001
v 21.000000 1.000000 -33.999989
v 21.000000 -1.000000 -34.200001
v 21.000000 -1.000000 -33.999989
v 26.200001 1.000000 -26.799999
v 25.999990 1.000000 -27.000010
v 26.200001 -1.000000 -26.799999
v 25.999990 -1.000000 -27.000010
v 25.999990 1.000000 -32.000011
v 26.200001 1.000000 -31.799999
v 25.999990 -1.000000 -32.000011
v 26.200001 -1.000000 -31.799999
v 26.200001 1.000000 -34.200001
v 25.999990 1.000000 -33.999989
v 26.000000 -1.000000 -34.200001
v 26.000000 -1.000000 -33.999989
v 21.000000 2.000000 -27.000010
v 21.000000 2.000000 -26.799999
v 18.799999 2.000000 -26.799999
v 19.000010 2.000000 -27.000010
v 18.799999 2.000000 -32.000000
v 19.000010 2.000000 -32.000000
v 21.000000 2.000000 -34.200001
v 21.000000 2.000000 -33.999989
v 18.799999 2.000000 -34.200001
v 19.000010 2.000000 -33.999989
v 26.200001 2.000000 -26.799999
v 25.999990 2.000000 -27.000010
v 26.200001 2.000000 -32.000000
v 25.999990 2.000000 -32.000000
v 26.200001 2.000000 -34.200001
v 25.999990 2.000000 -33.999989
v 33.000000 -4.000000 -32.000011
v 33.000000 -4.000000 -31.799999
v 33.000000 -2.000000 -34.200001
v 33.000000 -2.000000 -33.999989
v 33.000000 -4.000000 -34.200001
v 33.000000 -4.000000 -33.999989
v 35.200001 -2.000000 -31.799999
v 34.999989 -2.000000 -32.000011
v 35.200001 -4.000000 -31.799999
v 34.999989 -4.000000 -32.000011
v 34.999989 -2.000000 -33.999989
v 35.200001 -2.000000 -34.200001
v 34.999989 -4.000000 -33.999989
v 35.200001 -4.000000 -34.200001
vn -0.0000 -1.0000 -0.0000
vn -0.0000 1.0000 -0.0000
vn 0.6000 -0.8000 -0.0000
vn -0.5832 0.7582 -0.2916
vn -0.6196 0.7849 -0.0000
vn 0.5832 -0.7582 0.2916
vn -0.3910 -0.8994 0.1955
vn 0.3910 0.8994 -0.1955
vn 0.3910 0.8994 0.1955
vn -0.3939 -0.9191 -0.0000
vn 1.0000 -0.0000 -0.0000
vn -1.0000 -0.0000 -0.0000
vn -0.0000 -0.0000 -1.0000
vn -0.0000 -0.0000 1.0000
vt 0.462155 0.177022
vt 0.415068 0.019873
vt 0.417269 0.015788
vt 0.465298 0.176081
vt 0.665356 0.642363
vt 0.665356 0.806417
vt 0.662075 0.806417
vt 0.662075 0.639082
vt 0.383642 0.029287
vt 0.430729 0.186437
vt 0.426644 0.184235
vt 0.379557 0.027085
vt 0.698163 0.806417
vt 0.698163 0.642363
vt 0.701444 0.639082
vt 0.701444 0.803136
vt 0.440146 0.217866
vt 0.471573 0.208452
vt 0.475657 0.210654
vt 0.441088 0.221010
vt 0.665356 0.839227
vt 0.698163 0.839227
vt 0.698163 0.842508
vt 0.662075 0.842508
vt 0.468043 0.743848
vt 0.468043 0.783221
vt 0.464762 0.779939
vt 0.464762 0.747129
vt 0.760496 0.803136
vt 0.763777 0.806417
vt 0.760496 0.842508
vt 0.763777 0.839227
vt 0.381377 0.238897
vt 0.377292 0.236695
vt 0.370076 0.201181
vt 0.367875 0.205266
vt 0.400211 0.301757
vt 0.337358 0.320586
vt 0.333273 0.318384
vt 0.396127 0.299555
vt 0.299645 0.331883
vt 0.236792 0.350712
vt 0.238993 0.346627
vt 0.301846 0.327798
vt 0.468043 0.779935
vt 0.468043 0.747129
vt 0.471324 0.743848
vt 0.471324 0.783216
vt 0.210740 0.252337
vt 0.220158 0.283767
vt 0.217015 0.284709
vt 0.207598 0.253279
vt 0.288387 0.157150
vt 0.351241 0.138321
vt 0.349040 0.142406
vt 0.286186 0.161235
vt 0.474605 0.747129
vt 0.474605 0.779935
vt 0.471324 0.783216
vt 0.187821 0.187276
vt 0.250675 0.168447
vt 0.254759 0.170649
vt 0.191906 0.189478
vt 0.478938 0.324098
vt 0.478938 0.356909
vt 0.475657 0.356909
vt 0.475657 0.324098
vt 0.646252 0.255195
vt 0.646252 0.324098
vt 0.642971 0.324098
vt 0.642971 0.258477
vt 0.478938 0.422530
vt 0.544551 0.422530
vt 0.544551 0.425811
vt 0.475657 0.425811
vt 0.577358 0.425811
vt 0.577358 0.422530
vt 0.646252 0.356909
vt 0.642971 0.356909
vt 0.642971 0.422530
vt 0.646252 0.425811
vt 0.475657 0.255195
vt 0.544551 0.255195
vt 0.544551 0.258477
vt 0.478938 0.258477
vt 0.577358 0.255195
vt 0.577358 0.258477
vt 0.475657 0.840369
vt 0.475657 0.712407
vt 0.478938 0.712407
vt 0.478938 0.843650
vt 0.720960 0.003281
vt 0.720960 0.127962
vt 0.717679 0.131243
vt 0.717679 -0.000000
vt 0.248516 0.035514
vt 0.251659 0.034573
vt 0.214888 0.049013
vt 0.217089 0.044929
vt 0.475657 0.676315
vt 0.511745 0.676315
vt 0.511745 0.679596
vt 0.478938 0.679596
vt 0.239099 0.004085
vt 0.207672 0.013499
vt 0.206730 0.010356
vt 0.241300 0.000000
vt 0.576586 0.751774
vt 0.576586 0.718964
vt 0.579866 0.715683
vt 0.579866 0.755055
vt 0.145506 0.031920
vt 0.144564 0.028777
vt 0.576585 0.679596
vt 0.573305 0.676315
vt 0.779239 0.003281
vt 0.782520 0.000000
vt 0.154923 0.063350
vt 0.155865 0.066493
vt 0.011301 0.109799
vt -0.000000 0.072083
vt 0.004085 0.074285
vt 0.013502 0.105715
vt 0.336800 0.743848
vt 0.376173 0.743848
vt 0.372892 0.747129
vt 0.340081 0.747129
vt 0.340081 0.894759
vt 0.372892 0.894759
vt 0.376173 0.898040
vt 0.336800 0.898040
vt 0.374086 0.443163
vt 0.370943 0.444104
vt 0.335432 0.451317
vt 0.339516 0.453519
vt 0.596294 -0.000000
vt 0.503497 0.092809
vt 0.501177 0.090489
vt 0.591654 0.000001
vt 0.475657 0.505541
vt 0.579907 0.425811
vt 0.579294 0.430411
vt 0.480257 0.506154
vt 0.384445 0.477736
vt 0.349875 0.488091
vt 0.348933 0.484948
vt 0.380360 0.475534
vt 0.501177 0.141527
vt 0.475657 0.116011
vt 0.480297 0.116011
vt 0.503497 0.139207
vt 0.213808 0.491176
vt 0.212867 0.488033
vt 0.555377 0.609778
vt 0.557984 0.607785
vt 0.591654 0.231994
vt 0.596294 0.231993
vt 0.227310 0.524808
vt 0.223226 0.522606
vt 0.182382 0.500591
vt 0.191799 0.532020
vt 0.188656 0.532962
vt 0.178297 0.498389
vt 0.549245 0.655769
vt 0.575307 0.635837
vt 0.579907 0.636450
vt 0.551238 0.658375
vt 0.576585 0.715683
vt 0.576585 0.676315
vt 0.579867 0.679595
vt 0.579867 0.712402
vt 0.527782 0.676315
vt 0.523183 0.675702
vt 0.573094 0.250555
vt 0.573094 0.255195
vt 0.201217 0.563451
vt 0.197132 0.561249
vt 0.232643 0.554036
vt 0.235786 0.553095
vt 0.259330 0.631669
vt 0.256187 0.632611
vt 0.269689 0.666242
vt 0.235119 0.676598
vt 0.234177 0.673455
vt 0.265604 0.664041
vt 0.122649 0.586986
vt 0.146193 0.665561
vt 0.142108 0.663360
vt 0.118565 0.584785
vt 0.714413 0.124681
vt 0.714413 0.157492
vt 0.711132 0.160773
vt 0.711132 0.121400
vt 0.156552 0.700134
vt 0.155610 0.696991
vt 0.632381 0.003281
vt 0.599575 0.003281
vt 0.596294 -0.000000
vt 0.632381 -0.000000
vt 0.596294 0.085308
vt 0.599575 0.085308
vt 0.632381 0.121400
vt 0.596294 0.121400
vt 0.599575 0.118119
vt 0.632381 0.118119
vt 0.717679 -0.000000
vt 0.717679 0.085308
vt 0.714398 0.085308
vt 0.714398 0.003281
vt 0.717679 0.121400
vt 0.714398 0.118119
vt 0.035511 0.698919
vt 0.034570 0.695776
vt 0.412264 0.859445
vt 0.412264 0.743848
vt 0.415546 0.747129
vt 0.415546 0.859445
vt 0.376173 0.859445
vt 0.376173 0.747129
vt 0.379454 0.743848
vt 0.379454 0.859445
vt 0.044929 0.730349
vt 0.045870 0.733492
vt 0.011301 0.743848
vt -0.000000 0.706132
vt 0.004085 0.708334
vt 0.013502 0.739763
vt 0.415546 0.895532
vt 0.376173 0.895532
vt 0.379454 0.892251
vt 0.412264 0.892251
vt 0.894149 0.639082
vt 0.926959 0.639082
vt 0.926959 0.803135
vt 0.894149 0.803135
vt 0.872841 0.345654
vt 0.872841 0.178319
vt 0.905652 0.178319
vt 0.905652 0.345654
vt 0.905652 0.142227
vt 0.938463 0.142227
vt 0.938463 0.306281
vt 0.905652 0.306281
vt 0.908156 0.589865
vt 0.908156 0.425811
vt 0.940967 0.425811
vt 0.940967 0.589865
vt 0.793318 0.596428
vt 0.793318 0.629238
vt 0.760508 0.629238
vt 0.760508 0.596428
vt 0.678321 0.160773
vt 0.678321 0.121400
vt 0.711132 0.121400
vt 0.711132 0.160773
vt 0.662075 0.842508
vt 0.694886 0.842508
vt 0.694886 0.875319
vt 0.662075 0.875319
vt 0.905652 0.404713
vt 0.905652 0.368621
vt 0.938463 0.368621
vt 0.938463 0.404713
vt 0.926959 0.835946
vt 0.894149 0.835946
vt 0.872841 0.142227
vt 0.905652 0.142227
vt 0.905652 0.411276
vt 0.872841 0.411276
vt 0.872841 0.345654
vt 0.905652 0.345654
vt 0.508468 0.843650
vt 0.508468 0.902709
vt 0.475657 0.902709
vt 0.475657 0.843650
vt 0.694886 0.940941
vt 0.662075 0.940941
vt 0.938463 0.306281
vt 0.016405 0.743848
vt 0.016405 0.809470
vt 0.000000 0.809469
vt 0.000000 0.743848
vt 0.776913 0.596428
vt 0.760508 0.596428
vt 0.760508 0.527525
vt 0.776913 0.530806
vt 0.065622 0.809470
vt 0.065622 0.842280
vt 0.049216 0.842280
vt 0.049216 0.809469
vt 0.826129 0.530806
vt 0.809724 0.527525
vt 0.809724 0.494714
vt 0.826129 0.491433
vt 0.114838 0.809470
vt 0.114838 0.842280
vt 0.098432 0.842280
vt 0.098432 0.809469
vt 0.861338 0.744076
vt 0.844932 0.740795
vt 0.844932 0.707984
vt 0.861338 0.704703
vt 0.049216 0.743848
vt 0.049216 0.809470
vt 0.809724 0.530806
vt 0.809724 0.596428
vt 0.016405 0.842280
vt 0.016405 0.907902
vt 0.000000 0.907902
vt 0.000000 0.842280
vt 0.776913 0.491433
vt 0.760508 0.494714
vt 0.760508 0.425811
vt 0.776913 0.425811
vt 0.098432 0.842280
vt 0.098432 0.907902
vt 0.065622 0.907902
vt 0.826129 0.425811
vt 0.858940 0.425811
vt 0.858940 0.491433
vt 0.049216 0.907902
vt 0.809724 0.425811
vt 0.164054 0.842280
vt 0.196865 0.842280
vt 0.196865 0.907902
vt 0.164054 0.907902
vt 0.875346 0.494714
vt 0.875346 0.425811
vt 0.908156 0.425811
vt 0.908156 0.494714
vt 0.164054 0.809469
vt 0.196865 0.809469
vt 0.908156 0.527525
vt 0.875346 0.527525
vt 0.164054 0.743848
vt 0.196865 0.743848
vt 0.908156 0.596428
vt 0.875345 0.596428
vt 0.147649 0.809469
vt 0.147649 0.743848
vt 0.858940 0.596428
vt 0.858940 0.527525
vt 0.049216 0.842280
vt 0.049216 0.907902
vt 0.809724 0.491433
vt 0.147649 0.907902
vt 0.147649 0.842280
vt 0.858940 0.494714
vt 0.858940 0.425811
vt 0.114838 0.907902
vt 0.147649 0.842280
vt 0.894149 0.639082
vt 0.894149 0.704703
vt 0.861338 0.639082
vt 0.147649 0.809470
vt 0.114838 0.743848
vt 0.894149 0.744076
vt 0.894149 0.809698
vt 0.861338 0.809698
vt 0.098432 0.907902
vt 0.844932 0.639082
vt 0.098432 0.809470
vt 0.065622 0.743848
vt 0.098432 0.743848
vt 0.858940 0.530806
vt 0.858940 0.596428
vt 0.826129 0.596428
vt 0.049216 0.743848
vt 0.098432 0.743848
vt 0.844932 0.809698
vt 0.971273 0.306281
vt 0.938463 0.175038
vt 0.971273 0.175038
vt 0.877743 0.809698
vt 0.877743 0.937660
vt 0.844932 0.937660
vt 0.844932 0.809698
vt 0.880952 -0.000000
vt 0.913763 -0.000000
vt 0.913763 0.131243
vt 0.880952 0.131243
vt 0.579907 0.966316
vt 0.579907 0.841635
vt 0.612718 0.841635
vt 0.612718 0.966316
vt 0.720030 0.425811
vt 0.688060 0.418434
vt 0.695438 0.386463
vt 0.727408 0.393841
vt 0.587906 0.693987
vt 0.579907 0.658792
vt 0.611902 0.651521
vt 0.619900 0.686715
vt 0.662238 0.311455
vt 0.694208 0.318833
vt 0.613356 0.583895
vt 0.646078 0.579823
vt 0.938463 0.142227
vt 0.971273 0.142227
vt 0.877743 0.973752
vt 0.844932 0.973752
vt 0.795747 0.861646
vt 0.763776 0.869024
vt 0.796977 0.794016
vt 0.828947 0.786638
vt 0.727697 0.639082
vt 0.678481 0.580022
vt 0.711292 0.576741
vt 0.760508 0.639082
vt 0.448356 0.875091
vt 0.448356 0.907902
vt 0.415546 0.907902
vt 0.415546 0.875091
vt 0.508468 0.860055
vt 0.547841 0.860055
vt 0.547841 0.892866
vt 0.508468 0.892866
vt 0.763776 0.650148
vt 0.795747 0.642771
vt 0.678481 0.425811
vt 0.711292 0.425811
vt 0.695438 0.167588
vt 0.646252 0.307766
vt 0.679452 0.163899
vt 0.611902 0.429447
vt 0.627899 0.425811
vt 0.662075 0.576187
vt 0.727408 0.174966
vt 0.579907 0.436719
vt 0.415546 0.858685
vt 0.448356 0.858685
vt 0.547841 0.843650
vt 0.858939 0.596428
vt 0.858939 0.629238
vt 0.842534 0.629238
vt 0.842534 0.596428
vt 0.842534 0.635800
vt 0.826129 0.635800
vt 0.826129 0.596428
vt 0.842534 0.596428
vt 0.811732 0.639082
vt 0.844932 0.782949
vt 0.662075 0.580022
vt 0.662075 0.425811
vt 0.973778 0.589865
vt 0.940967 0.589865
vt 0.940967 0.458622
vt 0.973778 0.458622
vt 0.959770 0.639082
vt 0.959770 0.767044
vt 0.926959 0.767044
vt 0.959770 0.639082
vt 0.992581 0.639082
vt 0.992581 0.770325
vt 0.959770 0.770325
vt 0.926959 0.967189
vt 0.926959 0.839227
vt 0.959770 0.839227
vt 0.959770 0.967189
vt 0.946574 0.131243
vt 0.913763 0.131243
vt 0.913763 0.000000
vt 0.946574 0.000000
vt 0.645528 0.841635
vt 0.645528 0.966316
vt 0.959770 0.803136
vt 0.992581 0.803136
vt 0.992581 0.835946
vt 0.959770 0.835946
vt 0.894149 1.000000
vt 0.894149 0.963908
vt 0.926959 0.963908
vt 0.926959 1.000000
vt 0.992581 0.803136
vt 0.959770 0.803136
vt 0.926959 0.803136
vt 0.992581 0.967189
vt 0.894149 0.835946
vt 0.926959 0.835946
vt 0.727697 0.908130
vt 0.694886 0.908130
vt 0.694886 0.875319
vt 0.727697 0.875319
vt 0.760508 0.842508
vt 0.760508 0.878600
vt 0.727697 0.878600
vt 0.727697 0.842508
vt 0.973778 0.425811
vt 0.959770 0.803136
vt 0.926959 0.803136
vt 0.840759 0.145664
vt 0.833884 0.177747
vt 0.817843 0.174309
vt 0.824717 0.142227
vt 0.759510 0.145618
vt 0.775562 0.142227
vt 0.783022 0.177539
vt 0.766971 0.180931
vt 0.694886 0.842508
vt 0.727697 0.842508
vt 0.760508 0.908130
vt 0.727697 0.908130
vt 0.262486 0.743848
vt 0.295297 0.743848
vt 0.295297 0.776659
vt 0.262486 0.776659
vt 0.213270 0.891497
vt 0.213270 0.865248
vt 0.246081 0.861967
vt 0.246081 0.891497
vt 0.848141 0.000000
vt 0.848141 0.032810
vt 0.831736 0.032811
vt 0.831736 0.000000
vt 0.612699 0.242800
vt 0.596294 0.242800
vt 0.596294 0.206708
vt 0.612699 0.203427
vt 0.295297 0.858686
vt 0.262486 0.858686
vt 0.213270 0.779940
vt 0.246081 0.779940
vt 0.872841 0.152539
vt 0.865966 0.184622
vt 0.734869 0.187713
vt 0.727408 0.152400
vt 0.295297 0.891497
vt 0.262486 0.891497
vt 0.213270 0.743848
vt 0.246081 0.743848
vt 0.431951 0.743848
vt 0.431951 0.825875
vt 0.415546 0.825875
vt 0.415546 0.743848
vt 0.798925 0.121400
vt 0.782520 0.121400
vt 0.782520 0.036092
vt 0.798925 0.039373
vt 0.880952 0.114837
vt 0.848141 0.114837
vt 0.880952 0.032810
vt 0.645510 0.121400
vt 0.645510 0.203427
vt 0.612699 0.121400
vt 0.305673 0.754224
vt 0.336800 0.743848
vt 0.326424 0.868356
vt 0.295297 0.878732
vt 0.629123 0.841635
vt 0.579907 0.730079
vt 0.612718 0.730079
vt 0.661934 0.841635
vt 0.464762 0.825875
vt 0.464762 0.743848
vt 0.831736 0.039373
vt 0.831736 0.121400
vt 0.431951 0.858685
vt 0.782520 -0.000000
vt 0.798925 -0.000000
vt 0.848779 0.264828
vt 0.816697 0.257953
vt 0.784604 0.264396
vt 0.751824 0.267968
vt 0.831736 0.114837
vt 0.596294 0.121400
vt 0.246081 0.858686
vt 0.246081 0.776659
vt 0.196865 0.865248
vt 0.196865 0.779940
vt 0.800656 0.254515
vt 0.800656 0.261005
vt 0.196865 0.743848
vt 0.872841 0.387429
vt 0.840759 0.380554
vt 0.759510 0.383717
vt 0.727408 0.390499
vt 0.793318 0.629238
vt 0.793318 0.596428
vt 0.826129 0.629238
vt 0.678321 0.121400
vt 0.678321 0.160773
vt 0.645510 0.160773
vt 0.645510 0.121400
vt 0.336800 0.899483
vt 0.305673 0.909859
vt 0.579907 0.693987
vt 0.612718 0.693987
vt 0.865966 0.419511
vt 0.833884 0.412636
vt 0.766971 0.419029
vt 0.734869 0.425811
s 0
f 5/1/1 1/2/1 2/3/1 6/4/1
f 4/5/2 7/6/2 8/7/2 3/8/2
f 9/9/1 13/10/1 14/11/1 10/12/1
f 15/13/2 11/14/2 12/15/2 16/16/2
f 1/2/1 9/9/1 10/12/1 2/3/1
f 11/14/2 4/5/2 3/8/2 12/15/2
f 21/17/1 19/18/1 20/19/1 22/20/1
f 17/21/2 23/22/2 24/23/2 18/24/2
f 18/24/2 8/7/2 7/6/2 17/21/2
f 19/18/1 5/1/1 6/4/1 20/19/1
f 26/25/1 29/26/1 30/27/1 25/28/1
f 16/16/2 26/29/2 25/30/2 15/13/2
f 29/31/2 24/23/2 23/22/2 30/32/2
f 22/20/1 31/33/1 32/34/1 21/17/1
f 28/35/1 14/11/1 13/10/1 27/36/1
f 40/37/1 43/38/1 44/39/1 39/40/1
f 39/40/1 32/34/1 31/33/1 40/37/1
f 51/41/1 63/42/1 64/43/1 52/44/1
f 50/45/1 42/46/1 41/47/1 49/48/1
f 55/49/1 59/50/1 60/51/1 56/52/1
f 59/50/1 64/43/1 63/42/1 60/51/1
f 72/53/1 67/54/1 68/55/1 71/56/1
f 69/57/1 74/58/1 73/59/1 70/47/1
f 79/60/1 75/61/1 76/62/1 80/63/1
f 80/63/1 55/49/1 56/52/1 79/60/1
f 67/54/1 28/35/1 27/36/1 68/55/1
f 82/64/2 83/65/2 84/66/2 81/67/2
f 85/68/2 88/69/2 87/70/2 86/71/2
f 89/72/2 92/73/2 91/74/2 90/75/2
f 90/75/2 84/66/2 83/65/2 89/72/2
f 95/76/2 91/74/2 92/73/2 96/77/2
f 88/69/2 98/78/2 97/79/2 87/70/2
f 99/80/2 97/79/2 98/78/2 100/81/2
f 100/81/2 95/76/2 96/77/2 99/80/2
f 101/82/2 104/83/2 103/84/2 102/85/2
f 104/83/2 93/86/2 94/87/2 103/84/2
f 93/86/2 85/68/2 86/71/2 94/87/2
f 81/67/2 101/82/2 102/85/2 82/64/2
f 70/88/2 48/89/2 47/90/2 69/91/2
f 35/92/2 73/93/2 74/94/2 36/95/2
f 71/56/1 45/96/1 46/97/1 72/53/1
f 75/61/1 33/98/1 34/99/1 76/62/1
f 105/100/2 110/101/2 109/102/2 106/103/2
f 108/104/1 111/105/1 112/106/1 107/107/1
f 107/107/1 46/97/1 45/96/1 108/104/1
f 48/89/2 105/100/2 106/103/2 47/90/2
f 114/108/1 117/109/1 118/110/1 113/111/1
f 111/105/3 119/112/3 120/113/3 112/106/3
f 117/114/4 109/102/4 110/101/4 118/115/4
f 113/116/5 35/92/5 36/95/5 114/117/5
f 116/118/6 34/99/6 33/98/6 115/119/6
f 124/120/1 127/121/1 128/122/1 123/123/1
f 115/119/1 124/120/1 123/123/1 116/118/1
f 127/121/1 120/113/1 119/112/1 128/122/1
f 129/124/2 131/125/2 132/126/2 130/127/2
f 133/128/2 135/129/2 136/130/2 134/131/2
f 130/127/2 133/128/2 134/131/2 129/124/2
f 131/125/2 136/130/2 135/129/2 132/126/2
f 43/38/1 137/132/1 138/133/1 44/39/1
f 139/134/1 51/41/1 52/44/1 140/135/1
f 42/136/2 142/137/2 141/138/2 41/139/2
f 144/140/2 50/141/2 49/142/2 143/143/2
f 145/144/1 147/145/1 148/146/1 146/147/1
f 151/148/2 150/149/2 149/150/2 152/151/2
f 137/132/1 145/144/1 146/147/1 138/133/1
f 150/149/2 141/138/2 142/137/2 149/150/2
f 140/135/1 155/152/1 156/153/1 139/134/1
f 153/154/2 144/140/2 143/143/2 154/155/2
f 157/156/2 151/148/2 152/151/2 158/157/2
f 147/145/1 159/158/1 160/159/1 148/146/1
f 164/160/1 167/161/1 168/162/1 163/163/1
f 165/164/2 162/165/2 161/166/2 166/167/2
f 163/163/1 156/153/1 155/152/1 164/160/1
f 162/165/2 153/154/2 154/155/2 161/166/2
f 174/168/1 169/169/1 170/170/1 173/171/1
f 166/167/2 174/172/2 173/173/2 165/164/2
f 169/174/2 157/156/2 158/157/2 170/175/2
f 167/161/1 175/176/1 176/177/1 168/162/1
f 172/178/1 160/159/1 159/158/1 171/179/1
f 171/179/1 179/180/1 180/181/1 172/178/1
f 186/182/1 189/183/1 190/184/1 185/185/1
f 179/180/1 186/182/1 185/185/1 180/181/1
f 194/186/1 197/187/1 198/188/1 193/189/1
f 195/190/1 200/191/1 199/192/1 196/193/1
f 193/189/1 176/177/1 175/176/1 194/186/1
f 189/183/1 201/194/1 202/195/1 190/184/1
f 203/196/2 206/197/2 205/198/2 204/199/2
f 207/200/2 205/198/2 206/197/2 208/201/2
f 209/202/2 211/203/2 212/204/2 210/205/2
f 208/201/2 212/204/2 211/203/2 207/200/2
f 213/206/2 215/207/2 216/208/2 214/209/2
f 215/207/2 217/210/2 218/211/2 216/208/2
f 217/210/2 209/202/2 210/205/2 218/211/2
f 214/209/2 203/196/2 204/199/2 213/206/2
f 197/187/7 219/212/7 220/213/7 198/188/7
f 181/214/8 195/215/8 196/216/8 182/217/8
f 221/218/9 199/219/9 200/220/9 222/221/9
f 224/222/10 202/195/10 201/194/10 223/223/10
f 232/224/1 227/225/1 228/226/1 231/227/1
f 225/228/2 230/229/2 229/230/2 226/231/2
f 223/223/1 232/224/1 231/227/1 224/222/1
f 227/225/1 220/213/1 219/212/1 228/226/1
f 226/231/2 181/214/2 182/217/2 225/228/2
f 230/229/2 221/218/2 222/221/2 229/230/2
f 4/232/11 1/233/11 5/234/11 7/235/11
f 3/236/12 8/237/12 6/238/12 2/239/12
f 15/240/12 13/241/12 9/242/12 11/243/12
f 16/244/11 12/245/11 10/246/11 14/247/11
f 11/248/13 9/249/13 1/250/13 4/251/13
f 12/252/14 3/253/14 2/254/14 10/255/14
f 17/256/14 19/257/14 21/258/14 23/259/14
f 18/260/13 24/261/13 22/262/13 20/263/13
f 7/235/11 5/234/11 19/264/11 17/265/11
f 8/237/12 18/266/12 20/267/12 6/238/12
f 13/268/13 15/269/13 25/270/13 27/271/13
f 14/272/14 28/273/14 26/274/14 16/275/14
f 23/259/14 21/258/14 32/276/14 30/277/14
f 24/261/13 29/243/13 31/278/13 22/262/13
f 37/279/14 42/280/14 92/281/14 89/282/14
f 38/283/13 90/284/13 91/285/13 41/286/13
f 25/287/11 30/288/11 83/289/11 82/290/11
f 26/291/12 81/292/12 84/293/12 29/294/12
f 74/295/13 69/296/13 103/297/13 94/298/13
f 73/299/14 93/300/14 104/301/14 70/302/14
f 37/279/14 39/303/14 44/304/14 42/280/14
f 38/283/13 41/286/13 43/305/13 40/306/13
f 50/307/14 61/308/14 99/309/14 96/310/14
f 49/311/13 95/312/13 100/313/13 62/314/13
f 30/288/11 32/315/11 39/316/11 37/317/11
f 29/294/12 38/318/12 40/319/12 31/320/12
f 30/288/11 37/317/11 89/321/11 83/289/11
f 29/294/12 84/293/12 90/322/12 38/318/12
f 53/323/12 55/324/12 80/325/12 77/326/12
f 54/327/11 78/328/11 79/329/11 56/330/11
f 55/324/12 53/323/12 57/331/12 59/332/12
f 56/330/11 60/333/11 58/334/11 54/327/11
f 59/332/12 57/331/12 61/335/12 64/336/12
f 60/333/11 63/337/11 62/338/11 58/334/11
f 61/335/12 57/331/12 97/339/12 99/340/12
f 62/338/11 100/341/11 98/342/11 58/334/11
f 50/307/14 52/343/14 64/344/14 61/308/14
f 49/311/13 62/314/13 63/322/13 51/345/13
f 53/323/12 77/326/12 86/346/12 87/347/12
f 54/327/11 88/348/11 85/349/11 78/328/11
f 57/331/12 53/323/12 87/347/12 97/339/12
f 58/334/11 98/342/11 88/348/11 54/327/11
f 68/346/13 66/350/13 69/296/13 71/351/13
f 67/352/14 72/353/14 70/302/14 65/354/14
f 76/355/13 74/295/13 77/356/13 80/340/13
f 75/357/14 79/358/14 78/359/14 73/299/14
f 69/296/13 66/350/13 102/360/13 103/297/13
f 70/302/14 104/301/14 101/361/14 65/354/14
f 27/362/11 25/287/11 66/363/11 68/364/11
f 28/365/12 67/366/12 65/367/12 26/291/12
f 66/363/11 25/287/11 82/290/11 102/368/11
f 65/367/12 101/306/12 81/292/12 26/291/12
f 42/280/14 50/307/14 96/310/14 92/281/14
f 41/286/13 91/285/13 95/312/13 49/311/13
f 77/356/13 74/295/13 94/298/13 86/369/13
f 78/359/14 85/370/14 93/300/14 73/299/14
f 71/371/11 69/242/11 47/372/11 45/373/11
f 72/374/12 46/375/12 48/376/12 70/377/12
f 74/378/12 76/379/12 34/380/12 36/381/12
f 73/382/11 35/383/11 33/384/11 75/385/11
f 108/386/13 106/387/13 109/388/13 111/389/13
f 107/390/14 112/391/14 110/392/14 105/393/14
f 111/389/13 109/388/13 117/394/13 119/395/13
f 112/391/14 120/396/14 118/397/14 110/392/14
f 45/373/11 47/372/11 106/398/11 108/399/11
f 46/375/12 107/400/12 105/401/12 48/376/12
f 36/402/14 34/403/14 116/404/14 114/405/14
f 35/406/13 113/407/13 115/408/13 33/409/13
f 121/410/12 123/411/12 128/412/12 126/413/12
f 122/414/11 125/415/11 127/416/11 124/417/11
f 114/405/14 116/404/14 123/418/14 121/419/14
f 113/407/13 122/420/13 124/421/13 115/408/13
f 126/422/13 117/394/13 132/423/13 135/424/13
f 125/425/14 136/426/14 131/427/14 118/397/14
f 119/395/13 117/394/13 126/422/13 128/428/13
f 120/396/14 127/429/14 125/425/14 118/397/14
f 121/410/12 126/413/12 135/430/12 133/431/12
f 122/414/11 134/272/11 136/432/11 125/415/11
f 117/433/11 114/434/11 130/435/11 132/436/11
f 118/437/12 131/438/12 129/439/12 113/440/12
f 114/405/14 121/419/14 133/441/14 130/442/14
f 113/407/13 129/443/13 134/444/13 122/420/13
f 140/445/13 144/446/13 153/447/13 155/448/13
f 139/449/14 156/450/14 154/451/14 143/233/14
f 42/452/11 44/453/11 138/454/11 142/455/11
f 41/456/12 141/457/12 137/458/12 43/459/12
f 52/460/12 50/461/12 144/462/12 140/463/12
f 51/464/11 139/465/11 143/385/11 49/384/11
f 149/466/14 146/467/14 148/468/14 152/469/14
f 150/470/13 151/471/13 147/472/13 145/473/13
f 142/455/11 138/454/11 146/474/11 149/475/11
f 141/457/12 150/476/12 145/466/12 137/458/12
f 152/469/14 148/468/14 160/477/14 158/459/14
f 151/471/13 157/478/13 159/479/13 147/472/13
f 164/480/12 162/481/12 165/482/12 167/483/12
f 163/484/11 168/485/11 166/486/11 161/487/11
f 155/448/13 153/447/13 162/246/13 164/488/13
f 156/450/14 163/489/14 161/490/14 154/451/14
f 183/491/14 188/492/14 210/493/14 212/494/14
f 184/495/13 211/496/13 209/497/13 187/498/13
f 167/483/12 165/482/12 173/499/12 175/500/12
f 168/485/11 176/501/11 174/502/11 166/486/11
f 158/503/11 160/504/11 172/505/11 170/506/11
f 157/507/12 169/508/12 171/509/12 159/510/12
f 200/511/12 195/512/12 216/513/12 218/514/12
f 199/515/11 217/516/11 215/517/11 196/518/11
f 170/506/11 172/505/11 180/519/11 178/520/11
f 169/508/12 177/521/12 179/522/12 171/509/12
f 183/491/14 185/523/14 190/524/14 188/492/14
f 184/495/13 187/498/13 189/525/13 186/526/13
f 178/520/11 180/519/11 185/527/11 183/528/11
f 177/521/12 184/529/12 186/530/12 179/522/12
f 192/531/13 173/532/13 203/533/13 214/534/13
f 191/535/14 213/536/14 204/537/14 174/538/14
f 194/539/12 192/540/12 195/512/12 197/541/12
f 193/542/11 198/543/11 196/518/11 191/544/11
f 197/545/13 195/546/13 181/547/13 219/548/13
f 198/549/14 220/550/14 182/551/14 196/552/14
f 175/553/13 173/532/13 192/531/13 194/554/13
f 176/555/14 193/556/14 191/535/14 174/538/14
f 173/532/13 170/557/13 206/430/13 203/533/13
f 174/538/14 204/537/14 205/558/14 169/559/14
f 188/492/14 190/524/14 202/560/14 200/561/14
f 187/498/13 199/562/13 201/563/13 189/525/13
f 195/512/12 192/540/12 214/564/12 216/513/12
f 196/518/11 215/517/11 213/565/11 191/544/11
f 170/506/11 178/520/11 208/566/11 206/567/11
f 169/508/12 205/568/12 207/569/12 177/521/12
f 188/492/14 200/561/14 218/570/14 210/493/14
f 187/498/13 209/497/13 217/571/13 199/562/13
f 178/520/11 183/528/11 212/510/11 208/566/11
f 177/521/12 207/569/12 211/572/12 184/529/12
f 200/561/14 202/560/14 224/573/14 222/574/14
f 199/562/13 221/575/13 223/576/13 201/563/13
f 228/577/12 226/578/12 229/439/12 231/579/12
f 227/580/11 232/581/11 230/582/11 225/583/11
f 219/548/13 181/547/13 226/584/13 228/585/13
f 220/550/14 227/586/14 225/587/14 182/551/14
f 222/574/14 224/573/14 231/588/14 229/589/14
f 221/575/13 230/590/13 232/591/13 223/576/13
