# Blender 4.5.1 LTS
# www.blender.org
o Floor
v -1.000000 -1.200000 1.000000
v -1.000000 -0.999990 1.000000
v -1.000000 -1.200000 -9.000000
v -1.000000 -0.999990 -9.000000
v 1.000000 -1.200000 1.000000
v 1.000000 -0.999990 1.000000
v 1.000000 -0.999990 -9.000000
v 1.000000 -1.200000 -9.000000
v -1.000000 -1.200000 -11.000000
v -1.000000 -0.999990 -11.000000
v 1.000000 -1.200000 -11.000000
v 1.000000 -0.999990 -11.000000
v 8.000000 -0.999990 -9.000000
v 8.000000 -1.200000 -9.000000
v 8.000000 -0.999990 -11.000000
v 8.000000 -1.200000 -11.000000
v 34.000000 -7.200000 -11.000000
v 34.000000 -6.999990 -11.000000
v 13.000000 -1.200000 -9.000000
v 13.000000 -0.999990 -9.000000
v 34.000000 -7.200000 -9.000000
v 34.000000 -6.999990 -9.000000
v 13.000000 -1.200000 -11.000000
v 13.000000 -0.999990 -11.000000
v 13.000000 -6.999990 -11.000000
v 13.000000 -7.200000 -11.000000
v 34.000000 -0.999990 -9.000000
v 34.000000 -1.200000 -9.000000
v 13.000000 -6.999990 -9.000000
v 13.000000 -7.200000 -9.000000
v 34.000000 -0.999990 -11.000000
v 34.000000 -1.200000 -11.000000
v 39.000000 -1.200000 -9.000000
v 39.000000 -0.999990 -9.000000
v 39.000000 -0.999990 -11.000000
v 39.000000 -1.200000 -11.000000
v 48.000000 -1.200000 -9.000000
v 48.000000 -0.999990 -9.000000
v 48.000000 -1.200000 -11.000000
v 48.000000 -0.999990 -11.000000
v 50.000000 -1.200000 -9.000000
v 50.000000 -0.999990 -9.000000
v 50.000000 -1.200000 -11.000000
v 50.000000 -0.999990 -11.000000
v 48.000000 -1.200000 0.000000
v 48.000000 -0.999990 0.000000
v 50.000000 -1.200000 0.000000
v 50.000000 -0.999990 0.000000
v 48.000000 -1.200000 7.000000
v 48.000000 -0.999990 7.000000
v 50.000000 -1.200000 7.000000
v 50.000000 -0.999990 7.000000
v 48.000000 -0.999990 9.000000
v 48.000000 -1.200000 9.000000
v 50.000000 -1.200000 9.000000
v 50.000000 -0.999990 9.000000
v 48.000000 -1.200000 19.000000
v 48.000000 -0.999990 19.000000
v 50.000000 -0.999990 19.000000
v 50.000000 -1.200000 19.000000
v 48.000000 -0.999990 23.000002
v 48.000000 -1.200000 22.963734
v 50.000000 -0.999990 23.000002
v 50.000000 -1.200000 22.963734
v 47.963734 -4.200000 30.963734
v 48.000000 -3.999990 31.000002
v 49.963734 -4.200000 30.963734
v 50.000000 -3.999990 31.000002
v 48.000000 -3.999990 33.000000
v 47.963734 -4.200000 33.000000
v 50.000000 -3.999990 33.000000
v 49.963734 -4.200000 33.000000
v 58.000000 -6.999990 31.000000
v 57.963734 -7.200000 31.000000
v 58.000000 -6.999990 33.000000
v 57.963734 -7.200000 33.000000
v 68.000000 -6.999990 31.000000
v 68.000000 -7.200000 31.000000
v 68.000000 -6.999990 33.000000
v 68.000000 -7.200000 33.000000
v 58.000000 -6.999990 39.000000
v 58.000000 -7.200000 39.000000
v 68.000000 -6.999990 39.000000
v 68.000000 -7.200000 39.000000
v 39.963734 -1.200000 31.000000
v 40.000000 -0.999990 31.000000
v 39.963734 -1.200000 33.000000
v 40.000000 -0.999990 33.000000
v 28.000000 -1.200000 31.000000
v 28.000000 -0.999990 31.000000
v 28.000000 -1.200000 33.000000
v 28.000000 -0.999990 33.000000
v 22.000000 -0.999990 31.000000
v 22.000000 -1.200000 31.000000
v 22.000000 -0.999990 33.000000
v 22.000000 -1.200000 33.000000
v 40.000000 -0.999990 25.000000
v 40.000000 -1.200000 25.000000
v 28.000000 -0.999990 25.000000
v 28.000000 -1.200000 25.000000
v 40.000000 -0.999990 35.000000
v 40.000000 -1.200000 35.000000
v 28.000000 -0.999990 35.000000
v 28.000000 -1.200000 35.000000
v 46.000000 -0.999990 0.000000
v 46.000000 -1.200000 0.000000
v 46.000000 -1.200000 7.000000
v 46.000000 -0.999990 7.000000
v 46.000000 -0.999990 9.000000
v 46.000000 -1.200000 9.000000
v 46.000000 -0.999990 19.000000
v 46.000000 -1.200000 19.000000
v 52.000000 -1.200000 0.000000
v 52.000000 -0.999990 0.000000
v 52.000000 -1.200000 7.000000
v 52.000000 -0.999990 7.000000
v 52.000000 -1.200000 9.000000
v 52.000000 -0.999990 9.000000
v 52.000000 -0.999990 19.000000
v 52.000000 -1.200000 19.000000
v 8.000000 -0.999990 -20.000000
v 8.000000 -1.200000 -20.000000
v 13.000000 -0.999990 -20.000000
v 13.000000 -1.200000 -20.000000
v 34.000000 -0.999990 -20.000000
v 34.000000 -1.200000 -20.000000
v 39.000000 -0.999990 -20.000000
v 39.000000 -1.200000 -20.000000
v 8.000000 -1.200000 0.000000
v 8.000000 -0.999990 0.000000
v 13.000000 -1.200000 0.000000
v 13.000000 -0.999990 0.000000
v 34.000000 -1.200000 0.000000
v 34.000000 -0.999990 0.000000
v 39.000000 -1.200000 0.000000
v 39.000000 -0.999990 0.000000
v 13.000000 -6.999990 -20.000000
v 13.000000 -7.200000 -20.000000
v 34.000000 -6.999990 -20.000000
v 34.000000 -7.200000 -20.000000
v 34.000000 -6.999990 0.000000
v 34.000000 -7.200000 0.000000
v 13.000000 -6.999990 0.000000
v 13.000000 -7.200000 0.000000
vn -1.0000 -0.0000 -0.0000
vn 1.0000 -0.0000 -0.0000
vn -0.0000 -0.0000 1.0000
vn -0.0000 -0.0000 -1.0000
vn 0.9959 -0.0849 -0.0296
vn -0.9959 0.0849 0.0296
vn 0.0338 0.0842 -0.9959
vn -0.9959 0.0903 0.0030
vn 0.0296 0.0849 -0.9959
vn 0.9959 -0.0903 0.0030
vn 0.9959 -0.0903 -0.0090
vn -0.0000 1.0000 -0.0000
vn -0.0000 -1.0000 -0.0000
vn -0.0000 0.9363 0.3511
vn -0.0000 -0.9363 -0.3511
vn 0.3511 0.9363 -0.0000
vn -0.3511 -0.9363 -0.0000
vt 0.801201 0.619742
vt 0.801201 0.726640
vt 0.799063 0.726640
vt 0.799063 0.619742
vt 0.809753 0.705260
vt 0.809753 0.598362
vt 0.811891 0.598362
vt 0.811891 0.705260
vt 0.856807 0.598362
vt 0.856807 0.619742
vt 0.854669 0.619742
vt 0.854669 0.598362
vt 0.820443 0.619742
vt 0.820443 0.598362
vt 0.822581 0.598362
vt 0.822581 0.619742
vt 0.801201 0.598362
vt 0.799063 0.598362
vt 0.822581 0.694570
vt 0.820443 0.694570
vt 0.831137 0.673191
vt 0.831137 0.598362
vt 0.833275 0.598362
vt 0.833275 0.673191
vt 0.822581 0.694571
vt 0.822581 0.598362
vt 0.824718 0.598362
vt 0.824718 0.694570
vt 0.788373 0.715950
vt 0.788373 0.694570
vt 0.790511 0.694570
vt 0.790511 0.715950
vt 0.784097 0.715950
vt 0.784097 0.694570
vt 0.786235 0.694571
vt 0.786235 0.715950
vt 0.814029 0.598362
vt 0.814029 0.694571
vt 0.811891 0.694571
vt 0.811891 0.598362
vt 0.805477 0.598362
vt 0.805477 0.694570
vt 0.803339 0.694570
vt 0.803339 0.598362
vt 0.805477 0.619742
vt 0.805477 0.598362
vt 0.807615 0.598362
vt 0.807615 0.619742
vt 0.805477 0.715949
vt 0.803339 0.715949
vt 0.805477 0.715950
vt 0.807615 0.715950
vt 0.816167 0.694570
vt 0.816167 0.598362
vt 0.818305 0.598362
vt 0.818305 0.694570
vt 0.867497 0.598362
vt 0.867497 0.619742
vt 0.865359 0.619742
vt 0.865359 0.598362
vt 0.858945 0.619742
vt 0.858945 0.598362
vt 0.861083 0.598362
vt 0.861083 0.619742
vt 0.777653 0.639981
vt 0.767347 0.598882
vt 0.769420 0.598362
vt 0.779821 0.639837
vt 0.754872 0.639837
vt 0.765273 0.598362
vt 0.767347 0.598882
vt 0.757040 0.639981
vt 0.769520 0.730588
vt 0.767347 0.730732
vt 0.765175 0.730588
vt 0.767347 0.730732
vt 0.746569 0.709967
vt 0.752713 0.689489
vt 0.754872 0.689732
vt 0.748728 0.710210
vt 0.754872 0.801337
vt 0.752713 0.801094
vt 0.726824 0.687991
vt 0.744392 0.598362
vt 0.746569 0.598394
vt 0.728997 0.688021
vt 0.831137 0.598362
vt 0.831137 0.619742
vt 0.828999 0.619742
vt 0.828999 0.598362
vt 0.746569 0.793464
vt 0.744460 0.793816
vt 0.807615 0.705260
vt 0.807615 0.598362
vt 0.809753 0.598362
vt 0.809753 0.705260
vt 0.831137 0.683881
vt 0.828999 0.683881
vt 0.835419 0.662502
vt 0.835418 0.598363
vt 0.837559 0.598362
vt 0.837557 0.662502
vt 0.746569 0.598362
vt 0.748728 0.598605
vt 0.828994 0.598362
vt 0.828999 0.689696
vt 0.826856 0.690084
vt 0.826856 0.598750
vt 0.863221 0.619742
vt 0.863221 0.598362
vt 0.865359 0.598362
vt 0.865359 0.619742
vt 0.839698 0.598362
vt 0.839698 0.662501
vt 0.837560 0.662501
vt 0.837560 0.598362
vt 0.843974 0.598362
vt 0.843974 0.662501
vt 0.841836 0.662501
vt 0.841836 0.598362
vt 0.803339 0.598362
vt 0.803339 0.726639
vt 0.801201 0.726639
vt 0.801201 0.598363
vt 0.839698 0.662501
vt 0.839698 0.598362
vt 0.841836 0.598362
vt 0.841836 0.662501
vt 0.835418 0.598362
vt 0.835418 0.662501
vt 0.833275 0.662500
vt 0.833280 0.598362
vt 0.796925 0.726640
vt 0.796925 0.598362
vt 0.799063 0.598362
vt 0.799063 0.726640
vt 0.861083 0.619742
vt 0.861083 0.598362
vt 0.852530 0.619743
vt 0.852526 0.598362
vt 0.854669 0.598363
vt 0.854668 0.619743
vt 0.792649 0.673191
vt 0.792649 0.598362
vt 0.794787 0.598362
vt 0.794787 0.673191
vt 0.792649 0.694570
vt 0.794787 0.694571
vt 0.792649 0.801468
vt 0.794787 0.801468
vt 0.794787 0.673191
vt 0.794787 0.598362
vt 0.796925 0.598362
vt 0.796925 0.673191
vt 0.794787 0.694570
vt 0.796925 0.694570
vt 0.796925 0.801468
vt 0.794787 0.801468
vt 0.869635 0.598362
vt 0.869635 0.619742
vt 0.867497 0.619742
vt 0.867497 0.598362
vt 0.850388 0.598362
vt 0.850388 0.651811
vt 0.848250 0.651811
vt 0.848250 0.598362
vt 0.852526 0.651811
vt 0.850388 0.651811
vt 0.850388 0.598362
vt 0.784097 0.598362
vt 0.786235 0.598362
vt 0.826856 0.598362
vt 0.826856 0.694570
vt 0.824718 0.694570
vt 0.824718 0.598362
vt 0.788373 0.598362
vt 0.790511 0.598362
vt 0.820443 0.598362
vt 0.820443 0.694570
vt 0.818305 0.694570
vt 0.818305 0.598362
vt 0.846112 0.598362
vt 0.846112 0.651811
vt 0.843974 0.651811
vt 0.848250 0.598362
vt 0.848250 0.651811
vt 0.846112 0.651811
vt 0.816167 0.598362
vt 0.816167 0.694570
vt 0.814029 0.694570
vt 0.814029 0.598362
vt 0.790511 0.812158
vt 0.788373 0.812158
vt 0.786235 0.812158
vt 0.784097 0.812158
vt 0.786235 0.715950
vt 0.786235 0.694570
vt 0.788373 0.694571
vt 0.788373 0.715950
vt 0.790511 0.715950
vt 0.790511 0.694570
vt 0.792649 0.694570
vt 0.792649 0.715950
vt 0.784097 0.598362
vt 0.784097 0.822846
vt 0.781959 0.822846
vt 0.781959 0.598363
vt 0.790511 0.598362
vt 0.792649 0.598362
vt 0.786235 0.598362
vt 0.788373 0.598362
vt 0.779821 0.822848
vt 0.779821 0.598362
vt 0.781959 0.598362
vt 0.781959 0.822848
vt 0.788373 0.812158
vt 0.786235 0.812158
vt 0.792649 0.812158
vt 0.790511 0.812158
vt 0.555822 0.715970
vt 0.577197 0.715975
vt 0.577197 0.822867
vt 0.555822 0.822863
vt 0.598573 0.715970
vt 0.598573 0.822863
vt 0.577197 0.822867
vt 0.555822 0.694592
vt 0.577197 0.694596
vt 0.598573 0.694592
vt 0.481009 0.715955
vt 0.481009 0.694577
vt 0.673386 0.694577
vt 0.673386 0.715955
vt 0.427570 0.715944
vt 0.481009 0.812158
vt 0.427570 0.812148
vt 0.726824 0.715944
vt 0.726824 0.812148
vt 0.673386 0.812158
vt 0.427570 0.694566
vt 0.726824 0.694566
vt 0.432797 0.102484
vt 0.379838 0.095343
vt 0.392674 -0.000000
vt 0.445633 0.007140
vt 0.567203 0.102484
vt 0.554367 0.007140
vt 0.607326 -0.000000
vt 0.620162 0.095343
vt 0.429945 0.123671
vt 0.376986 0.116531
vt 0.623014 0.116531
vt 0.570055 0.123671
vt 0.284512 0.082490
vt 0.281660 0.103678
vt 0.260476 0.100822
vt 0.263329 0.079634
vt 0.715488 0.082490
vt 0.736671 0.079634
vt 0.739524 0.100822
vt 0.718340 0.103678
vt 0.268824 0.199021
vt 0.247641 0.196165
vt 0.752359 0.196165
vt 0.731175 0.199021
vt 0.258841 0.273177
vt 0.237658 0.270321
vt 0.762342 0.270321
vt 0.741159 0.273177
vt 0.234805 0.291508
vt 0.255989 0.294364
vt 0.241727 0.400301
vt 0.220544 0.397445
vt 0.765195 0.291508
vt 0.779456 0.397445
vt 0.758273 0.400301
vt 0.744011 0.294364
vt 0.290008 0.201877
vt 0.280025 0.276033
vt 0.719975 0.276033
vt 0.709992 0.201877
vt 0.199360 0.394589
vt 0.213622 0.288652
vt 0.786378 0.288652
vt 0.800640 0.394589
vt 0.214839 0.439820
vt 0.236023 0.442676
vt 0.223929 0.527660
vt 0.202746 0.524803
vt 0.785109 0.439436
vt 0.796818 0.524471
vt 0.775635 0.527327
vt 0.763925 0.442292
vt 0.221077 0.548847
vt 0.199893 0.545991
vt 0.799722 0.546043
vt 0.778539 0.548899
vt 0.309348 0.538850
vt 0.306495 0.560038
vt 0.693120 0.560089
vt 0.690268 0.538902
vt 0.117327 0.513613
vt 0.114475 0.534800
vt 0.008557 0.520519
vt 0.011409 0.499332
vt 0.882289 0.513665
vt 0.988591 0.499332
vt 0.991443 0.520519
vt 0.885141 0.534852
vt 0.105918 0.598362
vt -0.000000 0.584081
vt 1.000000 0.584081
vt 0.894082 0.598362
vt 0.436449 0.555987
vt 0.433597 0.577175
vt 0.566403 0.577175
vt 0.563551 0.555988
vt 0.317905 0.475288
vt 0.445006 0.492425
vt 0.554994 0.492425
vt 0.682095 0.475288
vt 0.500000 0.564556
vt 0.497148 0.585743
vt 0.502852 0.585743
vt 0.500000 0.564556
vt 0.430745 0.598362
vt 0.303643 0.581225
vt 0.696357 0.581225
vt 0.569255 0.598362
vt 0.277173 0.297220
vt 0.722827 0.297220
vt 0.262911 0.403157
vt 0.737089 0.403157
vt 0.216474 0.267464
vt 0.226457 0.193309
vt 0.773543 0.193309
vt 0.783526 0.267464
vt 0.427570 0.598362
vt 0.481009 0.598373
vt 0.673386 0.598373
vt 0.726824 0.598362
vt 0.417110 0.219014
vt 0.364151 0.211874
vt 0.635849 0.211874
vt 0.582890 0.219014
vt 0.309989 0.598386
vt 0.331367 0.598382
vt 0.331367 0.822822
vt 0.309989 0.822827
vt 0.117582 0.598386
vt 0.117582 0.822827
vt 0.096203 0.822822
vt 0.096203 0.598382
vt 0.213785 0.822846
vt 0.213785 0.598406
vt 0.213785 0.598406
vt 0.213785 0.822846
vt 0.427570 0.822803
vt -0.000000 0.822803
vt 0.000000 0.598362
s 0
f 3/1/1 1/2/1 2/3/1 4/4/1
f 5/5/2 8/6/2 7/7/2 6/8/2
f 1/9/3 5/10/3 6/11/3 2/12/3
f 11/13/4 9/14/4 10/15/4 12/16/4
f 9/17/1 3/1/1 4/4/1 10/18/1
f 12/16/4 15/19/4 16/20/4 11/13/4
f 13/21/3 7/22/3 8/23/3 14/24/3
f 135/25/2 33/26/2 34/27/2 136/28/2
f 19/29/2 23/30/2 24/31/2 20/32/2
f 27/33/1 31/34/1 32/35/1 28/36/1
f 33/37/3 37/38/3 38/39/3 34/40/3
f 35/41/4 40/42/4 39/43/4 36/44/4
f 41/45/2 43/46/2 44/47/2 42/48/2
f 40/42/4 44/49/4 43/50/4 39/43/4
f 47/51/2 41/45/2 42/48/2 48/52/2
f 46/53/1 38/54/1 37/55/1 45/56/1
f 105/57/4 46/58/4 45/59/4 106/60/4
f 119/61/3 59/62/3 60/63/3 120/64/3
f 64/65/2 60/66/2 59/67/2 63/68/2
f 61/69/1 58/70/1 57/71/1 62/72/1
f 63/68/5 68/73/5 67/74/5 64/65/5
f 66/75/6 61/69/6 62/72/6 65/76/6
f 71/77/3 69/78/3 70/79/3 72/80/3
f 72/80/3 76/81/3 75/82/3 71/77/3
f 74/83/7 67/84/7 68/85/7 73/86/7
f 77/87/2 79/88/2 80/89/2 78/90/2
f 73/86/4 77/91/4 78/92/4 74/83/4
f 83/93/3 81/94/3 82/95/3 84/96/3
f 79/88/2 83/97/2 84/98/2 80/89/2
f 81/99/8 75/100/8 76/101/8 82/102/8
f 69/78/3 88/103/3 87/104/3 70/79/3
f 86/105/9 66/106/9 65/107/9 85/108/9
f 95/109/1 93/110/1 94/111/1 96/112/1
f 96/113/3 91/114/3 92/115/3 95/116/3
f 93/117/4 90/118/4 89/119/4 94/120/4
f 99/121/4 97/122/4 98/123/4 100/124/4
f 90/125/1 99/126/1 100/127/1 89/128/1
f 97/129/10 86/130/10 85/131/10 98/132/10
f 101/133/3 103/134/3 104/135/3 102/136/3
f 91/110/1 104/109/1 103/137/1 92/138/1
f 102/139/11 87/140/11 88/141/11 101/142/11
f 108/143/1 105/144/1 106/145/1 107/146/1
f 109/147/1 108/143/1 107/146/1 110/148/1
f 111/149/1 109/147/1 110/148/1 112/150/1
f 112/62/3 57/61/3 58/10/3 111/9/3
f 115/151/2 113/152/2 114/153/2 116/154/2
f 117/155/2 115/151/2 116/154/2 118/156/2
f 118/156/2 119/157/2 120/158/2 117/155/2
f 48/159/4 114/160/4 113/161/4 47/162/4
f 121/163/4 123/164/4 124/165/4 122/166/4
f 125/140/4 127/167/4 128/168/4 126/169/4
f 31/34/1 125/170/1 126/171/1 32/35/1
f 127/172/2 35/173/2 36/174/2 128/175/2
f 23/30/2 124/176/2 123/177/2 24/31/2
f 122/178/1 16/179/1 15/180/1 121/181/1
f 129/182/3 131/183/3 132/184/3 130/117/3
f 133/185/3 135/186/3 136/187/3 134/182/3
f 14/188/1 129/189/1 130/190/1 13/191/1
f 20/32/2 132/192/2 131/193/2 19/29/2
f 28/36/1 133/194/1 134/195/1 27/33/1
f 29/196/1 25/197/1 26/198/1 30/199/1
f 21/200/2 17/201/2 18/202/2 22/203/2
f 137/204/4 139/205/4 140/206/4 138/207/4
f 17/201/2 140/208/2 139/209/2 18/202/2
f 25/197/1 137/210/1 138/211/1 26/198/1
f 141/212/3 143/213/3 144/214/3 142/215/3
f 30/199/1 144/216/1 143/217/1 29/196/1
f 22/203/2 141/218/2 142/219/2 21/200/2
f 7/220/12 4/221/12 2/222/12 6/223/12
f 8/224/13 5/225/13 1/226/13 3/221/13
f 4/221/12 7/220/12 12/227/12 10/228/12
f 3/221/13 9/228/13 11/229/13 8/224/13
f 12/227/12 7/220/12 13/230/12 15/231/12
f 11/229/13 16/232/13 14/233/13 8/224/13
f 20/234/12 13/230/12 130/235/12 132/236/12
f 19/237/13 131/238/13 129/239/13 14/233/13
f 15/231/12 13/230/12 20/234/12 24/240/12
f 16/232/13 23/241/13 19/237/13 14/233/13
f 31/242/12 35/243/12 127/244/12 125/245/12
f 32/246/13 126/247/13 128/248/13 36/249/13
f 31/242/12 27/250/12 34/251/12 35/243/12
f 32/246/13 36/249/13 33/252/13 28/253/13
f 40/254/12 38/255/12 42/256/12 44/257/12
f 39/258/13 43/259/13 41/260/13 37/261/13
f 35/243/12 34/251/12 38/255/12 40/254/12
f 36/249/13 39/258/13 37/261/13 33/252/13
f 42/256/12 38/255/12 46/262/12 48/263/12
f 41/260/13 47/264/13 45/265/13 37/261/13
f 48/263/12 46/262/12 50/266/12 52/267/12
f 47/264/13 51/268/13 49/269/13 45/265/13
f 56/270/12 53/271/12 58/272/12 59/273/12
f 55/274/13 60/275/13 57/276/13 54/277/13
f 52/267/12 50/266/12 53/271/12 56/270/12
f 51/268/13 55/274/13 54/277/13 49/269/13
f 50/266/12 46/262/12 105/278/12 108/279/12
f 49/269/13 107/280/13 106/281/13 45/265/13
f 56/270/12 59/273/12 119/282/12 118/283/12
f 55/274/13 117/284/13 120/285/13 60/275/13
f 63/286/14 61/287/14 66/288/14 68/289/14
f 64/290/15 67/291/15 65/292/15 62/293/15
f 59/273/12 58/272/12 61/287/12 63/286/12
f 60/275/13 64/290/13 62/293/13 57/276/13
f 68/289/12 66/288/12 69/294/12 71/295/12
f 67/291/13 72/296/13 70/297/13 65/292/13
f 69/294/16 66/288/16 86/298/16 88/299/16
f 70/297/17 87/300/17 85/301/17 65/292/17
f 73/302/12 75/303/12 79/304/12 77/305/12
f 74/306/13 78/307/13 80/308/13 76/309/13
f 68/289/16 71/295/16 75/303/16 73/302/16
f 67/291/17 74/306/17 76/309/17 72/296/17
f 79/304/12 75/303/12 81/310/12 83/311/12
f 80/308/13 84/312/13 82/313/13 76/309/13
f 88/299/12 86/298/12 90/314/12 92/315/12
f 87/300/13 91/316/13 89/317/13 85/301/13
f 90/314/12 86/298/12 97/318/12 99/319/12
f 89/317/13 100/320/13 98/321/13 85/301/13
f 92/315/12 90/314/12 93/322/12 95/323/12
f 91/316/13 96/324/13 94/325/13 89/317/13
f 88/299/12 92/315/12 103/326/12 101/327/12
f 87/300/13 102/328/13 104/329/13 91/316/13
f 53/271/12 50/266/12 108/279/12 109/330/12
f 54/277/13 110/331/13 107/280/13 49/269/13
f 58/272/12 53/271/12 109/330/12 111/332/12
f 57/276/13 112/333/13 110/331/13 54/277/13
f 48/263/12 52/267/12 116/334/12 114/335/12
f 47/264/13 113/336/13 115/337/13 51/268/13
f 52/267/12 56/270/12 118/283/12 116/334/12
f 51/268/13 115/337/13 117/284/13 55/274/13
f 15/231/12 24/240/12 123/338/12 121/339/12
f 16/232/13 122/340/13 124/341/13 23/241/13
f 34/251/12 27/250/12 134/342/12 136/343/12
f 33/252/13 135/344/13 133/345/13 28/253/13
f 25/346/12 29/347/12 22/348/12 18/349/12
f 26/350/13 17/351/13 21/352/13 30/353/13
f 25/346/12 18/349/12 139/354/12 137/355/12
f 26/350/13 138/356/13 140/357/13 17/351/13
f 22/348/12 29/347/12 143/338/12 141/358/12
f 21/352/13 142/359/13 144/360/13 30/353/13
