# Blender 4.5.1 LTS
# www.blender.org
o Roof
v -1.000000 1.200000 1.000000
v -1.000000 0.999990 1.000000
v -1.000000 1.200000 -9.000000
v -1.000000 0.999990 -9.000000
v 1.000000 1.200000 1.000000
v 1.000000 0.999990 1.000000
v 1.000000 1.200000 -9.000000
v 1.000000 0.999990 -9.000000
v -1.000000 1.200000 -11.000000
v -1.000000 0.999990 -11.000000
v 1.000000 1.200000 -11.000000
v 1.000000 0.999990 -11.000000
v 8.000000 0.999990 -9.000000
v 8.000000 1.200000 -9.000000
v 8.000000 0.999990 -11.000000
v 8.000000 1.200000 -11.000000
v 39.000000 1.200000 -9.000000
v 39.000000 0.999990 -9.000000
v 39.000000 1.200000 -11.000000
v 39.000000 0.999990 -11.000000
v 48.000000 1.200000 -9.000000
v 48.000000 0.999990 -9.000000
v 48.000000 1.200000 -11.000000
v 48.000000 0.999990 -11.000000
v 50.000000 0.999990 -9.000000
v 50.000000 1.200000 -9.000000
v 50.000000 0.999990 -11.000000
v 50.000000 1.200000 -11.000000
v 48.000000 0.999990 0.000000
v 48.000000 1.200000 0.000000
v 50.000000 0.999990 0.000000
v 50.000000 1.200000 0.000000
v 48.000000 0.200000 7.000000
v 48.000000 -0.000010 7.000000
v 50.000000 0.200000 7.000000
v 50.000000 -0.000010 7.000000
v 48.000000 -0.000010 9.000000
v 48.000000 0.200000 9.000000
v 50.000000 -0.000010 9.000000
v 50.000000 0.200000 9.000000
v 48.000000 1.200000 19.000000
v 48.000000 0.999990 19.000000
v 50.000000 1.200000 19.000000
v 50.000000 0.999990 19.000000
v 48.000000 1.200000 23.036266
v 48.000000 0.999990 22.999998
v 50.000000 1.200000 23.036266
v 50.000000 0.999990 22.999998
v 48.036266 -1.800000 31.036266
v 48.000000 -2.000010 30.999998
v 50.036266 -1.800000 31.036266
v 50.000000 -2.000010 30.999998
v 48.000000 -2.000010 33.000000
v 48.036266 -1.800000 33.000000
v 50.000000 -2.000010 33.000000
v 50.036266 -1.800000 33.000000
v 57.999996 -5.000010 31.000000
v 58.070225 -4.812734 31.000000
v 57.999996 -5.000010 33.000000
v 58.070225 -4.812734 33.000000
v 58.000000 -3.800000 33.000000
v 58.000000 -4.000010 33.000000
v 58.000000 -3.800000 31.000000
v 58.000000 -4.000010 31.000000
v 68.000000 -4.000010 33.000000
v 68.000000 -3.800000 33.000000
v 68.000000 -4.000010 31.000000
v 68.000000 -3.800000 31.000000
v 58.000000 -4.000010 39.000000
v 58.000000 -3.800000 39.000000
v 68.000000 -4.000010 39.000000
v 68.000000 -3.800000 39.000000
v 40.070225 1.187266 31.000000
v 39.999996 0.999991 31.000000
v 40.070225 1.187266 33.000000
v 39.999996 0.999991 33.000000
v 28.000000 0.999990 31.000000
v 28.000000 1.200000 31.000000
v 28.000000 0.999990 33.000000
v 28.000000 1.200000 33.000000
v 22.000000 1.200000 31.000000
v 22.000000 0.999990 31.000000
v 22.000000 1.200000 33.000000
v 22.000000 0.999990 33.000000
v 40.000000 1.999990 33.000000
v 40.000000 2.200000 33.000000
v 40.000000 1.999990 31.000000
v 40.000000 2.200000 31.000000
v 28.000000 2.200000 33.000000
v 28.000000 1.999990 33.000000
v 28.000000 2.200000 31.000000
v 28.000000 1.999990 31.000000
v 28.000000 2.200000 25.000000
v 28.000000 1.999990 25.000000
v 40.000000 2.200000 25.000000
v 40.000000 1.999990 25.000000
v 28.000000 1.999990 35.000000
v 28.000000 2.200000 35.000000
v 40.000000 1.999990 35.000000
v 40.000000 2.200000 35.000000
v 46.000000 0.200000 7.000000
v 46.000000 -0.000010 7.000000
v 46.000000 0.200000 9.000000
v 46.000000 -0.000010 9.000000
v 52.000000 0.200000 7.000000
v 52.000000 -0.000010 7.000000
v 52.000000 0.200000 9.000000
v 52.000000 -0.000010 9.000000
v 48.000000 2.200000 0.000000
v 48.000000 1.999990 0.000000
v 50.000000 2.200000 0.000000
v 50.000000 1.999990 0.000000
v 48.000000 1.999990 7.000000
v 48.000000 2.200000 7.000000
v 50.000000 1.999990 7.000000
v 50.000000 2.200000 7.000000
v 48.000000 2.200000 9.000000
v 48.000000 1.999990 9.000000
v 50.000000 2.200000 9.000000
v 50.000000 1.999990 9.000000
v 48.000000 1.999990 19.000000
v 48.000000 2.200000 19.000000
v 50.000000 1.999990 19.000000
v 50.000000 2.200000 19.000000
v 46.000000 1.999990 0.000000
v 46.000000 2.200000 0.000000
v 46.000000 1.999990 7.000000
v 46.000000 2.200000 7.000000
v 46.000000 2.200000 19.000000
v 46.000000 1.999990 19.000000
v 46.000000 2.200000 9.000000
v 46.000000 1.999990 9.000000
v 52.000000 1.999990 7.000000
v 52.000000 2.200000 7.000000
v 52.000000 1.999990 0.000000
v 52.000000 2.200000 0.000000
v 52.000000 1.999990 19.000000
v 52.000000 2.200000 19.000000
v 52.000000 1.999990 9.000000
v 52.000000 2.200000 9.000000
v 8.000000 6.200000 -9.000000
v 8.000000 5.999990 -9.000000
v 8.000000 6.200000 -11.000000
v 8.000000 5.999990 -11.000000
v 8.000000 5.999990 -20.000000
v 8.000000 6.200000 -20.000000
v 13.000000 6.200000 -9.000000
v 13.000000 5.999990 -9.000000
v 13.000000 6.200000 -11.000000
v 13.000000 5.999990 -11.000000
v 39.000000 6.200000 -9.000000
v 39.000000 5.999990 -9.000000
v 39.000000 6.200000 0.000000
v 39.000000 5.999990 0.000000
v 13.000000 5.999990 -20.000000
v 13.000000 6.200000 -20.000000
v 34.000000 5.999990 -9.000000
v 34.000000 6.200000 -9.000000
v 34.000000 5.999990 -11.000000
v 34.000000 6.200000 -11.000000
v 39.000000 5.999990 -11.000000
v 39.000000 6.200000 -11.000000
v 34.000000 6.200000 -20.000000
v 34.000000 5.999990 -20.000000
v 39.000000 5.999990 -20.000000
v 39.000000 6.200000 -20.000000
v 8.000000 5.999990 0.000000
v 8.000000 6.200000 0.000000
v 13.000000 5.999990 0.000000
v 13.000000 6.200000 0.000000
v 34.000000 5.999990 0.000000
v 34.000000 6.200000 0.000000
vn -1.0000 -0.0000 -0.0000
vn 1.0000 -0.0000 -0.0000
vn -0.0000 -0.0000 1.0000
vn -0.0000 -0.0000 -1.0000
vn -0.9959 0.0842 0.0338
vn 0.9959 -0.0842 -0.0338
vn 0.9363 -0.3511 -0.0000
vn 0.0297 0.0851 -0.9959
vn -0.9363 0.3511 -0.0000
vn 0.0338 0.0840 -0.9959
vn -0.0000 -1.0000 -0.0000
vn -0.0000 1.0000 -0.0000
vn -0.0000 -0.9363 -0.3511
vn -0.0000 0.9363 0.3511
vn -0.3511 -0.9363 -0.0000
vn 0.3511 0.9363 -0.0000
vt 0.666265 0.931033
vt 0.666265 0.758611
vt 0.669713 0.758611
vt 0.669713 0.931033
vt 0.996134 0.172416
vt 0.996134 0.344838
vt 0.992686 0.344838
vt 0.992686 0.172416
vt 0.855175 0.448285
vt 0.855175 0.413800
vt 0.858624 0.413800
vt 0.858624 0.448285
vt 0.996135 0.500018
vt 0.996135 0.534503
vt 0.992686 0.534503
vt 0.992686 0.500018
vt 0.669713 0.724127
vt 0.666265 0.724127
vt 0.866707 0.689667
vt 0.866707 0.655182
vt 0.870154 0.655182
vt 0.870154 0.689667
vt 0.120684 0.846954
vt 0.120684 0.967649
vt 0.117235 0.967649
vt 0.117235 0.846954
vt 0.992686 0.655198
vt 0.996135 0.655198
vt 0.870154 0.689667
vt 0.870154 0.655182
vt 0.873602 0.655182
vt 0.873602 0.689667
vt 0.992686 0.500018
vt 0.992686 0.344838
vt 0.996135 0.344838
vt 0.996135 0.500018
vt 0.673161 0.724126
vt 0.673161 0.879306
vt 0.669713 0.879306
vt 0.669713 0.724127
vt 0.966712 0.568953
vt 0.966712 0.534469
vt 0.970160 0.534469
vt 0.970160 0.568953
vt 0.673161 0.913790
vt 0.669713 0.913791
vt 0.858624 0.448285
vt 0.858624 0.482769
vt 0.855175 0.482769
vt 0.855175 0.448285
vt 0.970160 0.724133
vt 0.966712 0.724133
vt 0.997275 0.724133
vt 0.997275 0.879314
vt 0.993827 0.879313
vt 0.993827 0.724133
vt 0.844829 0.448284
vt 0.844829 0.482769
vt 0.841381 0.482769
vt 0.841381 0.448285
vt 0.834484 0.448285
vt 0.834484 0.482769
vt 0.831035 0.482769
vt 0.831035 0.448285
vt 0.858624 0.482769
vt 0.858624 0.517253
vt 0.855175 0.517254
vt 0.855175 0.482769
vt 0.659368 0.724963
vt 0.642645 0.791873
vt 0.639148 0.791644
vt 0.656023 0.724126
vt 0.983436 0.791880
vt 0.966712 0.724970
vt 0.970057 0.724133
vt 0.986932 0.791651
vt 0.655857 0.938004
vt 0.659368 0.938236
vt 0.966712 0.938243
vt 0.970223 0.938011
vt 0.978893 0.319400
vt 0.968984 0.352430
vt 0.965501 0.352038
vt 0.975411 0.319008
vt 0.858624 0.448285
vt 0.861880 0.413802
vt 0.861880 0.448287
vt 0.975453 0.499646
vt 0.978893 0.499414
vt 0.106886 0.846954
vt 0.106886 0.994897
vt 0.103437 0.994897
vt 0.103432 0.847579
vt 0.110340 0.881438
vt 0.110340 0.846954
vt 0.113787 0.846954
vt 0.113787 0.881438
vt 0.113787 0.881438
vt 0.113787 0.846954
vt 0.117235 0.846954
vt 0.117235 0.881438
vt 0.977057 0.534469
vt 0.977057 0.706891
vt 0.973609 0.706891
vt 0.973609 0.534469
vt 0.973609 0.534469
vt 0.973609 0.706891
vt 0.970160 0.706891
vt 0.970160 0.534469
vt 0.113787 0.984892
vt 0.110340 0.984891
vt 0.113787 0.984891
vt 0.117235 0.984891
vt 0.858624 0.482773
vt 0.858624 0.448289
vt 0.861880 0.448287
vt 0.861880 0.482771
vt 0.110335 0.846954
vt 0.110340 0.993646
vt 0.106886 0.994272
vt 0.106886 0.846954
vt 0.968984 0.172416
vt 0.965544 0.172648
vt 0.127579 0.881438
vt 0.127579 0.846954
vt 0.131027 0.846954
vt 0.131027 0.881438
vt 0.863259 0.689667
vt 0.863259 0.655182
vt 0.866707 0.655182
vt 0.866707 0.689667
vt 0.844829 0.517253
vt 0.844829 0.413800
vt 0.848278 0.413800
vt 0.848278 0.517253
vt 0.831035 0.413800
vt 0.831035 0.517254
vt 0.827586 0.517254
vt 0.827586 0.413800
vt 0.985791 0.655198
vt 0.985791 0.620714
vt 0.989238 0.620714
vt 0.989238 0.655198
vt 0.990380 0.862071
vt 0.990380 0.827587
vt 0.993827 0.827587
vt 0.993827 0.862071
vt 0.666265 0.724126
vt 0.666265 0.931033
vt 0.662816 0.931033
vt 0.662816 0.724127
vt 0.989238 0.517260
vt 0.985791 0.517260
vt 0.993827 0.724134
vt 0.990380 0.724133
vt 0.662816 0.724126
vt 0.662816 0.931034
vt 0.659368 0.931034
vt 0.659368 0.724126
vt 0.990380 0.896556
vt 0.993827 0.896556
vt 0.989238 0.689683
vt 0.985791 0.689683
vt 0.877050 0.689666
vt 0.877050 0.655182
vt 0.880498 0.655182
vt 0.880498 0.689667
vt 0.841381 0.413800
vt 0.844829 0.413800
vt 0.834484 0.413800
vt 0.844829 0.517253
vt 0.841381 0.517253
vt 0.834484 0.517254
vt 0.851727 0.448284
vt 0.851727 0.482769
vt 0.848278 0.482769
vt 0.848278 0.448285
vt 0.837932 0.448285
vt 0.837932 0.482769
vt 0.855175 0.448284
vt 0.855175 0.482769
vt 0.851727 0.482769
vt 0.851727 0.448285
vt 0.841381 0.448285
vt 0.841381 0.482769
vt 0.837932 0.482769
vt 0.124131 0.846954
vt 0.124131 0.967649
vt 0.120684 0.967649
vt 0.120684 0.846954
vt 0.992686 0.517260
vt 0.992686 0.689683
vt 0.837932 0.413800
vt 0.841381 0.413800
vt 0.851727 0.413800
vt 0.848278 0.413800
vt 0.855175 0.413800
vt 0.851727 0.413800
vt 0.124131 0.967649
vt 0.124131 0.846954
vt 0.127579 0.846954
vt 0.127579 0.967649
vt 0.986932 0.896556
vt 0.986932 0.724133
vt 0.990380 0.724133
vt 0.990380 0.896556
vt 0.837932 0.517254
vt 0.834484 0.517254
vt 0.848278 0.517253
vt 0.851727 0.517253
vt 0.841381 0.517254
vt 0.837932 0.517254
vt 0.851727 0.517253
vt 0.855175 0.517253
vt 0.989238 0.362080
vt 0.989238 0.327596
vt 0.992686 0.327596
vt 0.992686 0.362080
vt 0.992686 0.172416
vt 0.989238 0.172416
vt 0.989238 0.362080
vt 0.989238 0.517260
vt 0.985791 0.517260
vt 0.985791 0.362080
vt 0.985791 0.327596
vt 0.989238 0.327596
vt 0.982342 0.258627
vt 0.982342 0.172416
vt 0.985791 0.172416
vt 0.985791 0.258627
vt 0.985791 0.620712
vt 0.982342 0.620712
vt 0.982342 0.706923
vt 0.985791 0.706923
vt 0.985791 0.172416
vt 0.989238 0.172416
vt 0.982342 0.172416
vt 0.982342 0.258627
vt 0.978893 0.258627
vt 0.978893 0.172416
vt 0.982342 0.620714
vt 0.978893 0.620714
vt 0.982342 0.706925
vt 0.978893 0.706925
vt 0.989238 0.517260
vt 0.992686 0.517260
vt 0.708110 0.758641
vt 0.673633 0.758648
vt 0.673633 0.724165
vt 0.708110 0.724158
vt 0.604671 0.758634
vt 0.604671 0.724151
vt 0.639148 0.724158
vt 0.639148 0.758641
vt 0.708110 0.931054
vt 0.673633 0.931061
vt 0.639148 0.931055
vt 0.604671 0.931048
vt 0.828781 0.724133
vt 0.828781 0.758616
vt 0.484000 0.758609
vt 0.484000 0.724126
vt 0.484000 0.568954
vt 0.484007 0.534471
vt 0.639155 0.534471
vt 0.639148 0.568954
vt 0.863259 0.568992
vt 0.708110 0.568961
vt 0.708110 0.534478
vt 0.863259 0.534510
vt 0.673633 0.534471
vt 0.673626 0.568954
vt 0.673633 0.568954
vt 0.673633 0.534471
vt 0.673594 0.724126
vt 0.639117 0.724126
vt 0.708111 0.724133
vt 0.673633 0.724127
vt 0.724138 0.448285
vt 0.724138 0.482762
vt 0.689655 0.482755
vt 0.689655 0.448278
vt 0.758621 0.448285
vt 0.793104 0.448278
vt 0.793104 0.482755
vt 0.758621 0.482762
vt 0.241897 0.671800
vt 0.242001 0.706278
vt 0.173035 0.706471
vt 0.172932 0.671994
vt 0.242104 0.670585
vt 0.311695 0.670780
vt 0.311591 0.705257
vt 0.242001 0.705062
vt 0.034586 0.707903
vt 0.034483 0.673425
vt 0.450142 0.672837
vt 0.450038 0.707315
vt 0.000104 0.708000
vt 0.000000 0.673522
vt 0.483999 0.672932
vt 0.483896 0.707410
vt 0.034483 0.846857
vt 0.000000 0.846954
vt 0.483999 0.846954
vt 0.449517 0.846857
vt 0.965517 0.000021
vt 1.000000 0.000028
vt 1.000000 0.172416
vt 0.965517 0.172409
vt 0.863264 0.724154
vt 0.863264 0.896542
vt 0.828781 0.896549
vt 0.828781 0.724162
vt 0.862069 0.172388
vt 0.862069 0.000000
vt 0.966712 0.896521
vt 0.000104 0.534568
vt 0.034586 0.534471
vt 0.449414 0.534471
vt 0.483897 0.534568
vt 0.827586 0.517240
vt 0.793104 0.517233
vt 0.793104 0.413800
vt 0.827586 0.413807
vt 0.724138 0.517240
vt 0.724138 0.413807
vt 0.758621 0.413800
vt 0.758621 0.517232
vt 0.758621 0.413779
vt 0.724138 0.413772
vt 0.724138 0.206907
vt 0.758621 0.206914
vt 0.793104 0.206879
vt 0.793104 0.000014
vt 0.827586 0.000007
vt 0.827586 0.206872
vt 0.862069 0.206935
vt 0.862069 0.413800
vt 0.689655 0.206900
vt 0.689655 0.000035
vt 0.689655 0.413765
vt 0.862069 -0.000000
vt 0.862069 0.206865
vt 0.689655 0.413800
vt 0.724138 0.413807
vt 0.758621 0.413807
vt 0.793104 0.413800
vt 0.724138 0.517240
vt 0.689655 0.517233
vt 0.793104 0.517232
vt 0.758621 0.517240
vt 0.034477 0.846968
vt 0.068955 0.846961
vt 0.068955 0.967650
vt 0.034477 0.967657
vt 0.932214 0.534485
vt 0.932214 0.655175
vt 0.897736 0.655168
vt 0.897736 0.534478
vt 0.931024 0.344836
vt 0.931024 0.172423
vt 0.965501 0.172416
vt 0.965502 0.344829
vt 0.896547 0.517271
vt 0.862069 0.517264
vt 0.862069 0.344850
vt 0.896547 0.344857
vt 0.103432 0.846954
vt 0.103432 0.967643
vt 0.863259 0.655161
vt 0.863259 0.534471
vt 0.896546 0.172430
vt 0.896546 0.344843
vt 0.931024 0.344864
vt 0.931024 0.517278
vt -0.000000 0.967664
vt -0.000000 0.846975
vt 0.966691 0.534492
vt 0.966691 0.655182
vt 0.862069 0.344850
vt 0.862069 0.172437
vt 0.965502 0.344871
vt 0.965502 0.517285
vt 0.155172 0.000032
vt 0.189655 0.000039
vt 0.189655 0.086232
vt 0.155172 0.086225
vt 0.534483 0.000032
vt 0.534483 0.086225
vt 0.500000 0.086232
vt 0.500000 0.000039
vt 0.155172 0.448239
vt 0.189655 0.448246
vt 0.189655 0.534440
vt 0.155172 0.534433
vt 0.534483 0.448239
vt 0.534483 0.534433
vt 0.500000 0.534440
vt 0.500000 0.448246
vt 0.344828 0.086264
vt 0.344828 0.448278
vt 0.344828 0.448278
vt 0.344828 0.086264
vt 0.344828 0.000070
vt 0.344828 0.000070
vt 0.344828 0.534471
vt 0.344828 0.534471
vt 0.000000 0.448207
vt 0.000000 0.086194
vt 0.689655 0.086194
vt 0.689655 0.448207
vt 0.000000 -0.000000
vt 0.689655 0.000000
vt 0.000000 0.534401
vt 0.689655 0.534401
s 0
f 1/1/1 3/2/1 4/3/1 2/4/1
f 7/5/2 5/6/2 6/7/2 8/8/2
f 5/9/3 1/10/3 2/11/3 6/12/3
f 9/13/4 11/14/4 12/15/4 10/16/4
f 10/17/1 4/3/1 3/2/1 9/18/1
f 13/19/2 15/20/2 16/21/2 14/22/2
f 8/23/3 13/24/3 14/25/3 7/26/3
f 15/27/4 12/15/4 11/14/4 16/28/4
f 17/29/1 19/30/1 20/31/1 18/32/1
f 21/33/3 17/34/3 18/35/3 22/36/3
f 19/37/4 23/38/4 24/39/4 20/40/4
f 25/41/2 27/42/2 28/43/2 26/44/2
f 23/38/4 28/45/4 27/46/4 24/39/4
f 29/47/3 31/48/3 32/49/3 30/50/3
f 26/44/2 32/51/2 31/52/2 25/41/2
f 22/53/1 29/54/1 30/55/1 21/56/1
f 33/57/4 35/58/4 36/59/4 34/60/4
f 37/61/3 39/62/3 40/63/3 38/64/3
f 41/65/4 43/66/4 44/67/4 42/68/4
f 42/69/1 46/70/1 45/71/1 41/72/1
f 48/73/2 44/74/2 43/75/2 47/76/2
f 49/77/5 45/71/5 46/70/5 50/78/5
f 52/79/6 48/73/6 47/76/6 51/80/6
f 53/81/3 55/82/3 56/83/3 54/84/3
f 59/85/7 57/11/7 58/86/7 60/87/7
f 60/88/3 56/83/3 55/82/3 59/89/3
f 51/90/8 58/91/8 57/92/8 52/93/8
f 61/94/1 63/95/1 64/96/1 62/97/1
f 65/98/2 67/99/2 68/100/2 66/101/2
f 63/102/4 68/103/4 67/104/4 64/105/4
f 69/106/3 71/107/3 72/108/3 70/109/3
f 62/97/1 69/110/1 70/111/1 61/94/1
f 71/112/2 65/98/2 66/101/2 72/113/2
f 75/114/9 73/115/9 74/116/9 76/117/9
f 73/118/10 49/119/10 50/120/10 74/121/10
f 76/122/3 53/81/3 54/84/3 75/123/3
f 79/124/2 77/125/2 78/126/2 80/127/2
f 83/128/1 81/129/1 82/130/1 84/131/1
f 77/132/4 82/133/4 81/134/4 78/135/4
f 84/136/3 79/137/3 80/138/3 83/139/3
f 85/140/2 87/141/2 88/142/2 86/143/2
f 89/144/1 91/145/1 92/146/1 90/147/1
f 93/148/4 95/149/4 96/150/4 94/151/4
f 95/152/2 88/142/2 87/141/2 96/153/2
f 94/154/1 92/146/1 91/145/1 93/155/1
f 97/156/3 99/157/3 100/158/3 98/159/3
f 98/160/1 89/144/1 90/147/1 97/161/1
f 86/143/2 100/162/2 99/163/2 85/140/2
f 103/164/1 101/165/1 102/166/1 104/167/1
f 34/60/4 102/168/4 101/169/4 33/57/4
f 104/170/3 37/61/3 38/64/3 103/136/3
f 105/165/2 107/164/2 108/32/2 106/31/2
f 35/58/4 105/171/4 106/172/4 36/59/4
f 107/137/3 40/63/3 39/62/3 108/173/3
f 109/174/4 111/175/4 112/176/4 110/177/4
f 113/178/3 115/179/3 116/62/3 114/61/3
f 117/180/4 119/181/4 120/182/4 118/183/4
f 121/184/3 123/185/3 124/186/3 122/178/3
f 125/187/1 127/188/1 128/189/1 126/190/1
f 129/162/1 131/152/1 132/191/1 130/192/1
f 122/178/3 129/193/3 130/194/3 121/184/3
f 126/195/4 109/174/4 110/177/4 125/196/4
f 114/61/3 128/170/3 127/193/3 113/178/3
f 131/197/4 117/180/4 118/183/4 132/198/4
f 133/199/2 135/200/2 136/201/2 134/202/2
f 137/203/2 139/204/2 140/205/2 138/206/2
f 115/179/3 133/207/3 134/208/3 116/62/3
f 135/209/4 112/176/4 111/175/4 136/210/4
f 123/185/3 137/211/3 138/212/3 124/186/3
f 139/213/4 120/182/4 119/181/4 140/214/4
f 141/215/1 143/216/1 144/217/1 142/218/1
f 145/219/1 144/217/1 143/216/1 146/220/1
f 151/221/2 153/222/2 154/223/2 152/224/2
f 152/224/2 161/225/2 162/226/2 151/221/2
f 155/227/4 145/228/4 146/229/4 156/230/4
f 156/230/4 163/231/4 164/232/4 155/227/4
f 165/233/4 164/232/4 163/231/4 166/234/4
f 161/225/2 165/235/2 166/236/2 162/226/2
f 167/237/3 169/238/3 170/239/3 168/240/3
f 169/238/3 171/241/3 172/242/3 170/239/3
f 171/241/3 154/243/3 153/244/3 172/242/3
f 168/245/1 141/215/1 142/218/1 167/246/1
f 8/247/11 4/248/11 10/249/11 12/250/11
f 7/251/12 11/252/12 9/253/12 3/254/12
f 4/248/11 8/247/11 6/255/11 2/256/11
f 3/254/12 1/257/12 5/258/12 7/251/12
f 8/247/11 12/250/11 15/259/11 13/260/11
f 7/251/12 14/261/12 16/262/12 11/252/12
f 18/263/11 20/264/11 24/265/11 22/266/11
f 17/267/12 21/268/12 23/269/12 19/270/12
f 22/266/11 24/265/11 27/271/11 25/272/11
f 21/268/12 26/273/12 28/274/12 23/269/12
f 22/266/11 25/272/11 31/275/11 29/276/11
f 21/268/12 30/277/12 32/278/12 26/273/12
f 34/279/11 36/280/11 39/281/11 37/282/11
f 33/283/12 38/284/12 40/285/12 35/286/12
f 42/287/11 44/288/11 48/289/11 46/290/11
f 41/291/12 45/292/12 47/293/12 43/294/12
f 46/290/13 48/289/13 52/295/13 50/296/13
f 45/292/14 49/297/14 51/298/14 47/293/14
f 50/296/11 52/295/11 55/299/11 53/300/11
f 49/297/12 54/301/12 56/302/12 51/298/12
f 55/299/15 52/295/15 57/303/15 59/304/15
f 56/302/16 60/305/16 58/306/16 51/298/16
f 62/307/11 64/308/11 67/309/11 65/310/11
f 61/311/12 66/312/12 68/313/12 63/314/12
f 62/307/11 65/310/11 71/315/11 69/316/11
f 61/311/12 70/52/12 72/317/12 66/312/12
f 50/296/15 53/300/15 76/318/15 74/319/15
f 49/297/16 73/320/16 75/321/16 54/301/16
f 77/322/11 79/323/11 84/324/11 82/325/11
f 78/326/12 81/327/12 83/328/12 80/329/12
f 87/330/11 85/331/11 90/332/11 92/333/11
f 88/334/12 91/335/12 89/336/12 86/337/12
f 87/330/11 92/333/11 94/338/11 96/339/11
f 88/334/12 95/340/12 93/341/12 91/335/12
f 90/332/11 85/331/11 99/342/11 97/340/11
f 89/336/12 98/343/12 100/344/12 86/337/12
f 34/279/11 37/282/11 104/345/11 102/346/11
f 33/283/12 101/347/12 103/348/12 38/284/12
f 39/281/11 36/280/11 106/349/11 108/350/11
f 40/285/12 107/351/12 105/352/12 35/286/12
f 110/353/11 112/354/11 115/355/11 113/356/11
f 109/357/12 114/358/12 116/359/12 111/360/12
f 123/361/11 120/362/11 139/363/11 137/364/11
f 124/365/12 138/366/12 140/367/12 119/368/12
f 115/355/11 112/354/11 135/369/11 133/370/11
f 116/359/12 134/371/12 136/372/12 111/360/12
f 118/373/11 120/362/11 123/361/11 121/374/11
f 117/375/12 122/376/12 124/365/12 119/368/12
f 110/353/11 113/356/11 127/377/11 125/378/11
f 109/357/12 126/379/12 128/380/12 114/358/12
f 118/373/11 121/374/11 130/381/11 132/382/11
f 117/375/12 131/383/12 129/384/12 122/376/12
f 142/385/11 144/386/11 150/387/11 148/388/11
f 141/389/12 147/390/12 149/391/12 143/392/12
f 157/393/11 159/394/11 161/395/11 152/396/11
f 158/397/12 151/398/12 162/399/12 160/400/12
f 159/394/11 150/387/11 155/401/11 164/402/11
f 160/400/12 163/403/12 156/404/12 149/391/12
f 148/388/11 150/387/11 159/394/11 157/393/11
f 147/390/12 158/397/12 160/400/12 149/391/12
f 150/387/11 144/386/11 145/405/11 155/401/11
f 149/391/12 156/404/12 146/406/12 143/392/12
f 161/395/11 159/394/11 164/402/11 165/407/11
f 162/399/12 166/408/12 163/403/12 160/400/12
f 148/388/11 157/393/11 171/409/11 169/410/11
f 147/390/12 170/411/12 172/412/12 158/397/12
f 142/385/11 148/388/11 169/410/11 167/413/11
f 141/389/12 168/414/12 170/411/12 147/390/12
f 157/393/11 152/396/11 154/415/11 171/409/11
f 158/397/12 172/412/12 153/416/12 151/398/12
