# Blender 4.5.1 LTS
# www.blender.org
o Walls
v -0.999990 -1.000000 0.999990
v -1.200000 -1.000000 1.200000
v -1.200000 1.000000 1.200000
v -0.999990 1.000000 0.999990
v -0.999990 -1.000000 -9.000000
v -1.200000 -1.000000 -9.000000
v -0.999990 1.000000 -9.000000
v -1.200000 1.000000 -9.000000
v 0.999990 -1.000000 0.999990
v 1.200000 -1.000000 1.200000
v 0.999990 1.000000 0.999990
v 1.200000 1.000000 1.200000
v 0.999990 -1.000000 -9.000010
v 1.200000 -1.000000 -8.800000
v 0.999990 1.000000 -9.000010
v 1.200000 1.000000 -8.800000
v -0.999990 1.000000 -10.999990
v -1.200000 1.000000 -11.200000
v -0.999990 -1.000000 -10.999990
v -1.200000 -1.000000 -11.200000
v 1.000000 -1.000000 -10.999990
v 1.000000 -1.000000 -11.200000
v 1.000000 1.000000 -10.999990
v 1.000000 1.000000 -11.200000
v 8.000010 1.000000 -9.000010
v 7.800000 1.000000 -8.800000
v 8.000010 -1.000000 -9.000010
v 7.800000 -1.000000 -8.800000
v 7.800000 1.000000 -11.200000
v 8.000010 1.000000 -10.999990
v 7.800000 -1.000000 -11.200000
v 8.000010 -1.000000 -10.999990
v 33.999989 -7.000000 -11.000000
v 34.200001 -7.000000 -11.000000
v 13.000010 -1.000000 -9.000000
v 12.800000 -1.000000 -9.000000
v 33.999989 -7.000000 -9.000000
v 34.200001 -7.000000 -9.000000
v 13.000010 -1.000000 -11.000000
v 12.800000 -1.000000 -11.000000
v 12.800000 -7.000000 -11.000000
v 13.000010 -7.000000 -11.000000
v 34.200001 -1.000000 -9.000000
v 33.999989 -1.000000 -9.000000
v 13.000010 -7.000000 -9.000000
v 12.800000 -7.000000 -9.000000
v 34.200001 -1.000000 -11.000000
v 33.999989 -1.000000 -11.000000
v 38.999989 1.000000 -9.000010
v 39.200001 1.000000 -8.800000
v 38.999989 -1.000000 -9.000010
v 39.200001 -1.000000 -8.800000
v 38.999989 1.000000 -10.999990
v 39.200001 1.000000 -11.200000
v 38.999989 -1.000000 -10.999990
v 39.200001 -1.000000 -11.200000
v 48.000011 1.000000 -9.000010
v 47.799999 1.000000 -8.800000
v 48.000011 -1.000000 -9.000010
v 47.799999 -1.000000 -8.800000
v 48.000000 1.000000 -11.200000
v 48.000000 1.000000 -10.999990
v 48.000000 -1.000000 -11.200000
v 48.000000 -1.000000 -10.999990
v 50.200001 1.000000 -9.000000
v 49.999989 1.000000 -9.000000
v 50.200001 -1.000000 -9.000000
v 49.999989 -1.000000 -9.000000
v 49.999989 1.000000 -10.999990
v 50.200001 1.000000 -11.200000
v 49.999989 -1.000000 -10.999990
v 50.200001 -1.000000 -11.200000
v 48.000011 1.000000 0.000010
v 47.799999 1.000000 -0.200000
v 48.000011 -1.000000 0.000010
v 47.799999 -1.000000 -0.200000
v 50.200001 1.000000 -0.200000
v 49.999989 1.000000 0.000010
v 50.200001 -1.000000 -0.200000
v 49.999989 -1.000000 0.000010
v 48.000000 0.000000 6.999990
v 48.000000 0.000000 7.200000
v 50.000000 0.000000 6.999990
v 50.000000 0.000000 7.200000
v 48.000000 0.000000 8.800000
v 48.000000 0.000000 9.000010
v 50.000000 0.000000 8.800000
v 50.000000 0.000000 9.000010
v 48.000011 1.000000 18.999990
v 47.799999 1.000000 19.200001
v 48.000011 -1.000000 18.999990
v 47.799999 -1.000000 19.200001
v 49.999989 1.000000 18.999990
v 50.200001 1.000000 19.200001
v 50.200001 -1.000000 19.200001
v 49.999989 -1.000000 18.999990
v 48.000011 1.000000 23.000000
v 47.799999 1.000000 23.000000
v 48.000011 -1.000000 23.000000
v 47.799999 -1.000000 23.000000
v 50.200001 1.000000 23.000000
v 49.999989 1.000000 23.000000
v 50.200001 -1.000000 23.000000
v 49.999989 -1.000000 23.000000
v 48.000011 -2.000000 31.000010
v 47.799999 -2.000000 30.799999
v 48.000011 -4.000000 31.000010
v 47.799999 -4.000000 30.799999
v 50.200001 -2.000000 30.799999
v 49.999989 -2.000000 31.000010
v 50.200001 -4.000000 30.799999
v 49.999989 -4.000000 31.000010
v 48.000000 -2.000000 33.200001
v 48.000000 -2.000000 32.999989
v 48.000000 -4.000000 33.200001
v 48.000000 -4.000000 32.999989
v 50.000000 -2.000000 32.999989
v 50.000000 -2.000000 33.200001
v 50.000000 -4.000000 32.999989
v 50.000000 -4.000000 33.200001
v 57.799999 -5.000000 30.799999
v 58.000011 -5.000000 31.000010
v 58.000000 -7.000000 30.799999
v 58.000000 -7.000000 31.000010
v 58.000011 -5.000000 32.999989
v 57.799999 -5.000000 33.200001
v 58.000011 -7.000000 32.999989
v 57.799999 -7.000000 33.200001
v 67.999992 -5.000000 31.000010
v 68.199997 -5.000000 30.799999
v 67.999992 -7.000000 31.000010
v 68.199997 -7.000000 30.799999
v 68.199997 -5.000000 33.000000
v 67.999992 -5.000000 33.000000
v 68.199997 -7.000000 33.000000
v 67.999992 -7.000000 33.000000
v 57.799999 -5.000000 39.200001
v 58.000011 -5.000000 38.999989
v 57.799999 -7.000000 39.200001
v 58.000011 -7.000000 38.999989
v 68.199997 -5.000000 39.200001
v 67.999992 -5.000000 38.999989
v 67.999992 -7.000000 38.999989
v 68.199997 -7.000000 39.200001
v 58.000011 -4.000000 33.000000
v 57.799999 -4.000000 33.000000
v 58.000011 -4.000000 31.000010
v 57.799999 -4.000000 30.799999
v 68.199997 -4.000000 33.000000
v 67.999992 -4.000000 33.000000
v 68.199997 -4.000000 30.799999
v 67.999992 -4.000000 31.000010
v 57.799999 -4.000000 39.200001
v 58.000011 -4.000000 38.999989
v 68.199997 -4.000000 39.200001
v 67.999992 -4.000000 38.999989
v 39.999989 1.000000 31.000010
v 40.200001 1.000000 30.799999
v 39.999989 -1.000000 31.000010
v 40.200001 -1.000000 30.799999
v 40.200001 1.000000 33.200001
v 39.999989 1.000000 32.999989
v 40.200001 -1.000000 33.200001
v 39.999989 -1.000000 32.999989
v 27.799999 1.000000 30.799999
v 28.000010 1.000000 31.000010
v 27.799999 -1.000000 30.799999
v 28.000010 -1.000000 31.000010
v 27.799999 1.000000 33.200001
v 28.000010 1.000000 32.999989
v 27.799999 -1.000000 33.200001
v 28.000010 -1.000000 32.999989
v 21.799999 1.000000 30.799999
v 22.000010 1.000000 31.000010
v 21.799999 -1.000000 30.799999
v 22.000010 -1.000000 31.000010
v 22.000010 1.000000 32.999989
v 21.799999 1.000000 33.200001
v 22.000010 -1.000000 32.999989
v 21.799999 -1.000000 33.200001
v 40.200001 1.000000 24.799999
v 39.999989 1.000000 25.000010
v 40.200001 -1.000000 24.799999
v 39.999989 -1.000000 25.000010
v 28.000010 1.000000 25.000010
v 27.799999 1.000000 24.799999
v 28.000010 -1.000000 25.000010
v 27.799999 -1.000000 24.799999
v 40.200001 1.000000 35.200001
v 39.999989 1.000000 34.999989
v 39.999989 -1.000000 34.999989
v 40.200001 -1.000000 35.200001
v 27.799999 1.000000 35.200001
v 28.000010 1.000000 34.999989
v 28.000010 -1.000000 34.999989
v 27.799999 -1.000000 35.200001
v 40.200001 2.000000 33.000000
v 39.999989 2.000000 33.000000
v 40.200001 2.000000 31.000000
v 39.999989 2.000000 31.000000
v 28.000010 2.000000 33.000000
v 27.799999 2.000000 33.000000
v 28.000010 2.000000 31.000000
v 27.799999 2.000000 31.000000
v 28.000010 2.000000 25.000010
v 27.799999 2.000000 24.799999
v 39.999989 2.000000 25.000010
v 40.200001 2.000000 24.799999
v 27.799999 2.000000 35.200001
v 28.000010 2.000000 34.999989
v 40.200001 2.000000 35.200001
v 39.999989 2.000000 34.999989
v 45.799999 1.000000 -0.200000
v 46.000011 1.000000 0.000010
v 45.799999 -1.000000 -0.200000
v 46.000011 -1.000000 0.000010
v 45.799999 0.000000 7.200000
v 46.000011 0.000000 6.999990
v 46.000011 -1.000000 7.000000
v 45.799999 -1.000000 7.000000
v 45.799999 0.000000 8.800000
v 46.000011 0.000000 9.000010
v 46.000011 -1.000000 9.000000
v 45.799999 -1.000000 9.000000
v 46.000011 1.000000 18.999990
v 45.799999 1.000000 19.200001
v 45.799999 -1.000000 19.200001
v 46.000011 -1.000000 18.999990
v 51.999989 1.000000 0.000010
v 52.200001 1.000000 -0.200000
v 51.999989 -1.000000 0.000010
v 52.200001 -1.000000 -0.200000
v 51.999989 0.000000 6.999990
v 52.200001 0.000000 7.200000
v 51.999989 -1.000000 7.000000
v 52.200001 -1.000000 7.000000
v 52.200001 0.000000 8.800000
v 51.999989 0.000000 9.000010
v 52.200001 -1.000000 9.000000
v 51.999989 -1.000000 9.000000
v 52.200001 1.000000 19.200001
v 51.999989 1.000000 18.999990
v 52.200001 -1.000000 19.200001
v 51.999989 -1.000000 18.999990
v 48.000000 2.000000 0.000010
v 48.000000 2.000000 -0.200000
v 50.000000 2.000000 0.000010
v 50.000000 2.000000 -0.200000
v 48.000000 2.000000 7.200000
v 48.000000 2.000000 6.999990
v 50.000000 2.000000 7.200000
v 50.000000 2.000000 6.999990
v 48.000000 2.000000 9.000010
v 48.000000 2.000000 8.800000
v 50.000000 2.000000 9.000010
v 50.000000 2.000000 8.800000
v 48.000000 2.000000 19.200001
v 48.000000 2.000000 18.999990
v 50.000000 2.000000 19.200001
v 50.000000 2.000000 18.999990
v 45.799999 2.000000 -0.200000
v 46.000011 2.000000 0.000010
v 45.799999 2.000000 7.200000
v 46.000011 2.000000 6.999990
v 46.000011 2.000000 18.999990
v 45.799999 2.000000 19.200001
v 45.799999 2.000000 8.800000
v 46.000011 2.000000 9.000010
v 52.200001 2.000000 7.200000
v 51.999989 2.000000 6.999990
v 52.200001 2.000000 -0.200000
v 51.999989 2.000000 0.000010
v 52.200001 2.000000 19.200001
v 51.999989 2.000000 18.999990
v 52.200001 2.000000 8.800000
v 51.999989 2.000000 9.000010
v 7.800000 1.000000 -20.200001
v 8.000010 1.000000 -19.999990
v 8.000010 -1.000000 -19.999990
v 7.800000 -1.000000 -20.200001
v 13.000000 1.000000 -20.200001
v 13.000000 1.000000 -19.999990
v 12.800000 -1.000000 -20.200001
v 13.000010 -1.000000 -19.999990
v 34.000000 1.000000 -20.200001
v 34.000000 1.000000 -19.999990
v 34.200001 -1.000000 -20.200001
v 33.999989 -1.000000 -19.999990
v 38.999989 1.000000 -19.999990
v 39.200001 1.000000 -20.200001
v 39.200001 -1.000000 -20.200001
v 38.999989 -1.000000 -19.999990
v 8.000010 1.000000 -0.000010
v 7.800000 1.000000 0.200000
v 8.000010 -1.000000 -0.000010
v 7.800000 -1.000000 0.200000
v 13.000000 1.000000 0.200000
v 13.000000 1.000000 -0.000010
v 12.800000 -1.000000 0.200000
v 13.000010 -1.000000 -0.000010
v 34.000000 1.000000 0.200000
v 34.000000 1.000000 -0.000010
v 33.999989 -1.000000 -0.000010
v 34.200001 -1.000000 0.200000
v 38.999989 1.000000 -0.000010
v 39.200001 1.000000 0.200000
v 38.999989 -1.000000 -0.000010
v 39.200001 -1.000000 0.200000
v 8.000010 6.000000 -9.000000
v 7.800000 6.000000 -9.000000
v 8.000010 6.000000 -11.000000
v 7.800000 6.000000 -11.000000
v 7.800000 6.000000 -20.200001
v 8.000010 6.000000 -19.999990
v 38.999989 6.000000 -9.000000
v 39.200001 6.000000 -9.000000
v 38.999989 6.000000 -0.000010
v 39.200001 6.000000 0.200000
v 13.000000 6.000000 -20.200001
v 13.000000 6.000000 -19.999990
v 38.999989 6.000000 -11.000000
v 39.200001 6.000000 -11.000000
v 34.000000 6.000000 -20.200001
v 34.000000 6.000000 -19.999990
v 38.999989 6.000000 -19.999990
v 39.200001 6.000000 -20.200001
v 8.000010 6.000000 -0.000010
v 7.800000 6.000000 0.200000
v 13.000000 6.000000 0.200000
v 13.000000 6.000000 -0.000010
v 34.000000 6.000000 0.200000
v 34.000000 6.000000 -0.000010
v 12.800000 -7.000000 -20.200001
v 13.000010 -7.000000 -19.999990
v 34.200001 -7.000000 -20.200001
v 33.999989 -7.000000 -19.999990
v 34.200001 -7.000000 0.200000
v 33.999989 -7.000000 -0.000010
v 12.800000 -7.000000 0.200000
v 13.000010 -7.000000 -0.000010
vn -0.0000 -1.0000 -0.0000
vn -0.0000 1.0000 -0.0000
vn -0.1748 -0.9205 -0.3495
vn 0.1748 -0.9205 -0.3495
vn -0.1748 0.9205 0.3495
vn 0.1748 0.9205 0.3495
vn -0.3495 -0.9205 -0.1748
vn 0.3495 0.9205 0.1748
vn 0.3590 0.9333 -0.0000
vn -0.3495 -0.9205 0.1748
vn -0.3590 -0.9333 -0.0000
vn 0.3495 0.9205 -0.1748
vn 1.0000 -0.0000 -0.0000
vn -1.0000 -0.0000 -0.0000
vn -0.0000 -0.0000 -1.0000
vn -0.0000 -0.0000 1.0000
vt 0.505834 0.670102
vt 0.505834 0.873163
vt 0.465222 0.873163
vt 0.465222 0.670102
vt 0.998005 0.629489
vt 0.998005 0.832551
vt 0.957392 0.832551
vt 0.957392 0.629489
vt 0.081224 0.873163
vt 0.081224 0.913775
vt 0.040612 0.913775
vt 0.040612 0.873163
vt 0.873163 0.944315
vt 0.873163 0.984927
vt 0.832551 0.984927
vt 0.832551 0.944315
vt 0.465222 0.629490
vt 0.505834 0.629490
vt 0.771632 0.223367
vt 0.771632 0.182755
vt 0.282467 0.832551
vt 0.282467 0.974693
vt 0.832551 0.802172
vt 0.873163 0.802172
vt 0.323079 0.974693
vt 0.323079 0.832551
vt 0.670102 0.000000
vt 0.670102 0.182755
vt 0.527959 0.629490
vt 0.527959 0.588877
vt 0.649796 0.588877
vt 0.649796 0.629489
vt 0.629490 0.182755
vt 0.629490 0.223367
vt 0.568571 0.812244
vt 0.568571 0.995000
vt 0.527959 0.995000
vt 0.527959 0.812244
vt 0.996745 0.223367
vt 0.996745 0.040612
vt 0.956133 0.223367
vt 0.956133 0.040612
vt 0.957392 0.588877
vt 0.957392 0.629489
vt 0.998004 0.588877
vt 0.998004 0.629489
vt 0.996745 -0.000000
vt 0.956133 -0.000000
vt 0.629490 0.893469
vt 0.629490 0.852857
vt 0.957392 0.406122
vt 0.998004 0.406122
vt 0.568571 0.994999
vt 0.609183 0.994999
vt 0.609183 0.812244
vt 0.670102 0.934081
vt 0.670102 0.893469
vt 0.731020 0.934081
vt 0.731020 0.893469
vt 0.040612 0.913775
vt 0.040612 0.954387
vt 0.444916 0.913775
vt 0.444916 0.873163
vt 0.690408 0.852857
vt 0.690408 0.893469
vt 0.000000 0.629489
vt 0.000000 0.710714
vt 0.160630 0.708289
vt 0.140930 0.629489
vt 0.121230 0.718139
vt 0.101531 0.639339
vt 0.040612 0.710714
vt 0.040612 0.629489
vt 0.101531 0.890512
vt 0.101531 0.873163
vt 0.060918 0.873163
vt 0.140930 0.880662
vt 0.840511 0.632129
vt 0.862035 0.597690
vt 0.827596 0.576165
vt 0.806072 0.610604
vt 0.791938 0.842784
vt 0.791938 0.802172
vt 0.806072 0.802172
vt 0.771632 0.780647
vt 0.895215 0.000000
vt 0.852608 0.168183
vt 0.812245 0.172668
vt 0.854851 0.004485
vt 0.957392 0.954387
vt 0.957392 0.913775
vt 0.834669 0.374487
vt 0.343385 0.832551
vt 0.343385 0.629489
vt 0.957392 0.791938
vt 0.832551 0.964621
vt 0.832551 0.842784
vt 0.771632 0.842784
vt 0.771632 0.802172
vt 0.896474 0.913775
vt 0.896474 0.954387
vt 0.872790 0.165940
vt 0.895215 0.367759
vt 0.282467 0.629489
vt 0.771632 0.964621
vt 0.896474 0.791938
vt 0.424610 0.670102
vt 0.424610 0.710714
vt 0.896474 0.427647
vt 0.731020 0.826504
vt 0.731020 1.000000
vt 0.769047 0.812244
vt 0.769047 0.985740
vt 0.862035 0.406122
vt 0.363691 0.791938
vt 0.363691 0.751326
vt 0.201242 0.913775
vt 0.201242 0.873163
vt 0.160630 0.913775
vt 0.160630 0.873163
vt 0.363691 0.832551
vt 0.363691 0.954387
vt 0.323079 0.832551
vt 0.323079 0.954387
vt 0.363691 0.832551
vt 0.363691 0.954387
vt 0.404303 0.954387
vt 0.404303 0.832551
vt 0.221548 0.873163
vt 0.221548 0.629489
vt 0.404303 0.751326
vt 0.404303 0.629489
vt 0.465222 0.832551
vt 0.465222 0.710714
vt 0.282467 0.873163
vt 0.404303 0.791938
vt 0.404303 0.832551
vt 0.404303 0.670102
vt 0.404303 0.710714
vt 0.343385 0.791938
vt 0.343385 0.751326
vt 0.160630 0.873163
vt 0.160630 0.629489
vt 0.404303 0.832551
vt 0.343385 0.629489
vt 0.221548 0.629489
vt 0.221548 0.873163
vt 0.343385 0.832551
vt 0.404303 0.629489
vt 0.957392 0.548265
vt 0.937086 0.588877
vt 0.937086 0.548265
vt 0.957392 0.791938
vt 0.731020 0.812244
vt 0.731020 0.852857
vt 0.040612 0.873163
vt 0.444916 0.954387
vt 0.956133 0.243673
vt 0.956133 0.385816
vt 0.935827 0.243673
vt 0.935827 0.203061
vt 0.956133 0.203061
vt 0.040612 0.995000
vt 0.444916 0.832551
vt 0.670102 0.852857
vt 0.670102 0.812245
vt 0.609183 0.893469
vt 0.609183 0.852857
vt 0.000000 0.913775
vt 0.000000 0.954387
vt 0.404303 0.913775
vt 0.404303 0.873163
vt 0.670102 0.852857
vt 0.670102 0.893469
vt 0.896474 0.406122
vt 0.896474 0.548265
vt 0.896474 0.791938
vt 0.896474 0.588877
vt 0.670102 0.812244
vt 0.609183 0.934081
vt 0.000000 0.873163
vt 0.404303 0.954387
vt 0.895215 0.243673
vt 0.895215 0.385816
vt 0.895215 -0.000000
vt 0.895215 0.203061
vt -0.000000 0.994999
vt 0.609183 0.812245
vt 0.670102 0.934081
vt 0.142143 0.629489
vt 0.142143 0.527959
vt 0.142143 0.101531
vt 0.142143 0.000000
vt 0.649796 0.812244
vt 0.670102 0.406122
vt 0.670102 0.223367
vt 0.527959 0.406122
vt 0.812245 -0.000000
vt 0.812245 0.182755
vt 0.406122 -0.000000
vt 0.406122 0.101531
vt 0.406122 0.527959
vt 0.406122 0.629489
vt 0.812245 0.223367
vt 0.812245 0.406122
vt 0.527959 0.812245
vt 0.649796 0.406122
vt 0.670102 0.223367
vt 0.670102 0.182755
vt 0.670102 -0.000000
vt 0.527959 0.182755
vt 0.527959 -0.000000
vt 0.527959 0.223367
vt 0.000000 0.527959
vt 0.000000 0.629489
vt 0.000000 0.101531
vt 0.000000 0.000000
vt 0.527959 0.406122
vt 0.263980 -0.000000
vt 0.263980 0.101531
vt 0.263980 0.527959
vt 0.263980 0.629489
vt 0.670102 0.406122
vt 0.649796 0.629490
vt 0.649796 0.588877
vt 0.771632 0.588877
vt 0.771632 0.629489
vt 0.263979 0.527959
vt 0.263979 0.101531
vt 0.771632 0.812245
vt 0.649796 0.406122
vt 0.527959 0.527959
vt 0.527959 0.101531
vt 0.649796 0.812245
vt 0.771632 0.406122
vt 0.101531 0.101531
vt 0.101531 0.000000
vt 0.365510 0.101531
vt 0.365510 -0.000000
vt 0.629490 -0.000000
vt 0.771632 -0.000000
vt 0.771632 0.406122
vt 0.915521 0.385816
vt 0.915521 -0.000000
vt 0.629490 0.934081
vt 0.690408 0.812244
vt 0.916780 0.954387
vt 0.916780 0.913775
vt 0.875033 0.370002
vt 0.302773 0.832551
vt 0.302773 0.629489
vt 0.916780 0.791938
vt 0.791938 0.964621
vt 0.363691 0.629489
vt 0.180936 0.629489
vt 0.180936 0.873163
vt 0.424610 0.832551
vt 0.241855 0.873163
vt 0.241855 0.629489
vt 0.424610 0.629490
vt 0.916780 0.406122
vt 0.916780 0.791938
vt 0.690408 0.934081
vt 0.629490 0.812245
vt 0.101531 0.629489
vt 0.101531 0.527959
vt 0.629490 0.406122
vt 0.365510 0.527959
vt 0.365510 0.629489
s 0
f 5/1/1 1/2/1 2/2/1 6/1/1
f 4/3/2 7/4/2 8/4/2 3/3/2
f 9/5/1 13/6/1 14/6/1 10/5/1
f 15/7/2 11/8/2 12/8/2 16/7/2
f 1/9/1 9/10/1 10/10/1 2/9/1
f 11/11/2 4/12/2 3/12/2 12/11/2
f 21/13/1 19/14/1 20/14/1 22/13/1
f 17/15/2 23/16/2 24/16/2 18/15/2
f 18/17/2 8/4/2 7/4/2 17/17/2
f 19/18/1 5/1/1 6/1/1 20/18/1
f 26/19/1 29/20/1 30/20/1 25/19/1
f 16/21/2 26/22/2 25/22/2 15/21/2
f 29/23/2 24/16/2 23/16/2 30/23/2
f 22/13/1 31/24/1 32/24/1 21/13/1
f 28/25/1 14/26/1 13/26/1 27/25/1
f 307/27/1 51/28/1 52/28/1 308/27/1
f 35/29/2 39/30/2 40/30/2 36/29/2
f 43/31/2 47/32/2 48/32/2 44/31/2
f 49/33/1 53/34/1 54/34/1 50/33/1
f 51/35/1 59/36/1 60/36/1 52/35/1
f 57/37/2 49/38/2 50/38/2 58/37/2
f 56/39/1 63/40/1 64/40/1 55/39/1
f 53/41/2 62/42/2 61/42/2 54/41/2
f 65/43/2 70/44/2 69/44/2 66/43/2
f 68/45/1 71/46/1 72/46/1 67/45/1
f 63/40/1 72/47/1 71/47/1 64/40/1
f 62/42/2 69/48/2 70/48/2 61/42/2
f 74/49/1 77/50/1 78/50/1 73/49/1
f 66/43/2 78/51/2 77/51/2 65/43/2
f 80/52/1 68/45/1 67/45/1 79/52/1
f 58/35/2 74/53/2 73/53/2 57/35/2
f 76/54/1 60/55/1 59/55/1 75/54/1
f 215/56/1 76/57/1 75/57/1 216/56/1
f 243/58/1 95/59/1 96/59/1 244/58/1
f 81/60/1 83/61/1 84/61/1 82/60/1
f 85/62/1 87/63/1 88/63/1 86/62/1
f 89/64/1 93/65/1 94/65/1 90/64/1
f 90/66/2 98/67/2 97/67/2 89/66/2
f 101/68/2 94/69/2 93/69/2 102/68/2
f 104/70/1 96/71/1 95/71/1 103/70/1
f 100/72/1 92/73/1 91/73/1 99/72/1
f 103/70/3 111/74/3 112/74/3 104/70/3
f 108/75/4 100/72/4 99/72/4 107/75/4
f 105/76/5 97/67/5 98/67/5 106/76/5
f 109/77/6 101/68/6 102/68/6 110/77/6
f 120/78/1 115/79/1 116/79/1 119/78/1
f 113/80/2 118/81/2 117/81/2 114/80/2
f 126/82/1 121/83/1 122/83/1 125/82/1
f 119/78/7 127/84/7 128/84/7 120/78/7
f 125/85/8 117/81/8 118/81/8 126/85/8
f 110/86/9 122/87/9 121/87/9 109/86/9
f 124/88/7 112/89/7 111/89/7 123/88/7
f 132/90/1 135/91/1 136/91/1 131/90/1
f 123/88/1 132/92/1 131/92/1 124/88/1
f 144/93/1 139/94/1 140/94/1 143/93/1
f 135/91/1 144/95/1 143/95/1 136/91/1
f 139/96/1 128/97/1 127/97/1 140/96/1
f 145/98/2 147/99/2 148/99/2 146/98/2
f 149/100/2 151/101/2 152/101/2 150/100/2
f 147/102/2 152/103/2 151/103/2 148/102/2
f 153/104/2 155/21/2 156/21/2 154/104/2
f 146/98/2 153/105/2 154/105/2 145/98/2
f 155/106/2 149/100/2 150/100/2 156/106/2
f 162/107/1 157/108/1 158/108/1 161/107/1
f 115/79/10 163/109/10 164/109/10 116/79/10
f 160/110/11 108/111/11 107/111/11 159/110/11
f 157/112/9 105/113/9 106/113/9 158/112/9
f 161/114/12 113/80/12 114/80/12 162/114/12
f 169/115/1 165/116/1 166/116/1 170/115/1
f 180/117/1 175/118/1 176/118/1 179/117/1
f 177/119/2 174/120/2 173/120/2 178/119/2
f 165/121/2 173/122/2 174/122/2 166/121/2
f 178/123/2 169/124/2 170/124/2 177/123/2
f 179/125/1 172/126/1 171/126/1 180/125/1
f 175/127/1 167/128/1 168/128/1 176/127/1
f 188/129/1 183/130/1 184/130/1 187/129/1
f 167/131/1 188/132/1 187/132/1 168/131/1
f 183/133/1 160/134/1 159/134/1 184/133/1
f 192/135/1 196/104/1 195/104/1 191/135/1
f 172/136/1 195/137/1 196/137/1 171/136/1
f 191/17/1 164/4/1 163/4/1 192/17/1
f 197/138/2 199/139/2 200/139/2 198/138/2
f 201/140/2 203/141/2 204/141/2 202/140/2
f 205/142/2 207/143/2 208/143/2 206/142/2
f 207/144/2 200/139/2 199/139/2 208/144/2
f 206/145/2 204/141/2 203/141/2 205/145/2
f 209/146/2 211/147/2 212/147/2 210/146/2
f 210/148/2 201/140/2 202/140/2 209/148/2
f 198/138/2 212/149/2 211/149/2 197/138/2
f 220/150/1 215/51/1 216/51/1 219/150/1
f 224/43/1 220/150/1 219/150/1 223/43/1
f 222/151/2 218/152/2 217/152/2 221/151/2
f 227/153/1 224/43/1 223/43/1 228/153/1
f 228/154/1 91/155/1 92/155/1 227/154/1
f 82/60/1 217/156/1 218/156/1 81/60/1
f 221/157/1 85/62/1 86/62/1 222/157/1
f 235/158/1 231/159/1 232/159/1 236/158/1
f 233/160/2 238/161/2 237/161/2 234/160/2
f 240/162/1 235/158/1 236/158/1 239/162/1
f 239/162/1 243/48/1 244/48/1 240/162/1
f 83/61/1 233/163/1 234/163/1 84/61/1
f 238/164/1 88/63/1 87/63/1 237/164/1
f 79/165/1 232/166/1 231/166/1 80/165/1
f 245/167/2 247/168/2 248/168/2 246/167/2
f 249/169/2 251/170/2 252/170/2 250/169/2
f 253/171/2 255/172/2 256/172/2 254/171/2
f 257/173/2 259/174/2 260/174/2 258/173/2
f 261/175/2 263/176/2 264/176/2 262/175/2
f 265/177/2 268/178/2 267/178/2 266/177/2
f 258/173/2 265/179/2 266/179/2 257/173/2
f 262/180/2 245/167/2 246/167/2 261/180/2
f 250/169/2 264/181/2 263/181/2 249/169/2
f 268/182/2 253/171/2 254/171/2 267/182/2
f 269/183/2 271/184/2 272/184/2 270/183/2
f 273/185/2 275/186/2 276/186/2 274/185/2
f 251/170/2 269/187/2 270/187/2 252/170/2
f 271/188/2 248/168/2 247/168/2 272/188/2
f 259/174/2 273/189/2 274/189/2 260/174/2
f 275/144/2 256/172/2 255/172/2 276/144/2
f 280/190/1 283/191/1 284/191/1 279/190/1
f 287/192/1 291/193/1 292/193/1 288/192/1
f 47/32/2 287/194/2 288/194/2 48/32/2
f 291/195/1 56/196/1 55/196/1 292/195/1
f 39/30/2 284/197/2 283/197/2 40/30/2
f 279/198/1 32/199/1 31/199/1 280/198/1
f 295/200/1 300/201/1 299/201/1 296/200/1
f 303/202/1 307/203/1 308/203/1 304/202/1
f 27/204/1 295/205/1 296/205/1 28/204/1
f 36/29/2 299/206/2 300/206/2 35/29/2
f 44/31/2 303/207/2 304/207/2 43/31/2
f 309/208/2 311/209/2 312/209/2 310/208/2
f 313/210/2 312/209/2 311/209/2 314/210/2
f 315/211/2 317/212/2 318/212/2 316/211/2
f 316/211/2 322/213/2 321/213/2 315/211/2
f 319/214/2 313/215/2 314/215/2 320/214/2
f 320/214/2 324/216/2 323/216/2 319/214/2
f 326/217/2 323/216/2 324/216/2 325/217/2
f 322/213/2 326/218/2 325/218/2 321/213/2
f 328/219/2 329/220/2 330/220/2 327/219/2
f 329/220/2 331/221/2 332/221/2 330/220/2
f 331/221/2 318/222/2 317/222/2 332/221/2
f 327/223/2 309/208/2 310/208/2 328/223/2
f 46/224/1 41/225/1 42/225/1 45/224/1
f 37/226/1 33/227/1 34/227/1 38/226/1
f 333/228/1 335/229/1 336/229/1 334/228/1
f 33/227/1 336/230/1 335/230/1 34/227/1
f 41/225/1 333/231/1 334/231/1 42/225/1
f 337/232/1 339/233/1 340/233/1 338/232/1
f 45/224/1 340/234/1 339/234/1 46/224/1
f 38/226/1 337/235/1 338/235/1 37/226/1
f 4/3/13 1/2/13 5/1/13 7/4/13
f 3/3/14 8/4/14 6/1/14 2/2/14
f 15/7/14 13/6/14 9/5/14 11/8/14
f 16/7/13 12/8/13 10/5/13 14/6/13
f 11/11/15 9/10/15 1/9/15 4/12/15
f 12/11/16 3/12/16 2/9/16 10/10/16
f 17/15/16 19/14/16 21/13/16 23/16/16
f 18/15/15 24/16/15 22/13/15 20/14/15
f 7/4/13 5/1/13 19/18/13 17/17/13
f 8/4/14 18/17/14 20/18/14 6/1/14
f 286/236/16 289/237/16 325/217/16 324/216/16
f 285/236/15 323/216/15 326/217/15 290/237/15
f 13/26/15 15/21/15 25/22/15 27/25/15
f 14/26/16 28/25/16 26/22/16 16/21/16
f 23/16/16 21/13/16 32/24/16 30/23/16
f 24/16/15 29/23/15 31/24/15 22/13/15
f 284/197/13 39/30/13 42/225/13 334/231/13
f 283/197/14 333/231/14 41/225/14 40/30/14
f 298/238/15 293/239/15 327/219/15 330/220/15
f 297/238/16 329/220/16 328/219/16 294/239/16
f 49/33/14 305/240/14 317/212/14 315/211/14
f 50/33/13 316/211/13 318/212/13 306/240/13
f 30/20/13 278/241/13 314/210/13 311/209/13
f 29/20/14 312/209/14 313/210/14 277/241/14
f 27/204/13 25/19/13 293/242/13 295/205/13
f 28/204/14 296/205/14 294/242/14 26/19/14
f 51/35/15 49/38/15 57/37/15 59/36/15
f 52/35/16 60/36/16 58/37/16 50/38/16
f 49/33/14 51/28/14 307/27/14 305/240/14
f 50/33/13 306/240/13 308/27/13 52/28/13
f 53/34/14 49/33/14 315/211/14 321/213/14
f 54/34/13 322/213/13 316/211/13 50/33/13
f 53/41/16 55/39/16 64/40/16 62/42/16
f 54/41/15 61/42/15 63/40/15 56/39/15
f 68/45/14 66/43/14 69/44/14 71/46/14
f 67/45/13 72/46/13 70/44/13 65/43/13
f 62/42/16 64/40/16 71/47/16 69/48/16
f 61/42/15 70/48/15 72/47/15 63/40/15
f 66/43/14 68/45/14 80/52/14 78/51/14
f 65/43/13 77/51/13 79/52/13 67/45/13
f 229/243/14 233/160/14 270/183/14 272/184/14
f 230/243/13 271/184/13 269/183/13 234/160/13
f 59/55/13 57/35/13 73/53/13 75/54/13
f 60/55/14 76/54/14 74/53/14 58/35/14
f 73/49/16 78/50/16 247/168/16 245/167/16
f 74/49/15 246/167/15 248/168/15 77/50/15
f 238/161/14 242/244/14 274/185/14 276/186/14
f 237/161/13 275/186/13 273/185/13 241/244/13
f 75/57/16 73/49/16 214/245/16 216/56/16
f 76/57/15 215/56/15 213/245/15 74/49/15
f 89/64/15 91/155/15 228/154/15 225/246/15
f 90/64/16 226/246/16 227/154/16 92/155/16
f 89/64/15 225/246/15 265/179/15 258/173/15
f 90/64/16 257/173/16 266/179/16 226/246/16
f 93/69/14 96/71/14 104/70/14 102/68/14
f 94/69/13 101/68/13 103/70/13 95/71/13
f 91/73/13 89/66/13 97/67/13 99/72/13
f 92/73/14 100/72/14 98/67/14 90/66/14
f 99/72/13 97/67/13 105/76/13 107/75/13
f 100/72/14 108/75/14 106/76/14 98/67/14
f 102/68/14 104/70/14 112/74/14 110/77/14
f 101/68/13 109/77/13 111/74/13 103/70/13
f 116/79/15 114/80/15 117/81/15 119/78/15
f 115/79/16 120/78/16 118/81/16 113/80/16
f 119/78/15 117/81/15 125/85/15 127/84/15
f 120/78/16 128/84/16 126/85/16 118/81/16
f 110/86/16 112/89/16 124/88/16 122/87/16
f 109/86/15 121/87/15 123/88/15 111/89/15
f 129/247/14 131/90/14 136/91/14 134/248/14
f 130/247/13 133/248/13 135/91/13 132/90/13
f 122/87/16 124/88/16 131/92/16 129/249/16
f 121/87/15 130/249/15 132/92/15 123/88/15
f 129/247/14 134/248/14 150/100/14 152/101/14
f 130/247/13 151/101/13 149/100/13 133/248/13
f 142/250/15 138/251/15 154/104/15 156/21/15
f 141/250/16 155/21/16 153/104/16 137/251/16
f 140/94/15 138/251/15 142/250/15 143/93/15
f 139/94/16 144/93/16 141/250/16 137/251/16
f 134/248/14 136/91/14 143/95/14 142/252/14
f 133/248/13 141/252/13 144/95/13 135/91/13
f 127/97/13 125/82/13 138/253/13 140/96/13
f 128/97/14 139/96/14 137/253/14 126/82/14
f 138/253/13 125/82/13 145/98/13 154/105/13
f 137/253/14 153/105/14 146/98/14 126/82/14
f 125/82/13 122/83/13 147/99/13 145/98/13
f 126/82/14 146/98/14 148/99/14 121/83/14
f 122/87/16 129/249/16 152/103/16 147/102/16
f 121/87/15 148/102/15 151/103/15 130/249/15
f 134/248/14 142/252/14 156/106/14 150/100/14
f 133/248/13 149/100/13 155/106/13 141/252/13
f 107/111/16 105/113/16 157/112/16 159/110/16
f 108/111/15 160/110/15 158/112/15 106/113/15
f 114/80/15 116/79/15 164/109/15 162/114/15
f 113/80/16 161/114/16 163/109/16 115/79/16
f 166/116/13 185/254/13 205/145/13 203/141/13
f 165/116/14 204/141/14 206/145/14 186/254/14
f 172/136/13 170/115/13 194/125/13 195/137/13
f 171/136/14 196/137/14 193/125/14 169/115/14
f 176/118/13 174/120/13 177/119/13 179/117/13
f 175/118/14 180/117/14 178/119/14 173/120/14
f 170/124/15 172/126/15 179/125/15 177/123/15
f 169/124/16 178/123/16 180/125/16 171/126/16
f 168/128/16 166/121/16 174/122/16 176/127/16
f 167/128/15 175/127/15 173/122/15 165/121/15
f 184/130/16 182/255/16 185/256/16 187/129/16
f 183/130/15 188/129/15 186/256/15 181/255/15
f 159/134/14 157/108/14 182/257/14 184/133/14
f 160/134/13 183/133/13 181/257/13 158/108/13
f 170/115/13 166/116/13 203/141/13 201/140/13
f 169/115/14 202/140/14 204/141/14 165/116/14
f 166/116/13 168/131/13 187/132/13 185/254/13
f 165/116/14 186/254/14 188/132/14 167/131/14
f 190/258/15 191/135/15 195/104/15 194/259/15
f 189/258/16 193/259/16 196/104/16 192/135/16
f 162/107/14 164/4/14 191/17/14 190/260/14
f 161/107/13 189/260/13 192/17/13 163/4/13
f 190/258/15 194/259/15 210/146/15 212/147/15
f 189/258/16 211/147/16 209/146/16 193/259/16
f 162/107/14 190/260/14 212/149/14 198/138/14
f 161/107/13 197/138/13 211/149/13 189/260/13
f 185/256/16 182/255/16 207/143/16 205/142/16
f 186/256/15 206/142/15 208/143/15 181/255/15
f 157/108/14 162/107/14 198/138/14 200/139/14
f 158/108/13 199/139/13 197/138/13 161/107/13
f 182/257/14 157/108/14 200/139/14 207/144/14
f 181/257/13 208/144/13 199/139/13 158/108/13
f 194/125/13 170/115/13 201/140/13 210/148/13
f 193/125/14 209/148/14 202/140/14 169/115/14
f 216/51/13 214/261/13 218/152/13 219/150/13
f 215/51/14 220/150/14 217/152/14 213/261/14
f 219/150/13 218/152/13 222/151/13 223/43/13
f 220/150/14 224/43/14 221/151/14 217/152/14
f 223/43/13 222/151/13 225/262/13 228/153/13
f 224/43/14 227/153/14 226/262/14 221/151/14
f 218/152/13 214/261/13 262/175/13 264/176/13
f 217/152/14 263/176/14 261/175/14 213/261/14
f 225/262/13 222/151/13 268/178/13 265/177/13
f 226/262/14 266/177/14 267/178/14 221/151/14
f 233/160/14 235/158/14 240/162/14 238/161/14
f 234/160/13 237/161/13 239/162/13 236/158/13
f 229/243/14 231/159/14 235/158/14 233/160/14
f 230/243/13 234/160/13 236/158/13 232/159/13
f 238/161/14 240/162/14 244/48/14 242/244/14
f 237/161/13 241/244/13 243/48/13 239/162/13
f 96/59/15 93/65/15 242/263/15 244/58/15
f 95/59/16 243/58/16 241/263/16 94/65/16
f 78/50/16 80/165/16 231/166/16 229/264/16
f 77/50/15 230/264/15 232/166/15 79/165/15
f 83/61/15 81/60/15 250/169/15 252/170/15
f 84/61/16 251/170/16 249/169/16 82/60/16
f 233/163/15 83/61/15 252/170/15 270/187/15
f 234/163/16 269/187/16 251/170/16 84/61/16
f 86/62/16 88/63/16 255/172/16 253/171/16
f 85/62/15 254/171/15 256/172/15 87/63/15
f 214/245/16 73/49/16 245/167/16 262/180/16
f 213/245/15 261/180/15 246/167/15 74/49/15
f 78/50/16 229/264/16 272/188/16 247/168/16
f 77/50/15 248/168/15 271/188/15 230/264/15
f 93/65/15 89/64/15 258/173/15 260/174/15
f 94/65/16 259/174/16 257/173/16 90/64/16
f 242/263/15 93/65/15 260/174/15 274/189/15
f 241/263/16 273/189/16 259/174/16 94/65/16
f 81/60/15 218/156/15 264/181/15 250/169/15
f 82/60/16 249/169/16 263/181/16 217/156/16
f 88/63/16 238/164/16 276/144/16 255/172/16
f 87/63/15 256/172/15 275/144/15 237/164/15
f 222/157/16 86/62/16 253/171/16 268/182/16
f 221/157/15 267/182/15 254/171/15 85/62/15
f 278/265/16 279/190/16 284/191/16 282/266/16
f 277/265/15 281/266/15 283/191/15 280/190/15
f 282/266/16 284/191/16 288/192/16 286/236/16
f 281/266/15 285/236/15 287/192/15 283/191/15
f 286/236/16 288/192/16 292/193/16 289/237/16
f 285/236/15 290/237/15 291/193/15 287/192/15
f 39/30/13 35/29/13 45/224/13 42/225/13
f 40/30/14 41/225/14 46/224/14 36/29/14
f 25/19/13 30/20/13 311/209/13 309/208/13
f 26/19/14 310/208/14 312/209/14 29/20/14
f 55/196/14 53/34/14 289/267/14 292/195/14
f 56/196/13 291/195/13 290/267/13 54/34/13
f 30/20/13 32/199/13 279/198/13 278/241/13
f 29/20/14 277/241/14 280/198/14 31/199/14
f 295/200/15 293/239/15 298/238/15 300/201/15
f 296/200/16 299/201/16 297/238/16 294/239/16
f 300/201/15 298/238/15 302/268/15 303/202/15
f 299/201/16 304/202/16 301/268/16 297/238/16
f 303/202/15 302/268/15 305/269/15 307/203/15
f 304/202/16 308/203/16 306/269/16 301/268/16
f 289/267/14 53/34/14 321/213/14 325/218/14
f 290/267/13 326/218/13 322/213/13 54/34/13
f 305/269/15 302/268/15 332/221/15 317/222/15
f 306/269/16 318/222/16 331/221/16 301/268/16
f 35/29/13 300/206/13 340/234/13 45/224/13
f 36/29/14 46/224/14 339/234/14 299/206/14
f 293/242/13 25/19/13 309/208/13 327/223/13
f 294/242/14 328/223/14 310/208/14 26/19/14
f 302/268/15 298/238/15 330/220/15 332/221/15
f 301/268/16 331/221/16 329/220/16 297/238/16
f 278/265/16 282/266/16 320/214/16 314/215/16
f 277/265/15 313/215/15 319/214/15 281/266/15
f 282/266/16 286/236/16 324/216/16 320/214/16
f 281/266/15 319/214/15 323/216/15 285/236/15
f 48/32/14 288/194/14 336/230/14 33/227/14
f 47/32/13 34/227/13 335/230/13 287/194/13
f 303/207/14 44/31/14 37/226/14 338/235/14
f 304/207/13 337/235/13 38/226/13 43/31/13
f 288/192/16 284/191/16 334/228/16 336/229/16
f 287/192/15 335/229/15 333/228/15 283/191/15
f 44/31/14 48/32/14 33/227/14 37/226/14
f 43/31/13 38/226/13 34/227/13 47/32/13
f 300/201/15 303/202/15 338/232/15 340/233/15
f 299/201/16 339/233/16 337/232/16 304/202/16
