# Blender 4.1.1
# www.blender.org
o Floor
v -1.000000 -1.200000 1.000000
v -1.000000 -0.999990 1.000000
v -1.000000 -1.200000 -1.000000
v -1.000000 -0.999990 -1.000000
v 1.000000 -0.999990 1.000000
v 1.000000 -1.200000 1.000000
v 1.000000 -1.200000 -1.000000
v 1.000000 -0.999990 -1.000000
v 9.000000 -1.200000 -1.000000
v 9.000000 -0.999990 -1.000000
v 9.000000 -1.200000 0.975379
v 9.000000 -0.999990 1.000001
v 11.000000 -1.200000 -1.000000
v 11.000000 -0.999990 -1.000000
v 11.000000 -1.200000 0.975379
v 11.000000 -0.999990 1.000001
v 9.000000 -3.200000 8.975379
v 9.000000 -2.999990 9.000001
v 11.000000 -3.200000 8.975379
v 11.000000 -2.999990 9.000001
v 9.000000 -2.999990 11.000000
v 9.000000 -3.200000 11.000000
v 11.000000 -2.999990 11.000000
v 11.000000 -3.200000 11.000000
v 15.000000 -2.999990 8.999998
v 15.000000 -3.200000 9.032455
v 15.000000 -2.999990 11.000000
v 15.000000 -3.200000 11.000000
v 17.000000 -3.200000 9.032455
v 17.000000 -2.999990 8.999998
v 17.000000 -3.200000 11.000000
v 17.000000 -2.999990 11.000000
v 15.000000 -8.999990 -9.000002
v 15.000000 -9.200000 -8.967545
v 17.000000 -8.999990 -9.000002
v 17.000000 -9.200000 -8.967545
v 15.000000 -9.200000 -11.000000
v 15.000000 -8.999990 -11.000000
v 17.000000 -9.200000 -11.000000
v 17.000000 -8.999990 -11.000000
v 35.000000 -9.200000 -9.000000
v 35.000000 -8.999990 -9.000000
v 35.000000 -9.200000 -11.000000
v 35.000000 -8.999990 -11.000000
v 37.000000 -8.999990 -9.000000
v 37.000000 -9.200000 -9.000000
v 37.000000 -8.999990 -11.000000
v 37.000000 -9.200000 -11.000000
v 35.000000 -9.200000 -8.000000
v 35.000000 -8.999990 -8.000000
v 37.000000 -9.200000 -8.000000
v 37.000000 -8.999990 -8.000000
v 35.000000 -9.200000 -7.000000
v 35.000000 -8.999990 -7.000000
v 37.000000 -9.200000 -7.000000
v 37.000000 -8.999990 -7.000000
v 35.000000 -8.999990 9.000000
v 35.000000 -9.200000 9.000000
v 37.000000 -8.999990 9.000000
v 36.963734 -9.200000 9.000000
v 35.000000 -8.999990 11.000000
v 35.000000 -9.200000 11.000000
v 37.000000 -8.999990 11.000000
v 36.963734 -9.200000 11.000000
v 45.000004 -11.999990 9.000000
v 44.929775 -12.187265 9.000000
v 45.000004 -11.999990 11.000000
v 44.929775 -12.187265 11.000000
v 45.000000 -49.999989 9.000000
v 45.000000 -50.200001 9.000000
v 45.000000 -49.999989 11.000000
v 45.000000 -50.200001 11.000000
v 47.000000 -50.200001 9.000000
v 47.000000 -49.999989 9.000000
v 47.000000 -50.200001 11.000000
v 47.000000 -49.999989 11.000000
v 47.000000 -49.999989 17.000000
v 47.000000 -50.200001 17.000000
v 45.000000 -49.999989 17.000000
v 45.000000 -50.200001 17.000000
v 45.000000 -49.999989 3.000000
v 45.000000 -50.200001 3.000000
v 47.000000 -49.999989 3.000000
v 47.000000 -50.200001 3.000000
v 39.000000 -50.200001 9.000000
v 39.000000 -49.999989 9.000000
v 39.000000 -50.200001 11.000000
v 39.000000 -49.999989 11.000000
v 39.000000 -49.999989 17.000000
v 39.000000 -50.200001 17.000000
v 39.000000 -50.200001 3.000000
v 39.000000 -49.999989 3.000000
v 53.000000 -49.999989 9.000000
v 53.000000 -50.200001 9.000000
v 53.000000 -49.999989 11.000000
v 53.000000 -50.200001 11.000000
v 53.000000 -49.999989 17.000000
v 53.000000 -50.200001 17.000000
v 53.000000 -49.999989 3.000000
v 53.000000 -50.200001 3.000000
vn -1.0000 -0.0000 -0.0000
vn -0.0000 -0.0000 -1.0000
vn -0.0000 -0.0000 1.0000
vn 0.0015 -0.0614 0.9981
vn 1.0000 -0.0000 -0.0000
vn 0.0071 -0.0196 -0.9998
vn 0.0009 0.0809 0.9967
vn 0.9959 -0.0903 0.0011
vn 0.9363 -0.3511 -0.0000
vn -0.0000 1.0000 -0.0000
vn -0.0000 -1.0000 -0.0000
vn -0.0000 0.9701 0.2425
vn -0.0000 -0.9701 -0.2425
vn -0.0000 0.9487 -0.3162
vn -0.0000 -0.9487 0.3162
vn 0.3511 0.9363 -0.0000
vn -0.3511 -0.9363 -0.0000
vt 0.792257 0.731249
vt 0.792257 0.765709
vt 0.788811 0.765709
vt 0.788811 0.731249
vt 0.849995 0.654742
vt 0.849995 0.689202
vt 0.846549 0.689202
vt 0.846549 0.654742
vt 0.812259 0.658410
vt 0.812259 0.692870
vt 0.808813 0.692870
vt 0.808813 0.658410
vt 0.812259 0.830711
vt 0.808813 0.830711
vt 0.846549 0.516901
vt 0.849995 0.516901
vt 0.815500 0.516490
vt 0.808813 0.483117
vt 0.812190 0.482441
vt 0.818960 0.516229
vt 0.846549 0.482441
vt 0.849995 0.482441
vt 0.812273 0.658149
vt 0.808813 0.658410
vt 0.805351 0.624363
vt 0.798593 0.482441
vt 0.802055 0.482701
vt 0.808813 0.624623
vt 0.785365 0.696788
vt 0.785365 0.662328
vt 0.788811 0.662328
vt 0.788811 0.696788
vt 0.798593 0.658154
vt 0.801972 0.658830
vt 0.788811 0.731249
vt 0.788811 0.662329
vt 0.792258 0.662328
vt 0.792257 0.731249
vt 0.785365 0.765709
vt 0.788811 0.765709
vt 0.785365 0.483431
vt 0.775615 0.515900
vt 0.772156 0.515445
vt 0.782067 0.482441
vt 0.785365 0.800169
vt 0.788811 0.800169
vt 0.758792 0.809664
vt 0.768694 0.482895
vt 0.772156 0.482441
vt 0.762254 0.809209
vt 0.781906 0.842196
vt 0.785365 0.842651
vt 0.822406 0.827043
vt 0.822406 0.861503
vt 0.818960 0.861503
vt 0.818960 0.827043
vt 0.768855 0.843206
vt 0.772156 0.842216
vt 0.818960 0.516901
vt 0.822406 0.516901
vt 0.829319 0.792583
vt 0.829319 0.482441
vt 0.832766 0.482441
vt 0.832765 0.792583
vt 0.822406 0.827043
vt 0.822406 0.792583
vt 0.825850 0.792583
vt 0.825850 0.827043
vt 0.818960 0.482441
vt 0.822406 0.482441
vt 0.825850 0.775352
vt 0.822406 0.775352
vt 0.825873 0.499671
vt 0.825873 0.482441
vt 0.829319 0.482441
vt 0.829319 0.499671
vt 0.825850 0.758122
vt 0.822406 0.758122
vt 0.825873 0.516901
vt 0.829319 0.516901
vt 0.822406 0.482441
vt 0.825873 0.792583
vt 0.829319 0.792583
vt 0.785365 0.515440
vt 0.795292 0.482441
vt 0.798593 0.483433
vt 0.788845 0.515834
vt 0.825873 0.827043
vt 0.829319 0.827043
vt 0.792258 0.696789
vt 0.792258 0.662328
vt 0.795528 0.662328
vt 0.795528 0.696789
vt 0.798593 0.662099
vt 0.795154 0.662328
vt 0.798593 0.806044
vt 0.798593 0.659455
vt 0.802039 0.658830
vt 0.802039 0.806044
vt 0.836212 0.620282
vt 0.836213 0.585821
vt 0.839659 0.585821
vt 0.839659 0.620282
vt 0.832766 0.620282
vt 0.832766 0.585821
vt 0.836212 0.585821
vt 0.836212 0.620282
vt 0.843105 0.585821
vt 0.843105 0.620282
vt 0.839659 0.620282
vt 0.839659 0.585821
vt 0.839659 0.723662
vt 0.843105 0.723662
vt 0.843105 0.482441
vt 0.839659 0.482441
vt 0.832766 0.723662
vt 0.836212 0.723662
vt 0.839659 0.482441
vt 0.836213 0.482441
vt 0.843105 0.620282
vt 0.843105 0.585821
vt 0.846549 0.585821
vt 0.846549 0.620282
vt 0.843105 0.482441
vt 0.846549 0.482441
vt 0.843105 0.723662
vt 0.846549 0.723662
vt 0.836213 0.723662
vt 0.839659 0.723662
vt 0.836212 0.482441
vt 0.832766 0.482441
vt 0.172493 0.034486
vt 0.172463 0.000029
vt 0.206923 -0.000000
vt 0.206954 0.034457
vt 0.586299 0.034486
vt 0.551839 0.034457
vt 0.551870 0.000000
vt 0.586330 0.000029
vt 0.172616 0.172313
vt 0.207076 0.172284
vt 0.207106 0.206740
vt 0.172646 0.206770
vt 0.586177 0.172313
vt 0.586146 0.206770
vt 0.552111 0.206741
vt 0.552141 0.172284
vt 0.344814 0.172654
vt 0.344845 0.207111
vt 0.414372 0.207111
vt 0.414403 0.172654
vt 0.379305 0.207082
vt 0.379366 0.275995
vt 0.344906 0.276024
vt 0.413328 0.276024
vt 0.379427 0.275995
vt 0.379488 0.207082
vt 0.379274 0.172625
vt 0.379519 0.172625
vt 0.379396 0.310452
vt 0.344936 0.310481
vt 0.413297 0.310481
vt 0.379396 0.310452
vt 0.034491 0.312203
vt 0.034460 0.277747
vt 0.723773 0.277747
vt 0.723743 0.312203
vt 0.000031 0.312233
vt -0.000000 0.277776
vt 0.758792 0.277776
vt 0.758762 0.312233
vt 0.034765 0.622314
vt 0.000305 0.622343
vt 0.758487 0.622344
vt 0.724027 0.622315
vt 0.034796 0.656771
vt 0.000336 0.656800
vt 0.758456 0.656801
vt 0.723996 0.656771
vt 0.051995 0.622300
vt 0.052026 0.656756
vt 0.706766 0.656757
vt 0.706797 0.622300
vt 0.069225 0.622285
vt 0.069256 0.656742
vt 0.689536 0.656742
vt 0.689567 0.622286
vt 0.344936 0.656509
vt 0.344906 0.622052
vt 0.379366 0.622023
vt 0.379396 0.656480
vt 0.413856 0.655884
vt 0.379396 0.655855
vt 0.379426 0.622023
vt 0.413886 0.622052
vt 0.379366 0.795037
vt 0.344906 0.795067
vt 0.413886 0.793853
vt 0.379426 0.793824
vt 0.862167 0.379061
vt 0.862163 0.482441
vt 0.758792 0.482441
vt 0.758797 0.379061
vt 0.896625 0.137840
vt 0.999996 0.137840
vt 1.000000 0.241220
vt 0.896630 0.241220
vt 0.862168 0.344600
vt 0.896625 0.344600
vt 0.896624 0.379061
vt 0.862169 0.137840
vt 0.862167 0.103380
vt 0.896624 0.103380
vt 0.862173 0.241220
vt 0.896630 0.241220
vt 0.862163 -0.000000
vt 0.896620 -0.000000
vt 1.000000 0.241220
vt 0.999995 0.344600
vt 0.758797 0.103380
vt 0.758793 -0.000000
vt 0.999994 0.379061
vt 0.758798 0.137840
vt 0.896619 0.482441
vt 0.862173 0.241220
vt 0.758798 0.344600
vt 0.758803 0.241220
vt 0.999990 -0.000000
vt 0.999994 0.103380
vt 0.999990 0.482441
vt 0.758803 0.241220
s 0
f 3/1/1 1/2/1 2/3/1 4/4/1
f 7/5/2 3/6/2 4/7/2 8/8/2
f 1/9/3 6/10/3 5/11/3 2/12/3
f 6/10/4 11/13/4 12/14/4 5/11/4
f 8/8/2 10/15/2 9/16/2 7/5/2
f 15/17/5 13/18/5 14/19/5 16/20/5
f 10/15/2 14/21/2 13/22/2 9/16/2
f 16/20/5 20/23/5 19/24/5 15/17/5
f 18/25/1 12/26/1 11/27/1 17/28/1
f 23/29/3 21/30/3 22/31/3 24/32/3
f 21/33/1 18/25/1 17/28/1 22/34/1
f 20/35/6 25/36/6 26/37/6 19/38/6
f 27/39/3 23/29/3 24/32/3 28/40/3
f 31/41/5 29/42/5 30/43/5 32/44/5
f 32/45/3 27/39/3 28/40/3 31/46/3
f 34/47/1 26/48/1 25/49/1 33/50/1
f 35/51/5 30/43/5 29/42/5 36/52/5
f 39/53/2 37/54/2 38/55/2 40/56/2
f 37/57/1 34/47/1 33/50/1 38/58/1
f 40/56/2 44/59/2 43/60/2 39/53/2
f 42/61/7 35/62/7 36/63/7 41/64/7
f 47/65/5 45/66/5 46/67/5 48/68/5
f 44/59/2 47/69/2 48/70/2 43/60/2
f 51/71/5 46/67/5 45/66/5 52/72/5
f 50/73/1 42/74/1 41/75/1 49/76/1
f 55/77/5 51/71/5 52/72/5 56/78/5
f 54/79/1 50/73/1 49/76/1 53/80/1
f 60/74/8 55/77/8 56/78/8 59/81/8
f 57/82/1 54/79/1 53/80/1 58/83/1
f 63/84/3 61/85/3 62/86/3 64/87/3
f 61/88/1 57/82/1 58/83/1 62/89/1
f 65/90/9 67/91/9 68/92/9 66/93/9
f 64/87/3 68/94/3 67/95/3 63/84/3
f 66/96/2 60/97/2 59/98/2 65/99/2
f 77/100/3 79/101/3 80/102/3 78/103/3
f 81/104/2 83/105/2 84/106/2 82/107/2
f 85/108/1 87/109/1 88/110/1 86/111/1
f 89/112/1 88/110/1 87/109/1 90/113/1
f 91/114/1 85/108/1 86/111/1 92/115/1
f 92/116/2 81/104/2 82/107/2 91/117/2
f 90/118/3 80/102/3 79/101/3 89/119/3
f 93/120/5 95/121/5 96/122/5 94/123/5
f 95/121/5 97/124/5 98/125/5 96/122/5
f 99/126/5 93/120/5 94/123/5 100/127/5
f 97/128/3 77/100/3 78/103/3 98/129/3
f 100/130/2 84/106/2 83/105/2 99/131/2
f 8/132/10 4/133/10 2/134/10 5/135/10
f 7/136/11 6/137/11 1/138/11 3/139/11
f 10/140/10 12/141/10 16/142/10 14/143/10
f 9/144/11 13/145/11 15/146/11 11/147/11
f 8/132/10 5/135/10 12/141/10 10/140/10
f 7/136/11 9/144/11 11/147/11 6/137/11
f 16/142/12 12/141/12 18/148/12 20/149/12
f 15/146/13 19/150/13 17/151/13 11/147/13
f 20/149/10 23/152/10 27/153/10 25/154/10
f 19/150/11 26/155/11 28/156/11 24/157/11
f 20/149/10 18/148/10 21/158/10 23/152/10
f 19/150/11 24/157/11 22/159/11 17/151/11
f 25/154/10 27/153/10 32/160/10 30/161/10
f 26/155/11 29/162/11 31/163/11 28/156/11
f 25/154/14 30/161/14 35/164/14 33/165/14
f 26/155/15 34/166/15 36/167/15 29/162/15
f 33/165/10 35/164/10 40/168/10 38/169/10
f 34/166/11 37/170/11 39/171/11 36/167/11
f 40/168/10 35/164/10 42/172/10 44/173/10
f 39/171/11 43/174/11 41/175/11 36/167/11
f 44/173/10 42/172/10 45/176/10 47/177/10
f 43/174/11 48/178/11 46/179/11 41/175/11
f 45/176/10 42/172/10 50/180/10 52/181/10
f 46/179/11 51/182/11 49/183/11 41/175/11
f 52/181/10 50/180/10 54/184/10 56/185/10
f 51/182/11 55/186/11 53/187/11 49/183/11
f 59/188/10 57/189/10 61/190/10 63/191/10
f 60/192/11 64/193/11 62/194/11 58/195/11
f 56/185/10 54/184/10 57/189/10 59/188/10
f 55/186/11 60/192/11 58/195/11 53/187/11
f 59/188/16 63/191/16 67/196/16 65/197/16
f 60/192/17 66/198/17 68/199/17 64/193/17
f 69/200/10 81/201/10 92/202/10 86/203/10
f 70/204/11 85/205/11 91/206/11 82/207/11
f 69/200/10 71/208/10 76/209/10 74/210/10
f 70/204/11 73/211/11 75/212/11 72/213/11
f 76/209/10 71/208/10 79/214/10 77/215/10
f 75/212/11 78/216/11 80/217/11 72/213/11
f 76/209/10 77/215/10 97/218/10 95/219/10
f 75/212/11 96/220/11 98/221/11 78/216/11
f 74/210/10 76/209/10 95/219/10 93/222/10
f 73/211/11 94/223/11 96/220/11 75/212/11
f 69/200/10 74/210/10 83/224/10 81/201/10
f 70/204/11 82/207/11 84/225/11 73/211/11
f 79/214/10 71/208/10 88/226/10 89/227/10
f 80/217/11 90/228/11 87/229/11 72/213/11
f 71/208/10 69/200/10 86/203/10 88/226/10
f 72/213/11 87/229/11 85/205/11 70/204/11
f 83/224/10 74/210/10 93/222/10 99/230/10
f 84/225/11 100/231/11 94/223/11 73/211/11
