# Blender 4.1.1
# www.blender.org
o Roof
v -1.000000 1.200000 1.000000
v -1.000000 0.999990 1.000000
v -1.000000 1.200000 -1.000000
v -1.000000 0.999990 -1.000000
v 1.000000 0.999990 1.000000
v 1.000000 1.200000 1.000000
v 1.000000 1.200000 -1.000000
v 1.000000 0.999990 -1.000000
v 9.000000 0.999990 -1.000000
v 9.000000 1.200000 -1.000000
v 9.000000 0.999990 0.999999
v 9.000000 1.200000 1.024621
v 11.000000 1.200000 -1.000000
v 11.000000 0.999990 -1.000000
v 11.000000 1.200000 1.024621
v 11.000000 0.999990 0.999999
v 9.000000 -1.000010 8.999999
v 9.000000 -0.800000 9.024621
v 11.000000 -1.000010 8.999999
v 11.000000 -0.800000 9.024621
v 9.000000 -1.000010 11.000000
v 9.000000 -0.800000 11.000000
v 11.000000 -1.000010 11.000000
v 11.000000 -0.800000 11.000000
v 15.000000 -1.000010 9.000002
v 15.000000 -0.800000 8.967545
v 15.000000 -1.000010 11.000000
v 15.000000 -0.800000 11.000000
v 17.000000 -1.000010 9.000002
v 17.000000 -0.800000 8.967545
v 17.000000 -1.000010 11.000000
v 17.000000 -0.800000 11.000000
v 15.000000 -6.800000 -9.032455
v 15.000000 -7.000010 -8.999998
v 17.000000 -6.800000 -9.032455
v 17.000000 -7.000010 -8.999998
v 15.000000 -7.000010 -11.000000
v 15.000000 -6.800000 -11.000000
v 17.000000 -7.000010 -11.000000
v 17.000000 -6.800000 -11.000000
v 35.000000 -6.800000 -9.000000
v 35.000000 -7.000010 -9.000000
v 35.000000 -6.800000 -11.000000
v 35.000000 -7.000010 -11.000000
v 37.000000 -7.000010 -9.000000
v 37.000000 -6.800000 -9.000000
v 37.000000 -7.000010 -11.000000
v 37.000000 -6.800000 -11.000000
v 35.000000 -7.000010 -8.000004
v 35.000000 -6.800000 -7.917157
v 37.000000 -7.000010 -8.000004
v 37.000000 -6.800000 -7.917157
v 35.000000 -7.800000 -6.917157
v 35.000000 -8.000010 -7.000004
v 37.000000 -7.800000 -6.917157
v 37.000000 -8.000010 -7.000004
v 35.000000 -7.800000 9.000000
v 35.000000 -8.000010 9.000000
v 37.024620 -7.800000 9.000000
v 37.000000 -8.000010 9.000000
v 35.000000 -8.000010 11.000000
v 35.000000 -7.800000 11.000000
v 37.000000 -8.000010 11.000000
v 37.024620 -7.800000 11.000000
v 44.999996 -10.000010 9.000000
v 45.048508 -9.805971 9.000000
v 44.999996 -10.000010 11.000000
v 45.048508 -9.805971 11.000000
v 45.000000 -7.800000 11.000000
v 45.000000 -8.000010 11.000000
v 45.000000 -7.800000 9.000000
v 45.000000 -8.000010 9.000000
v 47.000000 -8.000010 11.000000
v 47.000000 -7.800000 11.000000
v 47.000000 -8.000010 9.000000
v 47.000000 -7.800000 9.000000
v 45.000000 -32.799999 9.000000
v 45.000000 -33.000011 9.000000
v 45.000000 -32.799999 11.000000
v 45.000000 -33.000011 11.000000
v 47.000000 -33.000011 9.000000
v 47.000000 -32.799999 9.000000
v 47.000000 -33.000011 11.000000
v 47.000000 -32.799999 11.000000
v 47.000000 -32.799999 17.000000
v 47.000000 -33.000011 17.000000
v 45.000000 -33.000011 17.000000
v 45.000000 -32.799999 17.000000
v 45.000000 -32.799999 3.000000
v 45.000000 -33.000011 3.000000
v 47.000000 -33.000011 3.000000
v 47.000000 -32.799999 3.000000
v 39.000000 -33.000011 9.000000
v 39.000000 -32.799999 9.000000
v 39.000000 -33.000011 11.000000
v 39.000000 -32.799999 11.000000
v 39.000000 -33.000011 17.000000
v 39.000000 -32.799999 17.000000
v 39.000000 -32.799999 3.000000
v 39.000000 -33.000011 3.000000
v 53.000000 -32.799999 9.000000
v 53.000000 -33.000011 9.000000
v 53.000000 -32.799999 11.000000
v 53.000000 -33.000011 11.000000
v 53.000000 -33.000011 17.000000
v 53.000000 -32.799999 17.000000
v 53.000000 -33.000011 3.000000
v 53.000000 -32.799999 3.000000
vn -1.0000 -0.0000 -0.0000
vn -0.0000 -0.0000 -1.0000
vn -0.0000 -0.0000 1.0000
vn -0.0015 -0.0614 0.9981
vn 1.0000 -0.0000 -0.0000
vn -0.0071 -0.0196 -0.9998
vn -0.0009 0.0809 0.9967
vn 0.9981 -0.0613 -0.0008
vn 0.9701 -0.2425 -0.0000
vn -0.0000 -1.0000 -0.0000
vn -0.0000 1.0000 -0.0000
vn -0.0000 -0.9701 -0.2425
vn -0.0000 0.9701 0.2425
vn -0.0000 -0.9487 0.3162
vn -0.0000 0.9487 -0.3162
vn -0.0000 -0.7071 -0.7071
vn -0.0000 0.7071 0.7071
vn -0.2425 -0.9701 -0.0000
vn 0.2425 0.9701 -0.0000
vt 0.319268 0.703399
vt 0.319268 0.666324
vt 0.322976 0.666324
vt 0.322976 0.703399
vt 0.833608 0.332140
vt 0.833608 0.369215
vt 0.829900 0.369215
vt 0.829900 0.332140
vt 0.837315 0.480441
vt 0.837315 0.517516
vt 0.833608 0.517516
vt 0.833608 0.480441
vt 0.837315 0.332140
vt 0.833608 0.332140
vt 0.829900 0.517516
vt 0.833608 0.517516
vt 0.796787 0.332140
vt 0.804146 0.368943
vt 0.800422 0.369223
vt 0.793153 0.332867
vt 0.829900 0.554591
vt 0.833608 0.554591
vt 0.796877 0.521633
vt 0.793153 0.521912
vt 0.811345 0.484835
vt 0.804146 0.332140
vt 0.807871 0.332422
vt 0.815070 0.485117
vt 0.300729 0.814625
vt 0.300729 0.777549
vt 0.304436 0.777549
vt 0.304436 0.814625
vt 0.807781 0.521469
vt 0.804146 0.520740
vt 0.308143 0.666324
vt 0.308145 0.740475
vt 0.304436 0.740475
vt 0.304436 0.666324
vt 0.300729 0.703399
vt 0.304436 0.703399
vt 0.947600 0.333205
vt 0.936949 0.368717
vt 0.933226 0.368229
vt 0.944050 0.332140
vt 0.300729 0.666324
vt 0.304436 0.666324
vt 0.947600 0.720273
vt 0.943877 0.719785
vt 0.919006 0.684200
vt 0.929502 0.332631
vt 0.933226 0.332140
vt 0.922730 0.683709
vt 0.915298 0.369215
vt 0.915298 0.332140
vt 0.919006 0.332140
vt 0.919006 0.369215
vt 0.929675 0.719707
vt 0.933226 0.718640
vt 0.919006 0.702892
vt 0.915298 0.702892
vt 0.911589 0.665817
vt 0.911589 0.332140
vt 0.915298 0.332140
vt 0.915297 0.665817
vt 0.963915 0.369370
vt 0.961729 0.332359
vt 0.965430 0.332140
vt 0.967616 0.369151
vt 0.919006 0.739967
vt 0.915298 0.739967
vt 0.968799 0.389189
vt 0.965008 0.387875
vt 0.973561 0.000196
vt 0.972583 0.018707
vt 0.968799 0.020045
vt 0.969859 -0.000000
vt 0.990116 0.038198
vt 0.986332 0.039536
vt 0.947600 0.407473
vt 0.951391 0.408787
vt 0.968799 0.703339
vt 0.965089 0.703558
vt 0.970756 0.334190
vt 0.974459 0.334385
vt 0.793152 0.332867
vt 0.785881 0.369223
vt 0.782156 0.368943
vt 0.789517 0.332140
vt 0.968799 0.371213
vt 0.972502 0.371409
vt 0.341513 0.703399
vt 0.341513 0.666324
vt 0.345128 0.666324
vt 0.345128 0.703399
vt 0.793152 0.521914
vt 0.789449 0.522091
vt 0.297021 0.819645
vt 0.297021 0.666780
vt 0.300729 0.666324
vt 0.300729 0.819645
vt 0.322976 0.703399
vt 0.322976 0.666324
vt 0.326683 0.666324
vt 0.326683 0.703399
vt 0.337806 0.703399
vt 0.337806 0.666324
vt 0.341513 0.666324
vt 0.341513 0.703399
vt 0.334099 0.666324
vt 0.334099 0.703399
vt 0.330391 0.703399
vt 0.330391 0.666324
vt 0.337806 0.703399
vt 0.334099 0.703399
vt 0.334099 0.666324
vt 0.311853 0.666324
vt 0.311853 0.703399
vt 0.308145 0.703399
vt 0.308145 0.666324
vt 0.311853 0.703399
vt 0.311853 0.666324
vt 0.315560 0.666324
vt 0.315560 0.703399
vt 0.319268 0.666324
vt 0.319268 0.703399
vt 0.315560 0.703399
vt 0.315560 0.666324
vt 0.818778 0.332140
vt 0.818778 0.443366
vt 0.815070 0.443366
vt 0.815070 0.332140
vt 0.818778 0.591666
vt 0.818778 0.480441
vt 0.822485 0.480441
vt 0.822485 0.591666
vt 0.815070 0.480441
vt 0.818778 0.480441
vt 0.822485 0.443366
vt 0.818778 0.443366
vt 0.826193 0.443366
vt 0.826193 0.480441
vt 0.822485 0.480441
vt 0.822485 0.443366
vt 0.826193 0.591666
vt 0.822485 0.591666
vt 0.822485 0.332140
vt 0.826193 0.332140
vt 0.818778 0.332140
vt 0.822485 0.332140
vt 0.829900 0.443366
vt 0.829900 0.480441
vt 0.826193 0.480441
vt 0.826193 0.443366
vt 0.826193 0.591666
vt 0.829900 0.591666
vt 0.829900 0.332140
vt 0.826193 0.332140
vt 0.818778 0.591666
vt 0.815070 0.591666
vt 0.782156 0.025508
vt 0.756649 0.052411
vt 0.729743 0.026903
vt 0.755251 -0.000000
vt 0.000000 0.025449
vt 0.026961 0.000000
vt 0.052410 0.026959
vt 0.025449 0.052408
vt 0.654619 0.160025
vt 0.627714 0.134517
vt 0.154537 0.134482
vt 0.127244 0.160244
vt 0.629112 0.186928
vt 0.602206 0.161421
vt 0.179985 0.161441
vt 0.152692 0.187203
vt 0.519916 0.032838
vt 0.494408 0.059741
vt 0.467503 0.034234
vt 0.493010 0.007330
vt 0.262556 0.033037
vt 0.289185 0.007902
vt 0.314634 0.034861
vt 0.288005 0.059996
vt 0.416488 0.088040
vt 0.443393 0.113548
vt 0.417886 0.140452
vt 0.390980 0.114944
vt 0.365531 0.088779
vt 0.390980 0.115738
vt 0.363582 0.141600
vt 0.338133 0.114641
vt 0.685015 0.344174
vt 0.659507 0.371077
vt 0.121458 0.371698
vt 0.096009 0.344739
vt 0.711920 0.369682
vt 0.686413 0.396585
vt 0.094934 0.396734
vt 0.069486 0.369775
vt 0.456846 0.638716
vt 0.429940 0.613208
vt 0.350934 0.613916
vt 0.323973 0.639365
vt 0.431338 0.665620
vt 0.404433 0.640112
vt 0.376383 0.640875
vt 0.349422 0.666324
vt 0.278456 0.666334
vt 0.278456 0.703409
vt 0.259890 0.703399
vt 0.259890 0.666324
vt 0.297021 0.703403
vt 0.278456 0.703399
vt 0.278456 0.666324
vt 0.297021 0.666328
vt 0.390980 0.627358
vt 0.416488 0.600455
vt 0.365531 0.600137
vt 0.390980 0.627096
vt 0.185743 1.000000
vt 0.148669 0.999999
vt 0.148669 0.703399
vt 0.185743 0.703400
vt 0.782156 0.332140
vt 0.782156 0.037076
vt 0.819686 0.037075
vt 0.819229 0.332139
vt 0.148669 0.666324
vt 0.185743 0.666325
vt 0.782156 0.000001
vt 0.819686 0.000000
vt 0.000000 0.703509
vt 0.000000 0.666434
vt 0.968799 0.000110
vt 0.968799 0.037185
vt 0.259890 0.666325
vt 0.259890 0.703400
vt 0.222817 0.703399
vt 0.222817 0.666324
vt 0.185744 0.666324
vt 0.222817 0.666324
vt 0.222816 0.703399
vt 0.185743 0.703399
vt 0.798791 0.813920
vt 0.798789 0.776845
vt 0.910009 0.776845
vt 0.910010 0.813920
vt 0.502200 0.813924
vt 0.390980 0.813928
vt 0.390980 0.776853
vt 0.502200 0.776849
vt 0.761716 0.776845
vt 0.761713 0.665620
vt 0.798786 0.665620
vt 0.502200 0.665624
vt 0.539273 0.665623
vt 0.539273 0.776848
vt 0.910006 0.665620
vt 0.390980 0.665628
vt 0.761717 0.813920
vt 0.761721 0.925145
vt 0.650501 0.925145
vt 0.650498 0.813920
vt 0.539273 0.813923
vt 0.650493 0.813920
vt 0.650493 0.925144
vt 0.539273 0.925148
vt 0.798794 0.925145
vt 0.502200 0.925149
vt 0.910014 0.925145
vt 0.390980 0.925153
vt 0.650496 0.776845
vt 0.650493 0.665620
vt 0.650493 0.665620
vt 0.650493 0.776845
s 0
f 1/1/1 3/2/1 4/3/1 2/4/1
f 3/5/2 7/6/2 8/7/2 4/8/2
f 6/9/3 1/10/3 2/11/3 5/12/3
f 12/13/4 6/9/4 5/12/4 11/14/4
f 9/15/2 8/7/2 7/6/2 10/16/2
f 13/17/5 15/18/5 16/19/5 14/20/5
f 14/21/2 9/15/2 10/16/2 13/22/2
f 15/18/5 20/23/5 19/24/5 16/19/5
f 18/25/1 12/26/1 11/27/1 17/28/1
f 21/29/3 23/30/3 24/31/3 22/32/3
f 17/28/1 21/33/1 22/34/1 18/25/1
f 20/35/6 26/36/6 25/37/6 19/38/6
f 23/30/3 27/39/3 28/40/3 24/31/3
f 31/41/5 29/42/5 30/43/5 32/44/5
f 27/39/3 31/45/3 32/46/3 28/40/3
f 29/42/5 36/47/5 35/48/5 30/43/5
f 34/49/1 25/50/1 26/51/1 33/52/1
f 39/53/2 37/54/2 38/55/2 40/56/2
f 37/57/1 34/49/1 33/52/1 38/58/1
f 40/56/2 43/59/2 44/60/2 39/53/2
f 41/61/7 35/62/7 36/63/7 42/64/7
f 45/65/5 47/66/5 48/67/5 46/68/5
f 43/59/2 48/69/2 47/70/2 44/60/2
f 46/68/5 52/71/5 51/72/5 45/65/5
f 42/73/1 49/74/1 50/75/1 41/76/1
f 49/74/1 54/77/1 53/78/1 50/75/1
f 56/79/5 51/72/5 52/71/5 55/80/5
f 55/80/8 59/81/8 60/82/8 56/79/8
f 57/83/1 53/78/1 54/77/1 58/84/1
f 61/85/3 63/86/3 64/87/3 62/88/3
f 62/89/1 57/83/1 58/84/1 61/90/1
f 67/91/9 65/92/9 66/93/9 68/94/9
f 63/86/3 67/95/3 68/96/3 64/87/3
f 65/97/2 60/98/2 59/99/2 66/100/2
f 69/101/1 71/102/1 72/103/1 70/104/1
f 73/105/5 75/106/5 76/107/5 74/108/5
f 71/109/2 76/110/2 75/111/2 72/112/2
f 70/112/3 73/111/3 74/104/3 69/103/3
f 77/106/5 79/113/5 80/114/5 78/115/5
f 81/116/1 83/117/1 84/118/1 82/119/1
f 78/120/3 81/121/3 82/122/3 77/123/3
f 83/124/2 80/125/2 79/126/2 84/127/2
f 97/128/3 87/129/3 88/130/3 98/131/3
f 107/132/2 91/133/2 92/134/2 108/135/2
f 85/136/3 88/130/3 87/129/3 86/137/3
f 89/138/2 92/134/2 91/133/2 90/139/2
f 93/140/1 95/141/1 96/142/1 94/143/1
f 95/141/1 97/144/1 98/145/1 96/142/1
f 94/143/1 99/146/1 100/147/1 93/140/1
f 90/139/2 100/148/2 99/149/2 89/138/2
f 101/150/5 103/151/5 104/152/5 102/153/5
f 105/154/5 104/152/5 103/151/5 106/155/5
f 108/156/5 101/150/5 102/153/5 107/157/5
f 86/137/3 105/158/3 106/159/3 85/136/3
f 4/160/10 8/161/10 5/162/10 2/163/10
f 3/164/11 1/165/11 6/166/11 7/167/11
f 5/162/10 8/161/10 9/168/10 11/169/10
f 6/166/11 12/170/11 10/171/11 7/167/11
f 11/169/10 9/168/10 14/172/10 16/173/10
f 12/170/11 15/174/11 13/175/11 10/171/11
f 17/176/10 19/177/10 23/178/10 21/179/10
f 18/180/11 22/181/11 24/182/11 20/183/11
f 11/169/12 16/173/12 19/177/12 17/176/12
f 12/170/13 18/180/13 20/183/13 15/174/13
f 27/184/10 25/185/10 29/186/10 31/187/10
f 28/188/11 32/189/11 30/190/11 26/191/11
f 23/178/10 19/177/10 25/185/10 27/184/10
f 24/182/11 28/188/11 26/191/11 20/183/11
f 29/186/14 25/185/14 34/192/14 36/193/14
f 30/190/15 35/194/15 33/195/15 26/191/15
f 36/193/10 34/192/10 37/196/10 39/197/10
f 35/194/11 40/198/11 38/199/11 33/195/11
f 36/193/10 39/197/10 44/200/10 42/201/10
f 35/194/11 41/202/11 43/203/11 40/198/11
f 42/201/10 44/200/10 47/204/10 45/205/10
f 41/202/11 46/206/11 48/207/11 43/203/11
f 49/208/16 51/209/16 56/210/16 54/211/16
f 50/212/17 53/213/17 55/214/17 52/215/17
f 42/201/10 45/205/10 51/216/10 49/217/10
f 41/202/11 50/218/11 52/219/11 46/206/11
f 54/220/10 56/221/10 60/222/10 58/223/10
f 53/224/11 57/225/11 59/226/11 55/227/11
f 58/223/10 60/222/10 63/228/10 61/229/10
f 57/225/11 62/230/11 64/231/11 59/226/11
f 63/228/18 60/222/18 65/232/18 67/233/18
f 64/231/19 68/234/19 66/235/19 59/226/19
f 70/236/10 72/237/10 75/238/10 73/239/10
f 69/240/11 74/241/11 76/242/11 71/243/11
f 78/244/10 80/245/10 95/246/10 93/247/10
f 77/248/11 94/249/11 96/250/11 79/251/11
f 80/245/10 83/252/10 86/253/10 87/254/10
f 79/251/11 88/255/11 85/256/11 84/257/11
f 80/245/10 87/254/10 97/258/10 95/246/10
f 79/251/11 96/250/11 98/259/11 88/255/11
f 81/260/10 91/261/10 107/262/10 102/263/10
f 82/264/11 101/265/11 108/266/11 92/267/11
f 81/260/10 78/244/10 90/268/10 91/261/10
f 82/264/11 92/267/11 89/269/11 77/248/11
f 90/268/10 78/244/10 93/247/10 100/270/10
f 89/269/11 99/271/11 94/249/11 77/248/11
f 86/253/10 83/252/10 104/272/10 105/273/10
f 85/256/11 106/274/11 103/275/11 84/257/11
f 83/252/10 81/260/10 102/263/10 104/272/10
f 84/257/11 103/275/11 101/265/11 82/264/11
