# Blender 4.1.1
# www.blender.org
o Walls
v -0.999990 -1.000000 0.999990
v -1.200000 -1.000000 1.200000
v -1.200000 1.000000 1.200000
v -0.999990 1.000000 0.999990
v -0.999990 -1.000000 -0.999990
v -1.200000 -1.000000 -1.200000
v -0.999990 1.000000 -0.999990
v -1.200000 1.000000 -1.200000
v 1.000000 -1.000000 1.200000
v 1.000000 -1.000000 0.999990
v 1.000000 1.000000 1.200000
v 1.000000 1.000000 0.999990
v 1.000000 -1.000000 -0.999990
v 1.000000 -1.000000 -1.200000
v 1.000000 1.000000 -0.999990
v 1.000000 1.000000 -1.200000
v 9.000000 1.000000 -1.200000
v 9.000000 1.000000 -0.999990
v 9.000000 -1.000000 -1.200000
v 9.000000 -1.000000 -0.999990
v 9.000010 -1.000000 0.999990
v 8.800000 -1.000000 1.200000
v 9.000010 1.000000 0.999990
v 8.800000 1.000000 1.200000
v 10.999990 1.000000 -0.999990
v 11.200000 1.000000 -1.200000
v 10.999990 -1.000000 -0.999990
v 11.200000 -1.000000 -1.200000
v 10.999990 -1.000000 1.000000
v 11.200000 -1.000000 1.000000
v 10.999990 1.000000 1.000000
v 11.200000 1.000000 1.000000
v 9.000010 -1.000000 9.000000
v 8.800000 -1.000000 9.000000
v 9.000010 -3.000000 9.000000
v 8.800000 -3.000000 9.000000
v 11.200000 -1.000000 8.800000
v 10.999990 -1.000000 9.000010
v 11.200000 -3.000000 8.800000
v 10.999990 -3.000000 9.000010
v 8.800000 -1.000000 11.200000
v 9.000010 -1.000000 10.999990
v 8.800000 -3.000000 11.200000
v 9.000010 -3.000000 10.999990
v 11.000000 -1.000000 10.999990
v 11.000000 -1.000000 11.200000
v 11.000000 -3.000000 10.999990
v 11.000000 -3.000000 11.200000
v 14.800000 -1.000000 8.800000
v 15.000010 -1.000000 9.000010
v 14.800000 -3.000000 8.800000
v 15.000010 -3.000000 9.000010
v 15.000000 -1.000000 10.999990
v 15.000000 -1.000000 11.200000
v 15.000000 -3.000000 10.999990
v 15.000000 -3.000000 11.200000
v 16.999990 -1.000000 9.000000
v 17.200001 -1.000000 9.000000
v 16.999990 -3.000000 9.000000
v 17.200001 -3.000000 9.000000
v 17.200001 -1.000000 11.200000
v 16.999990 -1.000000 10.999990
v 17.200001 -3.000000 11.200000
v 16.999990 -3.000000 10.999990
v 14.800000 -7.000000 -9.000000
v 15.000010 -7.000000 -9.000000
v 14.800000 -9.000000 -9.000000
v 15.000010 -9.000000 -9.000000
v 16.999990 -7.000000 -9.000010
v 17.200001 -7.000000 -8.800000
v 16.999990 -9.000000 -9.000010
v 17.200001 -9.000000 -8.800000
v 15.000010 -7.000000 -10.999990
v 14.800000 -7.000000 -11.200000
v 15.000010 -9.000000 -10.999990
v 14.800000 -9.000000 -11.200000
v 17.000000 -7.000000 -11.200000
v 17.000000 -7.000000 -10.999990
v 17.000000 -9.000000 -11.200000
v 17.000000 -9.000000 -10.999990
v 35.000011 -7.000000 -9.000010
v 34.799999 -7.000000 -8.800000
v 35.000011 -9.000000 -9.000010
v 34.799999 -9.000000 -8.800000
v 35.000000 -7.000000 -11.200000
v 35.000000 -7.000000 -10.999990
v 35.000000 -9.000000 -11.200000
v 35.000000 -9.000000 -10.999990
v 37.200001 -7.000000 -9.000000
v 36.999989 -7.000000 -9.000000
v 37.200001 -9.000000 -9.000000
v 36.999989 -9.000000 -9.000000
v 36.999989 -7.000000 -10.999990
v 37.200001 -7.000000 -11.200000
v 36.999989 -9.000000 -10.999990
v 37.200001 -9.000000 -11.200000
v 35.000011 -7.000000 -8.000000
v 34.799999 -7.000000 -8.000000
v 35.000011 -9.000000 -8.000000
v 34.799999 -9.000000 -8.000000
v 37.200001 -7.000000 -8.000000
v 36.999989 -7.000000 -8.000000
v 37.200001 -9.000000 -8.000000
v 36.999989 -9.000000 -8.000000
v 35.000011 -8.000000 -7.000000
v 34.799999 -8.000000 -7.000000
v 35.000011 -9.000000 -7.000000
v 34.799999 -9.000000 -7.000000
v 36.999989 -8.000000 -7.000000
v 37.200001 -8.000000 -7.000000
v 36.999989 -9.000000 -7.000000
v 37.200001 -9.000000 -7.000000
v 35.000011 -8.000000 9.000000
v 34.799999 -8.000000 9.000000
v 35.000011 -9.000000 9.000000
v 34.799999 -9.000000 9.000000
v 37.200001 -8.000000 8.800000
v 36.999989 -8.000000 9.000010
v 37.200001 -9.000000 8.800000
v 36.999989 -9.000000 9.000010
v 34.799999 -8.000000 11.200000
v 35.000011 -8.000000 10.999990
v 34.799999 -9.000000 11.200000
v 35.000011 -9.000000 10.999990
v 37.000000 -8.000000 10.999990
v 37.000000 -8.000000 11.200000
v 37.000000 -9.000000 10.999990
v 37.000000 -9.000000 11.200000
v 44.799999 -10.000000 8.800000
v 45.000011 -10.000000 9.000010
v 44.799999 -12.000000 8.800000
v 45.000011 -12.000000 9.000010
v 45.000011 -10.000000 10.999990
v 44.799999 -10.000000 11.200000
v 45.000011 -12.000000 10.999990
v 44.799999 -12.000000 11.200000
v 46.999989 -10.000000 9.000010
v 47.200001 -10.000000 8.800000
v 46.999989 -12.000000 9.000010
v 47.200001 -12.000000 8.800000
v 47.200001 -10.000000 11.200000
v 46.999989 -10.000000 10.999990
v 47.200001 -12.000000 11.200000
v 46.999989 -12.000000 10.999990
v 45.000011 -8.000000 10.999990
v 44.799999 -8.000000 11.200000
v 45.000011 -8.000000 9.000010
v 44.799999 -8.000000 8.800000
v 47.200001 -8.000000 11.200000
v 46.999989 -8.000000 10.999990
v 47.200001 -8.000000 8.800000
v 46.999989 -8.000000 9.000010
v 44.799999 -31.000000 8.800000
v 45.000011 -31.000000 9.000010
v 44.799999 -31.000000 11.200000
v 45.000011 -31.000000 10.999990
v 46.999989 -31.000000 9.000010
v 47.200001 -31.000000 8.800000
v 46.999989 -31.000000 10.999990
v 47.200001 -31.000000 11.200000
v 45.000011 -33.000000 9.000010
v 44.799999 -33.000000 8.800000
v 45.000011 -33.000000 10.999990
v 44.799999 -33.000000 11.200000
v 47.200001 -33.000000 8.800000
v 46.999989 -33.000000 9.000010
v 47.200001 -33.000000 11.200000
v 46.999989 -33.000000 10.999990
v 47.000000 -33.000000 16.999990
v 47.000000 -33.000000 17.200001
v 45.000000 -33.000000 17.200001
v 45.000000 -33.000000 16.999990
v 47.000000 -50.000000 17.200001
v 47.000000 -50.000000 16.999990
v 45.000000 -50.000000 17.200001
v 45.000000 -50.000000 16.999990
v 45.000000 -33.000000 3.000010
v 45.000000 -33.000000 2.800000
v 47.000000 -33.000000 2.800000
v 47.000000 -33.000000 3.000010
v 45.000000 -50.000000 2.800000
v 45.000000 -50.000000 3.000010
v 47.000000 -50.000000 2.800000
v 47.000000 -50.000000 3.000010
v 38.799999 -33.000000 9.000000
v 39.000011 -33.000000 9.000000
v 38.799999 -33.000000 11.000000
v 39.000011 -33.000000 11.000000
v 39.000011 -50.000000 9.000000
v 38.799999 -50.000000 9.000000
v 39.000011 -50.000000 11.000000
v 38.799999 -50.000000 11.000000
v 38.799999 -50.000000 17.200001
v 39.000011 -50.000000 16.999990
v 38.799999 -33.000000 17.200001
v 39.000011 -33.000000 16.999990
v 38.799999 -33.000000 2.800000
v 39.000011 -33.000000 3.000010
v 38.799999 -50.000000 2.800000
v 39.000011 -50.000000 3.000010
v 52.999989 -33.000000 9.000000
v 53.200001 -33.000000 9.000000
v 52.999989 -33.000000 11.000000
v 53.200001 -33.000000 11.000000
v 53.200001 -50.000000 9.000000
v 52.999989 -50.000000 9.000000
v 53.200001 -50.000000 11.000000
v 52.999989 -50.000000 11.000000
v 52.999989 -50.000000 16.999990
v 53.200001 -50.000000 17.200001
v 52.999989 -33.000000 16.999990
v 53.200001 -33.000000 17.200001
v 53.200001 -50.000000 2.800000
v 52.999989 -50.000000 3.000010
v 53.200001 -33.000000 2.800000
v 52.999989 -33.000000 3.000010
vn -0.0000 -1.0000 -0.0000
vn -0.0000 1.0000 -0.0000
vn -0.1218 -0.9622 -0.2436
vn 0.1218 0.9622 0.2436
vn 0.1569 0.9364 -0.3139
vn -0.1569 -0.9364 0.3139
vn -0.0000 0.7071 0.7071
vn 0.2436 0.9622 0.1218
vn 0.2484 0.9687 -0.0000
vn -0.3495 -0.9205 -0.1748
vn -0.3590 -0.9333 -0.0000
vn 1.0000 -0.0000 -0.0000
vn -1.0000 -0.0000 -0.0000
vn -0.0000 -0.0000 1.0000
vn -0.0000 -0.0000 -1.0000
vt 0.136815 0.002243
vt 0.114386 0.002246
vt 0.112143 0.000004
vt 0.139058 0.000000
vt 0.270616 0.003171
vt 0.254388 0.018653
vt 0.251217 0.018579
vt 0.270691 0.000000
vt 0.136819 0.024665
vt 0.139062 0.024664
vt 0.269867 0.034878
vt 0.268244 0.036426
vt 0.114390 0.024668
vt 0.112147 0.024668
vt 0.286095 0.019395
vt 0.287718 0.017847
vt 0.114405 0.114356
vt 0.112162 0.112114
vt 0.348011 0.084293
vt 0.348086 0.081122
vt 0.139077 0.114352
vt 0.136834 0.114353
vt 0.330160 0.101323
vt 0.331783 0.099775
vt 0.114409 0.136778
vt 0.136838 0.136775
vt 0.139082 0.139017
vt 0.114409 0.139020
vt 0.347262 0.115999
vt 0.363490 0.100517
vt 0.365038 0.102139
vt 0.347187 0.119170
vt 0.026920 0.139606
vt 0.024676 0.137364
vt 0.024672 0.112699
vt 0.024673 0.114942
vt 0.428738 0.038949
vt 0.428663 0.042120
vt 0.413259 0.022725
vt 0.411711 0.021102
vt 0.000004 0.137367
vt 0.000000 0.112703
vt 0.002243 0.114945
vt 0.002247 0.137367
vt 0.429562 0.004071
vt 0.446589 0.021918
vt 0.444966 0.023466
vt 0.429487 0.007242
vt 0.026927 0.179965
vt 0.024684 0.182208
vt 0.000012 0.182212
vt 0.002255 0.182211
vt 0.459696 0.071398
vt 0.456525 0.071323
vt 0.477547 0.054367
vt 0.475924 0.055915
vt 0.494574 0.072213
vt 0.476723 0.089244
vt 0.475175 0.087622
vt 0.491403 0.072139
vt 0.002259 0.204633
vt 0.024688 0.204630
vt 0.024688 0.206872
vt 0.000016 0.206876
vt 0.333292 0.228129
vt 0.330121 0.228055
vt 0.313094 0.210208
vt 0.314642 0.211830
vt 0.226502 0.183892
vt 0.226502 0.181650
vt 0.224263 0.208556
vt 0.226506 0.206314
vt 0.312270 0.245086
vt 0.295243 0.227239
vt 0.298414 0.227313
vt 0.313893 0.243537
vt 0.248935 0.206310
vt 0.248931 0.183889
vt 0.251174 0.181646
vt 0.251178 0.206310
vt 0.251213 0.408108
vt 0.248970 0.408109
vt 0.224297 0.405870
vt 0.226540 0.408112
vt 0.453205 0.389556
vt 0.451582 0.391105
vt 0.469433 0.374074
vt 0.469508 0.370903
vt 0.486460 0.391921
vt 0.468609 0.408951
vt 0.468684 0.405781
vt 0.484912 0.390298
vt 0.251217 0.432773
vt 0.226545 0.432777
vt 0.226544 0.430534
vt 0.248973 0.430531
vt 0.493026 0.382557
vt 0.494574 0.384179
vt 0.215329 0.430536
vt 0.215330 0.432778
vt 0.475999 0.364710
vt 0.477547 0.366332
vt 0.215325 0.405872
vt 0.215326 0.408114
vt 0.477753 0.462782
vt 0.477753 0.473996
vt 0.475510 0.473996
vt 0.475510 0.462782
vt 0.477753 0.420166
vt 0.477753 0.408951
vt 0.479996 0.408951
vt 0.479996 0.420166
vt 0.204115 0.430538
vt 0.204115 0.432780
vt 0.204111 0.405873
vt 0.204111 0.408116
vt 0.157021 0.891198
vt 0.157005 0.711764
vt 0.159248 0.714007
vt 0.159263 0.891198
vt 0.024680 0.430565
vt 0.026924 0.432807
vt 0.024676 0.405901
vt 0.024676 0.408143
vt 0.797370 0.024672
vt 0.797370 0.204107
vt 0.795127 0.204107
vt 0.795127 0.024672
vt 0.000008 0.430569
vt 0.000004 0.405905
vt 0.002247 0.408147
vt 0.002251 0.430569
vt 0.795127 0.000000
vt 0.819794 -0.000000
vt 0.819794 0.002243
vt 0.797370 0.002243
vt 0.475510 0.435867
vt 0.475510 0.408951
vt 0.477753 0.411194
vt 0.477753 0.433623
vt 0.475510 0.462782
vt 0.475510 0.435867
vt 0.477752 0.438110
vt 0.477752 0.460539
vt 0.907740 0.000008
vt 0.909982 0.002251
vt 0.244952 0.714007
vt 0.247194 0.711764
vt 0.002243 0.521115
vt 0.000000 0.518873
vt 0.024673 0.521111
vt 0.026915 0.518868
vt 0.163734 0.642124
vt 0.163734 0.664553
vt 0.161491 0.666796
vt 0.161491 0.639881
vt 0.188400 0.639881
vt 0.188400 0.666796
vt 0.186157 0.664553
vt 0.186157 0.642124
vt 0.190643 0.642124
vt 0.190642 0.664553
vt 0.188400 0.666796
vt 0.188400 0.639881
vt 0.215307 0.639881
vt 0.215306 0.666796
vt 0.213064 0.664553
vt 0.213064 0.642124
vt 0.651581 0.751382
vt 0.721095 0.751382
vt 0.721095 0.753625
vt 0.653823 0.753625
vt 0.813031 0.912873
vt 0.743517 0.912873
vt 0.743517 0.910630
vt 0.810789 0.910630
vt 0.743519 0.753625
vt 0.743519 0.751382
vt 0.882571 0.441858
vt 0.860149 0.441858
vt 0.860149 0.439615
vt 0.882571 0.439615
vt 0.721093 0.910630
vt 0.721093 0.912873
vt 0.860152 0.280367
vt 0.882574 0.280367
vt 0.882574 0.282610
vt 0.860152 0.282610
vt 0.651580 0.843342
vt 0.651580 0.820913
vt 0.653823 0.820913
vt 0.653822 0.843342
vt 0.792885 0.349897
vt 0.792885 0.372327
vt 0.790642 0.372327
vt 0.790643 0.349897
vt 0.790641 0.441858
vt 0.792883 0.439615
vt 0.653822 0.910630
vt 0.651579 0.912873
vt 0.792886 0.282610
vt 0.790644 0.280367
vt 0.810790 0.843342
vt 0.810790 0.820913
vt 0.813032 0.820913
vt 0.813032 0.843342
vt 0.952081 0.349897
vt 0.952081 0.372327
vt 0.949839 0.372327
vt 0.949839 0.349897
vt 0.952080 0.441858
vt 0.949837 0.439615
vt 0.813033 0.751382
vt 0.810790 0.753625
vt 0.952083 0.280366
vt 0.949840 0.282610
vt 0.674008 0.520360
vt 0.674008 0.542790
vt 0.651579 0.542790
vt 0.651579 0.520360
vt 0.215307 0.666796
vt 0.215307 0.639881
vt 0.237736 0.639881
vt 0.237736 0.666796
vt 0.857929 0.798266
vt 0.880359 0.798266
vt 0.880359 0.820695
vt 0.857929 0.820695
vt 0.835500 0.937327
vt 0.835500 0.912655
vt 0.857929 0.912655
vt 0.857929 0.937327
vt 0.839463 0.531575
vt 0.817034 0.531575
vt 0.817034 0.441858
vt 0.839463 0.441858
vt 0.861892 0.466530
vt 0.861892 0.554004
vt 0.839463 0.554004
vt 0.839463 0.466530
vt 0.817034 0.554004
vt 0.839463 0.441858
vt 0.861892 0.441858
vt 0.880359 0.910412
vt 0.857929 0.910412
vt 0.835500 0.822938
vt 0.857929 0.822938
vt 0.795040 0.441858
vt 0.817034 0.446256
vt 0.812635 0.468250
vt 0.790641 0.463851
vt 0.183485 0.521115
vt 0.188323 0.545308
vt 0.166330 0.549706
vt 0.161491 0.525513
vt 0.880359 0.932841
vt 0.857929 0.932841
vt 0.835500 0.798266
vt 0.857929 0.798266
vt 0.817034 0.560624
vt 0.795040 0.556225
vt 0.183485 0.635482
vt 0.161491 0.639881
vt 0.219555 0.525513
vt 0.241548 0.521115
vt 0.237150 0.613488
vt 0.215156 0.617887
vt 0.210317 0.525513
vt 0.215156 0.615688
vt 0.193162 0.611289
vt 0.188324 0.521115
vt 0.651579 0.560733
vt 0.629150 0.560733
vt 0.629150 0.538304
vt 0.651579 0.538304
vt 0.884322 0.441858
vt 0.884322 0.466530
vt 0.861892 0.466530
vt 0.861892 0.441858
vt 0.241548 0.635482
vt 0.219555 0.639881
vt 0.210317 0.639881
vt 0.188323 0.635482
vt 0.633636 0.190649
vt 0.656065 0.190649
vt 0.656065 0.235508
vt 0.633636 0.235508
vt 0.633636 0.275881
vt 0.633636 0.235508
vt 0.656065 0.235508
vt 0.656065 0.275881
vt 0.629150 0.493445
vt 0.651579 0.493445
vt 0.884322 0.511388
vt 0.861892 0.511388
vt 0.464723 0.710801
vt 0.443240 0.717246
vt 0.436795 0.695763
vt 0.458278 0.689318
vt 0.813070 0.584926
vt 0.817909 0.560733
vt 0.839903 0.565132
vt 0.835064 0.589325
vt 0.629150 0.471016
vt 0.651579 0.471016
vt 0.884322 0.536061
vt 0.861892 0.536061
vt 0.861897 0.560733
vt 0.883890 0.565132
vt 0.910283 0.776272
vt 0.888289 0.771873
vt 0.436795 0.689318
vt 0.429705 0.899855
vt 0.408222 0.906300
vt 0.415311 0.695763
vt 0.458278 0.923487
vt 0.436795 0.929932
vt 0.861897 0.798266
vt 0.839903 0.793867
vt 0.936898 -0.000000
vt 0.959327 -0.000000
vt 0.959327 0.022429
vt 0.936898 0.022429
vt 0.932712 0.811941
vt 0.932712 0.787269
vt 0.955141 0.787269
vt 0.955141 0.811941
vt 0.905884 0.798266
vt 0.883890 0.793867
vt 0.436795 0.923487
vt 0.415311 0.929932
vt 0.959327 0.224293
vt 0.936898 0.224293
vt 0.932712 0.585405
vt 0.955141 0.585405
vt 0.977571 0.986890
vt 0.955141 0.986890
vt 0.955141 0.785026
vt 0.977571 0.785026
vt 0.835500 0.798266
vt 0.835500 0.995644
vt 0.813071 0.995644
vt 0.813071 0.798266
vt 0.996941 0.302796
vt 0.974512 0.302796
vt 0.974512 0.280366
vt 0.996941 0.280366
vt 0.977571 0.760354
vt 0.955141 0.760354
vt 0.959327 0.246722
vt 0.936898 0.246722
vt 0.932712 0.560733
vt 0.955141 0.560733
vt 0.996941 0.314010
vt 0.974512 0.314010
vt 0.955141 0.749139
vt 0.977571 0.749139
vt 0.981756 0.224293
vt 0.959327 0.224293
vt 0.959327 0.213078
vt 0.981756 0.213078
vt 1.000000 0.560733
vt 1.000000 0.569705
vt 0.977571 0.569705
vt 0.977571 0.560733
vt 0.985726 0.325225
vt 0.996941 0.325225
vt 0.996941 0.504660
vt 0.985726 0.504660
vt 0.966356 0.737925
vt 0.966356 0.560733
vt 0.977571 0.737925
vt 0.970542 0.201864
vt 0.981756 0.201864
vt 1.000000 0.580919
vt 0.988785 0.580919
vt 0.970542 0.022429
vt 0.981756 0.022429
vt 1.000000 0.760354
vt 0.988785 0.760354
vt 0.494574 0.291581
vt 0.494574 0.280366
vt 0.517004 0.280366
vt 0.517004 0.291581
vt 0.633636 0.011215
vt 0.608964 0.011215
vt 0.608964 -0.000000
vt 0.633636 -0.000000
vt 0.970542 -0.000000
vt 0.981756 -0.000000
vt 1.000000 0.785026
vt 0.988785 0.785026
vt 0.910283 0.605592
vt 0.932712 0.605592
vt 0.932712 0.818670
vt 0.910283 0.818670
vt 0.936898 0.044859
vt 0.936898 0.257937
vt 0.909982 0.257937
vt 0.909982 0.044859
vt 0.606721 0.302796
vt 0.606721 0.325225
vt 0.521490 0.044859
vt 0.521490 0.022429
vt 0.363363 0.408951
vt 0.363363 0.420166
vt 0.273646 0.453810
vt 0.273646 0.431381
vt 0.363363 0.408951
vt 0.448595 0.431381
vt 0.448595 0.453810
vt 0.363363 0.420166
vt 0.932712 0.583162
vt 0.910283 0.583162
vt 0.909982 0.022429
vt 0.936898 0.022429
vt 0.251217 0.453810
vt 0.251217 0.431381
vt 0.475510 0.431381
vt 0.475510 0.453810
vt 0.629150 0.302796
vt 0.606721 0.280367
vt 0.629150 0.280367
vt 0.494574 0.022429
vt 0.494574 0.000000
vt 0.521490 0.000000
vt 0.629150 0.325225
vt 0.494574 0.044859
vt 0.910283 0.560733
vt 0.932712 0.560733
vt 0.909982 0.000000
vt 0.936898 0.000000
vt 0.674008 0.520360
vt 0.651579 0.497931
vt 0.674008 0.497931
vt 0.674009 0.497931
vt 0.651579 0.497931
vt 0.674009 0.471016
vt 0.251217 0.408951
vt 0.273646 0.408951
vt 0.448595 0.408951
vt 0.475510 0.408951
vt 0.251217 0.666889
vt 0.273646 0.666889
vt 0.273646 0.689318
vt 0.251217 0.689318
vt 0.475510 0.666889
vt 0.475510 0.689318
vt 0.448595 0.689318
vt 0.448595 0.666889
vt 0.952083 0.280367
vt 0.974512 0.280367
vt 0.974512 0.493445
vt 0.952083 0.493445
vt 0.491638 0.689318
vt 0.491638 0.902396
vt 0.464723 0.902396
vt 0.464723 0.689318
vt 0.629150 0.538304
vt 0.606721 0.538304
vt 0.521490 0.257937
vt 0.494574 0.257937
vt 0.974512 0.515874
vt 0.952083 0.515874
vt 0.491638 0.924826
vt 0.464723 0.924826
vt 0.629150 0.560733
vt 0.606721 0.560733
vt 0.521490 0.280366
vt 0.494574 0.280366
vt 0.932712 0.841099
vt 0.910283 0.841099
vt 0.936898 0.280367
vt 0.909982 0.280366
vt 0.067288 0.711764
vt 0.089717 0.711764
vt 0.089717 0.902413
vt 0.067288 0.902413
vt 0.091960 0.521115
vt 0.091960 0.711764
vt 0.069531 0.711764
vt 0.069531 0.521115
vt 0.561862 0.751382
vt 0.584291 0.751382
vt 0.584291 0.942031
vt 0.561862 0.942031
vt 0.586535 0.560733
vt 0.586535 0.751382
vt 0.564105 0.751382
vt 0.564105 0.560733
vt 0.723353 0.560733
vt 0.745783 0.560733
vt 0.745783 0.751382
vt 0.723353 0.751382
vt 0.721110 0.280366
vt 0.721110 0.471016
vt 0.698681 0.471016
vt 0.698681 0.280366
vt 0.656065 0.751382
vt 0.656065 0.560733
vt 0.790641 0.280366
vt 0.790641 0.471016
vt 0.813070 0.560733
vt 0.813070 0.751382
vt 0.629150 0.471016
vt 0.629150 0.280366
vt 0.000000 0.902413
vt 0.000000 0.711764
vt 0.161491 0.521115
vt 0.161491 0.711764
vt 0.651579 0.751382
vt 0.651579 0.942031
vt 0.494574 0.751382
vt 0.494574 0.560733
vt 0.318505 0.689318
vt 0.340934 0.689318
vt 0.340934 0.879967
vt 0.318505 0.879967
vt 0.725596 0.000000
vt 0.725596 0.190649
vt 0.703167 0.190649
vt 0.703167 0.000000
vt 0.251217 0.879967
vt 0.795127 0.000000
vt 0.795127 0.190649
vt 0.408222 0.689318
vt 0.408222 0.879967
vt 0.633636 0.190649
vt 0.633636 0.000000
vt 0.494574 0.942031
vt 0.494574 0.751382
vt 0.656065 0.560733
vt 0.656065 0.751382
vt 0.157005 0.711764
vt 0.157005 0.902413
vt -0.000000 0.711764
vt -0.000000 0.521115
s 0
f 5/1/1 1/2/1 2/3/1 6/4/1
f 4/5/2 7/6/2 8/7/2 3/8/2
f 13/9/1 5/1/1 6/4/1 14/10/1
f 7/6/2 15/11/2 16/12/2 8/7/2
f 1/2/1 10/13/1 9/14/1 2/3/1
f 12/15/2 4/5/2 3/8/2 11/16/2
f 10/13/1 21/17/1 22/18/1 9/14/1
f 23/19/2 12/15/2 11/16/2 24/20/2
f 14/10/1 19/21/1 20/22/1 13/9/1
f 17/23/2 16/12/2 15/11/2 18/24/2
f 29/25/1 27/26/1 28/27/1 30/28/1
f 25/29/2 31/30/2 32/31/2 26/32/2
f 19/21/1 28/27/1 27/26/1 20/22/1
f 26/32/2 17/23/2 18/24/2 25/29/2
f 30/28/3 39/33/3 40/34/3 29/25/3
f 36/35/3 22/18/3 21/17/3 35/36/3
f 31/30/4 38/37/4 37/38/4 32/31/4
f 33/39/4 23/19/4 24/20/4 34/40/4
f 48/41/1 43/42/1 44/43/1 47/44/1
f 41/45/2 46/46/2 45/47/2 42/48/2
f 34/40/2 41/45/2 42/48/2 33/39/2
f 43/42/1 36/35/1 35/36/1 44/43/1
f 39/33/1 51/49/1 52/50/1 40/34/1
f 56/51/1 48/41/1 47/44/1 55/52/1
f 38/37/2 50/53/2 49/54/2 37/38/2
f 46/46/2 54/55/2 53/56/2 45/47/2
f 61/57/2 58/58/2 57/59/2 62/60/2
f 64/61/1 59/62/1 60/63/1 63/64/1
f 54/55/2 61/57/2 62/60/2 53/56/2
f 63/64/1 56/51/1 55/52/1 64/61/1
f 58/58/5 70/65/5 69/66/5 57/59/5
f 65/67/5 49/54/5 50/53/5 66/68/5
f 68/69/6 52/50/6 51/49/6 67/70/6
f 72/71/6 60/63/6 59/62/6 71/72/6
f 77/73/2 74/74/2 73/75/2 78/76/2
f 80/77/1 75/78/1 76/79/1 79/80/1
f 74/74/2 65/67/2 66/68/2 73/75/2
f 75/78/1 68/69/1 67/70/1 76/79/1
f 79/80/1 87/81/1 88/82/1 80/77/1
f 84/83/1 72/71/1 71/72/1 83/84/1
f 78/76/2 86/85/2 85/86/2 77/73/2
f 81/87/2 69/66/2 70/65/2 82/88/2
f 89/89/2 94/90/2 93/91/2 90/92/2
f 96/93/1 91/94/1 92/95/1 95/96/1
f 87/81/1 96/93/1 95/96/1 88/82/1
f 86/85/2 93/91/2 94/90/2 85/86/2
f 90/92/2 102/97/2 101/98/2 89/89/2
f 104/99/1 92/95/1 91/94/1 103/100/1
f 82/88/2 98/101/2 97/102/2 81/87/2
f 100/103/1 84/83/1 83/84/1 99/104/1
f 98/105/7 106/106/7 105/107/7 97/108/7
f 110/109/7 101/110/7 102/111/7 109/112/7
f 111/113/1 104/99/1 103/100/1 112/114/1
f 108/115/1 100/103/1 99/104/1 107/116/1
f 109/117/2 118/118/2 117/119/2 110/120/2
f 120/121/1 111/113/1 112/114/1 119/122/1
f 116/123/1 108/115/1 107/116/1 115/124/1
f 113/125/2 105/126/2 106/127/2 114/128/2
f 128/129/1 123/130/1 124/131/1 127/132/1
f 121/133/2 126/134/2 125/135/2 122/136/2
f 123/130/1 116/123/1 115/124/1 124/131/1
f 122/136/2 113/125/2 114/128/2 121/133/2
f 131/137/2 136/138/2 135/139/2 132/140/2
f 134/141/1 129/142/1 130/143/1 133/144/1
f 126/134/8 134/145/8 133/146/8 125/135/8
f 129/147/9 117/119/9 118/118/9 130/148/9
f 127/132/10 135/149/10 136/150/10 128/129/10
f 132/151/11 120/121/11 119/122/11 131/152/11
f 145/153/2 147/154/2 148/155/2 146/156/2
f 149/157/2 151/158/2 152/159/2 150/160/2
f 147/154/2 152/159/2 151/158/2 148/155/2
f 146/156/2 149/157/2 150/160/2 145/153/2
f 161/161/1 163/162/1 164/163/1 162/164/1
f 165/165/1 167/166/1 168/167/1 166/168/1
f 162/164/1 165/165/1 166/168/1 161/161/1
f 167/166/1 164/163/1 163/162/1 168/167/1
f 195/169/2 171/170/2 172/171/2 196/172/2
f 215/173/2 179/174/2 180/175/2 216/176/2
f 169/177/2 172/171/2 171/170/2 170/178/2
f 173/179/1 175/180/1 176/181/1 174/182/1
f 177/183/2 180/175/2 179/174/2 178/184/2
f 181/185/1 183/186/1 184/187/1 182/188/1
f 185/189/2 187/190/2 188/191/2 186/192/2
f 189/193/1 191/194/1 192/195/1 190/196/1
f 193/197/1 192/195/1 191/194/1 194/198/1
f 187/190/2 195/169/2 196/172/2 188/191/2
f 186/192/2 198/199/2 197/200/2 185/189/2
f 200/201/1 189/193/1 190/196/1 199/202/1
f 199/202/1 181/185/1 182/188/1 200/201/1
f 194/198/1 176/181/1 175/180/1 193/197/1
f 178/184/2 197/200/2 198/199/2 177/183/2
f 201/203/2 203/204/2 204/205/2 202/206/2
f 205/207/1 207/208/1 208/209/1 206/210/1
f 207/208/1 210/211/1 209/212/1 208/209/1
f 212/213/2 204/205/2 203/204/2 211/214/2
f 213/215/1 205/207/1 206/210/1 214/216/1
f 216/176/2 201/203/2 202/206/2 215/173/2
f 210/211/1 173/179/1 174/182/1 209/212/1
f 214/216/1 184/187/1 183/186/1 213/215/1
f 170/178/2 212/213/2 211/214/2 169/177/2
f 4/217/12 1/218/12 5/219/12 7/220/12
f 3/221/13 8/222/13 6/223/13 2/224/13
f 7/225/14 5/226/14 13/227/14 15/228/14
f 8/229/15 16/230/15 14/231/15 6/232/15
f 10/233/15 12/234/15 23/235/15 21/236/15
f 9/237/14 22/238/14 24/239/14 11/240/14
f 12/234/15 10/233/15 1/239/15 4/241/15
f 11/240/14 3/242/14 2/243/14 9/237/14
f 15/228/14 13/227/14 20/244/14 18/245/14
f 16/230/15 17/246/15 19/247/15 14/231/15
f 25/248/13 27/249/13 29/250/13 31/251/13
f 26/252/12 32/253/12 30/254/12 28/255/12
f 18/245/14 20/244/14 27/256/14 25/257/14
f 17/246/15 26/258/15 28/259/15 19/247/15
f 31/251/13 29/250/13 40/260/13 38/261/13
f 32/253/12 37/262/12 39/263/12 30/254/12
f 21/264/12 23/265/12 33/266/12 35/267/12
f 22/268/13 36/269/13 34/270/13 24/271/13
f 44/272/15 42/273/15 45/274/15 47/275/15
f 43/276/14 48/277/14 46/278/14 41/279/14
f 35/267/12 33/266/12 42/280/12 44/281/12
f 36/269/13 43/282/13 41/283/13 34/270/13
f 38/284/14 40/285/14 52/286/14 50/287/14
f 37/288/15 49/289/15 51/290/15 39/291/15
f 47/275/15 45/274/15 53/292/15 55/293/15
f 48/277/14 56/294/14 54/295/14 46/278/14
f 57/296/13 59/297/13 64/298/13 62/299/13
f 58/300/12 61/301/12 63/302/12 60/303/12
f 55/293/15 53/292/15 62/304/15 64/305/15
f 56/294/14 63/306/14 61/307/14 54/295/14
f 50/308/12 52/309/12 68/310/12 66/311/12
f 49/312/13 65/313/13 67/314/13 51/315/13
f 59/297/13 57/296/13 69/316/13 71/317/13
f 60/303/12 72/318/12 70/319/12 58/300/12
f 73/320/14 75/321/14 80/322/14 78/323/14
f 74/324/15 77/325/15 79/326/15 76/327/15
f 66/311/12 68/310/12 75/328/12 73/329/12
f 65/313/13 74/330/13 76/331/13 67/314/13
f 78/323/14 80/322/14 88/332/14 86/333/14
f 77/325/15 85/334/15 87/335/15 79/326/15
f 71/336/15 69/337/15 81/338/15 83/339/15
f 72/340/14 84/341/14 82/342/14 70/343/14
f 92/344/13 90/345/13 93/346/13 95/347/13
f 91/348/12 96/339/12 94/338/12 89/349/12
f 86/333/14 88/332/14 95/350/14 93/351/14
f 85/334/15 94/352/15 96/353/15 87/335/15
f 90/345/13 92/344/13 104/354/13 102/355/13
f 89/349/12 101/356/12 103/357/12 91/348/12
f 83/358/12 81/359/12 97/360/12 99/361/12
f 84/362/13 100/363/13 98/364/13 82/365/13
f 109/366/13 111/367/13 120/368/13 118/369/13
f 110/370/12 117/371/12 119/365/12 112/372/12
f 102/355/13 104/354/13 111/367/13 109/366/13
f 101/356/12 110/370/12 112/372/12 103/357/12
f 99/361/12 97/360/12 105/373/12 107/374/12
f 100/363/13 108/375/13 106/376/13 98/364/13
f 107/374/12 105/373/12 113/377/12 115/378/12
f 108/375/13 116/379/13 114/380/13 106/376/13
f 124/381/15 122/382/15 125/383/15 127/384/15
f 123/385/14 128/386/14 126/387/14 121/388/14
f 115/378/12 113/377/12 122/389/12 124/390/12
f 116/379/13 123/391/13 121/392/13 114/380/13
f 144/393/13 139/394/13 157/395/13 159/396/13
f 143/397/12 160/398/12 158/399/12 140/400/12
f 127/384/15 125/383/15 133/401/15 135/402/15
f 128/386/14 136/403/14 134/404/14 126/387/14
f 118/405/14 120/406/14 132/407/14 130/408/14
f 117/409/15 129/410/15 131/411/15 119/412/15
f 137/413/13 139/394/13 144/393/13 142/414/13
f 138/415/12 141/416/12 143/397/12 140/400/12
f 130/408/14 132/407/14 139/417/14 137/418/14
f 129/410/15 138/419/15 140/420/15 131/411/15
f 142/421/15 133/401/15 145/422/15 150/423/15
f 141/424/14 149/425/14 146/426/14 134/404/14
f 135/402/15 133/401/15 142/421/15 144/427/15
f 136/403/14 143/428/14 141/424/14 134/404/14
f 137/413/13 142/414/13 150/429/13 152/430/13
f 138/415/12 151/431/12 149/432/12 141/416/12
f 133/433/12 130/220/12 147/434/12 145/435/12
f 134/436/13 146/437/13 148/305/13 129/438/13
f 130/408/14 137/418/14 152/439/14 147/440/14
f 129/410/15 148/441/15 151/442/15 138/419/15
f 157/443/14 154/444/14 161/445/14 166/446/14
f 158/447/15 165/448/15 162/449/15 153/450/15
f 132/451/12 135/452/12 156/453/12 154/454/12
f 131/455/13 153/456/13 155/457/13 136/458/13
f 135/402/15 144/427/15 159/459/15 156/460/15
f 136/403/14 155/461/14 160/462/14 143/428/14
f 139/417/14 132/407/14 154/444/14 157/443/14
f 140/420/15 158/447/15 153/450/15 131/411/15
f 154/454/12 156/453/12 163/463/12 161/464/12
f 153/456/13 162/465/13 164/466/13 155/457/13
f 156/460/15 159/459/15 168/467/15 163/468/15
f 155/461/14 164/469/14 167/470/14 160/462/14
f 159/396/13 157/395/13 166/471/13 168/472/13
f 160/398/12 167/473/12 165/474/12 158/399/12
f 172/475/15 169/476/15 174/477/15 176/478/15
f 171/479/14 175/480/14 173/481/14 170/482/14
f 180/483/14 177/484/14 182/485/14 184/486/14
f 179/487/15 183/488/15 181/489/15 178/490/15
f 186/491/12 188/492/12 191/493/12 189/494/12
f 185/495/13 190/496/13 192/497/13 187/498/13
f 186/491/12 189/494/12 200/499/12 198/500/12
f 185/495/13 197/501/13 199/502/13 190/496/13
f 191/493/12 188/492/12 196/503/12 194/504/12
f 192/497/13 193/505/13 195/506/13 187/498/13
f 172/475/15 176/478/15 194/507/15 196/508/15
f 171/479/14 195/509/14 193/510/14 175/480/14
f 182/485/14 177/484/14 198/511/14 200/512/14
f 181/489/15 199/513/15 197/514/15 178/490/15
f 203/515/13 201/516/13 206/517/13 208/518/13
f 204/519/12 207/520/12 205/521/12 202/522/12
f 203/515/13 208/518/13 209/523/13 211/446/13
f 204/519/12 212/524/12 210/525/12 207/520/12
f 206/517/13 201/516/13 216/526/13 214/527/13
f 205/521/12 213/528/12 215/529/12 202/522/12
f 180/483/14 184/486/14 214/530/14 216/531/14
f 179/487/15 215/532/15 213/533/15 183/488/15
f 174/477/15 169/476/15 211/534/15 209/535/15
f 173/481/14 210/536/14 212/537/14 170/482/14
