# Blender 4.1.1
# www.blender.org
mtllib level_two.mtl
o Cube
v 1.000000 1.000000 -1.000000
v 1.000000 -1.000000 -1.000000
v 1.000000 1.000000 1.000000
v 1.000000 -1.000000 1.000000
v -1.000000 1.000000 -1.000000
v -1.000000 -1.000000 -1.000000
v -1.000000 1.000000 1.000000
v -1.000000 -1.000000 1.000000
v 1.000000 -1.000000 -9.000000
v -1.000000 -1.000000 -9.000000
v 1.000000 1.000000 -9.000000
v -1.000000 1.000000 -9.000000
v 1.000000 -1.000000 -11.000000
v -1.000000 -1.000000 -11.000000
v 1.000000 1.000000 -11.000000
v -1.000000 1.000000 -11.000000
v 8.000000 1.000000 -9.000000
v 8.000000 -1.000000 -9.000000
v 8.000000 1.000000 -11.000000
v 8.000000 -1.000000 -11.000000
v 48.000000 -1.000000 -11.000000
v 13.000000 -1.000000 -9.000000
v 48.000000 1.000000 -11.000000
v 13.000000 -1.000000 -11.000000
v 48.000000 -1.000000 -9.000000
v 34.000000 -1.000000 -9.000000
v 48.000000 1.000000 -9.000000
v 34.000000 -1.000000 -11.000000
v 39.000000 1.000000 -9.000000
v 39.000000 -1.000000 -9.000000
v 39.000000 1.000000 -11.000000
v 39.000000 -1.000000 -11.000000
v 8.000000 1.000000 0.000000
v 8.000000 -1.000000 0.000000
v 13.000000 1.000000 0.000000
v 13.000000 -1.000000 0.000000
v 34.000000 1.000000 0.000000
v 34.000000 -1.000000 0.000000
v 39.000000 1.000000 0.000000
v 39.000000 -1.000000 0.000000
v 8.000000 1.000000 -20.000000
v 8.000000 -1.000000 -20.000000
v 13.000000 1.000000 -20.000000
v 13.000000 -1.000000 -20.000000
v 34.000000 1.000000 -20.000000
v 34.000000 -1.000000 -20.000000
v 39.000000 1.000000 -20.000000
v 39.000000 -1.000000 -20.000000
v 13.000000 -7.000000 -11.000000
v 13.000000 -7.000000 -9.000000
v 34.000000 -7.000000 -11.000000
v 34.000000 -7.000000 -9.000000
v 13.000000 -7.000000 0.000000
v 34.000000 -7.000000 0.000000
v 34.000000 -7.000000 -20.000000
v 13.000000 -7.000000 -20.000000
v 8.000000 6.000000 -11.000000
v 8.000000 6.000000 -9.000000
v 39.000000 6.000000 0.000000
v 39.000000 6.000000 -9.000000
v 34.000000 6.000000 -20.000000
v 34.000000 6.000000 -11.000000
v 13.000000 6.000000 -11.000000
v 13.000000 6.000000 -9.000000
v 13.000000 6.000000 -20.000000
v 34.000000 6.000000 -9.000000
v 39.000000 6.000000 -11.000000
v 13.000000 6.000000 0.000000
v 8.000000 6.000000 0.000000
v 34.000000 6.000000 0.000000
v 8.000000 6.000000 -20.000000
v 39.000000 6.000000 -20.000000
v 50.000000 1.000000 -9.000000
v 50.000000 -1.000000 -9.000000
v 50.000000 1.000000 -11.000000
v 50.000000 -1.000000 -11.000000
v 48.000000 1.000000 0.000000
v 48.000000 -1.000000 0.000000
v 50.000000 1.000000 0.000000
v 50.000000 -1.000000 0.000000
v 48.000000 1.000000 19.000000
v 48.000000 -1.000000 19.000000
v 50.000000 1.000000 19.000000
v 50.000000 -1.000000 19.000000
v 52.000000 1.000000 0.000000
v 52.000000 -1.000000 0.000000
v 52.000000 1.000000 19.000000
v 52.000000 -1.000000 19.000000
v 46.000000 1.000000 0.000000
v 46.000000 -1.000000 0.000000
v 46.000000 1.000000 19.000000
v 46.000000 -1.000000 19.000000
v 48.000000 -1.000000 1.187500
v 48.000000 -1.000000 2.375000
v 48.000000 -1.000000 3.562500
v 48.000000 -1.000000 4.750000
v 48.000000 -1.000000 5.937500
v 48.000000 -1.000000 7.125000
v 48.000000 -1.000000 8.312500
v 48.000000 -1.000000 9.500000
v 48.000000 -1.000000 10.687500
v 48.000000 -1.000000 11.875000
v 48.000000 -1.000000 13.062500
v 48.000000 -1.000000 14.250000
v 48.000000 -1.000000 15.437500
v 48.000000 -1.000000 16.625000
v 48.000000 -1.000000 17.812500
v 50.000000 -1.000000 17.812500
v 50.000000 -1.000000 16.625000
v 50.000000 -1.000000 15.437500
v 50.000000 -1.000000 14.250000
v 50.000000 -1.000000 13.062500
v 50.000000 -1.000000 11.875000
v 50.000000 -1.000000 10.687500
v 50.000000 -1.000000 9.500000
v 50.000000 -1.000000 8.312500
v 50.000000 -1.000000 7.125000
v 50.000000 -1.000000 5.937500
v 50.000000 -1.000000 4.750000
v 50.000000 -1.000000 3.562500
v 50.000000 -1.000000 2.375000
v 50.000000 -1.000000 1.187500
v 40.000000 -1.000000 31.000000
v 40.000000 1.000000 31.000000
v 40.000000 -1.000000 33.000000
v 40.000000 1.000000 33.000000
v 50.000000 -4.000000 33.000000
v 50.000000 -2.000000 33.000000
v 48.000000 -4.000000 33.000000
v 48.000000 -2.000000 33.000000
v 50.000000 1.000000 8.312500
v 50.000000 1.000000 7.125000
v 50.000000 2.000000 11.875000
v 50.000000 2.000000 13.062500
v 50.000000 2.000000 14.250000
v 50.000000 2.000000 15.437500
v 50.000000 2.000000 16.625000
v 48.000000 -2.000000 31.000000
v 50.000000 -2.000000 31.000000
v 48.000000 -4.000000 31.000000
v 50.000000 -4.000000 31.000000
v 50.000000 -1.000000 23.000000
v 50.000000 1.000000 23.000000
v 48.000000 -1.000000 23.000000
v 48.000000 1.000000 23.000000
v 48.000000 1.000000 8.312500
v 48.000000 1.000000 7.125000
v 50.000000 2.000000 17.812500
v 46.000000 2.000000 19.000000
v 52.000000 2.000000 19.000000
v 48.000000 2.000000 19.000000
v 50.000000 2.000000 19.000000
v 52.000000 -1.000000 17.812500
v 52.000000 -1.000000 16.625000
v 52.000000 -1.000000 15.437500
v 52.000000 -1.000000 14.250000
v 52.000000 -1.000000 13.062500
v 52.000000 -1.000000 11.875000
v 52.000000 -1.000000 10.687500
v 52.000000 -1.000000 9.500000
v 52.000000 -1.000000 8.312500
v 52.000000 -1.000000 7.125000
v 52.000000 -1.000000 5.937500
v 52.000000 -1.000000 4.750000
v 52.000000 -1.000000 3.562500
v 52.000000 -1.000000 2.375000
v 52.000000 -1.000000 1.187500
v 52.000000 1.000000 17.812500
v 52.000000 1.000000 16.625000
v 52.000000 1.000000 15.437500
v 52.000000 1.000000 14.250000
v 52.000000 1.000000 13.062500
v 52.000000 1.000000 11.875000
v 52.000000 1.000000 10.687500
v 52.000000 1.000000 9.500000
v 52.000000 1.000000 8.312500
v 52.000000 1.000000 7.125000
v 52.000000 1.000000 5.937500
v 52.000000 1.000000 4.750000
v 52.000000 1.000000 3.562500
v 52.000000 1.000000 2.375000
v 52.000000 1.000000 1.187500
v 46.000000 -1.000000 1.187500
v 46.000000 -1.000000 2.375000
v 46.000000 -1.000000 3.562500
v 46.000000 -1.000000 4.750000
v 46.000000 -1.000000 5.937500
v 46.000000 -1.000000 7.125000
v 46.000000 -1.000000 8.312500
v 46.000000 -1.000000 9.500000
v 46.000000 -1.000000 10.687500
v 46.000000 -1.000000 11.875000
v 46.000000 -1.000000 13.062500
v 46.000000 -1.000000 14.250000
v 46.000000 -1.000000 15.437500
v 46.000000 -1.000000 16.625000
v 46.000000 -1.000000 17.812500
v 46.000000 1.000000 17.812500
v 46.000000 1.000000 16.625000
v 46.000000 1.000000 15.437500
v 46.000000 1.000000 14.250000
v 46.000000 1.000000 13.062500
v 46.000000 1.000000 11.875000
v 46.000000 1.000000 10.687500
v 46.000000 1.000000 9.500000
v 46.000000 1.000000 8.312500
v 46.000000 1.000000 7.125000
v 46.000000 1.000000 5.937500
v 46.000000 1.000000 4.750000
v 46.000000 1.000000 3.562500
v 46.000000 1.000000 2.375000
v 46.000000 1.000000 1.187500
v 50.000000 0.000000 8.312500
v 50.000000 0.000000 7.125000
v 48.000000 0.000000 8.312500
v 48.000000 0.000000 7.125000
v 52.000000 0.000000 8.312500
v 52.000000 0.000000 7.125000
v 46.000000 0.000000 8.312500
v 46.000000 0.000000 7.125000
v 50.000000 2.000000 0.000000
v 48.000000 2.000000 0.000000
v 50.000000 2.000000 1.187500
v 48.000000 2.000000 1.187500
v 52.000000 2.000000 1.187500
v 52.000000 2.000000 0.000000
v 46.000000 2.000000 1.187500
v 46.000000 2.000000 0.000000
v 50.000000 2.000000 7.125000
v 50.000000 2.000000 5.937500
v 50.000000 2.000000 4.750000
v 50.000000 2.000000 3.562500
v 50.000000 2.000000 2.375000
v 48.000000 2.000000 7.125000
v 48.000000 2.000000 5.937500
v 48.000000 2.000000 4.750000
v 48.000000 2.000000 3.562500
v 48.000000 2.000000 2.375000
v 52.000000 2.000000 7.125000
v 52.000000 2.000000 5.937500
v 52.000000 2.000000 4.750000
v 52.000000 2.000000 3.562500
v 52.000000 2.000000 2.375000
v 46.000000 2.000000 7.125000
v 46.000000 2.000000 5.937500
v 46.000000 2.000000 4.750000
v 46.000000 2.000000 3.562500
v 46.000000 2.000000 2.375000
v 50.000000 2.000000 10.687500
v 50.000000 2.000000 9.500000
v 50.000000 2.000000 8.312500
v 48.000000 2.000000 17.812500
v 48.000000 2.000000 16.625000
v 48.000000 2.000000 15.437500
v 48.000000 2.000000 14.250000
v 48.000000 2.000000 13.062500
v 48.000000 2.000000 11.875000
v 48.000000 2.000000 10.687500
v 48.000000 2.000000 9.500000
v 48.000000 2.000000 8.312500
v 52.000000 2.000000 17.812500
v 52.000000 2.000000 16.625000
v 52.000000 2.000000 15.437500
v 52.000000 2.000000 14.250000
v 52.000000 2.000000 13.062500
v 52.000000 2.000000 11.875000
v 52.000000 2.000000 10.687500
v 52.000000 2.000000 9.500000
v 52.000000 2.000000 8.312500
v 46.000000 2.000000 17.812500
v 46.000000 2.000000 16.625000
v 46.000000 2.000000 15.437500
v 46.000000 2.000000 14.250000
v 46.000000 2.000000 13.062500
v 46.000000 2.000000 11.875000
v 46.000000 2.000000 10.687500
v 46.000000 2.000000 9.500000
v 46.000000 2.000000 8.312500
v 28.000000 1.000000 33.000000
v 28.000000 -1.000000 33.000000
v 28.000000 1.000000 31.000000
v 28.000000 -1.000000 31.000000
v 40.000000 1.000000 35.000000
v 40.000000 -1.000000 35.000000
v 28.000000 1.000000 35.000000
v 28.000000 -1.000000 35.000000
v 40.000000 1.000000 25.000000
v 40.000000 -1.000000 25.000000
v 28.000000 1.000000 25.000000
v 28.000000 -1.000000 25.000000
v 40.000000 2.000000 33.000000
v 40.000000 2.000000 31.000000
v 28.000000 2.000000 33.000000
v 28.000000 2.000000 31.000000
v 40.000000 2.000000 35.000000
v 28.000000 2.000000 35.000000
v 40.000000 2.000000 25.000000
v 28.000000 2.000000 25.000000
v 22.000000 1.000000 33.000000
v 22.000000 -1.000000 33.000000
v 22.000000 1.000000 31.000000
v 22.000000 -1.000000 31.000000
v 58.000000 -5.000000 33.000000
v 58.000000 -7.000000 33.000000
v 58.000000 -5.000000 31.000000
v 58.000000 -7.000000 31.000000
v 68.000000 -5.000000 33.000000
v 68.000000 -7.000000 33.000000
v 68.000000 -5.000000 31.000000
v 68.000000 -7.000000 31.000000
v 58.000000 -5.000000 39.000000
v 58.000000 -7.000000 39.000000
v 68.000000 -5.000000 39.000000
v 68.000000 -7.000000 39.000000
v 58.000000 -4.000000 33.000000
v 58.000000 -4.000000 31.000000
v 68.000000 -4.000000 33.000000
v 68.000000 -4.000000 31.000000
v 58.000000 -4.000000 39.000000
v 68.000000 -4.000000 39.000000
v 1.007071 1.007071 -1.000000
v 1.007071 -1.007071 -1.000000
v 1.005774 1.005774 1.005774
v 1.005774 -1.005774 1.005774
v -1.007071 1.007071 -1.000000
v -1.007071 -1.007071 -1.000000
v -1.005774 1.005774 1.005774
v -1.005774 -1.005774 1.005774
v 1.003015 -1.009045 -8.996984
v -1.007071 -1.007071 -9.000000
v 1.003015 1.009045 -8.996984
v -1.007071 1.007071 -9.000000
v 1.000000 -1.007071 -11.007071
v -1.005774 -1.005774 -11.005774
v 1.000000 1.007071 -11.007071
v -1.005774 1.005774 -11.005774
v 7.990955 1.003015 -8.996984
v 7.996985 -1.009045 -8.996984
v 7.990955 1.003015 -11.003016
v 7.996985 -1.009045 -11.003016
v 48.000000 -1.007071 -11.007071
v 12.992929 -1.007071 -9.000000
v 48.000000 1.007071 -11.007071
v 12.992929 -1.007071 -11.000000
v 47.996986 -1.009045 -8.996984
v 34.007072 -1.007071 -9.000000
v 47.996986 1.009045 -8.996984
v 34.007072 -1.007071 -11.000000
v 39.009045 1.003015 -8.996984
v 39.003014 -1.009045 -8.996984
v 39.009045 1.003015 -11.003016
v 39.003014 -1.009045 -11.003016
v 7.992929 1.000000 0.007071
v 7.994226 -1.005774 0.005774
v 13.000000 1.000000 0.010000
v 12.996984 -1.003015 0.009045
v 34.000000 1.000000 0.010000
v 34.003014 -1.003015 0.009045
v 39.007072 1.000000 0.007071
v 39.005772 -1.005774 0.005774
v 7.992929 1.000000 -20.007071
v 7.994226 -1.005774 -20.005774
v 13.000000 1.000000 -20.010000
v 12.996984 -1.003015 -20.009045
v 34.000000 1.000000 -20.010000
v 34.003014 -1.003015 -20.009045
v 39.007072 1.000000 -20.007071
v 39.005772 -1.005774 -20.005774
v 12.992929 -7.007071 -11.000000
v 12.992929 -7.007071 -9.000000
v 34.007072 -7.007071 -11.000000
v 34.007072 -7.007071 -9.000000
v 12.994226 -7.005774 0.005774
v 34.005772 -7.005774 0.005774
v 34.005772 -7.005774 -20.005774
v 12.994226 -7.005774 -20.005774
v 7.992929 6.007071 -11.000000
v 7.992929 6.007071 -9.000000
v 39.005772 6.005774 0.005774
v 39.007072 6.007071 -9.000000
v 34.000000 6.007071 -20.007071
v 34.000000 6.010000 -11.000000
v 13.000000 6.010000 -11.000000
v 13.000000 6.010000 -9.000000
v 13.000000 6.007071 -20.007071
v 34.000000 6.010000 -9.000000
v 39.007072 6.007071 -11.000000
v 13.000000 6.007071 0.007071
v 7.994226 6.005774 0.005774
v 34.000000 6.007071 0.007071
v 7.994226 6.005774 -20.005774
v 39.005772 6.005774 -20.005774
v 50.007072 1.007071 -9.000000
v 50.007072 -1.007071 -9.000000
v 50.005772 1.005774 -11.005774
v 50.005772 -1.005774 -11.005774
v 47.996986 1.003015 -0.009045
v 47.996986 -1.009045 -0.003015
v 50.003014 1.003015 -0.009045
v 50.003014 -1.009045 -0.003015
v 47.996986 1.003015 19.009045
v 47.996986 -1.009045 19.003016
v 50.003014 1.003015 19.009045
v 50.003014 -1.009045 19.003016
v 52.007072 1.000000 -0.007071
v 52.005772 -1.005774 -0.005774
v 52.007072 1.000000 19.007071
v 52.005772 -1.005774 19.005774
v 45.992928 1.000000 -0.007071
v 45.994228 -1.005774 -0.005774
v 45.992928 1.000000 19.007071
v 45.994228 -1.005774 19.005774
v 48.000000 -1.010000 1.187500
v 48.000000 -1.010000 2.375000
v 48.000000 -1.010000 3.562500
v 48.000000 -1.010000 4.750000
v 48.000000 -1.010000 5.937500
v 48.000000 -1.010000 7.125000
v 48.000000 -1.010000 8.312500
v 48.000000 -1.010000 9.500000
v 48.000000 -1.010000 10.687500
v 48.000000 -1.010000 11.875000
v 48.000000 -1.010000 13.062500
v 48.000000 -1.010000 14.250000
v 48.000000 -1.010000 15.437500
v 48.000000 -1.010000 16.625000
v 48.000000 -1.010000 17.812500
v 50.000000 -1.010000 17.812500
v 50.000000 -1.010000 16.625000
v 50.000000 -1.010000 15.437500
v 50.000000 -1.010000 14.250000
v 50.000000 -1.010000 13.062500
v 50.000000 -1.010000 11.875000
v 50.000000 -1.010000 10.687500
v 50.000000 -1.010000 9.500000
v 50.000000 -1.010000 8.312500
v 50.000000 -1.010000 7.125000
v 50.000000 -1.010000 5.937500
v 50.000000 -1.010000 4.750000
v 50.000000 -1.010000 3.562500
v 50.000000 -1.010000 2.375000
v 50.000000 -1.010000 1.187500
v 40.001999 -1.009039 30.996218
v 40.009403 1.002627 30.997835
v 40.001999 -1.009039 33.003780
v 40.009403 1.002627 33.002167
v 49.998817 -4.006513 33.007496
v 50.001328 -1.992687 33.006691
v 47.998672 -4.007313 33.006691
v 48.001183 -1.993487 33.007496
v 50.000000 1.000000 8.302500
v 50.000000 1.000000 7.135000
v 50.000000 2.010000 11.875000
v 50.000000 2.010000 13.062500
v 50.000000 2.010000 14.250000
v 50.000000 2.010000 15.437500
v 50.000000 2.010000 16.625000
v 47.997196 -1.990820 30.997196
v 50.004780 -1.991308 30.998728
v 47.996578 -4.008752 30.996580
v 50.001270 -4.008691 30.995220
v 50.007496 -1.006513 22.998819
v 50.006691 1.007313 23.001326
v 47.992504 -1.006513 22.998819
v 47.993309 1.007313 23.001326
v 48.000000 1.000000 8.302500
v 48.000000 1.000000 7.135000
v 50.000000 2.010000 17.812500
v 45.994228 2.005774 19.005774
v 52.005772 2.005774 19.005774
v 48.000000 2.007071 19.007071
v 50.000000 2.007071 19.007071
v 52.007072 -1.007071 17.812500
v 52.007072 -1.007071 16.625000
v 52.007072 -1.007071 15.437500
v 52.007072 -1.007071 14.250000
v 52.007072 -1.007071 13.062500
v 52.007072 -1.007071 11.875000
v 52.007072 -1.007071 10.687500
v 52.007072 -1.007071 9.500000
v 52.007072 -1.007071 8.312500
v 52.007072 -1.007071 7.125000
v 52.007072 -1.007071 5.937500
v 52.007072 -1.007071 4.750000
v 52.007072 -1.007071 3.562500
v 52.007072 -1.007071 2.375000
v 52.007072 -1.007071 1.187500
v 52.009998 1.000000 17.812500
v 52.009998 1.000000 16.625000
v 52.009998 1.000000 15.437500
v 52.009998 1.000000 14.250000
v 52.009998 1.000000 13.062500
v 52.009998 1.000000 11.875000
v 52.009998 1.000000 10.687500
v 52.009998 1.000000 9.500000
v 52.007072 1.000000 8.305429
v 52.007072 1.000000 7.132071
v 52.009998 1.000000 5.937500
v 52.009998 1.000000 4.750000
v 52.009998 1.000000 3.562500
v 52.009998 1.000000 2.375000
v 52.009998 1.000000 1.187500
v 45.992928 -1.007071 1.187500
v 45.992928 -1.007071 2.375000
v 45.992928 -1.007071 3.562500
v 45.992928 -1.007071 4.750000
v 45.992928 -1.007071 5.937500
v 45.992928 -1.007071 7.125000
v 45.992928 -1.007071 8.312500
v 45.992928 -1.007071 9.500000
v 45.992928 -1.007071 10.687500
v 45.992928 -1.007071 11.875000
v 45.992928 -1.007071 13.062500
v 45.992928 -1.007071 14.250000
v 45.992928 -1.007071 15.437500
v 45.992928 -1.007071 16.625000
v 45.992928 -1.007071 17.812500
v 45.990002 1.000000 17.812500
v 45.990002 1.000000 16.625000
v 45.990002 1.000000 15.437500
v 45.990002 1.000000 14.250000
v 45.990002 1.000000 13.062500
v 45.990002 1.000000 11.875000
v 45.990002 1.000000 10.687500
v 45.990002 1.000000 9.500000
v 45.992928 1.000000 8.305429
v 45.992928 1.000000 7.132071
v 45.990002 1.000000 5.937500
v 45.990002 1.000000 4.750000
v 45.990002 1.000000 3.562500
v 45.990002 1.000000 2.375000
v 45.990002 1.000000 1.187500
v 50.000000 0.007071 8.305429
v 50.000000 0.007071 7.132071
v 48.000000 0.007071 8.305429
v 48.000000 0.007071 7.132071
v 51.994228 0.005774 8.306726
v 51.994228 0.005774 7.130774
v 46.005772 0.005774 8.306726
v 46.005772 0.005774 7.130774
v 50.000000 2.007071 -0.007071
v 48.000000 2.007071 -0.007071
v 50.000000 2.010000 1.187500
v 48.000000 2.010000 1.187500
v 52.007072 2.007071 1.187500
v 52.005772 2.005774 -0.005774
v 45.992928 2.007071 1.187500
v 45.994228 2.005774 -0.005774
v 50.000000 2.007071 7.132071
v 50.000000 2.010000 5.937500
v 50.000000 2.010000 4.750000
v 50.000000 2.010000 3.562500
v 50.000000 2.010000 2.375000
v 48.000000 2.007071 7.132071
v 48.000000 2.010000 5.937500
v 48.000000 2.010000 4.750000
v 48.000000 2.010000 3.562500
v 48.000000 2.010000 2.375000
v 52.005772 2.005774 7.130774
v 52.007072 2.007071 5.937500
v 52.007072 2.007071 4.750000
v 52.007072 2.007071 3.562500
v 52.007072 2.007071 2.375000
v 45.994228 2.005774 7.130774
v 45.992928 2.007071 5.937500
v 45.992928 2.007071 4.750000
v 45.992928 2.007071 3.562500
v 45.992928 2.007071 2.375000
v 50.000000 2.010000 10.687500
v 50.000000 2.010000 9.500000
v 50.000000 2.007071 8.305429
v 48.000000 2.010000 17.812500
v 48.000000 2.010000 16.625000
v 48.000000 2.010000 15.437500
v 48.000000 2.010000 14.250000
v 48.000000 2.010000 13.062500
v 48.000000 2.010000 11.875000
v 48.000000 2.010000 10.687500
v 48.000000 2.010000 9.500000
v 48.000000 2.007071 8.305429
v 52.007072 2.007071 17.812500
v 52.007072 2.007071 16.625000
v 52.007072 2.007071 15.437500
v 52.007072 2.007071 14.250000
v 52.007072 2.007071 13.062500
v 52.007072 2.007071 11.875000
v 52.007072 2.007071 10.687500
v 52.007072 2.007071 9.500000
v 52.005772 2.005774 8.306726
v 45.992928 2.007071 17.812500
v 45.992928 2.007071 16.625000
v 45.992928 2.007071 15.437500
v 45.992928 2.007071 14.250000
v 45.992928 2.007071 13.062500
v 45.992928 2.007071 11.875000
v 45.992928 2.007071 10.687500
v 45.992928 2.007071 9.500000
v 45.994228 2.005774 8.306726
v 27.990955 1.003015 33.003014
v 27.996984 -1.009045 33.003014
v 27.990955 1.003015 30.996984
v 27.996984 -1.009045 30.996984
v 40.007072 1.000000 35.007072
v 40.005772 -1.005774 35.005772
v 27.992929 1.000000 35.007072
v 27.994226 -1.005774 35.005772
v 40.007072 1.000000 24.992929
v 40.005772 -1.005774 24.994226
v 27.992929 1.000000 24.992929
v 27.994226 -1.005774 24.994226
v 40.007072 2.007071 33.000000
v 40.007072 2.007071 31.000000
v 27.992929 2.007071 33.000000
v 27.992929 2.007071 31.000000
v 40.005772 2.005774 35.005772
v 27.994226 2.005774 35.005772
v 40.005772 2.005774 24.994226
v 27.994226 2.005774 24.994226
v 21.994226 1.005774 33.005772
v 21.994226 -1.005774 33.005772
v 21.994226 1.005774 30.994226
v 21.994226 -1.005774 30.994226
v 57.991360 -4.996946 33.004005
v 57.995934 -7.008836 33.002323
v 57.998104 -4.997265 30.990570
v 57.998672 -7.007313 30.993309
v 68.010002 -5.000000 33.000000
v 68.007072 -7.007071 33.000000
v 68.007072 -5.000000 30.992929
v 68.005775 -7.005774 30.994226
v 57.992928 -5.000000 39.007072
v 57.994228 -7.005774 39.005772
v 68.007072 -5.000000 39.007072
v 68.005775 -7.005774 39.005772
v 57.992928 -3.992929 33.000000
v 57.994228 -3.994226 30.994226
v 68.007072 -3.992929 33.000000
v 68.005775 -3.994226 30.994226
v 57.994228 -3.994226 39.005772
v 68.005775 -3.994226 39.005772
vn -0.0000 -1.0000 -0.0000
vn -0.0000 -0.0000 -1.0000
vn 1.0000 -0.0000 -0.0000
vn -0.0000 1.0000 -0.0000
vn -1.0000 -0.0000 -0.0000
vn -0.0000 -0.0000 1.0000
vn -0.0000 0.9363 0.3511
vn -0.0000 -0.9363 -0.3511
vn 0.3511 0.9363 -0.0000
vn -0.3511 -0.9363 -0.0000
vn -0.0000 1.0000 0.0006
vn -1.0000 -0.0000 0.0006
vn -0.0000 -1.0000 0.0006
vn 1.0000 -0.0000 0.0006
vn 1.0000 -0.0000 -0.0005
vn -0.0008 1.0000 -0.0008
vn -0.0005 -1.0000 0.0001
vn -0.0005 1.0000 0.0001
vn -0.0006 -0.0000 -1.0000
vn -0.0001 -1.0000 -0.0005
vn -1.0000 -0.0000 -0.0006
vn -0.0008 -1.0000 -0.0008
vn -0.0000 0.0006 -1.0000
vn 0.0007 1.0000 -0.0005
vn 0.0006 -0.0000 -1.0000
vn -0.0000 -0.0005 -1.0000
vn -1.0000 -0.0018 -0.0000
vn 0.0004 -1.0000 -0.0000
vn 1.0000 -0.0018 -0.0000
vn 0.0004 0.0004 1.0000
vn -0.0005 -1.0000 -0.0004
vn -0.0004 0.0004 -1.0000
vn -1.0000 0.0003 0.0002
vn -0.0004 -1.0000 -0.0000
vn 1.0000 0.0004 -0.0000
vn -0.0006 -0.0006 1.0000
vn -0.0000 -0.0005 1.0000
vn 0.0006 -0.0006 1.0000
vn 1.0000 0.0003 -0.0002
vn 0.0005 -1.0000 0.0004
vn -1.0000 0.0004 -0.0000
vn -0.0005 -1.0000 0.0004
vn -0.0006 -0.0006 -1.0000
vn 0.0006 -0.0006 -1.0000
vn 0.0004 0.0004 -1.0000
vn 1.0000 0.0002 0.0003
vn 1.0000 0.0003 0.0002
vn 0.0005 -1.0000 -0.0004
vn -0.0000 -1.0000 0.0001
vn -0.0000 -1.0000 -0.0001
vn -1.0000 0.0002 0.0003
vn -1.0000 0.0002 -0.0003
vn 1.0000 0.0002 -0.0003
vn -0.0006 1.0000 -0.0000
vn 0.0006 1.0000 -0.0000
vn -0.0004 1.0000 0.0002
vn -0.0000 1.0000 -0.0003
vn 0.0004 1.0000 0.0002
vn -0.0000 1.0000 0.0003
vn -0.0004 1.0000 -0.0002
vn 0.0004 1.0000 -0.0002
vn -0.0004 0.0004 1.0000
vn -0.0000 0.0006 1.0000
vn -1.0000 0.0003 -0.0002
vn 0.0008 1.0000 -0.0008
vn 0.0001 -1.0000 -0.0005
vn -0.0005 -0.0000 -1.0000
vn -0.0006 1.0000 -0.0005
vn 1.0000 -0.0000 -0.0006
vn 1.0000 -0.0000 0.0005
vn 0.0008 -1.0000 -0.0008
vn -0.0000 -1.0000 0.0008
vn 0.0005 1.0000 0.0006
vn 0.0005 -1.0000 -0.0001
vn -0.0000 1.0000 -0.0011
vn -1.0000 0.0029 -0.0000
vn -0.0015 -1.0000 -0.0009
vn 1.0000 -0.0011 0.0018
vn -0.0002 -0.0018 -1.0000
vn 0.0015 -1.0000 0.0009
vn -0.0002 -0.0018 1.0000
vn -1.0000 -0.0011 0.0018
vn 0.0002 -0.0018 1.0000
vn -1.0000 0.0002 -0.0010
vn 0.0002 -0.0018 -1.0000
vn 1.0000 0.0029 -0.0000
vn 0.0011 0.0021 1.0000
vn -1.0000 0.0021 0.0018
vn 1.0000 0.0021 0.0018
vn 0.0008 0.0016 -1.0000
vn -1.0000 0.0021 -0.0018
vn -0.0011 -0.0021 1.0000
vn 1.0000 -0.0007 0.0003
vn -0.0008 0.0016 1.0000
vn 0.0008 0.0016 1.0000
vn -1.0000 -0.0011 -0.0018
vn -1.0000 -0.0015 -0.0000
vn -1.0000 -0.0007 0.0012
vn -1.0000 -0.0007 -0.0012
vn 0.0015 -1.0000 -0.0009
vn 0.0015 -1.0000 -0.0000
vn 1.0000 -0.0011 -0.0018
vn 1.0000 -0.0015 -0.0000
vn 1.0000 -0.0007 0.0012
vn 1.0000 -0.0007 -0.0012
vn -0.0015 -1.0000 0.0009
vn -0.0015 -1.0000 -0.0000
vn 1.0000 0.0021 -0.0018
vn -0.0000 0.0029 1.0000
vn -0.0000 0.0020 -1.0000
vn 0.9999 0.0129 -0.0000
vn 0.0011 0.0021 -1.0000
vn -0.0000 0.0029 -1.0000
vn -0.0000 0.0020 1.0000
vn -0.0011 0.0021 -1.0000
vn 0.0011 -0.0021 1.0000
vn -0.0011 0.0021 1.0000
vn -0.0008 0.0016 -1.0000
vn -0.0000 -1.0000 -0.0008
vn -0.0007 1.0000 -0.0000
vn 0.0007 1.0000 -0.0000
vn -0.0000 -0.0030 1.0000
vn 0.0011 -0.0021 -1.0000
vn -0.9999 0.0129 -0.0000
vn -0.0011 -0.0021 -1.0000
vn -0.0000 -0.0029 -1.0000
vn 0.0011 1.0000 -0.0018
vn -0.0011 1.0000 -0.0018
vn -0.0015 1.0000 -0.0000
vn -0.0011 1.0000 0.0018
vn -0.0000 1.0000 -0.0025
vn -0.0000 1.0000 0.0025
vn 0.0011 1.0000 0.0018
vn 0.0015 1.0000 -0.0000
vn 1.0000 0.0002 -0.0010
vn -0.0006 0.0002 -1.0000
vn -0.0001 -0.9362 -0.3515
vn -1.0000 0.0004 0.0006
vn -0.0001 1.0000 0.0010
vn -0.3512 -0.9363 0.0005
vn 0.0002 -1.0000 0.0009
vn -0.0004 0.0002 1.0000
vn 0.0002 0.0006 -1.0000
vn 0.3510 0.9364 0.0003
vn 0.0005 1.0000 -0.0000
vn -0.0000 0.0013 1.0000
vn -1.0000 0.0020 -0.0000
vn -1.0000 -0.0018 -0.0002
vn -0.0000 -0.0006 1.0000
vn -0.0000 0.0013 -1.0000
vn -0.0000 -1.0000 0.0016
vn 1.0000 -0.0022 -0.0004
vn -0.0000 -0.0006 -1.0000
vn 1.0000 -0.0022 0.0001
vn -0.0000 -1.0000 -0.0005
vn -1.0000 -0.0018 0.0001
vn -0.0000 1.0000 -0.0002
vn -1.0000 0.0016 -0.0003
vn 1.0000 0.0023 -0.0000
vn 1.0000 0.0018 0.0009
vn -1.0000 0.0016 0.0008
vn 1.0000 0.0018 -0.0003
vn 0.0005 -0.0000 1.0000
vn -0.0005 -1.0000 -0.0000
vn 0.0005 -0.0000 -1.0000
vn 0.0002 -1.0000 -0.0007
vn 0.3520 0.9360 0.0011
vn 0.0004 -0.0002 1.0000
vn -0.3513 -0.9363 -0.0003
vn 1.0000 -0.0011 -0.0011
vn 1.0000 0.0021 0.0004
vn 0.0002 -0.0010 -1.0000
vn 0.0001 0.0025 -1.0000
vn 0.0001 -1.0000 0.0004
vn 1.0000 -0.0011 0.0004
vn -0.0000 1.0000 -0.0006
vn -0.0000 1.0000 0.0002
vn 1.0000 0.0021 -0.0011
vn -1.0000 0.0014 0.0002
vn -1.0000 -0.0012 -0.0020
vt 0.625000 0.500000
vt 0.625000 0.750000
vt 0.875000 0.750000
vt 0.875000 0.500000
vt 0.375000 0.750000
vt 0.375000 1.000000
vt 0.625000 1.000000
vt 0.375000 0.000000
vt 0.375000 0.250000
vt 0.625000 0.250000
vt 0.625000 0.000000
vt 0.125000 0.500000
vt 0.125000 0.750000
vt 0.375000 0.500000
vt 0.375000 0.500000
s 0
usemtl Material
f 1/1/1 3/2/1 7/3/1 5/4/1
f 4/5/2 8/6/2 7/7/2 3/2/2
f 8/8/3 6/9/3 5/10/3 7/11/3
f 6/12/4 8/13/4 4/5/4 2/14/4
f 2/14/5 4/5/5 3/2/5 1/1/5
f 2/14/5 1/1/5 11/1/5 9/14/5
f 11/1/1 12/4/1 16/4/1 15/1/1
f 5/10/3 6/9/3 10/9/3 12/10/3
f 6/12/4 2/14/4 9/14/4 10/12/4
f 1/1/1 5/4/1 12/4/1 11/1/1
f 14/9/6 13/14/6 15/1/6 16/10/6
f 13/14/4 9/14/4 18/14/4 20/14/4
f 12/10/3 10/9/3 14/9/3 16/10/3
f 10/12/4 9/14/4 13/14/4 14/12/4
f 43/1/6 45/1/6 61/1/6 65/1/6
f 9/14/2 11/1/2 17/1/2 18/14/2
f 11/1/1 15/1/1 19/1/1 17/1/1
f 15/1/6 13/14/6 20/14/6 19/1/6
f 46/14/6 44/14/6 56/14/6 55/14/6
f 18/14/3 17/1/3 33/1/3 34/14/3
f 20/14/4 18/14/4 22/14/4 24/14/4
f 32/14/5 31/1/5 47/1/5 48/14/5
f 39/1/2 37/1/2 70/1/2 59/1/2
f 28/14/4 32/14/4 48/14/4 46/14/4
f 41/1/6 43/1/6 65/1/6 71/1/6
f 33/1/3 17/1/3 58/1/3 69/1/3
f 30/14/2 29/1/2 27/1/2 25/14/2
f 29/1/5 30/14/5 40/14/5 39/1/5
f 28/14/4 26/14/4 30/14/4 32/14/4
f 31/1/5 29/1/5 60/1/5 67/1/5
f 34/14/2 33/1/2 35/1/2 36/14/2
f 36/14/2 35/1/2 37/1/2 38/14/2
f 38/14/2 37/1/2 39/1/2 40/14/2
f 24/14/3 22/14/3 50/14/3 49/14/3
f 47/1/5 31/1/5 67/1/5 72/1/5
f 22/14/4 18/14/4 34/14/4 36/14/4
f 17/1/3 19/1/3 57/1/3 58/1/3
f 30/14/4 26/14/4 38/14/4 40/14/4
f 41/1/6 42/14/6 44/14/6 43/1/6
f 43/1/6 44/14/6 46/14/6 45/1/6
f 45/1/6 46/14/6 48/14/6 47/1/6
f 19/1/3 20/14/3 42/14/3 41/1/3
f 45/1/6 47/1/6 72/1/6 61/1/6
f 38/14/5 26/14/5 52/14/5 54/14/5
f 29/1/5 39/1/5 59/1/5 60/1/5
f 20/14/4 24/14/4 44/14/4 42/14/4
f 49/14/4 50/14/4 52/14/4 51/14/4
f 52/14/4 50/14/4 53/14/4 54/14/4
f 49/14/4 51/14/4 55/14/4 56/14/4
f 22/14/3 36/14/3 53/14/3 50/14/3
f 44/14/3 24/14/3 49/14/3 56/14/3
f 26/14/5 28/14/5 51/14/5 52/14/5
f 28/14/5 46/14/5 55/14/5 51/14/5
f 36/14/2 38/14/2 54/14/2 53/14/2
f 58/1/1 57/1/1 63/1/1 64/1/1
f 66/1/1 62/1/1 67/1/1 60/1/1
f 64/1/1 63/1/1 62/1/1 66/1/1
f 58/1/1 64/1/1 68/1/1 69/1/1
f 62/1/1 63/1/1 65/1/1 61/1/1
f 66/1/1 60/1/1 59/1/1 70/1/1
f 64/1/1 66/1/1 70/1/1 68/1/1
f 63/1/1 57/1/1 71/1/1 65/1/1
f 67/1/1 62/1/1 61/1/1 72/1/1
f 35/1/2 33/1/2 69/1/2 68/1/2
f 37/1/2 35/1/2 68/1/2 70/1/2
f 19/1/3 41/1/3 71/1/3 57/1/3
f 27/1/1 23/1/1 75/1/1 73/1/1
f 32/14/4 30/14/4 25/14/4 21/14/4
f 31/1/6 32/14/6 21/14/6 23/1/6
f 29/1/1 31/1/1 23/1/1 27/1/1
f 74/14/5 73/1/5 75/1/5 76/14/5
f 73/1/5 74/14/5 80/14/5 79/1/5
f 21/14/4 25/14/4 74/14/4 76/14/4
f 23/1/6 21/14/6 76/14/6 75/1/6
f 108/14/4 107/14/4 82/14/4 84/14/4
f 27/1/1 73/1/1 79/1/1 77/1/1
f 25/14/3 27/1/3 77/1/3 78/14/3
f 74/14/4 25/14/4 78/14/4 80/14/4
f 81/1/1 83/1/1 143/1/1 145/1/1
f 208/1/3 209/1/3 246/1/3 245/1/3
f 84/14/4 82/14/4 144/14/4 142/14/4
f 93/14/4 78/14/4 90/14/4 183/14/4
f 168/1/5 153/14/5 88/14/5 87/1/5
f 79/1/6 80/14/6 86/14/6 85/1/6
f 108/14/4 84/14/4 88/14/4 153/14/4
f 84/14/2 83/1/2 87/1/2 88/14/2
f 197/14/3 198/1/3 91/1/3 92/14/3
f 81/1/2 82/14/2 92/14/2 91/1/2
f 82/14/3 81/1/3 145/1/3 144/14/3
f 78/14/6 77/1/6 89/1/6 90/14/6
f 179/1/5 178/1/5 240/1/5 241/1/5
f 177/1/2 132/1/2 229/1/2 239/1/2
f 207/1/3 208/1/3 245/1/3 244/1/3
f 178/1/5 177/1/5 239/1/5 240/1/5
f 79/1/6 85/1/6 226/1/6 221/1/6
f 212/1/3 89/1/3 228/1/3 227/1/3
f 207/1/2 147/1/2 216/1/2 220/1/2
f 143/1/5 142/14/5 141/14/5 139/1/5
f 81/1/2 91/1/2 149/1/2 151/1/2
f 201/1/3 202/1/3 274/1/3 273/1/3
f 172/1/5 171/1/5 264/1/5 265/1/5
f 200/1/3 201/1/3 273/1/3 272/1/3
f 171/1/5 170/1/5 263/1/5 264/1/5
f 87/1/2 83/1/2 152/1/2 150/1/2
f 199/1/3 200/1/3 272/1/3 271/1/3
f 90/14/3 89/1/3 212/1/3 183/14/3
f 183/14/3 212/1/3 211/1/3 184/14/3
f 184/14/3 211/1/3 210/1/3 185/14/3
f 185/14/3 210/1/3 209/1/3 186/14/3
f 186/14/3 209/1/3 208/1/3 187/14/3
f 187/14/3 208/1/3 207/1/3 188/15/3
f 188/15/3 207/1/3 206/1/3 189/15/3
f 189/15/3 206/1/3 205/1/3 190/15/3
f 190/15/3 205/1/3 204/1/3 191/15/3
f 191/15/3 204/1/3 203/1/3 192/15/3
f 192/15/3 203/1/3 202/1/3 193/15/3
f 193/15/3 202/1/3 201/1/3 194/14/3
f 194/14/3 201/1/3 200/1/3 195/14/3
f 195/14/3 200/1/3 199/1/3 196/14/3
f 196/14/3 199/1/3 198/1/3 197/14/3
f 80/14/4 122/14/4 167/14/4 86/14/4
f 122/14/4 121/14/4 166/14/4 167/14/4
f 121/14/4 120/14/4 165/14/4 166/14/4
f 120/14/4 119/14/4 164/14/4 165/14/4
f 119/14/4 118/15/4 163/15/4 164/14/4
f 118/15/4 117/15/4 162/15/4 163/15/4
f 117/15/4 116/15/4 161/15/4 162/15/4
f 116/15/4 115/15/4 160/15/4 161/15/4
f 115/15/4 114/15/4 159/15/4 160/15/4
f 114/15/4 113/15/4 158/15/4 159/15/4
f 113/15/4 112/14/4 157/14/4 158/15/4
f 112/14/4 111/14/4 156/14/4 157/14/4
f 111/14/4 110/14/4 155/14/4 156/14/4
f 110/14/4 109/14/4 154/14/4 155/14/4
f 109/14/4 108/14/4 153/14/4 154/14/4
f 85/1/5 86/14/5 167/14/5 182/1/5
f 182/1/5 167/14/5 166/14/5 181/1/5
f 181/1/5 166/14/5 165/14/5 180/1/5
f 180/1/5 165/14/5 164/14/5 179/1/5
f 179/1/5 164/14/5 163/15/5 178/1/5
f 178/1/5 163/15/5 162/15/5 177/1/5
f 177/1/5 162/15/5 161/15/5 176/1/5
f 176/1/5 161/15/5 160/15/5 175/1/5
f 175/1/5 160/15/5 159/15/5 174/1/5
f 174/1/5 159/15/5 158/15/5 173/1/5
f 173/1/5 158/15/5 157/14/5 172/1/5
f 172/1/5 157/14/5 156/14/5 171/1/5
f 171/1/5 156/14/5 155/14/5 170/1/5
f 170/1/5 155/14/5 154/14/5 169/1/5
f 169/1/5 154/14/5 153/14/5 168/1/5
f 82/14/4 107/14/4 197/14/4 92/14/4
f 107/14/4 106/14/4 196/14/4 197/14/4
f 106/14/4 105/14/4 195/14/4 196/14/4
f 105/14/4 104/14/4 194/14/4 195/14/4
f 104/14/4 103/15/4 193/15/4 194/14/4
f 103/15/4 102/15/4 192/15/4 193/15/4
f 102/15/4 101/15/4 191/15/4 192/15/4
f 101/15/4 100/15/4 190/15/4 191/15/4
f 100/15/4 99/15/4 189/15/4 190/15/4
f 99/15/4 98/15/4 188/15/4 189/15/4
f 98/15/4 97/14/4 187/14/4 188/15/4
f 97/14/4 96/14/4 186/14/4 187/14/4
f 96/14/4 95/14/4 185/14/4 186/14/4
f 95/14/4 94/14/4 184/14/4 185/14/4
f 94/14/4 93/14/4 183/14/4 184/14/4
f 85/1/5 182/1/5 225/1/5 226/1/5
f 211/1/3 212/1/3 227/1/3 248/1/3
f 182/1/5 181/1/5 243/1/5 225/1/5
f 132/1/2 147/1/2 234/1/2 229/1/2
f 77/1/6 79/1/6 221/1/6 222/1/6
f 210/1/3 211/1/3 248/1/3 247/1/3
f 206/1/5 207/1/5 220/1/5 219/1/5
f 131/1/6 176/1/6 269/1/6 251/1/6
f 170/1/5 169/1/5 262/1/5 263/1/5
f 198/1/3 199/1/3 271/1/3 270/1/3
f 169/1/5 168/1/5 261/1/5 262/1/5
f 205/1/3 206/1/3 278/1/3 277/1/3
f 176/1/5 175/1/5 268/1/5 269/1/5
f 91/1/3 198/1/3 270/1/3 149/1/3
f 146/1/6 131/1/6 251/1/6 260/1/6
f 168/1/5 87/1/5 150/1/5 261/1/5
f 204/1/3 205/1/3 277/1/3 276/1/3
f 175/1/5 174/1/5 267/1/5 268/1/5
f 83/1/2 81/1/2 151/1/2 152/1/2
f 206/1/6 146/1/6 260/1/6 278/1/6
f 203/1/3 204/1/3 276/1/3 275/1/3
f 174/1/5 173/1/5 266/1/5 267/1/5
f 202/1/3 203/1/3 275/1/3 274/1/3
f 173/1/5 172/1/5 265/1/5 266/1/5
f 132/1/2 177/1/2 218/1/2 214/1/2
f 181/1/5 180/1/5 242/1/5 243/1/5
f 147/1/2 207/1/2 244/1/2 234/1/2
f 89/1/6 77/1/6 222/1/6 228/1/6
f 209/1/3 210/1/3 247/1/3 246/1/3
f 180/1/5 179/1/5 241/1/5 242/1/5
f 80/14/4 78/14/4 93/14/4 122/14/4
f 122/14/4 93/14/4 94/14/4 121/14/4
f 121/14/4 94/14/4 95/14/4 120/14/4
f 120/14/4 95/14/4 96/14/4 119/14/4
f 119/14/4 96/14/4 97/14/4 118/15/4
f 118/15/4 97/14/4 98/15/4 117/15/4
f 117/15/4 98/15/4 99/15/4 116/15/4
f 116/15/4 99/15/4 100/15/4 115/15/4
f 115/15/4 100/15/4 101/15/4 114/15/4
f 114/15/4 101/15/4 102/15/4 113/15/4
f 113/15/4 102/15/4 103/15/4 112/14/4
f 112/14/4 103/15/4 104/14/4 111/14/4
f 111/14/4 104/14/4 105/14/4 110/14/4
f 110/14/4 105/14/4 106/14/4 109/14/4
f 109/14/4 106/14/4 107/14/4 108/14/4
f 216/1/1 215/1/1 219/1/1 220/1/1
f 216/1/1 214/1/1 213/1/1 215/1/1
f 213/1/1 214/1/1 218/1/1 217/1/1
f 147/1/2 132/1/2 214/1/2 216/1/2
f 176/1/6 131/1/6 213/1/6 217/1/6
f 177/1/3 176/1/3 217/1/3 218/1/3
f 146/1/6 206/1/6 219/1/6 215/1/6
f 131/1/6 146/1/6 215/1/6 213/1/6
f 223/1/1 221/1/1 226/1/1 225/1/1
f 222/1/1 224/1/1 227/1/1 228/1/1
f 224/1/1 238/1/1 248/1/1 227/1/1
f 238/1/1 237/1/1 247/1/1 248/1/1
f 237/1/1 236/1/1 246/1/1 247/1/1
f 236/1/1 235/1/1 245/1/1 246/1/1
f 235/1/1 234/1/1 244/1/1 245/1/1
f 222/1/1 221/1/1 223/1/1 224/1/1
f 224/1/1 223/1/1 233/1/1 238/1/1
f 238/1/1 233/1/1 232/1/1 237/1/1
f 237/1/1 232/1/1 231/1/1 236/1/1
f 236/1/1 231/1/1 230/1/1 235/1/1
f 235/1/1 230/1/1 229/1/1 234/1/1
f 229/1/1 230/1/1 240/1/1 239/1/1
f 230/1/1 231/1/1 241/1/1 240/1/1
f 231/1/1 232/1/1 242/1/1 241/1/1
f 232/1/1 233/1/1 243/1/1 242/1/1
f 233/1/1 223/1/1 225/1/1 243/1/1
f 252/1/1 148/1/1 152/1/1 151/1/1
f 252/1/1 151/1/1 149/1/1 270/1/1
f 260/1/1 259/1/1 277/1/1 278/1/1
f 259/1/1 258/1/1 276/1/1 277/1/1
f 258/1/1 257/1/1 275/1/1 276/1/1
f 257/1/1 256/1/1 274/1/1 275/1/1
f 256/1/1 255/1/1 273/1/1 274/1/1
f 255/1/1 254/1/1 272/1/1 273/1/1
f 254/1/1 253/1/1 271/1/1 272/1/1
f 253/1/1 252/1/1 270/1/1 271/1/1
f 260/1/1 251/1/1 250/1/1 259/1/1
f 259/1/1 250/1/1 249/1/1 258/1/1
f 258/1/1 249/1/1 133/1/1 257/1/1
f 257/1/1 133/1/1 134/1/1 256/1/1
f 256/1/1 134/1/1 135/1/1 255/1/1
f 255/1/1 135/1/1 136/1/1 254/1/1
f 254/1/1 136/1/1 137/1/1 253/1/1
f 253/1/1 137/1/1 148/1/1 252/1/1
f 152/1/1 148/1/1 261/1/1 150/1/1
f 148/1/1 137/1/1 262/1/1 261/1/1
f 137/1/1 136/1/1 263/1/1 262/1/1
f 136/1/1 135/1/1 264/1/1 263/1/1
f 135/1/1 134/1/1 265/1/1 264/1/1
f 134/1/1 133/1/1 266/1/1 265/1/1
f 133/1/1 249/1/1 267/1/1 266/1/1
f 249/1/1 250/1/1 268/1/1 267/1/1
f 250/1/1 251/1/1 269/1/1 268/1/1
f 83/1/5 84/14/5 142/14/5 143/1/5
f 139/1/6 141/14/6 306/14/6 305/1/6
f 142/14/7 144/14/7 140/14/7 141/14/7
f 144/14/3 145/1/3 138/1/3 140/14/3
f 145/1/8 143/1/8 139/1/8 138/1/8
f 129/14/2 130/1/2 128/1/2 127/14/2
f 138/1/1 139/1/1 128/1/1 130/1/1
f 129/14/9 140/14/9 123/14/9 125/14/9
f 141/14/4 140/14/4 129/14/4 127/14/4
f 125/14/4 123/14/4 282/14/4 280/14/4
f 130/1/2 129/14/2 125/14/2 126/1/2
f 140/14/6 138/1/6 124/1/6 123/14/6
f 138/1/10 130/1/10 126/1/10 124/1/10
f 281/1/1 279/1/1 299/1/1 301/1/1
f 283/1/2 285/1/2 296/1/2 295/1/2
f 279/1/3 281/1/3 294/1/3 293/1/3
f 280/14/3 279/1/3 285/1/3 286/14/3
f 283/1/2 284/14/2 286/14/2 285/1/2
f 289/1/6 287/1/6 297/1/6 298/1/6
f 125/14/4 280/14/4 286/14/4 284/14/4
f 126/1/5 125/14/5 284/14/5 283/1/5
f 288/14/6 287/1/6 289/1/6 290/14/6
f 123/14/5 124/1/5 287/1/5 288/14/5
f 282/14/4 123/14/4 288/14/4 290/14/4
f 281/1/3 282/14/3 290/14/3 289/1/3
f 292/1/1 294/1/1 298/1/1 297/1/1
f 292/1/1 291/1/1 293/1/1 294/1/1
f 293/1/1 291/1/1 295/1/1 296/1/1
f 281/1/3 289/1/3 298/1/3 294/1/3
f 124/1/5 126/1/5 291/1/5 292/1/5
f 126/1/5 283/1/5 295/1/5 291/1/5
f 285/1/3 279/1/3 293/1/3 296/1/3
f 287/1/5 124/1/5 292/1/5 297/1/5
f 302/14/3 301/1/3 299/1/3 300/14/3
f 279/1/2 280/14/2 300/14/2 299/1/2
f 280/14/4 282/14/4 302/14/4 300/14/4
f 282/14/6 281/1/6 301/1/6 302/14/6
f 306/14/4 304/14/4 308/14/4 310/14/4
f 128/1/10 139/1/10 305/1/10 303/1/10
f 127/14/2 128/1/2 303/1/2 304/14/2
f 141/14/9 127/14/9 304/14/9 306/14/9
f 309/1/5 310/14/5 308/14/5 307/1/5
f 304/14/3 303/1/3 311/1/3 312/14/3
f 307/1/5 313/1/5 320/1/5 317/1/5
f 305/1/6 306/14/6 310/14/6 309/1/6
f 312/14/2 311/1/2 313/1/2 314/14/2
f 305/1/6 309/1/6 318/1/6 316/1/6
f 308/14/4 304/14/4 312/14/4 314/14/4
f 307/1/5 308/14/5 314/14/5 313/1/5
f 315/1/1 316/1/1 318/1/1 317/1/1
f 315/1/1 317/1/1 320/1/1 319/1/1
f 309/1/5 307/1/5 317/1/5 318/1/5
f 311/1/3 303/1/3 315/1/3 319/1/3
f 303/1/3 305/1/3 316/1/3 315/1/3
f 313/1/2 311/1/2 319/1/2 320/1/2
f 321/1/11 325/4/11 327/3/11 323/2/11
f 324/5/6 323/2/6 327/7/6 328/6/6
f 328/8/12 327/11/12 325/10/12 326/9/12
f 326/12/13 322/14/13 324/5/13 328/13/13
f 322/14/14 321/1/14 323/2/14 324/5/14
f 322/14/15 329/14/15 331/1/15 321/1/15
f 331/1/16 335/1/16 336/4/16 332/4/16
f 325/10/5 332/10/5 330/9/5 326/9/5
f 326/12/17 330/12/17 329/14/17 322/14/17
f 321/1/18 331/1/18 332/4/18 325/4/18
f 334/9/19 336/10/19 335/1/19 333/14/19
f 333/14/20 340/14/20 338/14/20 329/14/20
f 332/10/21 336/10/21 334/9/21 330/9/21
f 330/12/22 334/12/22 333/14/22 329/14/22
f 363/1/23 385/1/23 381/1/23 365/1/23
f 329/14/6 338/14/6 337/1/6 331/1/6
f 331/1/24 337/1/24 339/1/24 335/1/24
f 335/1/25 339/1/25 340/14/25 333/14/25
f 366/14/26 375/14/26 376/14/26 364/14/26
f 338/14/27 354/14/27 353/1/27 337/1/27
f 340/14/28 344/14/28 342/14/28 338/14/28
f 352/14/29 368/14/29 367/1/29 351/1/29
f 359/1/30 379/1/30 390/1/30 357/1/30
f 348/14/31 366/14/31 368/14/31 352/14/31
f 361/1/32 391/1/32 385/1/32 363/1/32
f 353/1/33 389/1/33 378/1/33 337/1/33
f 350/14/6 345/14/6 347/1/6 349/1/6
f 349/1/29 359/1/29 360/14/29 350/14/29
f 348/14/34 352/14/34 350/14/34 346/14/34
f 351/1/35 387/1/35 380/1/35 349/1/35
f 354/14/36 356/14/36 355/1/36 353/1/36
f 356/14/37 358/14/37 357/1/37 355/1/37
f 358/14/38 360/14/38 359/1/38 357/1/38
f 344/14/5 369/14/5 370/14/5 342/14/5
f 367/1/39 392/1/39 387/1/39 351/1/39
f 342/14/40 356/14/40 354/14/40 338/14/40
f 337/1/41 378/1/41 377/1/41 339/1/41
f 350/14/42 360/14/42 358/14/42 346/14/42
f 361/1/43 363/1/43 364/14/43 362/14/43
f 363/1/26 365/1/26 366/14/26 364/14/26
f 365/1/44 367/1/44 368/14/44 366/14/44
f 339/1/27 361/1/27 362/14/27 340/14/27
f 365/1/45 381/1/45 392/1/45 367/1/45
f 358/14/46 374/14/46 372/14/46 346/14/46
f 349/1/47 380/1/47 379/1/47 359/1/47
f 340/14/48 362/14/48 364/14/48 344/14/48
f 369/14/1 371/14/1 372/14/1 370/14/1
f 372/14/49 374/14/49 373/14/49 370/14/49
f 369/14/50 376/14/50 375/14/50 371/14/50
f 342/14/51 370/14/51 373/14/51 356/14/51
f 364/14/52 376/14/52 369/14/52 344/14/52
f 346/14/3 372/14/3 371/14/3 348/14/3
f 348/14/53 371/14/53 375/14/53 366/14/53
f 356/14/37 373/14/37 374/14/37 358/14/37
f 378/1/54 384/1/54 383/1/54 377/1/54
f 386/1/55 380/1/55 387/1/55 382/1/55
f 384/1/4 386/1/4 382/1/4 383/1/4
f 378/1/56 389/1/56 388/1/56 384/1/56
f 382/1/57 381/1/57 385/1/57 383/1/57
f 386/1/58 390/1/58 379/1/58 380/1/58
f 384/1/59 388/1/59 390/1/59 386/1/59
f 383/1/60 385/1/60 391/1/60 377/1/60
f 387/1/61 392/1/61 381/1/61 382/1/61
f 355/1/62 388/1/62 389/1/62 353/1/62
f 357/1/63 390/1/63 388/1/63 355/1/63
f 339/1/64 377/1/64 391/1/64 361/1/64
f 347/1/65 393/1/65 395/1/65 343/1/65
f 352/14/66 341/14/66 345/14/66 350/14/66
f 351/1/67 343/1/67 341/14/67 352/14/67
f 349/1/68 347/1/68 343/1/68 351/1/68
f 394/14/69 396/14/69 395/1/69 393/1/69
f 393/1/70 399/1/70 400/14/70 394/14/70
f 341/14/71 396/14/71 394/14/71 345/14/71
f 343/1/25 395/1/25 396/14/25 341/14/25
f 428/14/72 404/14/72 402/14/72 427/14/72
f 347/1/73 397/1/73 399/1/73 393/1/73
f 345/14/5 398/14/5 397/1/5 347/1/5
f 394/14/74 400/14/74 398/14/74 345/14/74
f 401/1/75 465/1/75 463/1/75 403/1/75
f 528/1/76 565/1/76 566/1/76 529/1/76
f 404/14/13 462/14/13 464/14/13 402/14/13
f 413/14/77 503/14/77 410/14/77 398/14/77
f 488/1/78 407/1/78 408/14/78 473/14/78
f 399/1/79 405/1/79 406/14/79 400/14/79
f 428/14/80 473/14/80 408/14/80 404/14/80
f 404/14/81 408/14/81 407/1/81 403/1/81
f 517/14/82 412/14/82 411/1/82 518/1/82
f 401/1/83 411/1/83 412/14/83 402/14/83
f 402/14/84 464/14/84 465/1/84 401/1/84
f 398/14/85 410/14/85 409/1/85 397/1/85
f 499/1/86 561/1/86 560/1/86 498/1/86
f 497/1/87 559/1/87 549/1/87 452/1/87
f 527/1/88 564/1/88 565/1/88 528/1/88
f 498/1/89 560/1/89 559/1/89 497/1/89
f 399/1/90 541/1/90 546/1/90 405/1/90
f 532/1/91 547/1/91 548/1/91 409/1/91
f 527/1/92 540/1/92 536/1/92 467/1/92
f 463/1/93 459/1/93 461/14/93 462/14/93
f 401/1/94 471/1/94 469/1/94 411/1/94
f 521/1/76 593/1/76 594/1/76 522/1/76
f 492/1/86 585/1/86 584/1/86 491/1/86
f 520/1/76 592/1/76 593/1/76 521/1/76
f 491/1/86 584/1/86 583/1/86 490/1/86
f 407/1/95 470/1/95 472/1/95 403/1/95
f 519/1/76 591/1/76 592/1/76 520/1/76
f 410/14/96 503/14/96 532/1/96 409/1/96
f 503/14/97 504/14/97 531/1/97 532/1/97
f 504/14/97 505/14/97 530/1/97 531/1/97
f 505/14/97 506/14/97 529/1/97 530/1/97
f 506/14/97 507/14/97 528/1/97 529/1/97
f 507/14/98 508/15/98 527/1/98 528/1/98
f 508/15/5 509/15/5 526/1/5 527/1/5
f 509/15/99 510/15/99 525/1/99 526/1/99
f 510/15/97 511/15/97 524/1/97 525/1/97
f 511/15/97 512/15/97 523/1/97 524/1/97
f 512/15/97 513/15/97 522/1/97 523/1/97
f 513/15/97 514/14/97 521/1/97 522/1/97
f 514/14/97 515/14/97 520/1/97 521/1/97
f 515/14/97 516/14/97 519/1/97 520/1/97
f 516/14/97 517/14/97 518/1/97 519/1/97
f 400/14/100 406/14/100 487/14/100 442/14/100
f 442/14/101 487/14/101 486/14/101 441/14/101
f 441/14/101 486/14/101 485/14/101 440/14/101
f 440/14/101 485/14/101 484/14/101 439/14/101
f 439/14/101 484/14/101 483/15/101 438/15/101
f 438/15/101 483/15/101 482/15/101 437/15/101
f 437/15/101 482/15/101 481/15/101 436/15/101
f 436/15/101 481/15/101 480/15/101 435/15/101
f 435/15/101 480/15/101 479/15/101 434/15/101
f 434/15/101 479/15/101 478/15/101 433/15/101
f 433/15/101 478/15/101 477/14/101 432/14/101
f 432/14/101 477/14/101 476/14/101 431/14/101
f 431/14/101 476/14/101 475/14/101 430/14/101
f 430/14/101 475/14/101 474/14/101 429/14/101
f 429/14/101 474/14/101 473/14/101 428/14/101
f 405/1/102 502/1/102 487/14/102 406/14/102
f 502/1/103 501/1/103 486/14/103 487/14/103
f 501/1/103 500/1/103 485/14/103 486/14/103
f 500/1/103 499/1/103 484/14/103 485/14/103
f 499/1/103 498/1/103 483/15/103 484/14/103
f 498/1/104 497/1/104 482/15/104 483/15/104
f 497/1/3 496/1/3 481/15/3 482/15/3
f 496/1/105 495/1/105 480/15/105 481/15/105
f 495/1/103 494/1/103 479/15/103 480/15/103
f 494/1/103 493/1/103 478/15/103 479/15/103
f 493/1/103 492/1/103 477/14/103 478/15/103
f 492/1/103 491/1/103 476/14/103 477/14/103
f 491/1/103 490/1/103 475/14/103 476/14/103
f 490/1/103 489/1/103 474/14/103 475/14/103
f 489/1/103 488/1/103 473/14/103 474/14/103
f 402/14/106 412/14/106 517/14/106 427/14/106
f 427/14/107 517/14/107 516/14/107 426/14/107
f 426/14/107 516/14/107 515/14/107 425/14/107
f 425/14/107 515/14/107 514/14/107 424/14/107
f 424/14/107 514/14/107 513/15/107 423/15/107
f 423/15/107 513/15/107 512/15/107 422/15/107
f 422/15/107 512/15/107 511/15/107 421/15/107
f 421/15/107 511/15/107 510/15/107 420/15/107
f 420/15/107 510/15/107 509/15/107 419/15/107
f 419/15/107 509/15/107 508/15/107 418/15/107
f 418/15/107 508/15/107 507/14/107 417/14/107
f 417/14/107 507/14/107 506/14/107 416/14/107
f 416/14/107 506/14/107 505/14/107 415/14/107
f 415/14/107 505/14/107 504/14/107 414/14/107
f 414/14/107 504/14/107 503/14/107 413/14/107
f 405/1/108 546/1/108 545/1/108 502/1/108
f 531/1/76 568/1/76 547/1/76 532/1/76
f 502/1/86 545/1/86 563/1/86 501/1/86
f 452/1/109 549/1/109 554/1/109 467/1/109
f 397/1/110 542/1/110 541/1/110 399/1/110
f 530/1/76 567/1/76 568/1/76 531/1/76
f 526/1/111 539/1/111 540/1/111 527/1/111
f 451/1/112 571/1/112 589/1/112 496/1/112
f 490/1/86 583/1/86 582/1/86 489/1/86
f 518/1/76 590/1/76 591/1/76 519/1/76
f 489/1/86 582/1/86 581/1/86 488/1/86
f 525/1/91 597/1/91 598/1/91 526/1/91
f 496/1/108 589/1/108 588/1/108 495/1/108
f 411/1/88 469/1/88 590/1/88 518/1/88
f 466/1/113 580/1/113 571/1/113 451/1/113
f 488/1/89 581/1/89 470/1/89 407/1/89
f 524/1/76 596/1/76 597/1/76 525/1/76
f 495/1/86 588/1/86 587/1/86 494/1/86
f 403/1/114 472/1/114 471/1/114 401/1/114
f 526/1/115 598/1/115 580/1/115 466/1/115
f 523/1/76 595/1/76 596/1/76 524/1/76
f 494/1/86 587/1/86 586/1/86 493/1/86
f 522/1/76 594/1/76 595/1/76 523/1/76
f 493/1/86 586/1/86 585/1/86 492/1/86
f 452/1/116 534/1/116 538/1/116 497/1/116
f 501/1/86 563/1/86 562/1/86 500/1/86
f 467/1/117 554/1/117 564/1/117 527/1/117
f 409/1/118 548/1/118 542/1/118 397/1/118
f 529/1/76 566/1/76 567/1/76 530/1/76
f 500/1/86 562/1/86 561/1/86 499/1/86
f 400/14/119 442/14/119 413/14/119 398/14/119
f 442/14/1 441/14/1 414/14/1 413/14/1
f 441/14/1 440/14/1 415/14/1 414/14/1
f 440/14/1 439/14/1 416/14/1 415/14/1
f 439/14/1 438/15/1 417/14/1 416/14/1
f 438/15/1 437/15/1 418/15/1 417/14/1
f 437/15/1 436/15/1 419/15/1 418/15/1
f 436/15/1 435/15/1 420/15/1 419/15/1
f 435/15/1 434/15/1 421/15/1 420/15/1
f 434/15/1 433/15/1 422/15/1 421/15/1
f 433/15/1 432/14/1 423/15/1 422/15/1
f 432/14/1 431/14/1 424/14/1 423/15/1
f 431/14/1 430/14/1 425/14/1 424/14/1
f 430/14/1 429/14/1 426/14/1 425/14/1
f 429/14/1 428/14/1 427/14/1 426/14/1
f 536/1/120 540/1/120 539/1/120 535/1/120
f 536/1/4 535/1/4 533/1/4 534/1/4
f 533/1/121 537/1/121 538/1/121 534/1/121
f 467/1/122 536/1/122 534/1/122 452/1/122
f 496/1/123 537/1/123 533/1/123 451/1/123
f 497/1/124 538/1/124 537/1/124 496/1/124
f 466/1/125 535/1/125 539/1/125 526/1/125
f 451/1/126 533/1/126 535/1/126 466/1/126
f 543/1/127 545/1/127 546/1/127 541/1/127
f 542/1/128 548/1/128 547/1/128 544/1/128
f 544/1/129 547/1/129 568/1/129 558/1/129
f 558/1/129 568/1/129 567/1/129 557/1/129
f 557/1/129 567/1/129 566/1/129 556/1/129
f 556/1/129 566/1/129 565/1/129 555/1/129
f 555/1/130 565/1/130 564/1/130 554/1/130
f 542/1/131 544/1/131 543/1/131 541/1/131
f 544/1/4 558/1/4 553/1/4 543/1/4
f 558/1/4 557/1/4 552/1/4 553/1/4
f 557/1/4 556/1/4 551/1/4 552/1/4
f 556/1/4 555/1/4 550/1/4 551/1/4
f 555/1/132 554/1/132 549/1/132 550/1/132
f 549/1/133 559/1/133 560/1/133 550/1/133
f 550/1/134 560/1/134 561/1/134 551/1/134
f 551/1/134 561/1/134 562/1/134 552/1/134
f 552/1/134 562/1/134 563/1/134 553/1/134
f 553/1/134 563/1/134 545/1/134 543/1/134
f 572/1/132 471/1/132 472/1/132 468/1/132
f 572/1/130 590/1/130 469/1/130 471/1/130
f 580/1/128 598/1/128 597/1/128 579/1/128
f 579/1/129 597/1/129 596/1/129 578/1/129
f 578/1/129 596/1/129 595/1/129 577/1/129
f 577/1/129 595/1/129 594/1/129 576/1/129
f 576/1/129 594/1/129 593/1/129 575/1/129
f 575/1/129 593/1/129 592/1/129 574/1/129
f 574/1/129 592/1/129 591/1/129 573/1/129
f 573/1/129 591/1/129 590/1/129 572/1/129
f 580/1/131 579/1/131 570/1/131 571/1/131
f 579/1/4 578/1/4 569/1/4 570/1/4
f 578/1/4 577/1/4 453/1/4 569/1/4
f 577/1/4 576/1/4 454/1/4 453/1/4
f 576/1/4 575/1/4 455/1/4 454/1/4
f 575/1/4 574/1/4 456/1/4 455/1/4
f 574/1/4 573/1/4 457/1/4 456/1/4
f 573/1/4 572/1/4 468/1/4 457/1/4
f 472/1/133 470/1/133 581/1/133 468/1/133
f 468/1/134 581/1/134 582/1/134 457/1/134
f 457/1/134 582/1/134 583/1/134 456/1/134
f 456/1/134 583/1/134 584/1/134 455/1/134
f 455/1/134 584/1/134 585/1/134 454/1/134
f 454/1/134 585/1/134 586/1/134 453/1/134
f 453/1/134 586/1/134 587/1/134 569/1/134
f 569/1/134 587/1/134 588/1/134 570/1/134
f 570/1/127 588/1/127 589/1/127 571/1/127
f 403/1/135 463/1/135 462/14/135 404/14/135
f 459/1/136 625/1/136 626/14/136 461/14/136
f 462/14/137 461/14/137 460/14/137 464/14/137
f 464/14/138 460/14/138 458/1/138 465/1/138
f 465/1/7 458/1/7 459/1/7 463/1/7
f 449/14/6 447/14/6 448/1/6 450/1/6
f 458/1/139 450/1/139 448/1/139 459/1/139
f 449/14/140 445/14/140 443/14/140 460/14/140
f 461/14/141 447/14/141 449/14/141 460/14/141
f 445/14/1 600/14/1 602/14/1 443/14/1
f 450/1/142 446/1/142 445/14/142 449/14/142
f 460/14/143 443/14/143 444/1/143 458/1/143
f 458/1/144 444/1/144 446/1/144 450/1/144
f 601/1/145 621/1/145 619/1/145 599/1/145
f 603/1/146 615/1/146 616/1/146 605/1/146
f 599/1/147 613/1/147 614/1/147 601/1/147
f 600/14/148 606/14/148 605/1/148 599/1/148
f 603/1/149 605/1/149 606/14/149 604/14/149
f 609/1/150 618/1/150 617/1/150 607/1/150
f 445/14/151 604/14/151 606/14/151 600/14/151
f 446/1/152 603/1/152 604/14/152 445/14/152
f 608/14/153 610/14/153 609/1/153 607/1/153
f 443/14/154 608/14/154 607/1/154 444/1/154
f 602/14/155 610/14/155 608/14/155 443/14/155
f 601/1/156 609/1/156 610/14/156 602/14/156
f 612/1/157 617/1/157 618/1/157 614/1/157
f 612/1/4 614/1/4 613/1/4 611/1/4
f 613/1/11 616/1/11 615/1/11 611/1/11
f 601/1/158 614/1/158 618/1/158 609/1/158
f 444/1/159 612/1/159 611/1/159 446/1/159
f 446/1/160 611/1/160 615/1/160 603/1/160
f 605/1/161 616/1/161 613/1/161 599/1/161
f 607/1/162 617/1/162 612/1/162 444/1/162
f 622/14/5 620/14/5 619/1/5 621/1/5
f 599/1/163 619/1/163 620/14/163 600/14/163
f 600/14/164 620/14/164 622/14/164 602/14/164
f 602/14/165 622/14/165 621/1/165 601/1/165
f 626/14/166 630/14/166 628/14/166 624/14/166
f 448/1/167 623/1/167 625/1/167 459/1/167
f 447/14/168 624/14/168 623/1/168 448/1/168
f 461/14/169 626/14/169 624/14/169 447/14/169
f 629/1/170 627/1/170 628/14/170 630/14/170
f 624/14/97 632/14/97 631/1/97 623/1/97
f 627/1/171 637/1/171 640/1/171 633/1/171
f 625/1/172 629/1/172 630/14/172 626/14/172
f 632/14/149 634/14/149 633/1/149 631/1/149
f 625/1/173 636/1/173 638/1/173 629/1/173
f 628/14/174 634/14/174 632/14/174 624/14/174
f 627/1/175 633/1/175 634/14/175 628/14/175
f 635/1/176 637/1/176 638/1/176 636/1/176
f 635/1/177 639/1/177 640/1/177 637/1/177
f 629/1/178 638/1/178 637/1/178 627/1/178
f 631/1/179 639/1/179 635/1/179 623/1/179
f 623/1/180 635/1/180 636/1/180 625/1/180
f 633/1/146 640/1/146 639/1/146 631/1/146
