# Blender 4.1.1
# www.blender.org
mtllib level_one.mtl
o Cube
v 1.000000 1.000000 -1.000000
v 1.000000 -1.000000 -1.000000
v 1.000000 1.000000 1.000000
v 1.000000 -1.000000 1.000000
v -1.000000 1.000000 -1.000000
v -1.000000 -1.000000 -1.000000
v -1.000000 1.000000 1.000000
v -1.000000 -1.000000 1.000000
v 1.000000 -1.000000 -9.000000
v -1.000000 -1.000000 -9.000000
v 1.000000 1.000000 -9.000000
v -1.000000 1.000000 -9.000000
v 1.000000 -1.000000 -11.000000
v -1.000000 -1.000000 -11.000000
v 1.000000 1.000000 -11.000000
v -1.000000 1.000000 -11.000000
v 5.000000 1.000000 -9.000000
v 5.000000 -1.000000 -9.000000
v 5.000000 1.000000 -11.000000
v 5.000000 -1.000000 -11.000000
v 9.000000 -1.000000 -9.000000
v 9.000000 -1.000000 -11.000000
v 5.000000 1.000000 -5.000000
v 5.000000 -1.000000 -5.000000
v 9.000000 1.000000 -5.000000
v 9.000000 -1.000000 -5.000000
v 5.000000 1.000000 -15.000000
v 5.000000 -1.000000 -15.000000
v 9.000000 1.000000 -15.000000
v 9.000000 -1.000000 -15.000000
v -0.288481 -0.288481 0.288481
v -0.288481 0.288481 0.288481
v -0.288481 -0.288481 -0.288481
v -0.288481 0.288481 -0.288481
v 0.288481 -0.288481 0.288481
v 0.288481 0.288481 0.288481
v 0.288481 -0.288481 -0.288481
v 0.288481 0.288481 -0.288481
v 11.000000 -1.000000 -9.000000
v 11.000000 -1.000000 -11.000000
v 11.000000 1.000000 -5.000000
v 11.000000 -1.000000 -5.000000
v 11.000000 1.000000 -15.000000
v 11.000000 -1.000000 -15.000000
v 15.000000 1.000000 -9.000000
v 15.000000 -1.000000 -9.000000
v 15.000000 1.000000 -11.000000
v 15.000000 -1.000000 -11.000000
v 15.000000 1.000000 -5.000000
v 15.000000 -1.000000 -5.000000
v 15.000000 1.000000 -15.000000
v 15.000000 -1.000000 -15.000000
v 9.000000 1.000000 3.000000
v 9.000000 -1.000000 3.000000
v 11.000000 1.000000 3.000000
v 11.000000 -1.000000 3.000000
v 9.000000 1.000000 5.000000
v 9.000000 -1.000000 5.000000
v 11.000000 1.000000 5.000000
v 11.000000 -1.000000 5.000000
v 9.000000 1.000000 -23.000000
v 11.000000 1.000000 -23.000000
v 9.000000 -1.000000 -23.000000
v 11.000000 -1.000000 -23.000000
v 9.000000 1.000000 -25.000000
v 11.000000 1.000000 -25.000000
v 9.000000 -1.000000 -25.000000
v 11.000000 -1.000000 -25.000000
v 19.000000 1.000000 -23.000000
v 19.000000 -1.000000 -23.000000
v 19.000000 1.000000 -25.000000
v 19.000000 -1.000000 -25.000000
v 21.000000 1.000000 -23.000000
v 21.000000 -1.000000 -23.000000
v 21.000000 1.000000 -25.000000
v 21.000000 -1.000000 -25.000000
v 19.000000 1.000000 -27.000000
v 19.000000 -1.000000 -27.000000
v 21.000000 1.000000 -27.000000
v 21.000000 -1.000000 -27.000000
v 19.000000 1.000000 -32.000000
v 19.000000 -1.000000 -32.000000
v 33.000000 -2.000000 -32.000000
v 21.000000 -1.000000 -32.000000
v 26.000000 1.000000 -27.000000
v 26.000000 -1.000000 -27.000000
v 26.000000 1.000000 -32.000000
v 26.000000 -1.000000 -32.000000
v 15.000000 4.000000 3.000000
v 15.000000 2.000000 3.000000
v 15.000000 4.000000 5.000000
v 15.000000 2.000000 5.000000
v 24.000000 4.000000 3.000000
v 24.000000 2.000000 3.000000
v 24.000000 4.000000 5.000000
v 24.000000 2.000000 5.000000
v 5.000000 2.000000 -11.000000
v 5.000000 2.000000 -9.000000
v 11.000000 2.000000 -11.000000
v 9.000000 2.000000 -11.000000
v 9.000000 2.000000 -15.000000
v 11.000000 2.000000 -15.000000
v 9.000000 2.000000 -9.000000
v 9.000000 2.000000 -5.000000
v 5.000000 2.000000 -5.000000
v 5.000000 2.000000 -15.000000
v 15.000000 2.000000 -11.000000
v 15.000000 2.000000 -15.000000
v 11.000000 2.000000 -9.000000
v 11.000000 2.000000 -5.000000
v 15.000000 2.000000 -9.000000
v 15.000000 2.000000 -5.000000
v 19.000000 2.000000 -27.000000
v 21.000000 2.000000 -27.000000
v 19.000000 2.000000 -32.000000
v 21.000000 2.000000 -32.000000
v 26.000000 2.000000 -32.000000
v 26.000000 2.000000 -27.000000
v 15.000000 5.000000 3.000000
v 15.000000 5.000000 5.000000
v 24.000000 5.000000 3.000000
v 24.000000 5.000000 5.000000
v 19.000000 1.000000 -34.000000
v 19.000000 -1.000000 -34.000000
v 21.000000 1.000000 -34.000000
v 21.000000 -1.000000 -34.000000
v 19.000000 2.000000 -34.000000
v 26.000000 1.000000 -34.000000
v 26.000000 -1.000000 -34.000000
v 21.000000 2.000000 -34.000000
v 26.000000 2.000000 -34.000000
v 33.000000 -4.000000 -32.000000
v 33.000000 -2.000000 -34.000000
v 33.000000 -4.000000 -34.000000
v 35.000000 -2.000000 -32.000000
v 35.000000 -4.000000 -32.000000
v 35.000000 -2.000000 -34.000000
v 35.000000 -4.000000 -34.000000
v 1.007071 1.007071 -1.000000
v 1.007071 -1.007071 -1.000000
v 1.005774 1.005774 1.005774
v 1.005774 -1.005774 1.005774
v -1.007071 1.007071 -1.000000
v -1.007071 -1.007071 -1.000000
v -1.005774 1.005774 1.005774
v -1.005774 -1.005774 1.005774
v 1.003015 -1.009045 -8.996984
v -1.007071 -1.007071 -9.000000
v 1.003015 1.009045 -8.996984
v -1.007071 1.007071 -9.000000
v 1.000000 -1.007071 -11.007071
v -1.005774 -1.005774 -11.005774
v 1.000000 1.007071 -11.007071
v -1.005774 1.005774 -11.005774
v 4.990955 1.003015 -8.996984
v 4.996985 -1.009045 -8.996984
v 4.990955 1.003015 -11.003016
v 4.996985 -1.009045 -11.003016
v 9.000000 -1.010000 -9.000000
v 9.000000 -1.010000 -11.000000
v 4.992929 1.000000 -4.992929
v 4.994226 -1.005774 -4.994226
v 8.996984 1.003015 -4.990955
v 8.996984 -1.009045 -4.996985
v 4.992929 1.000000 -15.007071
v 4.994226 -1.005774 -15.005774
v 8.996984 1.003015 -15.009046
v 8.996984 -1.009045 -15.003016
v -0.282707 -0.282707 0.282707
v -0.282707 0.282707 0.282707
v -0.282707 -0.282707 -0.282707
v -0.282707 0.282707 -0.282707
v 0.282707 -0.282707 0.282707
v 0.282707 0.282707 0.282707
v 0.282707 -0.282707 -0.282707
v 0.282707 0.282707 -0.282707
v 11.000000 -1.010000 -9.000000
v 11.000000 -1.010000 -11.000000
v 11.003016 1.003015 -4.990955
v 11.003016 -1.009045 -4.996985
v 11.003016 1.003015 -15.009046
v 11.003016 -1.009045 -15.003016
v 15.010000 1.000000 -9.000000
v 15.007071 -1.007071 -9.000000
v 15.010000 1.000000 -11.000000
v 15.007071 -1.007071 -11.000000
v 15.007071 1.000000 -4.992929
v 15.005774 -1.005774 -4.994226
v 15.007071 1.000000 -15.007071
v 15.005774 -1.005774 -15.005774
v 8.992929 1.007071 3.000000
v 8.992929 -1.007071 3.000000
v 11.001266 1.008860 2.995539
v 11.004880 -1.008541 2.998199
v 8.994226 1.005774 5.005774
v 8.994226 -1.005774 5.005774
v 10.998044 1.005869 5.007857
v 11.002423 -1.007271 5.006424
v 8.992929 1.007071 -23.000000
v 11.003016 1.009045 -22.996984
v 8.992929 -1.007071 -23.000000
v 11.003016 -1.009045 -22.996984
v 8.994226 1.005774 -25.005774
v 11.000000 1.007071 -25.007071
v 8.994226 -1.005774 -25.005774
v 11.000000 -1.007071 -25.007071
v 19.000000 1.007071 -22.992929
v 19.000000 -1.007071 -22.992929
v 18.996984 1.009045 -25.003016
v 18.996984 -1.009045 -25.003016
v 21.005774 1.005774 -22.994226
v 21.005774 -1.005774 -22.994226
v 21.007071 1.007071 -25.000000
v 21.007071 -1.007071 -25.000000
v 18.990955 1.003015 -26.996984
v 18.992929 -1.007071 -27.000000
v 21.003016 1.003015 -26.990955
v 21.003016 -1.009045 -26.996984
v 18.990000 1.000000 -32.000000
v 18.992929 -1.007071 -32.000000
v 33.001316 -1.993580 -31.992447
v 21.000000 -1.010000 -32.000000
v 26.007071 1.000000 -26.992929
v 26.005774 -1.005774 -26.994226
v 26.009443 1.002558 -31.997934
v 26.001873 -1.009021 -31.996113
v 14.994918 4.002541 2.991771
v 15.001956 1.994131 2.992143
v 14.994918 4.002541 5.008229
v 15.001956 1.994131 5.007857
v 24.007071 4.000000 2.992929
v 24.005774 1.994226 2.994226
v 24.007071 4.000000 5.007071
v 24.005774 1.994226 5.005774
v 4.992929 2.007071 -11.000000
v 4.992929 2.007071 -9.000000
v 11.000000 2.010000 -11.000000
v 9.000000 2.010000 -11.000000
v 9.000000 2.007071 -15.007071
v 11.000000 2.007071 -15.007071
v 9.000000 2.010000 -9.000000
v 9.000000 2.007071 -4.992929
v 4.994226 2.005774 -4.994226
v 4.994226 2.005774 -15.005774
v 15.007071 2.007071 -11.000000
v 15.005774 2.005774 -15.005774
v 11.000000 2.010000 -9.000000
v 11.000000 2.007071 -4.992929
v 15.007071 2.007071 -9.000000
v 15.005774 2.005774 -4.994226
v 18.994226 2.005774 -26.994226
v 21.000000 2.007071 -26.992929
v 18.992929 2.007071 -32.000000
v 21.000000 2.010000 -32.000000
v 26.007071 2.007071 -32.000000
v 26.005774 2.005774 -26.994226
v 14.994226 5.005774 2.994226
v 14.994226 5.005774 5.005774
v 24.005774 5.005774 2.994226
v 24.005774 5.005774 5.005774
v 18.992929 1.000000 -34.007072
v 18.994226 -1.005774 -34.005772
v 21.000000 1.000000 -34.009998
v 21.000000 -1.007071 -34.007072
v 18.994226 2.005774 -34.005772
v 26.004341 1.002863 -34.008541
v 25.998682 -1.006420 -34.007553
v 21.000000 2.007071 -34.007072
v 26.005774 2.005774 -34.005772
v 32.998497 -4.007320 -31.993355
v 33.001316 -1.993580 -34.007553
v 32.998497 -4.007320 -34.006645
v 35.005772 -1.994226 -31.994226
v 35.005772 -4.005774 -31.994226
v 35.005772 -1.994226 -34.005772
v 35.005772 -4.005774 -34.005772
vn -0.0000 -1.0000 -0.0000
vn -0.0000 -0.0000 -1.0000
vn 1.0000 -0.0000 -0.0000
vn -0.0000 1.0000 -0.0000
vn -1.0000 -0.0000 -0.0000
vn -0.0000 -0.0000 1.0000
vn 0.6000 -0.8000 -0.0000
vn -0.6000 0.8000 -0.0000
vn 0.3939 0.9191 -0.0000
vn -0.3939 -0.9191 -0.0000
vn -0.0000 1.0000 0.0006
vn -1.0000 -0.0000 0.0006
vn -0.0000 -1.0000 0.0006
vn 1.0000 -0.0000 0.0006
vn -1.0000 -0.0000 -0.0006
vn -0.0005 -1.0000 0.0001
vn -0.0005 1.0000 0.0001
vn 1.0000 -0.0000 -0.0005
vn -0.0006 -0.0000 -1.0000
vn -0.0008 -1.0000 -0.0008
vn -0.0008 1.0000 -0.0008
vn 0.0013 1.0000 -0.0005
vn 0.0001 0.0019 1.0000
vn 0.0010 -0.0000 -1.0000
vn -0.0002 -1.0000 -0.0005
vn -0.0005 1.0000 0.0006
vn -0.0005 -1.0000 -0.0005
vn -0.0002 -1.0000 -0.0000
vn -0.0000 -1.0000 0.0002
vn 0.0001 -0.0018 1.0000
vn -0.0005 -1.0000 0.0005
vn 0.0003 0.0016 1.0000
vn -1.0000 -0.0018 -0.0001
vn 0.0001 -0.0018 -1.0000
vn -1.0000 -0.0018 0.0001
vn -0.0000 0.0020 1.0000
vn 0.0001 0.0019 -1.0000
vn 0.0008 -1.0000 0.0003
vn -0.0001 -0.0018 -1.0000
vn -1.0000 -0.0011 -0.0011
vn -0.0004 0.0016 -1.0000
vn -0.0000 -1.0000 -0.0002
vn -0.0004 1.0000 -0.0006
vn 1.0000 0.0029 -0.0000
vn 1.0000 -0.0015 -0.0000
vn 1.0000 -0.0011 0.0005
vn 1.0000 -0.0011 -0.0005
vn 1.0000 0.0013 -0.0000
vn 0.0008 -1.0000 -0.0003
vn -0.0004 0.0016 1.0000
vn -0.0001 -0.0018 1.0000
vn 0.0007 -1.0000 -0.0000
vn -0.0007 -1.0000 0.0006
vn -0.0004 -1.0000 0.0002
vn -1.0000 -0.0000 -0.0005
vn 1.0000 0.0009 -0.0000
vn -0.0007 -0.0004 1.0000
vn -0.0005 1.0000 0.0011
vn -0.5998 0.8001 0.0001
vn -1.0000 -0.0000 0.0005
vn -0.0005 -1.0000 -0.0001
vn 0.0006 -0.0000 1.0000
vn 0.0005 -0.0000 -1.0000
vn -0.0005 -0.0000 1.0000
vn 0.0008 1.0000 0.0008
vn 1.0000 -0.0000 -0.0020
vn 0.0008 -1.0000 0.0008
vn -1.0000 0.0020 -0.0000
vn 0.0005 1.0000 -0.0025
vn -1.0000 -0.0005 0.0025
vn 0.0002 -1.0000 -0.0014
vn -1.0000 -0.0012 0.0001
vn -0.0012 -1.0000 0.0001
vn 0.0004 -1.0000 0.0004
vn 1.0000 -0.0022 -0.0002
vn -1.0000 -0.0007 -0.0000
vn -0.0011 1.0000 -0.0011
vn 0.0002 -0.0004 -1.0000
vn 0.6004 -0.7997 0.0006
vn 0.0001 -0.0004 1.0000
vn -0.0007 -0.0008 -1.0000
vn 1.0000 -0.0006 -0.0000
vn -1.0000 0.0031 0.0002
vn 0.0002 -0.0004 1.0000
vn -0.0007 1.0000 -0.0000
vn -0.0005 1.0000 0.0005
vn -0.0005 1.0000 -0.0005
vn -0.0000 1.0000 -0.0007
vn 0.0005 1.0000 -0.0005
vn -0.0000 1.0000 0.0007
vn 0.0007 1.0000 -0.0000
vn 0.0005 1.0000 0.0005
vn -0.0011 1.0000 0.0004
vn 0.0004 1.0000 0.0004
vn 1.0000 0.0021 0.0005
vn -0.0018 -0.0004 1.0000
vn -1.0000 0.0016 -0.0004
vn 0.0004 0.0016 -1.0000
vn 1.0000 0.0005 -0.0016
vn -1.0000 0.0016 0.0004
vn 0.0004 0.0016 1.0000
vn 1.0000 0.0018 0.0004
vn -0.0000 0.0020 -1.0000
vn 1.0000 0.0021 -0.0005
vn 0.0003 0.0028 -1.0000
vn -0.0011 -0.0011 -1.0000
vn 0.0001 -0.0010 -1.0000
vn -0.0011 0.0021 -1.0000
vn -0.0001 -0.0005 -1.0000
vn -1.0000 0.0021 -0.0011
vn -0.0011 -1.0000 -0.0011
vn 0.0004 1.0000 -0.0011
vn 0.0007 -0.0002 -1.0000
vn -0.3940 -0.9191 -0.0003
vn -0.0005 0.0002 1.0000
vn 0.3938 0.9192 -0.0004
vn 0.0007 -0.0002 1.0000
vn 0.0008 -1.0000 -0.0000
vn 0.0003 1.0000 -0.0000
vt 0.625000 0.500000
vt 0.625000 0.750000
vt 0.875000 0.750000
vt 0.875000 0.500000
vt 0.375000 0.750000
vt 0.375000 1.000000
vt 0.625000 1.000000
vt 0.375000 0.000000
vt 0.375000 0.250000
vt 0.625000 0.250000
vt 0.625000 0.000000
vt 0.125000 0.500000
vt 0.125000 0.750000
vt 0.375000 0.500000
s 0
usemtl Material
f 1/1/1 3/2/1 7/3/1 5/4/1
f 4/5/2 8/6/2 7/7/2 3/2/2
f 8/8/3 6/9/3 5/10/3 7/11/3
f 6/12/4 8/13/4 4/5/4 2/14/4
f 2/14/5 4/5/5 3/2/5 1/1/5
f 5/10/3 6/9/3 10/9/3 12/10/3
f 12/10/3 10/9/3 14/9/3 16/10/3
f 6/12/4 2/14/4 9/14/4 10/12/4
f 1/1/1 5/4/1 12/4/1 11/1/1
f 2/14/5 1/1/5 11/1/5 9/14/5
f 14/9/6 13/14/6 15/1/6 16/10/6
f 10/12/4 9/14/4 13/14/4 14/12/4
f 11/1/1 12/4/1 16/4/1 15/1/1
f 11/1/1 15/1/1 19/1/1 17/1/1
f 95/1/2 91/1/2 120/1/2 122/1/2
f 15/1/6 13/14/6 20/14/6 19/1/6
f 13/14/4 9/14/4 18/14/4 20/14/4
f 9/14/2 11/1/2 17/1/2 18/14/2
f 43/1/1 29/1/1 61/1/1 62/1/1
f 20/14/4 22/14/4 30/14/4 28/14/4
f 20/14/4 18/14/4 21/14/4 22/14/4
f 21/14/4 26/14/4 42/14/4 39/14/4
f 24/14/2 23/1/2 25/1/2 26/14/2
f 21/14/4 18/14/4 24/14/4 26/14/4
f 85/1/2 79/1/2 114/1/2 118/1/2
f 18/14/3 17/1/3 23/1/3 24/14/3
f 27/1/6 28/14/6 30/14/6 29/1/6
f 19/1/3 20/14/3 28/14/3 27/1/3
f 41/1/2 25/1/2 104/1/2 110/1/2
f 89/1/6 93/1/6 121/1/6 119/1/6
f 31/8/5 32/11/5 34/10/5 33/9/5
f 33/9/2 34/10/2 38/1/2 37/14/2
f 37/14/3 38/1/3 36/2/3 35/5/3
f 35/5/6 36/2/6 32/7/6 31/6/6
f 33/12/1 37/14/1 35/5/1 31/13/1
f 38/1/4 34/4/4 32/3/4 36/2/4
f 39/14/4 42/14/4 50/14/4 46/14/4
f 43/1/6 44/14/6 52/14/6 51/1/6
f 81/1/3 82/14/3 124/14/3 123/1/3
f 27/1/6 29/1/6 101/1/6 106/1/6
f 22/14/4 21/14/4 39/14/4 40/14/4
f 30/14/4 22/14/4 40/14/4 44/14/4
f 25/1/1 41/1/1 55/1/1 53/1/1
f 47/1/5 45/1/5 111/1/5 107/1/5
f 46/14/5 45/1/5 47/1/5 48/14/5
f 45/1/5 46/14/5 50/14/5 49/1/5
f 48/14/5 47/1/5 51/1/5 52/14/5
f 93/1/5 95/1/5 122/1/5 121/1/5
f 44/14/4 40/14/4 48/14/4 52/14/4
f 25/1/2 23/1/2 105/1/2 104/1/2
f 42/14/2 41/1/2 49/1/2 50/14/2
f 40/14/4 39/14/4 46/14/4 48/14/4
f 56/14/4 54/14/4 58/14/4 60/14/4
f 42/14/4 26/14/4 54/14/4 56/14/4
f 26/14/3 25/1/3 53/1/3 54/14/3
f 41/1/5 42/14/5 56/14/5 55/1/5
f 58/14/2 57/1/2 59/1/2 60/14/2
f 54/14/3 53/1/3 57/1/3 58/14/3
f 53/1/1 55/1/1 59/1/1 57/1/1
f 59/1/7 55/1/7 89/1/7 91/1/7
f 63/14/4 64/14/4 68/14/4 67/14/4
f 44/14/5 43/1/5 62/1/5 64/14/5
f 29/1/3 30/14/3 63/14/3 61/1/3
f 30/14/4 44/14/4 64/14/4 63/14/4
f 65/1/6 67/14/6 68/14/6 66/1/6
f 61/1/3 63/14/3 67/14/3 65/1/3
f 68/14/4 64/14/4 70/14/4 72/14/4
f 62/1/1 61/1/1 65/1/1 66/1/1
f 70/14/2 69/1/2 73/1/2 74/14/2
f 66/1/6 68/14/6 72/14/6 71/1/6
f 62/1/1 66/1/1 71/1/1 69/1/1
f 64/14/2 62/1/2 69/1/2 70/14/2
f 74/14/5 73/1/5 75/1/5 76/14/5
f 69/1/1 71/1/1 75/1/1 73/1/1
f 76/14/5 75/1/5 79/1/5 80/14/5
f 72/14/4 70/14/4 74/14/4 76/14/4
f 17/1/3 19/1/3 97/1/3 98/1/3
f 75/1/1 71/1/1 77/1/1 79/1/1
f 71/1/3 72/14/3 78/14/3 77/1/3
f 72/14/4 76/14/4 80/14/4 78/14/4
f 84/14/4 88/14/4 129/14/4 126/14/4
f 77/1/3 78/14/3 82/14/3 81/1/3
f 78/14/4 80/14/4 84/14/4 82/14/4
f 84/14/4 80/14/4 86/14/4 88/14/4
f 86/14/5 85/1/5 87/1/5 88/14/5
f 91/1/3 89/1/3 119/1/3 120/1/3
f 116/1/1 115/1/1 127/1/1 130/1/1
f 80/14/2 79/1/2 85/1/2 86/14/2
f 89/1/6 90/14/6 94/14/6 93/1/6
f 56/14/8 60/14/8 92/14/8 90/14/8
f 60/14/2 59/1/2 91/1/2 92/14/2
f 55/1/6 56/14/6 90/14/6 89/1/6
f 93/1/5 94/14/5 96/14/5 95/1/5
f 77/1/3 81/1/3 115/1/3 113/1/3
f 92/14/2 91/1/2 95/1/2 96/14/2
f 90/14/4 92/14/4 96/14/4 94/14/4
f 98/1/1 97/1/1 100/1/1 103/1/1
f 98/1/1 103/1/1 104/1/1 105/1/1
f 100/1/1 97/1/1 106/1/1 101/1/1
f 100/1/1 101/1/1 102/1/1 99/1/1
f 99/1/1 102/1/1 108/1/1 107/1/1
f 104/1/1 103/1/1 109/1/1 110/1/1
f 103/1/1 100/1/1 99/1/1 109/1/1
f 109/1/1 99/1/1 107/1/1 111/1/1
f 110/1/1 109/1/1 111/1/1 112/1/1
f 114/1/1 113/1/1 115/1/1 116/1/1
f 114/1/1 116/1/1 117/1/1 118/1/1
f 120/1/1 119/1/1 121/1/1 122/1/1
f 45/1/5 49/1/5 112/1/5 111/1/5
f 79/1/2 77/1/2 113/1/2 114/1/2
f 19/1/3 27/1/3 106/1/3 97/1/3
f 43/1/6 51/1/6 108/1/6 102/1/6
f 87/1/5 117/1/5 131/1/5 128/1/5
f 23/1/3 17/1/3 98/1/3 105/1/3
f 49/1/2 41/1/2 110/1/2 112/1/2
f 87/1/5 85/1/5 118/1/5 117/1/5
f 29/1/6 43/1/6 102/1/6 101/1/6
f 51/1/5 47/1/5 107/1/5 108/1/5
f 125/1/6 128/1/6 131/1/6 130/1/6
f 123/1/6 124/14/6 126/14/6 125/1/6
f 125/1/6 126/14/6 129/14/6 128/1/6
f 123/1/6 125/1/6 130/1/6 127/1/6
f 128/1/6 129/14/6 134/14/6 133/1/6
f 115/1/3 81/1/3 123/1/3 127/1/3
f 82/14/4 84/14/4 126/14/4 124/14/4
f 117/1/1 116/1/1 130/1/1 131/1/1
f 133/1/6 134/14/6 138/14/6 137/1/6
f 129/14/9 88/14/9 132/14/9 134/14/9
f 88/14/2 87/1/2 83/1/2 132/14/2
f 87/1/10 128/1/10 133/1/10 83/1/10
f 136/14/5 135/1/5 137/1/5 138/14/5
f 132/14/2 83/1/2 135/1/2 136/14/2
f 134/14/4 132/14/4 136/14/4 138/14/4
f 83/1/1 133/1/1 137/1/1 135/1/1
f 139/1/11 143/4/11 145/3/11 141/2/11
f 142/5/6 141/2/6 145/7/6 146/6/6
f 146/8/12 145/11/12 143/10/12 144/9/12
f 144/12/13 140/14/13 142/5/13 146/13/13
f 140/14/14 139/1/14 141/2/14 142/5/14
f 143/10/5 150/10/5 148/9/5 144/9/5
f 150/10/15 154/10/15 152/9/15 148/9/15
f 144/12/16 148/12/16 147/14/16 140/14/16
f 139/1/17 149/1/17 150/4/17 143/4/17
f 140/14/18 147/14/18 149/1/18 139/1/18
f 152/9/19 154/10/19 153/1/19 151/14/19
f 148/12/20 152/12/20 151/14/20 147/14/20
f 149/1/21 153/1/21 154/4/21 150/4/21
f 149/1/22 155/1/22 157/1/22 153/1/22
f 233/1/23 260/1/23 258/1/23 229/1/23
f 153/1/24 157/1/24 158/14/24 151/14/24
f 151/14/25 158/14/25 156/14/25 147/14/25
f 147/14/6 156/14/6 155/1/6 149/1/6
f 181/1/26 200/1/26 199/1/26 167/1/26
f 158/14/27 166/14/27 168/14/27 160/14/27
f 158/14/28 160/14/28 159/14/28 156/14/28
f 159/14/29 177/14/29 180/14/29 164/14/29
f 162/14/30 164/14/30 163/1/30 161/1/30
f 159/14/31 164/14/31 162/14/31 156/14/31
f 223/1/32 256/1/32 252/1/32 217/1/32
f 156/14/33 162/14/33 161/1/33 155/1/33
f 165/1/34 167/1/34 168/14/34 166/14/34
f 157/1/35 165/1/35 166/14/35 158/14/35
f 179/1/36 248/1/36 242/1/36 163/1/36
f 227/1/37 257/1/37 259/1/37 231/1/37
f 169/8/3 171/9/3 172/10/3 170/11/3
f 171/9/6 175/14/6 176/1/6 172/10/6
f 175/14/5 173/5/5 174/2/5 176/1/5
f 173/5/2 169/6/2 170/7/2 174/2/2
f 171/12/4 169/13/4 173/5/4 175/14/4
f 176/1/1 174/2/1 170/3/1 172/4/1
f 177/14/38 184/14/38 188/14/38 180/14/38
f 181/1/39 189/1/39 190/14/39 182/14/39
f 219/1/40 261/1/40 262/14/40 220/14/40
f 165/1/41 244/1/41 239/1/41 167/1/41
f 160/14/1 178/14/1 177/14/1 159/14/1
f 168/14/42 182/14/42 178/14/42 160/14/42
f 163/1/43 191/1/43 193/1/43 179/1/43
f 185/1/44 245/1/44 249/1/44 183/1/44
f 184/14/45 186/14/45 185/1/45 183/1/45
f 183/1/46 187/1/46 188/14/46 184/14/46
f 186/14/47 190/14/47 189/1/47 185/1/47
f 231/1/48 259/1/48 260/1/48 233/1/48
f 182/14/49 190/14/49 186/14/49 178/14/49
f 163/1/50 242/1/50 243/1/50 161/1/50
f 180/14/51 188/14/51 187/1/51 179/1/51
f 178/14/52 186/14/52 184/14/52 177/14/52
f 194/14/53 198/14/53 196/14/53 192/14/53
f 180/14/54 194/14/54 192/14/54 164/14/54
f 164/14/55 192/14/55 191/1/55 163/1/55
f 179/1/56 193/1/56 194/14/56 180/14/56
f 196/14/57 198/14/57 197/1/57 195/1/57
f 192/14/12 196/14/12 195/1/12 191/1/12
f 191/1/58 195/1/58 197/1/58 193/1/58
f 197/1/59 229/1/59 227/1/59 193/1/59
f 201/14/20 205/14/20 206/14/20 202/14/20
f 182/14/3 202/14/3 200/1/3 181/1/3
f 167/1/60 199/1/60 201/14/60 168/14/60
f 168/14/61 201/14/61 202/14/61 182/14/61
f 203/1/19 204/1/19 206/14/19 205/14/19
f 199/1/15 203/1/15 205/14/15 201/14/15
f 206/14/1 210/14/1 208/14/1 202/14/1
f 200/1/21 204/1/21 203/1/21 199/1/21
f 208/14/62 212/14/62 211/1/62 207/1/62
f 204/1/63 209/1/63 210/14/63 206/14/63
f 200/1/4 207/1/4 209/1/4 204/1/4
f 202/14/64 208/14/64 207/1/64 200/1/64
f 212/14/14 214/14/14 213/1/14 211/1/14
f 207/1/65 211/1/65 213/1/65 209/1/65
f 214/14/66 218/14/66 217/1/66 213/1/66
f 210/14/67 214/14/67 212/14/67 208/14/67
f 155/1/68 236/1/68 235/1/68 157/1/68
f 213/1/69 217/1/69 215/1/69 209/1/69
f 209/1/70 215/1/70 216/14/70 210/14/70
f 210/14/1 216/14/1 218/14/1 214/14/1
f 222/14/71 264/14/71 267/14/71 226/14/71
f 215/1/72 219/1/72 220/14/72 216/14/72
f 216/14/73 220/14/73 222/14/73 218/14/73
f 222/14/74 226/14/74 224/14/74 218/14/74
f 224/14/75 226/14/75 225/1/75 223/1/75
f 229/1/76 258/1/76 257/1/76 227/1/76
f 254/1/77 268/1/77 265/1/77 253/1/77
f 218/14/51 224/14/51 223/1/51 217/1/51
f 227/1/78 231/1/78 232/14/78 228/14/78
f 194/14/79 228/14/79 230/14/79 198/14/79
f 198/14/80 230/14/80 229/1/80 197/1/80
f 193/1/81 227/1/81 228/14/81 194/14/81
f 231/1/82 233/1/82 234/14/82 232/14/82
f 215/1/83 251/1/83 253/1/83 219/1/83
f 230/14/84 234/14/84 233/1/84 229/1/84
f 228/14/1 232/14/1 234/14/1 230/14/1
f 236/1/85 241/1/85 238/1/85 235/1/85
f 236/1/86 243/1/86 242/1/86 241/1/86
f 238/1/87 239/1/87 244/1/87 235/1/87
f 238/1/88 237/1/88 240/1/88 239/1/88
f 237/1/89 245/1/89 246/1/89 240/1/89
f 242/1/90 248/1/90 247/1/90 241/1/90
f 241/1/4 247/1/4 237/1/4 238/1/4
f 247/1/91 249/1/91 245/1/91 237/1/91
f 248/1/92 250/1/92 249/1/92 247/1/92
f 252/1/93 254/1/93 253/1/93 251/1/93
f 252/1/94 256/1/94 255/1/94 254/1/94
f 258/1/4 260/1/4 259/1/4 257/1/4
f 183/1/95 249/1/95 250/1/95 187/1/95
f 217/1/96 252/1/96 251/1/96 215/1/96
f 157/1/97 235/1/97 244/1/97 165/1/97
f 181/1/98 240/1/98 246/1/98 189/1/98
f 225/1/99 266/1/99 269/1/99 255/1/99
f 161/1/100 243/1/100 236/1/100 155/1/100
f 187/1/101 250/1/101 248/1/101 179/1/101
f 225/1/102 255/1/102 256/1/102 223/1/102
f 167/1/103 239/1/103 240/1/103 181/1/103
f 189/1/104 246/1/104 245/1/104 185/1/104
f 263/1/105 268/1/105 269/1/105 266/1/105
f 261/1/106 263/1/106 264/14/106 262/14/106
f 263/1/107 266/1/107 267/14/107 264/14/107
f 261/1/108 265/1/108 268/1/108 263/1/108
f 266/1/109 271/1/109 272/14/109 267/14/109
f 253/1/110 265/1/110 261/1/110 219/1/110
f 220/14/111 262/14/111 264/14/111 222/14/111
f 255/1/112 269/1/112 268/1/112 254/1/112
f 271/1/113 275/1/113 276/14/113 272/14/113
f 267/14/114 272/14/114 270/14/114 226/14/114
f 226/14/115 270/14/115 221/1/115 225/1/115
f 225/1/116 221/1/116 271/1/116 266/1/116
f 274/14/3 276/14/3 275/1/3 273/1/3
f 270/14/117 274/14/117 273/1/117 221/1/117
f 272/14/118 276/14/118 274/14/118 270/14/118
f 221/1/119 273/1/119 275/1/119 271/1/119
