# Blender 4.1.1
# www.blender.org
mtllib level_tutorial.mtl
o Walls
v -0.999990 -1.000000 0.999990
v -1.100000 -1.000000 1.100000
v -1.100000 1.000000 1.100000
v -0.999990 1.000000 0.999990
v -0.999990 -1.000000 -1.000000
v -1.100000 -1.000000 -1.000000
v -0.999990 1.000000 -1.000000
v -1.100000 1.000000 -1.000000
v 0.999990 -1.000000 0.999990
v 1.100000 -1.000000 1.100000
v 0.999990 1.000000 0.999990
v 1.100000 1.000000 1.100000
v 0.999990 -1.000000 -1.000000
v 1.100000 -1.000000 -1.000000
v 0.999990 1.000000 -1.000000
v 1.100000 1.000000 -1.000000
v -1.100000 0.000000 -3.000000
v -0.999990 0.000000 -3.000000
v -1.100000 -2.000000 -3.000000
v -0.999990 -2.000000 -3.000000
v 0.999990 -2.000000 -3.000010
v 1.100000 -2.000000 -2.900000
v 0.999990 0.000000 -3.000010
v 1.100000 0.000000 -2.900000
v -0.999990 0.000000 -4.999990
v -1.100000 0.000000 -5.100000
v -0.999990 -2.000000 -4.999990
v -1.100000 -2.000000 -5.100000
v 1.000000 -2.000000 -4.999990
v 1.000000 -2.000000 -5.100000
v 1.000000 0.000000 -4.999990
v 1.000000 0.000000 -5.100000
v 3.000010 -1.000000 -3.000010
v 2.900000 -1.000000 -2.900000
v 3.000010 -3.000000 -3.000010
v 2.900000 -3.000000 -2.900000
v 2.900000 -1.000000 -5.100000
v 3.000010 -1.000000 -4.999990
v 2.900000 -3.000000 -5.100000
v 3.000010 -3.000000 -4.999990
v 8.999990 -1.000000 -3.000010
v 9.100000 -1.000000 -2.900000
v 8.999990 -3.000000 -3.000010
v 9.100000 -3.000000 -2.900000
v 9.100000 -1.000000 -5.100000
v 8.999990 -1.000000 -4.999990
v 9.100000 -3.000000 -5.100000
v 8.999990 -3.000000 -4.999990
v 3.000010 -1.000000 -6.999990
v 2.900000 -1.000000 -7.100000
v 3.000010 -3.000000 -6.999990
v 2.900000 -3.000000 -7.100000
v 9.100000 -1.000000 -7.100000
v 8.999990 -1.000000 -6.999990
v 9.100000 -3.000000 -7.100000
v 8.999990 -3.000000 -6.999990
v 2.900000 -1.000000 -0.900000
v 3.000010 -1.000000 -1.000010
v 2.900000 -3.000000 -0.900000
v 3.000010 -3.000000 -1.000010
v 9.100000 -1.000000 -0.900000
v 8.999990 -1.000000 -1.000010
v 9.100000 -3.000000 -0.900000
v 8.999990 -3.000000 -1.000010
v 3.000010 1.000000 -3.000000
v 2.900000 1.000000 -3.000000
v 3.000010 1.000000 -5.000000
v 2.900000 1.000000 -5.000000
v 8.999990 1.000000 -3.000000
v 9.100000 1.000000 -3.000000
v 9.100000 1.000000 -5.000000
v 8.999990 1.000000 -5.000000
v 9.100000 1.000000 -7.100000
v 8.999990 1.000000 -6.999990
v 2.900000 1.000000 -7.100000
v 3.000010 1.000000 -6.999990
v 2.900000 1.000000 -0.900000
v 3.000010 1.000000 -1.000010
v 9.100000 1.000000 -0.900000
v 8.999990 1.000000 -1.000010
v 19.000000 -1.000000 -3.000010
v 19.000000 -1.000000 -2.900000
v 19.000000 -3.000000 -3.000010
v 19.000000 -3.000000 -2.900000
v 18.900000 -1.000000 -5.100000
v 19.000010 -1.000000 -4.999990
v 18.900000 -3.000000 -5.100000
v 19.000010 -3.000000 -4.999990
v 21.100000 -1.000000 -2.900000
v 20.999990 -1.000000 -3.000010
v 21.100000 -3.000000 -2.900000
v 20.999990 -3.000000 -3.000010
v 20.999990 -1.000000 -5.000000
v 21.100000 -1.000000 -5.000000
v 20.999990 -3.000000 -5.000000
v 21.100000 -3.000000 -5.000000
v 18.900000 -1.000000 -8.900000
v 19.000010 -1.000000 -9.000010
v 18.900000 -3.000000 -8.900000
v 19.000010 -3.000000 -9.000010
v 21.100000 -1.000000 -8.900000
v 20.999990 -1.000000 -9.000010
v 21.100000 -3.000000 -8.900000
v 20.999990 -3.000000 -9.000010
v 18.900000 -1.000000 -25.100000
v 19.000010 -1.000000 -24.999990
v 18.900000 -3.000000 -25.100000
v 19.000010 -3.000000 -24.999990
v 20.999990 -1.000000 -24.999990
v 21.100000 -1.000000 -25.100000
v 20.999990 -3.000000 -24.999990
v 21.100000 -3.000000 -25.100000
v 18.900000 -1.000000 -28.900000
v 19.000010 -1.000000 -29.000010
v 18.900000 -3.000000 -28.900000
v 19.000010 -3.000000 -29.000010
v 20.999990 -1.000000 -29.000000
v 21.100000 -1.000000 -29.000000
v 20.999990 -3.000000 -29.000000
v 21.100000 -3.000000 -29.000000
v 19.000000 -1.000000 -30.999990
v 19.000000 -1.000000 -31.100000
v 19.000000 -3.000000 -30.999990
v 19.000000 -3.000000 -31.100000
v 21.100000 -1.000000 -31.100000
v 20.999990 -1.000000 -30.999990
v 21.100000 -3.000000 -31.100000
v 20.999990 -3.000000 -30.999990
v 15.100000 -1.000000 -28.900000
v 14.999990 -1.000000 -29.000010
v 15.100000 -3.000000 -28.900000
v 14.999990 -3.000000 -29.000010
v 15.000000 -1.000000 -30.999990
v 15.000000 -1.000000 -31.100000
v 15.000000 -3.000000 -30.999990
v 15.000000 -3.000000 -31.100000
v 13.000010 -1.000000 -29.000000
v 12.900000 -1.000000 -29.000000
v 13.000010 -3.000000 -29.000000
v 12.900000 -3.000000 -29.000000
v 12.900000 -1.000000 -31.100000
v 13.000010 -1.000000 -30.999990
v 12.900000 -3.000000 -31.100000
v 13.000010 -3.000000 -30.999990
v 15.100000 -1.000000 -25.100000
v 14.999990 -1.000000 -24.999990
v 15.100000 -3.000000 -25.100000
v 14.999990 -3.000000 -24.999990
v 13.000010 -1.000000 -24.999990
v 12.900000 -1.000000 -25.100000
v 13.000010 -3.000000 -24.999990
v 12.900000 -3.000000 -25.100000
v 3.000000 -3.000000 -10.900000
v 3.000000 -3.000000 -11.000010
v 3.000000 -1.000000 -10.900000
v 3.000000 -1.000000 -11.000010
v 16.999990 -1.000000 -24.999990
v 17.100000 -1.000000 -25.100000
v 16.999990 -3.000000 -24.999990
v 17.100000 -3.000000 -25.100000
v 17.100000 -1.000000 -13.000000
v 16.999990 -1.000000 -13.000000
v 16.999990 -3.000000 -13.000000
v 17.100000 -3.000000 -13.000000
v 2.999990 -3.000000 -12.999990
v 3.100000 -3.000000 -13.100000
v 2.999990 -1.000000 -12.999990
v 3.100000 -1.000000 -13.100000
v 17.100000 -1.000000 -11.000000
v 16.999990 -1.000000 -11.000000
v 17.100000 -3.000000 -11.000000
v 16.999990 -3.000000 -11.000000
v 15.000000 -1.000000 -8.900000
v 15.000000 -1.000000 -9.000010
v 15.000000 -3.000000 -9.000010
v 15.000000 -3.000000 -8.900000
v 13.000000 -1.000000 -8.900000
v 13.000000 -1.000000 -9.000010
v 13.000000 -3.000000 -9.000010
v 13.000000 -3.000000 -8.900000
v 16.999990 -1.000000 -9.000010
v 17.100000 -1.000000 -8.900000
v 17.100000 -3.000000 -8.900000
v 16.999990 -3.000000 -9.000010
v 5.000010 -1.000000 -24.999990
v 4.900000 -1.000000 -25.100000
v 4.900000 -3.000000 -25.100000
v 5.000010 -3.000000 -24.999990
v 5.000010 -1.000000 -12.999990
v 4.900000 -1.000000 -13.100000
v 5.000010 -3.000000 -12.999990
v 4.900000 -3.000000 -13.100000
v 5.000010 -1.000000 -11.000010
v 4.900000 -1.000000 -10.900000
v 5.000010 -3.000000 -11.000010
v 4.900000 -3.000000 -10.900000
v 5.000010 -1.000000 -9.000010
v 4.900000 -1.000000 -8.900000
v 5.000010 -3.000000 -9.000010
v 4.900000 -3.000000 -8.900000
v 15.000000 3.000000 -25.100000
v 15.000000 3.000000 -24.999990
v 13.000000 3.000000 -24.999990
v 13.000000 3.000000 -25.100000
v 17.100000 3.000000 -13.000000
v 16.999990 3.000000 -13.000000
v 17.100000 3.000000 -11.000000
v 16.999990 3.000000 -11.000000
v 17.100000 3.000000 -25.100000
v 16.999990 3.000000 -24.999990
v 15.000000 3.000000 -8.900000
v 15.000000 3.000000 -9.000010
v 13.000000 3.000000 -8.900000
v 13.000000 3.000000 -9.000010
v 5.000010 3.000000 -9.000010
v 4.900000 3.000000 -8.900000
v 16.999990 3.000000 -9.000010
v 17.100000 3.000000 -8.900000
v 5.000010 3.000000 -24.999990
v 4.900000 3.000000 -25.100000
v 5.000010 3.000000 -13.000000
v 4.900000 3.000000 -13.000000
v 5.000010 3.000000 -11.000000
v 4.900000 3.000000 -11.000000
v 0.900000 -1.000000 -13.000000
v 1.000010 -1.000000 -13.000000
v 0.900000 -3.000000 -13.000000
v 1.000010 -3.000000 -13.000000
v 1.000010 -1.000000 -11.000010
v 0.900000 -1.000000 -10.900000
v 1.000010 -3.000000 -11.000010
v 0.900000 -3.000000 -10.900000
v 3.100000 -1.000000 -24.100000
v 2.999990 -1.000000 -23.999990
v 3.100000 -3.000000 -24.100000
v 2.999990 -3.000000 -23.999990
v 0.900000 -1.000000 -24.100000
v 1.000010 -1.000000 -23.999990
v 0.900000 -3.000000 -24.100000
v 1.000010 -3.000000 -23.999990
v 20.999990 1.000000 -9.000010
v 21.100000 1.000000 -8.900000
v 19.000010 1.000000 -9.000010
v 18.900000 1.000000 -8.900000
v 21.100000 1.000000 -25.100000
v 20.999990 1.000000 -24.999990
v 18.900000 1.000000 -25.100000
v 19.000010 1.000000 -24.999990
v 19.000010 -7.000000 -9.000010
v 18.900000 -7.000000 -8.900000
v 20.999990 -7.000000 -9.000010
v 21.100000 -7.000000 -8.900000
v 18.900000 -7.000000 -25.100000
v 19.000010 -7.000000 -24.999990
v 21.100000 -7.000000 -25.100000
v 20.999990 -7.000000 -24.999990
vn -0.0000 -1.0000 -0.0000
vn -0.0000 1.0000 -0.0000
vn 0.2224 0.8675 -0.4449
vn -0.0000 0.8944 -0.4472
vn -0.0000 -0.8944 0.4472
vn -0.2224 -0.8675 0.4449
vn -0.4449 -0.8675 0.2224
vn -0.4657 -0.8849 -0.0000
vn 0.4449 0.8675 -0.2224
vn 0.4657 0.8849 -0.0000
vn 1.0000 -0.0000 -0.0000
vn -1.0000 -0.0000 -0.0000
vn -0.0000 -0.0000 -1.0000
vn -0.0000 -0.0000 1.0000
vt 0.375000 0.250000
vt 0.375000 0.000000
vt 0.625000 0.000000
vt 0.625000 0.250000
vt 0.375000 0.750000
vt 0.375000 0.500000
vt 0.625000 0.500000
vt 0.625000 0.750000
vt 0.375000 1.000000
vt 0.625000 1.000000
s 0
f 5/1/1 1/2/1 2/2/1 6/1/1
f 4/3/2 7/4/2 8/4/2 3/3/2
f 9/5/1 13/6/1 14/6/1 10/5/1
f 15/7/2 11/8/2 12/8/2 16/7/2
f 1/9/1 9/5/1 10/5/1 2/9/1
f 11/8/2 4/10/2 3/10/2 12/8/2
f 16/7/3 24/7/3 23/7/3 15/7/3
f 17/4/4 8/4/4 7/4/4 18/4/4
f 20/1/5 5/1/5 6/1/5 19/1/5
f 13/6/6 21/6/6 22/6/6 14/6/6
f 29/6/1 27/1/1 28/1/1 30/6/1
f 25/4/2 31/7/2 32/7/2 26/4/2
f 26/4/2 17/4/2 18/4/2 25/4/2
f 27/1/1 20/1/1 19/1/1 28/1/1
f 34/7/1 37/7/1 38/7/1 33/7/1
f 30/6/7 39/6/7 40/6/7 29/6/7
f 36/6/8 22/6/8 21/6/8 35/6/8
f 31/7/9 38/7/9 37/7/9 32/7/9
f 33/7/10 23/7/10 24/7/10 34/7/10
f 41/7/1 46/7/1 45/7/1 42/7/1
f 52/6/1 55/6/1 56/6/1 51/6/1
f 39/6/1 52/6/1 51/6/1 40/6/1
f 55/6/1 47/6/1 48/6/1 56/6/1
f 60/6/1 64/6/1 63/6/1 59/6/1
f 64/6/1 43/6/1 44/6/1 63/6/1
f 35/6/1 60/6/1 59/6/1 36/6/1
f 65/7/2 67/7/2 68/7/2 66/7/2
f 70/7/2 71/7/2 72/7/2 69/7/2
f 73/7/2 75/7/2 76/7/2 74/7/2
f 71/7/2 73/7/2 74/7/2 72/7/2
f 75/7/2 68/7/2 67/7/2 76/7/2
f 77/7/2 79/7/2 80/7/2 78/7/2
f 69/7/2 80/7/2 79/7/2 70/7/2
f 78/7/2 65/7/2 66/7/2 77/7/2
f 42/7/2 82/7/2 81/7/2 41/7/2
f 85/7/2 45/7/2 46/7/2 86/7/2
f 43/6/1 83/6/1 84/6/1 44/6/1
f 47/6/1 87/6/1 88/6/1 48/6/1
f 89/7/2 94/7/2 93/7/2 90/7/2
f 92/6/1 95/6/1 96/6/1 91/6/1
f 82/7/2 89/7/2 90/7/2 81/7/2
f 83/6/1 92/6/1 91/6/1 84/6/1
f 101/7/1 97/7/1 98/7/1 102/7/1
f 99/6/2 103/6/2 104/6/2 100/6/2
f 87/6/1 99/6/1 100/6/1 88/6/1
f 103/6/1 96/6/1 95/6/1 104/6/1
f 94/7/2 101/7/2 102/7/2 93/7/2
f 97/7/2 85/7/2 86/7/2 98/7/2
f 109/7/1 106/7/1 105/7/1 110/7/1
f 108/6/2 111/6/2 112/6/2 107/6/2
f 110/7/2 118/7/2 117/7/2 109/7/2
f 113/7/2 105/7/2 106/7/2 114/7/2
f 116/6/1 108/6/1 107/6/1 115/6/1
f 120/6/1 112/6/1 111/6/1 119/6/1
f 125/7/2 122/7/2 121/7/2 126/7/2
f 124/6/1 127/6/1 128/6/1 123/6/1
f 127/6/1 120/6/1 119/6/1 128/6/1
f 126/7/2 117/7/2 118/7/2 125/7/2
f 115/6/1 131/6/1 132/6/1 116/6/1
f 136/6/1 124/6/1 123/6/1 135/6/1
f 133/7/2 121/7/2 122/7/2 134/7/2
f 129/7/2 113/7/2 114/7/2 130/7/2
f 140/6/1 143/6/1 144/6/1 139/6/1
f 141/7/2 138/7/2 137/7/2 142/7/2
f 143/6/1 136/6/1 135/6/1 144/6/1
f 134/7/2 141/7/2 142/7/2 133/7/2
f 146/7/1 149/7/1 150/7/1 145/7/1
f 130/7/2 146/7/2 145/7/2 129/7/2
f 148/6/1 132/6/1 131/6/1 147/6/1
f 138/7/2 150/7/2 149/7/2 137/7/2
f 152/6/1 140/6/1 139/6/1 151/6/1
f 199/6/1 179/6/1 180/6/1 200/6/1
f 160/6/1 164/6/1 163/6/1 159/6/1
f 159/6/1 148/6/1 147/6/1 160/6/1
f 172/6/1 163/6/1 164/6/1 171/6/1
f 176/6/1 180/6/1 179/6/1 175/6/1
f 175/6/1 184/6/1 183/6/1 176/6/1
f 184/6/1 172/6/1 171/6/1 183/6/1
f 192/6/1 187/6/1 188/6/1 191/6/1
f 189/7/1 193/7/1 194/7/1 190/7/1
f 200/6/1 196/6/1 195/6/1 199/6/1
f 187/6/1 152/6/1 151/6/1 188/6/1
f 201/7/2 204/7/2 203/7/2 202/7/2
f 206/7/2 208/7/2 207/7/2 205/7/2
f 210/7/2 206/7/2 205/7/2 209/7/2
f 202/7/2 210/7/2 209/7/2 201/7/2
f 214/7/2 215/7/2 216/7/2 213/7/2
f 212/7/2 214/7/2 213/7/2 211/7/2
f 217/7/2 212/7/2 211/7/2 218/7/2
f 218/7/2 207/7/2 208/7/2 217/7/2
f 220/7/2 222/7/2 221/7/2 219/7/2
f 222/7/2 224/7/2 223/7/2 221/7/2
f 224/7/2 216/7/2 215/7/2 223/7/2
f 204/7/2 220/7/2 219/7/2 203/7/2
f 193/7/2 156/7/2 155/7/2 194/7/2
f 154/6/1 195/6/1 196/6/1 153/6/1
f 190/7/2 168/7/2 167/7/2 189/7/2
f 191/6/1 165/6/1 166/6/1 192/6/1
f 225/7/2 230/7/2 229/7/2 226/7/2
f 228/6/1 231/6/1 232/6/1 227/6/1
f 230/7/2 155/7/2 156/7/2 229/7/2
f 153/6/1 232/6/1 231/6/1 154/6/1
f 233/7/2 237/7/2 238/7/2 234/7/2
f 236/6/1 240/6/1 239/6/1 235/6/1
f 226/7/2 238/7/2 237/7/2 225/7/2
f 240/6/1 228/6/1 227/6/1 239/6/1
f 165/6/1 236/6/1 235/6/1 166/6/1
f 234/7/2 167/7/2 168/7/2 233/7/2
f 241/7/2 243/7/2 244/7/2 242/7/2
f 245/7/2 247/7/2 248/7/2 246/7/2
f 246/7/2 241/7/2 242/7/2 245/7/2
f 247/7/2 244/7/2 243/7/2 248/7/2
f 249/6/1 251/6/1 252/6/1 250/6/1
f 253/6/1 255/6/1 256/6/1 254/6/1
f 251/6/1 256/6/1 255/6/1 252/6/1
f 254/6/1 249/6/1 250/6/1 253/6/1
f 4/3/11 1/2/11 5/1/11 7/4/11
f 3/3/12 8/4/12 6/1/12 2/2/12
f 15/7/12 13/6/12 9/5/12 11/8/12
f 16/7/11 12/8/11 10/5/11 14/6/11
f 11/8/13 9/5/13 1/9/13 4/10/13
f 12/8/14 3/10/14 2/9/14 10/5/14
f 7/4/11 5/1/11 20/1/11 18/4/11
f 8/4/12 17/4/12 19/1/12 6/1/12
f 13/6/12 15/7/12 23/7/12 21/6/12
f 14/6/11 22/6/11 24/7/11 16/7/11
f 25/4/14 27/1/14 29/6/14 31/7/14
f 26/4/13 32/7/13 30/6/13 28/1/13
f 18/4/11 20/1/11 27/1/11 25/4/11
f 17/4/12 26/4/12 28/1/12 19/1/12
f 62/7/13 58/7/13 78/7/13 80/7/13
f 61/7/14 79/7/14 77/7/14 57/7/14
f 31/7/14 29/6/14 40/6/14 38/7/14
f 32/7/13 37/7/13 39/6/13 30/6/13
f 21/6/13 23/7/13 33/7/13 35/6/13
f 22/6/14 36/6/14 34/7/14 24/7/14
f 41/7/12 43/6/12 64/6/12 62/7/12
f 42/7/11 61/7/11 63/6/11 44/6/11
f 49/7/14 51/6/14 56/6/14 54/7/14
f 50/7/13 53/7/13 55/6/13 52/6/13
f 41/7/12 62/7/12 80/7/12 69/7/12
f 42/7/11 70/7/11 79/7/11 61/7/11
f 48/6/12 46/7/12 54/7/12 56/6/12
f 47/6/11 55/6/11 53/7/11 45/7/11
f 38/7/11 40/6/11 51/6/11 49/7/11
f 37/7/12 50/7/12 52/6/12 39/6/12
f 60/6/13 58/7/13 62/7/13 64/6/13
f 59/6/14 63/6/14 61/7/14 57/7/14
f 35/6/11 33/7/11 58/7/11 60/6/11
f 36/6/12 59/6/12 57/7/12 34/7/12
f 46/7/12 41/7/12 69/7/12 72/7/12
f 45/7/11 71/7/11 70/7/11 42/7/11
f 33/7/11 38/7/11 67/7/11 65/7/11
f 34/7/12 66/7/12 68/7/12 37/7/12
f 54/7/12 46/7/12 72/7/12 74/7/12
f 53/7/11 73/7/11 71/7/11 45/7/11
f 58/7/11 33/7/11 65/7/11 78/7/11
f 57/7/12 77/7/12 66/7/12 34/7/12
f 49/7/14 54/7/14 74/7/14 76/7/14
f 50/7/13 75/7/13 73/7/13 53/7/13
f 38/7/11 49/7/11 76/7/11 67/7/11
f 37/7/12 68/7/12 75/7/12 50/7/12
f 43/6/13 41/7/13 81/7/13 83/6/13
f 44/6/14 84/6/14 82/7/14 42/7/14
f 46/7/14 48/6/14 88/6/14 86/7/14
f 45/7/13 85/7/13 87/6/13 47/6/13
f 92/6/12 90/7/12 93/7/12 95/6/12
f 91/6/11 96/6/11 94/7/11 89/7/11
f 83/6/13 81/7/13 90/7/13 92/6/13
f 84/6/14 91/6/14 89/7/14 82/7/14
f 104/6/12 102/7/12 109/7/12 111/6/12
f 103/6/11 112/6/11 110/7/11 101/7/11
f 95/6/12 93/7/12 102/7/12 104/6/12
f 96/6/11 103/6/11 101/7/11 94/7/11
f 86/7/11 88/6/11 100/6/11 98/7/11
f 85/7/12 97/7/12 99/6/12 87/6/12
f 106/7/14 109/7/14 246/7/14 248/7/14
f 105/7/13 247/7/13 245/7/13 110/7/13
f 98/7/11 100/6/11 108/6/11 106/7/11
f 97/7/12 105/7/12 107/6/12 99/6/12
f 104/6/12 111/6/12 256/6/12 251/6/12
f 103/6/11 252/6/11 255/6/11 112/6/11
f 106/7/11 108/6/11 116/6/11 114/7/11
f 105/7/12 113/7/12 115/6/12 107/6/12
f 111/6/12 109/7/12 117/7/12 119/6/12
f 112/6/11 120/6/11 118/7/11 110/7/11
f 121/7/14 123/6/14 128/6/14 126/7/14
f 122/7/13 125/7/13 127/6/13 124/6/13
f 119/6/12 117/7/12 126/7/12 128/6/12
f 120/6/11 127/6/11 125/7/11 118/7/11
f 123/6/14 121/7/14 133/7/14 135/6/14
f 124/6/13 136/6/13 134/7/13 122/7/13
f 114/7/13 116/6/13 132/6/13 130/7/13
f 113/7/14 129/7/14 131/6/14 115/6/14
f 137/7/11 139/6/11 144/6/11 142/7/11
f 138/7/12 141/7/12 143/6/12 140/6/12
f 130/7/12 132/6/12 148/6/12 146/7/12
f 129/7/11 145/7/11 147/6/11 131/6/11
f 135/6/14 133/7/14 142/7/14 144/6/14
f 136/6/13 143/6/13 141/7/13 134/7/13
f 139/6/11 137/7/11 149/7/11 151/6/11
f 140/6/12 152/6/12 150/7/12 138/7/12
f 181/7/13 174/7/13 212/7/13 217/7/13
f 182/7/14 218/7/14 211/7/14 173/7/14
f 162/7/12 163/6/12 172/6/12 170/7/12
f 161/7/11 169/7/11 171/6/11 164/6/11
f 178/7/13 197/7/13 215/7/13 214/7/13
f 177/7/14 213/7/14 216/7/14 198/7/14
f 157/7/12 159/6/12 163/6/12 162/7/12
f 158/7/11 161/7/11 164/6/11 160/6/11
f 146/7/14 148/6/14 159/6/14 157/7/14
f 145/7/13 158/7/13 160/6/13 147/6/13
f 185/7/14 149/7/14 203/7/14 219/7/14
f 186/7/13 220/7/13 204/7/13 150/7/13
f 170/7/12 172/6/12 184/6/12 181/7/12
f 169/7/11 182/7/11 183/6/11 171/6/11
f 189/7/11 185/7/11 219/7/11 221/7/11
f 190/7/12 222/7/12 220/7/12 186/7/12
f 149/7/14 146/7/14 202/7/14 203/7/14
f 150/7/13 204/7/13 201/7/13 145/7/13
f 197/7/11 193/7/11 223/7/11 215/7/11
f 198/7/12 216/7/12 224/7/12 194/7/12
f 174/7/13 175/6/13 179/6/13 178/7/13
f 173/7/14 177/7/14 180/6/14 176/6/14
f 175/6/13 174/7/13 181/7/13 184/6/13
f 176/6/14 183/6/14 182/7/14 173/7/14
f 170/7/12 181/7/12 217/7/12 208/7/12
f 169/7/11 207/7/11 218/7/11 182/7/11
f 178/7/13 179/6/13 199/6/13 197/7/13
f 177/7/14 198/7/14 200/6/14 180/6/14
f 188/6/11 185/7/11 189/7/11 191/6/11
f 187/6/12 192/6/12 190/7/12 186/7/12
f 193/7/13 195/6/13 154/6/13 156/7/13
f 194/7/14 155/7/14 153/6/14 196/6/14
f 195/6/11 193/7/11 197/7/11 199/6/11
f 196/6/12 200/6/12 198/7/12 194/7/12
f 157/7/12 162/7/12 206/7/12 210/7/12
f 158/7/11 209/7/11 205/7/11 161/7/11
f 151/6/14 149/7/14 185/7/14 188/6/14
f 152/6/13 187/6/13 186/7/13 150/7/13
f 193/7/11 189/7/11 221/7/11 223/7/11
f 194/7/12 224/7/12 222/7/12 190/7/12
f 162/7/12 170/7/12 208/7/12 206/7/12
f 161/7/11 205/7/11 207/7/11 169/7/11
f 146/7/14 157/7/14 210/7/14 202/7/14
f 145/7/13 201/7/13 209/7/13 158/7/13
f 174/7/13 178/7/13 214/7/13 212/7/13
f 173/7/14 211/7/14 213/7/14 177/7/14
f 191/6/14 189/7/14 167/7/14 165/6/14
f 192/6/13 166/6/13 168/7/13 190/7/13
f 228/6/11 226/7/11 229/7/11 231/6/11
f 227/6/12 232/6/12 230/7/12 225/7/12
f 226/7/11 228/6/11 240/6/11 238/7/11
f 225/7/12 237/7/12 239/6/12 227/6/12
f 156/7/13 154/6/13 231/6/13 229/7/13
f 155/7/14 230/7/14 232/6/14 153/6/14
f 236/6/14 234/7/14 238/7/14 240/6/14
f 235/6/13 239/6/13 237/7/13 233/7/13
f 165/6/12 167/7/12 234/7/12 236/6/12
f 166/6/11 235/6/11 233/7/11 168/7/11
f 102/7/13 98/7/13 243/7/13 241/7/13
f 101/7/14 242/7/14 244/7/14 97/7/14
f 109/7/12 102/7/12 241/7/12 246/7/12
f 110/7/11 245/7/11 242/7/11 101/7/11
f 98/7/11 106/7/11 248/7/11 243/7/11
f 97/7/12 244/7/12 247/7/12 105/7/12
f 108/6/11 100/6/11 249/6/11 254/6/11
f 107/6/12 253/6/12 250/6/12 99/6/12
f 111/6/14 108/6/14 254/6/14 256/6/14
f 112/6/13 255/6/13 253/6/13 107/6/13
f 100/6/13 104/6/13 251/6/13 249/6/13
f 99/6/14 250/6/14 252/6/14 103/6/14
o Roof
v -1.000000 1.000000 1.000000
v -1.000000 1.000000 -1.000000
v 1.000000 1.000000 1.000000
v 1.000000 1.000000 -1.000000
v -1.000000 0.000000 -3.000000
v 1.000000 0.000000 -3.000000
v -1.000000 0.000000 -5.000000
v 1.000000 0.000000 -5.000000
v 3.000000 -1.000000 -3.000000
v 3.000000 -1.000000 -5.000000
v 9.000000 -1.000000 -3.000000
v 9.000000 -1.000000 -5.000000
v 3.000000 1.000000 -3.000000
v 3.000000 1.000000 -5.000000
v 9.000000 1.000000 -3.000000
v 9.000000 1.000000 -5.000000
v 9.000000 1.000000 -7.000000
v 3.000000 1.000000 -7.000000
v 3.000000 1.000000 -1.000000
v 9.000000 1.000000 -1.000000
v 19.000000 -1.000000 -3.000000
v 19.000000 -1.000000 -5.000000
v 21.000000 -1.000000 -3.000000
v 21.000000 -1.000000 -5.000000
v 19.000000 -1.000000 -9.000000
v 21.000000 -1.000000 -9.000000
v 19.000000 -1.000000 -25.000000
v 21.000000 -1.000000 -25.000000
v 19.000000 -1.000000 -29.000000
v 21.000000 -1.000000 -29.000000
v 19.000000 -1.000000 -31.000000
v 21.000000 -1.000000 -31.000000
v 15.000000 -1.000000 -29.000000
v 15.000000 -1.000000 -31.000000
v 13.000000 -1.000000 -29.000000
v 13.000000 -1.000000 -31.000000
v 15.000000 -1.000000 -25.000000
v 13.000000 -1.000000 -25.000000
v 3.000000 -1.000000 -11.000000
v 3.000000 -1.000000 -13.000000
v 5.000000 -1.000000 -13.000000
v 5.000000 -1.000000 -11.000000
v 15.000000 3.000000 -25.000000
v 13.000000 3.000000 -25.000000
v 17.000000 3.000000 -13.000000
v 17.000000 3.000000 -11.000000
v 15.000000 3.000000 -13.000000
v 13.000000 3.000000 -13.000000
v 17.000000 3.000000 -25.000000
v 15.000000 3.000000 -11.000000
v 15.000000 3.000000 -9.000000
v 13.000000 3.000000 -9.000000
v 5.000000 3.000000 -9.000000
v 13.000000 3.000000 -11.000000
v 17.000000 3.000000 -9.000000
v 5.000000 3.000000 -25.000000
v 5.000000 3.000000 -13.000000
v 5.000000 3.000000 -11.000000
v 1.000000 -1.000000 -13.000000
v 1.000000 -1.000000 -11.000000
v 3.000000 -1.000000 -24.000000
v 1.000000 -1.000000 -24.000000
v 21.000000 1.000000 -9.000000
v 19.000000 1.000000 -9.000000
v 21.000000 1.000000 -25.000000
v 19.000000 1.000000 -25.000000
v -1.000000 1.100000 1.000000
v -1.000000 1.097325 -1.022975
v 1.000000 1.100000 1.000000
v 1.000000 1.097325 -1.022975
v -1.000000 0.097325 -3.022975
v 1.015639 0.097524 -3.015639
v -1.000000 0.100000 -5.000000
v 1.022975 0.097325 -5.000000
v 3.044721 -0.910557 -3.000000
v 3.044721 -0.910557 -5.000000
v 9.000000 -0.900000 -3.000000
v 9.000000 -0.900000 -5.000000
v 3.000000 1.100000 -3.000000
v 3.000000 1.100000 -5.000000
v 9.000000 1.100000 -3.000000
v 9.000000 1.100000 -5.000000
v 9.000000 1.100000 -7.000000
v 3.000000 1.100000 -7.000000
v 3.000000 1.100000 -1.000000
v 9.000000 1.100000 -1.000000
v 19.000000 -0.900000 -3.000000
v 19.000000 -0.900000 -5.000000
v 21.000000 -0.900000 -3.000000
v 21.000000 -0.900000 -5.000000
v 19.000000 -0.900000 -9.000000
v 21.000000 -0.900000 -9.000000
v 19.000000 -0.900000 -25.000000
v 21.000000 -0.900000 -25.000000
v 19.000000 -0.900000 -29.000000
v 21.000000 -0.900000 -29.000000
v 19.000000 -0.900000 -31.000000
v 21.000000 -0.900000 -31.000000
v 15.000000 -0.900000 -29.000000
v 15.000000 -0.900000 -31.000000
v 13.000000 -0.900000 -29.000000
v 13.000000 -0.900000 -31.000000
v 15.000000 -0.900000 -25.000000
v 13.000000 -0.900000 -25.000000
v 3.000000 -0.900000 -11.000000
v 3.000000 -0.900000 -13.000000
v 5.000000 -0.900000 -13.000000
v 5.000000 -0.900000 -11.000000
v 15.000000 3.100000 -25.000000
v 13.000000 3.100000 -25.000000
v 17.000000 3.100000 -13.000000
v 17.000000 3.100000 -11.000000
v 15.000000 3.100000 -13.000000
v 13.000000 3.100000 -13.000000
v 17.000000 3.100000 -25.000000
v 15.000000 3.100000 -11.000000
v 15.000000 3.100000 -9.000000
v 13.000000 3.100000 -9.000000
v 5.000000 3.100000 -9.000000
v 13.000000 3.100000 -11.000000
v 17.000000 3.100000 -9.000000
v 5.000000 3.100000 -25.000000
v 5.000000 3.100000 -13.000000
v 5.000000 3.100000 -11.000000
v 1.000000 -0.900000 -13.000000
v 1.000000 -0.900000 -11.000000
v 3.000000 -0.900000 -24.000000
v 1.000000 -0.900000 -24.000000
v 21.000000 1.100000 -9.000000
v 19.000000 1.100000 -9.000000
v 21.000000 1.100000 -25.000000
v 19.000000 1.100000 -25.000000
vn -0.0000 -0.8944 0.4472
vn -0.0000 -1.0000 -0.0000
vn -0.4472 -0.8944 -0.0000
vn 0.0008 0.8941 -0.4478
vn -0.0000 1.0000 -0.0013
vn 0.0006 1.0000 0.0006
vn 0.4455 0.8953 0.0008
vn -0.0000 1.0000 -0.0000
vn -1.0000 -0.0000 -0.0000
vn 1.0000 -0.0000 -0.0000
vn -0.0000 -0.0000 1.0000
vn 0.9966 -0.0721 0.0400
vn -0.0000 -0.0000 -1.0000
vn 0.8944 -0.4472 -0.0000
vn 0.0325 0.0729 0.9968
vt 0.875000 0.500000
vt 0.625000 0.500000
vt 0.625000 0.750000
vt 0.875000 0.750000
s 0
f 258/11/15 261/11/15 262/12/15 260/12/15
f 260/12/16 259/13/16 257/14/16 258/11/16
f 261/11/16 263/11/16 264/12/16 262/12/16
f 264/12/17 266/12/17 265/12/17 262/12/17
f 268/12/16 278/12/16 277/12/16 267/12/16
f 270/12/16 272/12/16 271/12/16 269/12/16
f 270/12/16 274/12/16 273/12/16 272/12/16
f 271/12/16 276/12/16 275/12/16 269/12/16
f 278/12/16 280/12/16 279/12/16 277/12/16
f 278/12/16 281/12/16 282/12/16 280/12/16
f 283/12/16 285/12/16 286/12/16 284/12/16
f 285/12/16 287/12/16 288/12/16 286/12/16
f 285/12/16 289/12/16 290/12/16 287/12/16
f 289/12/16 291/12/16 292/12/16 290/12/16
f 289/12/16 293/12/16 294/12/16 291/12/16
f 303/12/16 306/12/16 310/12/16 304/12/16
f 299/12/16 303/12/16 304/12/16 300/12/16
f 299/12/16 305/12/16 301/12/16 303/12/16
f 302/12/16 311/12/16 307/12/16 306/12/16
f 304/12/16 313/12/16 312/12/16 300/12/16
f 301/12/16 302/12/16 306/12/16 303/12/16
f 306/12/16 307/12/16 308/12/16 310/12/16
f 308/12/16 309/12/16 314/12/16 310/12/16
f 310/12/16 314/12/16 313/12/16 304/12/16
f 295/12/16 316/12/16 315/12/16 296/12/16
f 298/12/16 295/12/16 296/12/16 297/12/16
f 315/12/16 318/12/16 317/12/16 296/12/16
f 320/12/16 322/12/16 321/12/16 319/12/16
f 324/11/18 326/12/18 328/12/18 327/11/18
f 326/12/19 324/11/19 323/14/19 325/13/19
f 327/11/20 328/12/20 330/12/20 329/11/20
f 330/12/21 328/12/21 331/12/21 332/12/21
f 334/12/22 333/12/22 343/12/22 344/12/22
f 336/12/22 335/12/22 337/12/22 338/12/22
f 336/12/22 338/12/22 339/12/22 340/12/22
f 337/12/22 335/12/22 341/12/22 342/12/22
f 344/12/22 343/12/22 345/12/22 346/12/22
f 344/12/22 346/12/22 348/12/22 347/12/22
f 349/12/22 350/12/22 352/12/22 351/12/22
f 351/12/22 352/12/22 354/12/22 353/12/22
f 351/12/22 353/12/22 356/12/22 355/12/22
f 355/12/22 356/12/22 358/12/22 357/12/22
f 355/12/22 357/12/22 360/12/22 359/12/22
f 369/12/22 370/12/22 376/12/22 372/12/22
f 365/12/22 366/12/22 370/12/22 369/12/22
f 365/12/22 369/12/22 367/12/22 371/12/22
f 368/12/22 372/12/22 373/12/22 377/12/22
f 370/12/22 366/12/22 378/12/22 379/12/22
f 367/12/22 369/12/22 372/12/22 368/12/22
f 372/12/22 376/12/22 374/12/22 373/12/22
f 374/12/22 376/12/22 380/12/22 375/12/22
f 376/12/22 370/12/22 379/12/22 380/12/22
f 361/12/22 362/12/22 381/12/22 382/12/22
f 364/12/22 363/12/22 362/12/22 361/12/22
f 381/12/22 362/12/22 383/12/22 384/12/22
f 386/12/22 385/12/22 387/12/22 388/12/22
f 258/11/23 257/14/23 323/14/23 324/11/23
f 259/13/24 260/12/24 326/12/24 325/13/24
f 257/14/25 259/13/25 325/13/25 323/14/25
f 260/12/26 262/12/26 328/12/26 326/12/26
f 261/11/23 258/11/23 324/11/23 327/11/23
f 264/12/27 263/11/27 329/11/27 330/12/27
f 263/11/23 261/11/23 327/11/23 329/11/23
f 265/12/28 266/12/28 332/12/28 331/12/28
f 266/12/27 264/12/27 330/12/27 332/12/27
f 262/12/29 265/12/29 331/12/29 328/12/29
f 268/12/23 267/12/23 333/12/23 334/12/23
f 270/12/23 269/12/23 335/12/23 336/12/23
f 271/12/24 272/12/24 338/12/24 337/12/24
f 273/12/27 274/12/27 340/12/27 339/12/27
f 272/12/24 273/12/24 339/12/24 338/12/24
f 274/12/23 270/12/23 336/12/23 340/12/23
f 275/12/25 276/12/25 342/12/25 341/12/25
f 276/12/24 271/12/24 337/12/24 342/12/24
f 269/12/23 275/12/23 341/12/23 335/12/23
f 267/12/25 277/12/25 343/12/25 333/12/25
f 278/12/27 268/12/27 334/12/27 344/12/27
f 279/12/24 280/12/24 346/12/24 345/12/24
f 277/12/25 279/12/25 345/12/25 343/12/25
f 282/12/27 281/12/27 347/12/27 348/12/27
f 280/12/24 282/12/24 348/12/24 346/12/24
f 281/12/23 278/12/23 344/12/23 347/12/23
f 283/12/25 284/12/25 350/12/25 349/12/25
f 284/12/24 286/12/24 352/12/24 350/12/24
f 285/12/23 283/12/23 349/12/23 351/12/23
f 288/12/27 287/12/27 353/12/27 354/12/27
f 286/12/24 288/12/24 354/12/24 352/12/24
f 287/12/27 290/12/27 356/12/27 353/12/27
f 289/12/25 285/12/25 351/12/25 355/12/25
f 292/12/23 291/12/23 357/12/23 358/12/23
f 290/12/27 292/12/27 358/12/27 356/12/27
f 294/12/25 293/12/25 359/12/25 360/12/25
f 293/12/24 289/12/24 355/12/24 359/12/24
f 291/12/23 294/12/23 360/12/23 357/12/23
f 298/12/24 297/12/24 363/12/24 364/12/24
f 299/12/27 300/12/27 366/12/27 365/12/27
f 302/12/24 301/12/24 367/12/24 368/12/24
f 301/12/24 305/12/24 371/12/24 367/12/24
f 305/12/27 299/12/27 365/12/27 371/12/27
f 309/12/25 308/12/25 374/12/25 375/12/25
f 308/12/25 307/12/25 373/12/25 374/12/25
f 307/12/25 311/12/25 377/12/25 373/12/25
f 311/12/24 302/12/24 368/12/24 377/12/24
f 312/12/23 313/12/23 379/12/23 378/12/23
f 313/12/23 314/12/23 380/12/23 379/12/23
f 314/12/23 309/12/23 375/12/23 380/12/23
f 300/12/27 312/12/27 378/12/27 366/12/27
f 295/12/25 298/12/25 364/12/25 361/12/25
f 297/12/27 296/12/27 362/12/27 363/12/27
f 315/12/23 316/12/23 382/12/23 381/12/23
f 316/12/25 295/12/25 361/12/25 382/12/25
f 317/12/27 318/12/27 384/12/27 383/12/27
f 318/12/23 315/12/23 381/12/23 384/12/23
f 296/12/24 317/12/24 383/12/24 362/12/24
f 320/12/25 319/12/25 385/12/25 386/12/25
f 321/12/27 322/12/27 388/12/27 387/12/27
f 319/12/24 321/12/24 387/12/24 385/12/24
f 322/12/23 320/12/23 386/12/23 388/12/23
o Floor
v -1.000000 -1.000000 1.000000
v -1.000000 -1.000000 -1.000000
v 1.000000 -1.000000 1.000000
v 1.000000 -1.000000 -1.000000
v -1.000000 -2.000000 -3.000000
v 1.000000 -2.000000 -3.000000
v -1.000000 -2.000000 -5.000000
v 1.000000 -2.000000 -5.000000
v 3.000000 -3.000000 -3.000000
v 3.000000 -3.000000 -5.000000
v 9.000000 -3.000000 -3.000000
v 9.000000 -3.000000 -5.000000
v 3.000000 -3.000000 -7.000000
v 9.000000 -3.000000 -7.000000
v 3.000000 -3.000000 -1.000000
v 9.000000 -3.000000 -1.000000
v 19.000000 -3.000000 -3.000000
v 19.000000 -3.000000 -5.000000
v 21.000000 -3.000000 -3.000000
v 21.000000 -3.000000 -5.000000
v 19.000000 -3.000000 -9.000000
v 21.000000 -3.000000 -9.000000
v 19.000000 -3.000000 -25.000000
v 21.000000 -3.000000 -25.000000
v 19.000000 -3.000000 -29.000000
v 21.000000 -3.000000 -29.000000
v 19.000000 -3.000000 -31.000000
v 21.000000 -3.000000 -31.000000
v 15.000000 -3.000000 -29.000000
v 15.000000 -3.000000 -31.000000
v 13.000000 -3.000000 -29.000000
v 13.000000 -3.000000 -31.000000
v 15.000000 -3.000000 -25.000000
v 13.000000 -3.000000 -25.000000
v 3.000000 -3.000000 -11.000000
v 15.000000 -3.000000 -13.000000
v 13.000000 -3.000000 -13.000000
v 17.000000 -3.000000 -25.000000
v 17.000000 -3.000000 -13.000000
v 3.000000 -3.000000 -13.000000
v 15.000000 -3.000000 -11.000000
v 13.000000 -3.000000 -11.000000
v 17.000000 -3.000000 -11.000000
v 15.000000 -3.000000 -9.000000
v 13.000000 -3.000000 -9.000000
v 17.000000 -3.000000 -9.000000
v 5.000000 -3.000000 -25.000000
v 5.000000 -3.000000 -13.000000
v 5.000000 -3.000000 -11.000000
v 5.000000 -3.000000 -9.000000
v 1.000000 -3.000000 -13.000000
v 1.000000 -3.000000 -11.000000
v 3.000000 -3.000000 -24.000000
v 1.000000 -3.000000 -24.000000
v 19.000000 -7.000000 -9.000000
v 21.000000 -7.000000 -9.000000
v 19.000000 -7.000000 -25.000000
v 21.000000 -7.000000 -25.000000
v -1.000000 -1.100000 1.000000
v -1.000000 -1.097325 -0.977025
v 1.000000 -1.100000 1.000000
v 1.000000 -1.097325 -0.977025
v -1.000000 -2.097325 -2.977025
v 0.984361 -2.097524 -2.984361
v -1.000000 -2.100000 -5.000000
v 0.977025 -2.097325 -5.000000
v 2.984730 -3.098827 -3.000000
v 2.984730 -3.098827 -5.000000
v 9.000000 -3.100000 -3.000000
v 9.000000 -3.100000 -5.000000
v 3.000000 -3.100000 -7.000000
v 9.000000 -3.100000 -7.000000
v 3.000000 -3.100000 -1.000000
v 9.000000 -3.100000 -1.000000
v 19.000000 -3.100000 -3.000000
v 19.000000 -3.100000 -5.000000
v 21.000000 -3.100000 -3.000000
v 21.000000 -3.100000 -5.000000
v 19.000000 -3.100000 -9.000000
v 21.000000 -3.100000 -9.000000
v 19.000000 -3.100000 -25.000000
v 21.000000 -3.100000 -25.000000
v 19.000000 -3.100000 -29.000000
v 21.000000 -3.100000 -29.000000
v 19.000000 -3.100000 -31.000000
v 21.000000 -3.100000 -31.000000
v 15.000000 -3.100000 -29.000000
v 15.000000 -3.100000 -31.000000
v 13.000000 -3.100000 -29.000000
v 13.000000 -3.100000 -31.000000
v 15.000000 -3.100000 -25.000000
v 13.000000 -3.100000 -25.000000
v 3.000000 -3.100000 -11.000000
v 15.000000 -3.100000 -13.000000
v 13.000000 -3.100000 -13.000000
v 17.000000 -3.100000 -25.000000
v 17.000000 -3.100000 -13.000000
v 3.000000 -3.100000 -13.000000
v 15.000000 -3.100000 -11.000000
v 13.000000 -3.100000 -11.000000
v 17.000000 -3.100000 -11.000000
v 15.000000 -3.100000 -9.000000
v 13.000000 -3.100000 -9.000000
v 17.000000 -3.100000 -9.000000
v 5.000000 -3.100000 -25.000000
v 5.000000 -3.100000 -13.000000
v 5.000000 -3.100000 -11.000000
v 5.000000 -3.100000 -9.000000
v 1.000000 -3.100000 -13.000000
v 1.000000 -3.100000 -11.000000
v 3.000000 -3.100000 -24.000000
v 1.000000 -3.100000 -24.000000
v 19.000000 -7.100000 -9.000000
v 21.000000 -7.100000 -9.000000
v 19.000000 -7.100000 -25.000000
v 21.000000 -7.100000 -25.000000
vn -0.0000 1.0000 -0.0000
vn -0.0000 0.8944 -0.4472
vn 0.4472 0.8944 -0.0000
vn -0.0000 -1.0000 -0.0014
vn 0.0008 -0.8947 0.4466
vn -0.4470 -0.8945 0.0008
vn 0.0006 -1.0000 0.0006
vn -0.0002 -1.0000 -0.0000
vn -0.0001 -1.0000 0.0003
vn -0.0001 -1.0000 -0.0003
vn -0.0000 -1.0000 -0.0000
vn -1.0000 -0.0000 -0.0000
vn 1.0000 -0.0000 -0.0000
vn -0.0000 -0.0000 1.0000
vn 0.9968 -0.0735 0.0328
vn -0.0000 -0.0000 -1.0000
vn 0.0404 0.0730 0.9965
vn -0.9971 0.0766 -0.0038
vn -0.9971 0.0766 0.0038
vt 0.125000 0.500000
vt 0.125000 0.750000
vt 0.375000 0.750000
vt 0.375000 0.500000
s 0
f 390/15/30 389/16/30 391/17/30 392/18/30
f 392/18/31 394/18/31 393/15/31 390/15/31
f 394/18/32 397/18/32 398/18/32 396/18/32
f 394/18/30 396/18/30 395/15/30 393/15/30
f 397/18/30 399/18/30 400/18/30 398/18/30
f 400/18/30 402/18/30 401/18/30 398/18/30
f 397/18/30 403/18/30 404/18/30 399/18/30
f 399/18/30 405/18/30 406/18/30 400/18/30
f 405/18/30 407/18/30 408/18/30 406/18/30
f 408/18/30 410/18/30 409/18/30 406/18/30
f 414/18/30 416/18/30 415/18/30 413/18/30
f 412/18/30 414/18/30 413/18/30 411/18/30
f 415/18/30 418/18/30 417/18/30 413/18/30
f 418/18/30 420/18/30 419/18/30 417/18/30
f 422/18/30 425/18/30 424/18/30 421/18/30
f 419/18/30 422/18/30 421/18/30 417/18/30
f 430/18/30 437/18/30 438/18/30 433/18/30
f 424/18/30 427/18/30 426/18/30 421/18/30
f 424/18/30 429/18/30 431/18/30 427/18/30
f 425/18/30 430/18/30 429/18/30 424/18/30
f 430/18/30 433/18/30 432/18/30 429/18/30
f 429/18/30 432/18/30 434/18/30 431/18/30
f 425/18/30 436/18/30 437/18/30 430/18/30
f 422/18/30 435/18/30 436/18/30 425/18/30
f 436/18/30 428/18/30 423/18/30 437/18/30
f 428/18/30 439/18/30 440/18/30 423/18/30
f 428/18/30 441/18/30 442/18/30 439/18/30
f 444/18/30 446/18/30 445/18/30 443/18/30
f 448/15/33 450/18/33 449/17/33 447/16/33
f 450/18/34 448/15/34 451/15/34 452/18/34
f 452/18/35 454/18/35 456/18/35 455/18/35
f 452/18/36 451/15/36 453/15/36 454/18/36
f 455/18/37 456/18/37 458/18/37 457/18/37
f 458/18/38 456/18/38 459/18/38 460/18/38
f 455/18/39 457/18/39 462/18/39 461/18/39
f 457/18/40 458/18/40 464/18/40 463/18/40
f 463/18/40 464/18/40 466/18/40 465/18/40
f 466/18/40 464/18/40 467/18/40 468/18/40
f 472/18/40 471/18/40 473/18/40 474/18/40
f 470/18/40 469/18/40 471/18/40 472/18/40
f 473/18/40 471/18/40 475/18/40 476/18/40
f 476/18/40 475/18/40 477/18/40 478/18/40
f 480/18/40 479/18/40 482/18/40 483/18/40
f 477/18/40 475/18/40 479/18/40 480/18/40
f 488/18/40 491/18/40 496/18/40 495/18/40
f 482/18/40 479/18/40 484/18/40 485/18/40
f 482/18/40 485/18/40 489/18/40 487/18/40
f 483/18/40 482/18/40 487/18/40 488/18/40
f 488/18/40 487/18/40 490/18/40 491/18/40
f 487/18/40 489/18/40 492/18/40 490/18/40
f 483/18/40 488/18/40 495/18/40 494/18/40
f 480/18/40 483/18/40 494/18/40 493/18/40
f 494/18/40 495/18/40 481/18/40 486/18/40
f 486/18/40 481/18/40 498/18/40 497/18/40
f 486/18/40 497/18/40 500/18/40 499/18/40
f 502/18/40 501/18/40 503/18/40 504/18/40
f 389/16/41 390/15/41 448/15/41 447/16/41
f 392/18/42 391/17/42 449/17/42 450/18/42
f 391/17/43 389/16/43 447/16/43 449/17/43
f 390/15/41 393/15/41 451/15/41 448/15/41
f 394/18/44 392/18/44 450/18/44 452/18/44
f 395/15/45 396/18/45 454/18/45 453/15/45
f 393/15/41 395/15/41 453/15/41 451/15/41
f 396/18/45 398/18/45 456/18/45 454/18/45
f 397/18/46 394/18/46 452/18/46 455/18/46
f 401/18/45 402/18/45 460/18/45 459/18/45
f 398/18/47 401/18/47 459/18/47 456/18/47
f 402/18/42 400/18/42 458/18/42 460/18/42
f 404/18/43 403/18/43 461/18/43 462/18/43
f 399/18/42 404/18/42 462/18/42 457/18/42
f 403/18/48 397/18/48 455/18/48 461/18/48
f 405/18/43 399/18/43 457/18/43 463/18/43
f 400/18/45 406/18/45 464/18/45 458/18/45
f 408/18/42 407/18/42 465/18/42 466/18/42
f 407/18/43 405/18/43 463/18/43 465/18/43
f 409/18/45 410/18/45 468/18/45 467/18/45
f 406/18/41 409/18/41 467/18/41 464/18/41
f 410/18/42 408/18/42 466/18/42 468/18/42
f 412/18/43 411/18/43 469/18/43 470/18/43
f 411/18/41 413/18/41 471/18/41 469/18/41
f 414/18/42 412/18/42 470/18/42 472/18/42
f 415/18/45 416/18/45 474/18/45 473/18/45
f 416/18/42 414/18/42 472/18/42 474/18/42
f 413/18/43 417/18/43 475/18/43 471/18/43
f 418/18/45 415/18/45 473/18/45 476/18/45
f 419/18/41 420/18/41 478/18/41 477/18/41
f 420/18/45 418/18/45 476/18/45 478/18/45
f 417/18/42 421/18/42 479/18/42 475/18/42
f 422/18/41 419/18/41 477/18/41 480/18/41
f 433/18/43 438/18/43 496/18/43 491/18/43
f 426/18/42 427/18/42 485/18/42 484/18/42
f 421/18/45 426/18/45 484/18/45 479/18/45
f 427/18/42 431/18/42 489/18/42 485/18/42
f 432/18/43 433/18/43 491/18/43 490/18/43
f 434/18/43 432/18/43 490/18/43 492/18/43
f 431/18/42 434/18/42 492/18/42 489/18/42
f 436/18/41 435/18/41 493/18/41 494/18/41
f 438/18/41 437/18/41 495/18/41 496/18/41
f 435/18/45 422/18/45 480/18/45 493/18/45
f 437/18/43 423/18/43 481/18/43 495/18/43
f 428/18/45 436/18/45 494/18/45 486/18/45
f 440/18/41 439/18/41 497/18/41 498/18/41
f 423/18/43 440/18/43 498/18/43 481/18/43
f 442/18/45 441/18/45 499/18/45 500/18/45
f 439/18/41 442/18/41 500/18/41 497/18/41
f 441/18/42 428/18/42 486/18/42 499/18/42
f 444/18/43 443/18/43 501/18/43 502/18/43
f 445/18/45 446/18/45 504/18/45 503/18/45
f 446/18/42 444/18/42 502/18/42 504/18/42
f 443/18/41 445/18/41 503/18/41 501/18/41
