# Blender 4.1.1
# www.blender.org
o Floor
v -1.000000 -1.000000 1.000000
v -1.000000 -1.000000 -1.000000
v 1.000000 -1.000000 1.000000
v 1.000000 -1.000000 -1.000000
v -1.000000 -2.000000 -3.000000
v 1.000000 -2.000000 -3.000000
v -1.000000 -2.000000 -5.000000
v 1.000000 -2.000000 -5.000000
v 3.000000 -3.000000 -3.000000
v 3.000000 -3.000000 -5.000000
v 9.000000 -3.000000 -3.000000
v 9.000000 -3.000000 -5.000000
v 3.000000 -3.000000 -7.000000
v 9.000000 -3.000000 -7.000000
v 3.000000 -3.000000 -1.000000
v 9.000000 -3.000000 -1.000000
v 19.000000 -3.000000 -3.000000
v 19.000000 -3.000000 -5.000000
v 21.000000 -3.000000 -3.000000
v 21.000000 -3.000000 -5.000000
v 19.000000 -3.000000 -9.000000
v 21.000000 -3.000000 -9.000000
v 19.000000 -3.000000 -25.000000
v 21.000000 -3.000000 -25.000000
v 19.000000 -3.000000 -29.000000
v 21.000000 -3.000000 -29.000000
v 19.000000 -3.000000 -31.000000
v 21.000000 -3.000000 -31.000000
v 15.000000 -3.000000 -29.000000
v 15.000000 -3.000000 -31.000000
v 13.000000 -3.000000 -29.000000
v 13.000000 -3.000000 -31.000000
v 15.000000 -3.000000 -25.000000
v 13.000000 -3.000000 -25.000000
v 3.000000 -3.000000 -11.000000
v 15.000000 -3.000000 -13.000000
v 13.000000 -3.000000 -13.000000
v 17.000000 -3.000000 -25.000000
v 17.000000 -3.000000 -13.000000
v 3.000000 -3.000000 -13.000000
v 15.000000 -3.000000 -11.000000
v 13.000000 -3.000000 -11.000000
v 17.000000 -3.000000 -11.000000
v 15.000000 -3.000000 -9.000000
v 13.000000 -3.000000 -9.000000
v 17.000000 -3.000000 -9.000000
v 5.000000 -3.000000 -25.000000
v 5.000000 -3.000000 -13.000000
v 5.000000 -3.000000 -11.000000
v 5.000000 -3.000000 -9.000000
v 1.000000 -3.000000 -13.000000
v 1.000000 -3.000000 -11.000000
v 3.000000 -3.000000 -24.000000
v 1.000000 -3.000000 -24.000000
v 19.000000 -7.000000 -9.000000
v 21.000000 -7.000000 -9.000000
v 19.000000 -7.000000 -25.000000
v 21.000000 -7.000000 -25.000000
v -1.000000 -1.100000 1.000000
v -1.000000 -1.097325 -0.977025
v 1.000000 -1.100000 1.000000
v 1.000000 -1.097325 -0.977025
v -1.000000 -2.097325 -2.977025
v 0.984361 -2.097524 -2.984361
v -1.000000 -2.100000 -5.000000
v 0.977025 -2.097325 -5.000000
v 2.984730 -3.098827 -3.000000
v 2.984730 -3.098827 -5.000000
v 9.000000 -3.100000 -3.000000
v 9.000000 -3.100000 -5.000000
v 3.000000 -3.100000 -7.000000
v 9.000000 -3.100000 -7.000000
v 3.000000 -3.100000 -1.000000
v 9.000000 -3.100000 -1.000000
v 19.000000 -3.100000 -3.000000
v 19.000000 -3.100000 -5.000000
v 21.000000 -3.100000 -3.000000
v 21.000000 -3.100000 -5.000000
v 19.000000 -3.100000 -9.000000
v 21.000000 -3.100000 -9.000000
v 19.000000 -3.100000 -25.000000
v 21.000000 -3.100000 -25.000000
v 19.000000 -3.100000 -29.000000
v 21.000000 -3.100000 -29.000000
v 19.000000 -3.100000 -31.000000
v 21.000000 -3.100000 -31.000000
v 15.000000 -3.100000 -29.000000
v 15.000000 -3.100000 -31.000000
v 13.000000 -3.100000 -29.000000
v 13.000000 -3.100000 -31.000000
v 15.000000 -3.100000 -25.000000
v 13.000000 -3.100000 -25.000000
v 3.000000 -3.100000 -11.000000
v 15.000000 -3.100000 -13.000000
v 13.000000 -3.100000 -13.000000
v 17.000000 -3.100000 -25.000000
v 17.000000 -3.100000 -13.000000
v 3.000000 -3.100000 -13.000000
v 15.000000 -3.100000 -11.000000
v 13.000000 -3.100000 -11.000000
v 17.000000 -3.100000 -11.000000
v 15.000000 -3.100000 -9.000000
v 13.000000 -3.100000 -9.000000
v 17.000000 -3.100000 -9.000000
v 5.000000 -3.100000 -25.000000
v 5.000000 -3.100000 -13.000000
v 5.000000 -3.100000 -11.000000
v 5.000000 -3.100000 -9.000000
v 1.000000 -3.100000 -13.000000
v 1.000000 -3.100000 -11.000000
v 3.000000 -3.100000 -24.000000
v 1.000000 -3.100000 -24.000000
v 19.000000 -7.100000 -9.000000
v 21.000000 -7.100000 -9.000000
v 19.000000 -7.100000 -25.000000
v 21.000000 -7.100000 -25.000000
vn -0.0000 1.0000 -0.0000
vn -0.0000 0.8944 -0.4472
vn 0.4472 0.8944 -0.0000
vn -0.0000 -1.0000 -0.0014
vn 0.0008 -0.8947 0.4466
vn -0.4470 -0.8945 0.0008
vn 0.0006 -1.0000 0.0006
vn -0.0002 -1.0000 -0.0000
vn -0.0001 -1.0000 0.0003
vn -0.0001 -1.0000 -0.0003
vn -0.0000 -1.0000 -0.0000
vn -1.0000 -0.0000 -0.0000
vn 1.0000 -0.0000 -0.0000
vn -0.0000 -0.0000 1.0000
vn 0.9968 -0.0735 0.0328
vn -0.0000 -0.0000 -1.0000
vn 0.0404 0.0730 0.9965
vn -0.9971 0.0766 -0.0038
vn -0.9971 0.0766 0.0038
vt 0.121206 0.500795
vt 0.159414 0.493114
vt 0.167105 0.531320
vt 0.128896 0.539001
vt 0.090442 0.547051
vt 0.082751 0.508845
vt 0.097888 0.585627
vt 0.059679 0.593308
vt 0.052234 0.554732
vt 0.044543 0.516526
vt 0.120960 0.700247
vt 0.082752 0.707928
vt 0.044543 0.715609
vt 0.021470 0.600989
vt 0.136096 0.577946
vt 0.159169 0.692566
vt 0.159414 0.891279
vt 0.121206 0.898960
vt 0.167105 0.929486
vt 0.128896 0.937167
vt 0.052479 0.952529
vt 0.044789 0.914322
vt 0.843840 0.411200
vt 0.843830 0.450173
vt 0.804857 0.450173
vt 0.804867 0.411200
vt 0.843860 0.333254
vt 0.804887 0.333254
vt 0.726911 0.450173
vt 0.726921 0.411200
vt 0.687938 0.450173
vt 0.687948 0.411200
vt 0.687968 0.333254
vt 0.688029 0.099416
vt 0.727002 0.099416
vt 0.726941 0.333254
vt 0.688039 0.060443
vt 0.532147 0.060443
vt 0.532157 0.021470
vt 0.688049 0.021470
vt 0.765975 0.099416
vt 0.765914 0.333254
vt 0.727012 0.060443
vt 0.765985 0.060443
vt 0.727022 0.021470
vt 0.765995 0.021470
vt 0.532137 0.099416
vt 0.532077 0.333254
vt 0.493164 0.099416
vt 0.493174 0.060443
vt 0.454191 0.099416
vt 0.454201 0.060443
vt 0.493109 0.313767
vt 0.454136 0.313767
vt 0.519508 0.493114
vt 0.519508 0.804897
vt 0.480535 0.804907
vt 0.480535 0.493124
vt 0.255506 0.500705
vt 0.247815 0.538912
vt 0.210046 0.531320
vt 0.217737 0.493114
vt 0.293960 0.508755
vt 0.286469 0.546691
vt 0.325005 0.554291
vt 0.317530 0.593014
vt 0.279321 0.585333
vt 0.332608 0.516525
vt 0.294399 0.707926
vt 0.256191 0.700245
vt 0.355680 0.600987
vt 0.332608 0.715607
vt 0.217982 0.692564
vt 0.241054 0.577944
vt 0.255945 0.898959
vt 0.217737 0.891278
vt 0.248255 0.937165
vt 0.210046 0.929485
vt 0.332362 0.914321
vt 0.324672 0.952527
vt 0.021491 0.411200
vt 0.060464 0.411200
vt 0.060474 0.450173
vt 0.021501 0.450173
vt 0.021471 0.333254
vt 0.060443 0.333254
vt 0.138409 0.411200
vt 0.138420 0.450173
vt 0.177382 0.411200
vt 0.177392 0.450173
vt 0.177362 0.333254
vt 0.138389 0.333254
vt 0.138329 0.099416
vt 0.177302 0.099416
vt 0.177292 0.060443
vt 0.177282 0.021470
vt 0.333174 0.021470
vt 0.333184 0.060443
vt 0.099416 0.333254
vt 0.099356 0.099416
vt 0.099346 0.060443
vt 0.138319 0.060443
vt 0.138309 0.021470
vt 0.099336 0.021470
vt 0.333194 0.099416
vt 0.333254 0.333254
vt 0.372157 0.060443
vt 0.372167 0.099416
vt 0.411130 0.060443
vt 0.411140 0.099416
vt 0.411195 0.313767
vt 0.372222 0.313767
vt 0.398621 0.493114
vt 0.437594 0.493124
vt 0.437594 0.804907
vt 0.398621 0.804897
vt 0.743957 0.769922
vt 0.753410 0.807737
vt 0.751461 0.807762
vt 0.742066 0.770395
vt 0.452929 0.885659
vt 0.462396 0.847848
vt 0.464287 0.848322
vt 0.454878 0.885685
vt 0.796351 0.968775
vt 0.796351 0.929797
vt 0.798299 0.929797
vt 0.798299 0.968775
vt 0.743957 0.850277
vt 0.742008 0.850303
vt 0.462368 0.928203
vt 0.464287 0.928369
vt 0.400511 0.847848
vt 0.409989 0.885657
vt 0.408040 0.885683
vt 0.398621 0.848322
vt 0.753410 0.888092
vt 0.751519 0.888564
vt 0.400562 0.928203
vt 0.398621 0.928383
vt 0.931691 0.185946
vt 0.931708 0.142367
vt 0.933546 0.142945
vt 0.933546 0.186542
vt 0.796351 0.886856
vt 0.796351 0.769922
vt 0.798300 0.769922
vt 0.798300 0.886856
vt 0.742008 0.970483
vt 0.742008 0.931505
vt 0.743957 0.931505
vt 0.743937 0.970483
vt 0.966457 0.695929
vt 0.966457 0.656952
vt 0.968406 0.656952
vt 0.968406 0.695929
vt 0.921567 0.929796
vt 0.921567 0.812863
vt 0.923516 0.812863
vt 0.923516 0.929796
vt 0.966457 0.777848
vt 0.966457 0.738870
vt 0.968406 0.738870
vt 0.968406 0.777848
vt 0.976487 0.181345
vt 0.976487 0.142367
vt 0.978417 0.142367
vt 0.978436 0.181345
vt 0.786898 0.688003
vt 0.786898 0.493114
vt 0.788847 0.493114
vt 0.788847 0.688003
vt 0.886801 0.216360
vt 0.886801 0.021470
vt 0.888750 0.021470
vt 0.888750 0.216360
vt 0.921567 0.532091
vt 0.921567 0.493114
vt 0.923516 0.493114
vt 0.923516 0.532092
vt 0.786898 0.726980
vt 0.788847 0.726980
vt 0.931691 0.350379
vt 0.931691 0.311401
vt 0.933640 0.311401
vt 0.933640 0.350379
vt 0.562449 0.925834
vt 0.562449 0.847878
vt 0.564398 0.847878
vt 0.564398 0.925834
vt 0.921567 0.610047
vt 0.923516 0.610047
vt 0.966457 0.941686
vt 0.966457 0.902708
vt 0.968406 0.902708
vt 0.968406 0.941686
vt 0.607338 0.925834
vt 0.607338 0.847878
vt 0.609287 0.847878
vt 0.609287 0.925834
vt 0.921567 0.730944
vt 0.921567 0.652988
vt 0.923516 0.652988
vt 0.923516 0.730944
vt 0.886801 0.298279
vt 0.886801 0.259301
vt 0.888750 0.259301
vt 0.888750 0.298279
vt 0.921567 0.769922
vt 0.923516 0.769922
vt 0.652228 0.925833
vt 0.652228 0.847877
vt 0.654177 0.847878
vt 0.654177 0.925833
vt 0.886801 0.376235
vt 0.888750 0.376235
vt 0.697118 0.828390
vt 0.697118 0.789412
vt 0.699067 0.789412
vt 0.699067 0.828390
vt 0.886801 0.415213
vt 0.888750 0.415213
vt 0.507228 0.925804
vt 0.507228 0.847848
vt 0.509177 0.847848
vt 0.509177 0.925804
vt 0.697118 0.906345
vt 0.699067 0.906345
vt 0.831788 0.649025
vt 0.831788 0.493114
vt 0.833736 0.493114
vt 0.833736 0.649025
vt 0.607339 0.804937
vt 0.607338 0.571069
vt 0.609287 0.571070
vt 0.609287 0.804937
vt 0.966457 0.532092
vt 0.966457 0.493114
vt 0.968406 0.493114
vt 0.968406 0.532092
vt 0.607338 0.532092
vt 0.609287 0.532092
vt 0.831788 0.688003
vt 0.833736 0.688003
vt 0.831788 0.726980
vt 0.833736 0.726980
vt 0.607338 0.493114
vt 0.609287 0.493114
vt 0.742008 0.726981
vt 0.742008 0.493114
vt 0.743957 0.493114
vt 0.743957 0.726981
vt 0.976581 0.060448
vt 0.976581 0.021470
vt 0.978530 0.021470
vt 0.978530 0.060448
vt 0.876678 0.906345
vt 0.876678 0.750433
vt 0.878626 0.750433
vt 0.878626 0.906345
vt 0.931691 0.099426
vt 0.931691 0.060448
vt 0.933640 0.060448
vt 0.933640 0.099426
vt 0.931691 0.268461
vt 0.931691 0.229483
vt 0.933640 0.229483
vt 0.933640 0.268461
vt 0.697118 0.746470
vt 0.697118 0.707492
vt 0.699067 0.707492
vt 0.699067 0.746470
vt 0.931691 0.021470
vt 0.933640 0.021471
vt 0.931691 0.432298
vt 0.931691 0.393320
vt 0.933640 0.393320
vt 0.933640 0.432298
vt 0.697118 0.493114
vt 0.699067 0.493114
vt 0.876678 0.707492
vt 0.876678 0.493114
vt 0.878626 0.493114
vt 0.878626 0.707492
vt 0.966457 0.859767
vt 0.966457 0.820789
vt 0.968406 0.820789
vt 0.968406 0.859767
vt 0.966457 0.614011
vt 0.966457 0.575033
vt 0.968406 0.575033
vt 0.968406 0.614011
vt 0.652228 0.804937
vt 0.652228 0.493114
vt 0.654177 0.493114
vt 0.654177 0.804937
vt 0.562449 0.804937
vt 0.562449 0.493114
vt 0.564398 0.493114
vt 0.564398 0.804937
s 0
f 2/1/1 1/2/1 3/3/1 4/4/1
f 4/4/2 6/5/2 5/6/2 2/1/2
f 6/5/3 9/7/3 10/8/3 8/9/3
f 6/5/1 8/9/1 7/10/1 5/6/1
f 9/7/1 11/11/1 12/12/1 10/8/1
f 12/12/1 14/13/1 13/14/1 10/8/1
f 9/7/1 15/15/1 16/16/1 11/11/1
f 11/11/1 17/17/1 18/18/1 12/12/1
f 17/17/1 19/19/1 20/20/1 18/18/1
f 20/20/1 22/21/1 21/22/1 18/18/1
f 26/23/1 28/24/1 27/25/1 25/26/1
f 24/27/1 26/23/1 25/26/1 23/28/1
f 27/25/1 30/29/1 29/30/1 25/26/1
f 30/29/1 32/31/1 31/32/1 29/30/1
f 34/33/1 37/34/1 36/35/1 33/36/1
f 31/32/1 34/33/1 33/36/1 29/30/1
f 42/37/1 49/38/1 50/39/1 45/40/1
f 36/35/1 39/41/1 38/42/1 33/36/1
f 36/35/1 41/43/1 43/44/1 39/41/1
f 37/34/1 42/37/1 41/43/1 36/35/1
f 42/37/1 45/40/1 44/45/1 41/43/1
f 41/43/1 44/45/1 46/46/1 43/44/1
f 37/34/1 48/47/1 49/38/1 42/37/1
f 34/33/1 47/48/1 48/47/1 37/34/1
f 48/47/1 40/49/1 35/50/1 49/38/1
f 40/49/1 51/51/1 52/52/1 35/50/1
f 40/49/1 53/53/1 54/54/1 51/51/1
f 56/55/1 58/56/1 57/57/1 55/58/1
f 60/59/4 62/60/4 61/61/4 59/62/4
f 62/60/5 60/59/5 63/63/5 64/64/5
f 64/64/6 66/65/6 68/66/6 67/67/6
f 64/64/7 63/63/7 65/68/7 66/65/7
f 67/67/8 68/66/8 70/69/8 69/70/8
f 70/69/9 68/66/9 71/71/9 72/72/9
f 67/67/10 69/70/10 74/73/10 73/74/10
f 69/70/11 70/69/11 76/75/11 75/76/11
f 75/76/11 76/75/11 78/77/11 77/78/11
f 78/77/11 76/75/11 79/79/11 80/80/11
f 84/81/11 83/82/11 85/83/11 86/84/11
f 82/85/11 81/86/11 83/82/11 84/81/11
f 85/83/11 83/82/11 87/87/11 88/88/11
f 88/88/11 87/87/11 89/89/11 90/90/11
f 92/91/11 91/92/11 94/93/11 95/94/11
f 89/89/11 87/87/11 91/92/11 92/91/11
f 100/95/11 103/96/11 108/97/11 107/98/11
f 94/93/11 91/92/11 96/99/11 97/100/11
f 94/93/11 97/100/11 101/101/11 99/102/11
f 95/94/11 94/93/11 99/102/11 100/95/11
f 100/95/11 99/102/11 102/103/11 103/96/11
f 99/102/11 101/101/11 104/104/11 102/103/11
f 95/94/11 100/95/11 107/98/11 106/105/11
f 92/91/11 95/94/11 106/105/11 105/106/11
f 106/105/11 107/98/11 93/107/11 98/108/11
f 98/108/11 93/107/11 110/109/11 109/110/11
f 98/108/11 109/110/11 112/111/11 111/112/11
f 114/113/11 113/114/11 115/115/11 116/116/11
f 1/117/12 2/118/12 60/119/12 59/120/12
f 4/121/13 3/122/13 61/123/13 62/124/13
f 3/125/14 1/126/14 59/127/14 61/128/14
f 2/118/12 5/129/12 63/130/12 60/119/12
f 6/131/15 4/121/15 62/124/15 64/132/15
f 7/133/16 8/134/16 66/135/16 65/136/16
f 5/129/12 7/137/12 65/138/12 63/130/12
f 8/134/16 10/139/16 68/140/16 66/135/16
f 9/141/17 6/142/17 64/143/17 67/144/17
f 13/145/16 14/146/16 72/147/16 71/148/16
f 10/149/18 13/150/18 71/151/18 68/152/18
f 14/153/13 12/154/13 70/155/13 72/156/13
f 16/157/14 15/158/14 73/159/14 74/160/14
f 11/161/13 16/162/13 74/163/13 69/164/13
f 15/165/19 9/166/19 67/167/19 73/168/19
f 17/169/14 11/170/14 69/171/14 75/172/14
f 12/173/16 18/174/16 76/175/16 70/176/16
f 20/177/13 19/178/13 77/179/13 78/180/13
f 19/181/14 17/169/14 75/172/14 77/182/14
f 21/183/16 22/184/16 80/185/16 79/186/16
f 18/187/12 21/188/12 79/189/12 76/190/12
f 22/191/13 20/177/13 78/180/13 80/192/13
f 24/193/14 23/194/14 81/195/14 82/196/14
f 23/197/12 25/198/12 83/199/12 81/200/12
f 26/201/13 24/202/13 82/203/13 84/204/13
f 27/205/16 28/206/16 86/207/16 85/208/16
f 28/209/13 26/201/13 84/204/13 86/210/13
f 25/211/14 29/212/14 87/213/14 83/214/14
f 30/215/16 27/205/16 85/208/16 88/216/16
f 31/217/12 32/218/12 90/219/12 89/220/12
f 32/221/16 30/215/16 88/216/16 90/222/16
f 29/223/13 33/224/13 91/225/13 87/226/13
f 34/227/12 31/217/12 89/220/12 92/228/12
f 45/229/14 50/230/14 108/231/14 103/232/14
f 38/233/13 39/234/13 97/235/13 96/236/13
f 33/237/16 38/238/16 96/239/16 91/240/16
f 39/234/13 43/241/13 101/242/13 97/235/13
f 44/243/14 45/229/14 103/232/14 102/244/14
f 46/245/14 44/243/14 102/244/14 104/246/14
f 43/241/13 46/247/13 104/248/13 101/242/13
f 48/249/12 47/250/12 105/251/12 106/252/12
f 50/253/12 49/254/12 107/255/12 108/256/12
f 47/257/16 34/258/16 92/259/16 105/260/16
f 49/261/14 35/262/14 93/263/14 107/264/14
f 40/265/16 48/266/16 106/267/16 98/268/16
f 52/269/12 51/270/12 109/271/12 110/272/12
f 35/262/14 52/273/14 110/274/14 93/263/14
f 54/275/16 53/276/16 111/277/16 112/278/16
f 51/270/12 54/279/12 112/280/12 109/271/12
f 53/281/13 40/282/13 98/283/13 111/284/13
f 56/285/14 55/286/14 113/287/14 114/288/14
f 57/289/16 58/290/16 116/291/16 115/292/16
f 58/293/13 56/294/13 114/295/13 116/296/13
f 55/297/12 57/298/12 115/299/12 113/300/12
