# Blender 4.1.1
# www.blender.org
o Roof
v -1.000000 1.000000 1.000000
v -1.000000 1.000000 -1.000000
v 1.000000 1.000000 1.000000
v 1.000000 1.000000 -1.000000
v -1.000000 0.000000 -3.000000
v 1.000000 0.000000 -3.000000
v -1.000000 0.000000 -5.000000
v 1.000000 0.000000 -5.000000
v 3.000000 -1.000000 -3.000000
v 3.000000 -1.000000 -5.000000
v 9.000000 -1.000000 -3.000000
v 9.000000 -1.000000 -5.000000
v 3.000000 1.000000 -3.000000
v 3.000000 1.000000 -5.000000
v 9.000000 1.000000 -3.000000
v 9.000000 1.000000 -5.000000
v 9.000000 1.000000 -7.000000
v 3.000000 1.000000 -7.000000
v 3.000000 1.000000 -1.000000
v 9.000000 1.000000 -1.000000
v 19.000000 -1.000000 -3.000000
v 19.000000 -1.000000 -5.000000
v 21.000000 -1.000000 -3.000000
v 21.000000 -1.000000 -5.000000
v 19.000000 -1.000000 -9.000000
v 21.000000 -1.000000 -9.000000
v 19.000000 -1.000000 -25.000000
v 21.000000 -1.000000 -25.000000
v 19.000000 -1.000000 -29.000000
v 21.000000 -1.000000 -29.000000
v 19.000000 -1.000000 -31.000000
v 21.000000 -1.000000 -31.000000
v 15.000000 -1.000000 -29.000000
v 15.000000 -1.000000 -31.000000
v 13.000000 -1.000000 -29.000000
v 13.000000 -1.000000 -31.000000
v 15.000000 -1.000000 -25.000000
v 13.000000 -1.000000 -25.000000
v 3.000000 -1.000000 -11.000000
v 3.000000 -1.000000 -13.000000
v 5.000000 -1.000000 -13.000000
v 5.000000 -1.000000 -11.000000
v 15.000000 3.000000 -25.000000
v 13.000000 3.000000 -25.000000
v 17.000000 3.000000 -13.000000
v 17.000000 3.000000 -11.000000
v 15.000000 3.000000 -13.000000
v 13.000000 3.000000 -13.000000
v 17.000000 3.000000 -25.000000
v 15.000000 3.000000 -11.000000
v 15.000000 3.000000 -9.000000
v 13.000000 3.000000 -9.000000
v 5.000000 3.000000 -9.000000
v 13.000000 3.000000 -11.000000
v 17.000000 3.000000 -9.000000
v 5.000000 3.000000 -25.000000
v 5.000000 3.000000 -13.000000
v 5.000000 3.000000 -11.000000
v 1.000000 -1.000000 -13.000000
v 1.000000 -1.000000 -11.000000
v 3.000000 -1.000000 -24.000000
v 1.000000 -1.000000 -24.000000
v 21.000000 1.000000 -9.000000
v 19.000000 1.000000 -9.000000
v 21.000000 1.000000 -25.000000
v 19.000000 1.000000 -25.000000
v -1.000000 1.100000 1.000000
v -1.000000 1.097325 -1.022975
v 1.000000 1.100000 1.000000
v 1.000000 1.097325 -1.022975
v -1.000000 0.097325 -3.022975
v 1.015639 0.097524 -3.015639
v -1.000000 0.100000 -5.000000
v 1.022975 0.097325 -5.000000
v 3.044721 -0.910557 -3.000000
v 3.044721 -0.910557 -5.000000
v 9.000000 -0.900000 -3.000000
v 9.000000 -0.900000 -5.000000
v 3.000000 1.100000 -3.000000
v 3.000000 1.100000 -5.000000
v 9.000000 1.100000 -3.000000
v 9.000000 1.100000 -5.000000
v 9.000000 1.100000 -7.000000
v 3.000000 1.100000 -7.000000
v 3.000000 1.100000 -1.000000
v 9.000000 1.100000 -1.000000
v 19.000000 -0.900000 -3.000000
v 19.000000 -0.900000 -5.000000
v 21.000000 -0.900000 -3.000000
v 21.000000 -0.900000 -5.000000
v 19.000000 -0.900000 -9.000000
v 21.000000 -0.900000 -9.000000
v 19.000000 -0.900000 -25.000000
v 21.000000 -0.900000 -25.000000
v 19.000000 -0.900000 -29.000000
v 21.000000 -0.900000 -29.000000
v 19.000000 -0.900000 -31.000000
v 21.000000 -0.900000 -31.000000
v 15.000000 -0.900000 -29.000000
v 15.000000 -0.900000 -31.000000
v 13.000000 -0.900000 -29.000000
v 13.000000 -0.900000 -31.000000
v 15.000000 -0.900000 -25.000000
v 13.000000 -0.900000 -25.000000
v 3.000000 -0.900000 -11.000000
v 3.000000 -0.900000 -13.000000
v 5.000000 -0.900000 -13.000000
v 5.000000 -0.900000 -11.000000
v 15.000000 3.100000 -25.000000
v 13.000000 3.100000 -25.000000
v 17.000000 3.100000 -13.000000
v 17.000000 3.100000 -11.000000
v 15.000000 3.100000 -13.000000
v 13.000000 3.100000 -13.000000
v 17.000000 3.100000 -25.000000
v 15.000000 3.100000 -11.000000
v 15.000000 3.100000 -9.000000
v 13.000000 3.100000 -9.000000
v 5.000000 3.100000 -9.000000
v 13.000000 3.100000 -11.000000
v 17.000000 3.100000 -9.000000
v 5.000000 3.100000 -25.000000
v 5.000000 3.100000 -13.000000
v 5.000000 3.100000 -11.000000
v 1.000000 -0.900000 -13.000000
v 1.000000 -0.900000 -11.000000
v 3.000000 -0.900000 -24.000000
v 1.000000 -0.900000 -24.000000
v 21.000000 1.100000 -9.000000
v 19.000000 1.100000 -9.000000
v 21.000000 1.100000 -25.000000
v 19.000000 1.100000 -25.000000
vn -0.0000 -0.8944 0.4472
vn -0.0000 -1.0000 -0.0000
vn -0.4472 -0.8944 -0.0000
vn 0.0008 0.8941 -0.4478
vn -0.0000 1.0000 -0.0013
vn 0.0006 1.0000 0.0006
vn 0.4455 0.8953 0.0008
vn -0.0000 1.0000 -0.0000
vn -1.0000 -0.0000 -0.0000
vn 1.0000 -0.0000 -0.0000
vn -0.0000 -0.0000 1.0000
vn 0.9966 -0.0721 0.0400
vn -0.0000 -0.0000 -1.0000
vn 0.8944 -0.4472 -0.0000
vn 0.0325 0.0729 0.9968
vt 0.410846 0.679347
vt 0.410567 0.715502
vt 0.374701 0.715502
vt 0.374980 0.679347
vt 0.374971 0.643481
vt 0.410837 0.643481
vt 0.410576 0.751367
vt 0.374711 0.751367
vt 0.338556 0.751656
vt 0.338547 0.715790
vt 0.060536 0.360994
vt 0.060536 0.540323
vt 0.024670 0.540333
vt 0.024670 0.361003
vt 0.253340 0.625548
vt 0.253340 0.733146
vt 0.217475 0.733155
vt 0.217475 0.625558
vt 0.289206 0.625539
vt 0.289206 0.733137
vt 0.181609 0.733165
vt 0.181609 0.625567
vt 0.060536 0.576189
vt 0.024670 0.576198
vt 0.132268 0.540305
vt 0.132268 0.576171
vt 0.580692 0.468619
vt 0.652423 0.468601
vt 0.652423 0.504467
vt 0.580692 0.504485
vt 0.688289 0.468591
vt 0.688289 0.504457
vt 0.652423 0.396869
vt 0.688289 0.396860
vt 0.652424 0.361003
vt 0.688289 0.360994
vt 0.580692 0.396887
vt 0.580692 0.361021
vt 0.060536 0.096411
vt 0.060536 0.060545
vt 0.096402 0.060555
vt 0.096402 0.096421
vt 0.060536 0.311607
vt 0.096402 0.311616
vt 0.024670 0.311597
vt 0.024670 0.096402
vt 0.024670 0.060536
vt 0.024670 0.024670
vt 0.060536 0.024680
vt 0.239866 0.096458
vt 0.239866 0.311653
vt 0.096402 0.024689
vt 0.239866 0.024726
vt 0.239866 0.060592
vt 0.374413 0.361003
vt 0.410279 0.361012
vt 0.410279 0.396878
vt 0.374413 0.396869
vt 0.338547 0.360994
vt 0.338547 0.396860
vt 0.410279 0.594141
vt 0.374413 0.594131
vt 0.746546 0.024680
vt 0.746546 0.311607
vt 0.710681 0.311597
vt 0.710681 0.024670
vt 0.024670 0.661818
vt 0.060536 0.661818
vt 0.061096 0.697841
vt 0.024949 0.697972
vt 0.024679 0.625539
vt 0.060545 0.625539
vt 0.061218 0.733426
vt 0.024939 0.733426
vt 0.097774 0.697852
vt 0.097765 0.733718
vt 0.253340 0.360994
vt 0.289206 0.361003
vt 0.289206 0.540333
vt 0.253340 0.540323
vt 0.616558 0.553835
vt 0.652423 0.553844
vt 0.652423 0.661442
vt 0.616558 0.661433
vt 0.580692 0.661423
vt 0.580692 0.553826
vt 0.688289 0.553854
vt 0.688289 0.661451
vt 0.289206 0.576198
vt 0.253340 0.576189
vt 0.181609 0.576171
vt 0.181609 0.540305
vt 0.661340 0.132296
vt 0.661340 0.168162
vt 0.589608 0.168143
vt 0.589608 0.132277
vt 0.553742 0.168134
vt 0.553742 0.132268
vt 0.553742 0.060536
vt 0.589608 0.060545
vt 0.553742 0.024670
vt 0.589608 0.024680
vt 0.661340 0.024698
vt 0.661340 0.060564
vt 0.468536 0.096411
vt 0.432670 0.096421
vt 0.432670 0.060555
vt 0.468536 0.060545
vt 0.468536 0.311607
vt 0.432670 0.311616
vt 0.504402 0.096402
vt 0.504402 0.311597
vt 0.504402 0.060536
vt 0.468536 0.024680
vt 0.504402 0.024670
vt 0.289206 0.311653
vt 0.289206 0.096458
vt 0.432670 0.024689
vt 0.289206 0.060592
vt 0.289206 0.024726
vt 0.495485 0.361003
vt 0.495485 0.396869
vt 0.459619 0.396878
vt 0.459619 0.361012
vt 0.531351 0.360994
vt 0.531351 0.396860
vt 0.495485 0.594131
vt 0.459619 0.594141
vt 0.737630 0.361003
vt 0.773496 0.360994
vt 0.773496 0.647921
vt 0.737630 0.647930
vt 0.640526 0.746026
vt 0.631826 0.711227
vt 0.633566 0.710792
vt 0.642319 0.746003
vt 0.624064 0.217937
vt 0.615369 0.252737
vt 0.613576 0.252714
vt 0.622325 0.217502
vt 0.951082 0.109881
vt 0.951082 0.145752
vt 0.949289 0.145752
vt 0.949289 0.109881
vt 0.624064 0.291885
vt 0.622292 0.291732
vt 0.631826 0.785176
vt 0.633619 0.785152
vt 0.562442 0.252737
vt 0.553742 0.217937
vt 0.555482 0.217502
vt 0.564235 0.252713
vt 0.640526 0.819975
vt 0.642266 0.819540
vt 0.183237 0.939457
vt 0.183237 0.975328
vt 0.181609 0.975330
vt 0.181609 0.939459
vt 0.553742 0.291886
vt 0.555493 0.292275
vt 0.633619 0.869847
vt 0.633619 0.909952
vt 0.631826 0.909952
vt 0.631928 0.869316
vt 0.684753 0.869316
vt 0.684753 0.905186
vt 0.682960 0.905186
vt 0.682960 0.869316
vt 0.234536 0.818376
vt 0.234536 0.854246
vt 0.232743 0.854246
vt 0.232743 0.818376
vt 0.128730 0.818929
vt 0.128730 0.854799
vt 0.126938 0.854799
vt 0.126938 0.818929
vt 0.285670 0.782505
vt 0.285670 0.890117
vt 0.283877 0.890117
vt 0.283877 0.782505
vt 0.128730 0.890670
vt 0.126938 0.890670
vt 0.234536 0.782505
vt 0.232743 0.782505
vt 0.026464 0.783058
vt 0.026464 0.890670
vt 0.024670 0.890670
vt 0.024670 0.783058
vt 0.128730 0.783058
vt 0.126938 0.783058
vt 0.234536 0.890117
vt 0.232743 0.890117
vt 0.739424 0.697271
vt 0.739424 0.876623
vt 0.737630 0.876623
vt 0.737630 0.697271
vt 0.875764 0.697298
vt 0.875764 0.876651
vt 0.873971 0.876651
vt 0.873971 0.697298
vt 0.340339 0.800997
vt 0.340339 0.836867
vt 0.338547 0.836867
vt 0.338547 0.800997
vt 0.739424 0.912493
vt 0.737630 0.912493
vt 0.926897 0.603157
vt 0.926897 0.639027
vt 0.925104 0.639027
vt 0.925104 0.603157
vt 0.340339 0.908608
vt 0.338547 0.908608
vt 0.391474 0.800997
vt 0.391474 0.872738
vt 0.389680 0.872738
vt 0.389680 0.800997
vt 0.951082 0.195092
vt 0.951082 0.230963
vt 0.949289 0.230963
vt 0.949289 0.195092
vt 0.077597 0.783058
vt 0.077597 0.854799
vt 0.075804 0.854799
vt 0.075804 0.783058
vt 0.926897 0.360994
vt 0.926897 0.432735
vt 0.925104 0.432735
vt 0.925104 0.360994
vt 0.582485 0.710792
vt 0.582485 0.746662
vt 0.580692 0.746662
vt 0.580692 0.710792
vt 0.077597 0.890670
vt 0.075804 0.890670
vt 0.582485 0.818403
vt 0.580692 0.818403
vt 0.926898 0.697298
vt 0.926898 0.769039
vt 0.925105 0.769039
vt 0.925105 0.697298
vt 0.183402 0.782505
vt 0.183402 0.818376
vt 0.181609 0.818376
vt 0.181609 0.782505
vt 0.582485 0.854274
vt 0.580692 0.854274
vt 0.391474 0.922078
vt 0.391474 0.957949
vt 0.389680 0.957949
vt 0.389680 0.922078
vt 0.926897 0.818379
vt 0.926897 0.890120
vt 0.925105 0.890120
vt 0.925105 0.818379
vt 0.183402 0.890117
vt 0.181609 0.890117
vt 0.875763 0.925991
vt 0.875763 0.961862
vt 0.873971 0.961862
vt 0.873971 0.925991
vt 0.513115 0.679352
vt 0.513115 0.715222
vt 0.511321 0.715222
vt 0.511321 0.679352
vt 0.848814 0.060541
vt 0.848814 0.096411
vt 0.847021 0.096411
vt 0.847021 0.060541
vt 0.848814 0.311634
vt 0.847021 0.311634
vt 0.513115 0.643481
vt 0.511321 0.643481
vt 0.899948 0.024670
vt 0.899948 0.168152
vt 0.898154 0.168152
vt 0.898154 0.024670
vt 0.899948 0.204022
vt 0.898154 0.204022
vt 0.899948 0.239893
vt 0.898154 0.239893
vt 0.848814 0.024670
vt 0.847021 0.024670
vt 0.797681 0.024670
vt 0.797681 0.239893
vt 0.795887 0.239893
vt 0.795887 0.024670
vt 0.797681 0.275764
vt 0.795887 0.275764
vt 0.797681 0.311635
vt 0.795887 0.311635
vt 0.513115 0.858704
vt 0.511321 0.858704
vt 0.926897 0.517946
vt 0.926897 0.553816
vt 0.925104 0.553816
vt 0.925104 0.517946
vt 0.582485 0.903615
vt 0.582485 0.939485
vt 0.580692 0.939485
vt 0.580692 0.903615
vt 0.461980 0.840769
vt 0.461980 0.876640
vt 0.460187 0.876640
vt 0.460187 0.840769
vt 0.926897 0.482076
vt 0.925104 0.482075
vt 0.513115 0.908045
vt 0.513115 0.943915
vt 0.511321 0.943915
vt 0.511321 0.908045
vt 0.461980 0.643481
vt 0.460187 0.643481
vt 0.824629 0.697299
vt 0.824629 0.894586
vt 0.822837 0.894586
vt 0.822837 0.697299
vt 0.461980 0.925980
vt 0.461980 0.961851
vt 0.460187 0.961851
vt 0.460187 0.925980
vt 0.951082 0.024670
vt 0.951082 0.060541
vt 0.949289 0.060541
vt 0.949289 0.024670
vt 0.875763 0.360994
vt 0.875763 0.647957
vt 0.873971 0.647957
vt 0.873971 0.360994
vt 0.824630 0.360994
vt 0.824630 0.647958
vt 0.822836 0.647958
vt 0.822836 0.360994
s 0
f 2/1/1 5/2/1 6/3/1 4/4/1
f 4/4/2 3/5/2 1/6/2 2/1/2
f 5/2/2 7/7/2 8/8/2 6/3/2
f 8/8/3 10/9/3 9/10/3 6/3/3
f 12/11/2 22/12/2 21/13/2 11/14/2
f 14/15/2 16/16/2 15/17/2 13/18/2
f 14/15/2 18/19/2 17/20/2 16/16/2
f 15/17/2 20/21/2 19/22/2 13/18/2
f 22/12/2 24/23/2 23/24/2 21/13/2
f 22/12/2 25/25/2 26/26/2 24/23/2
f 27/27/2 29/28/2 30/29/2 28/30/2
f 29/28/2 31/31/2 32/32/2 30/29/2
f 29/28/2 33/33/2 34/34/2 31/31/2
f 33/33/2 35/35/2 36/36/2 34/34/2
f 33/33/2 37/37/2 38/38/2 35/35/2
f 47/39/2 50/40/2 54/41/2 48/42/2
f 43/43/2 47/39/2 48/42/2 44/44/2
f 43/43/2 49/45/2 45/46/2 47/39/2
f 46/47/2 55/48/2 51/49/2 50/40/2
f 48/42/2 57/50/2 56/51/2 44/44/2
f 45/46/2 46/47/2 50/40/2 47/39/2
f 50/40/2 51/49/2 52/52/2 54/41/2
f 52/52/2 53/53/2 58/54/2 54/41/2
f 54/41/2 58/54/2 57/50/2 48/42/2
f 39/55/2 60/56/2 59/57/2 40/58/2
f 42/59/2 39/55/2 40/58/2 41/60/2
f 59/57/2 62/61/2 61/62/2 40/58/2
f 64/63/2 66/64/2 65/65/2 63/66/2
f 68/67/4 70/68/4 72/69/4 71/70/4
f 70/68/5 68/67/5 67/71/5 69/72/5
f 71/70/6 72/69/6 74/73/6 73/74/6
f 74/73/7 72/69/7 75/75/7 76/76/7
f 78/77/8 77/78/8 87/79/8 88/80/8
f 80/81/8 79/82/8 81/83/8 82/84/8
f 80/81/8 82/84/8 83/85/8 84/86/8
f 81/83/8 79/82/8 85/87/8 86/88/8
f 88/80/8 87/79/8 89/89/8 90/90/8
f 88/80/8 90/90/8 92/91/8 91/92/8
f 93/93/8 94/94/8 96/95/8 95/96/8
f 95/96/8 96/95/8 98/97/8 97/98/8
f 95/96/8 97/98/8 100/99/8 99/100/8
f 99/100/8 100/99/8 102/101/8 101/102/8
f 99/100/8 101/102/8 104/103/8 103/104/8
f 113/105/8 114/106/8 120/107/8 116/108/8
f 109/109/8 110/110/8 114/106/8 113/105/8
f 109/109/8 113/105/8 111/111/8 115/112/8
f 112/113/8 116/108/8 117/114/8 121/115/8
f 114/106/8 110/110/8 122/116/8 123/117/8
f 111/111/8 113/105/8 116/108/8 112/113/8
f 116/108/8 120/107/8 118/118/8 117/114/8
f 118/118/8 120/107/8 124/119/8 119/120/8
f 120/107/8 114/106/8 123/117/8 124/119/8
f 105/121/8 106/122/8 125/123/8 126/124/8
f 108/125/8 107/126/8 106/122/8 105/121/8
f 125/123/8 106/122/8 127/127/8 128/128/8
f 130/129/8 129/130/8 131/131/8 132/132/8
f 2/133/9 1/134/9 67/135/9 68/136/9
f 3/137/10 4/138/10 70/139/10 69/140/10
f 1/141/11 3/142/11 69/143/11 67/144/11
f 4/138/12 6/145/12 72/146/12 70/139/12
f 5/147/9 2/133/9 68/136/9 71/148/9
f 8/149/13 7/150/13 73/151/13 74/152/13
f 7/153/9 5/147/9 71/148/9 73/154/9
f 9/155/14 10/156/14 76/157/14 75/158/14
f 10/159/13 8/149/13 74/152/13 76/160/13
f 6/161/15 9/162/15 75/163/15 72/164/15
f 12/165/9 11/166/9 77/167/9 78/168/9
f 14/169/9 13/170/9 79/171/9 80/172/9
f 15/173/10 16/174/10 82/175/10 81/176/10
f 17/177/13 18/178/13 84/179/13 83/180/13
f 16/174/10 17/181/10 83/182/10 82/175/10
f 18/183/9 14/169/9 80/172/9 84/184/9
f 19/185/11 20/186/11 86/187/11 85/188/11
f 20/189/10 15/173/10 81/176/10 86/190/10
f 13/170/9 19/191/9 85/192/9 79/171/9
f 11/193/11 21/194/11 87/195/11 77/196/11
f 22/197/13 12/198/13 78/199/13 88/200/13
f 23/201/10 24/202/10 90/203/10 89/204/10
f 21/194/11 23/205/11 89/206/11 87/195/11
f 26/207/13 25/208/13 91/209/13 92/210/13
f 24/202/10 26/211/10 92/212/10 90/203/10
f 25/213/9 22/214/9 88/215/9 91/216/9
f 27/217/11 28/218/11 94/219/11 93/220/11
f 28/221/10 30/222/10 96/223/10 94/224/10
f 29/225/9 27/226/9 93/227/9 95/228/9
f 32/229/13 31/230/13 97/231/13 98/232/13
f 30/222/10 32/233/10 98/234/10 96/223/10
f 31/230/13 34/235/13 100/236/13 97/231/13
f 33/237/11 29/238/11 95/239/11 99/240/11
f 36/241/9 35/242/9 101/243/9 102/244/9
f 34/235/13 36/245/13 102/246/13 100/236/13
f 38/247/11 37/248/11 103/249/11 104/250/11
f 37/251/10 33/252/10 99/253/10 103/254/10
f 35/242/9 38/255/9 104/256/9 101/243/9
f 42/257/10 41/258/10 107/259/10 108/260/10
f 43/261/13 44/262/13 110/263/13 109/264/13
f 46/265/10 45/266/10 111/267/10 112/268/10
f 45/266/10 49/269/10 115/270/10 111/267/10
f 49/271/13 43/261/13 109/264/13 115/272/13
f 53/273/11 52/274/11 118/275/11 119/276/11
f 52/274/11 51/277/11 117/278/11 118/275/11
f 51/277/11 55/279/11 121/280/11 117/278/11
f 55/281/10 46/265/10 112/268/10 121/282/10
f 56/283/9 57/284/9 123/285/9 122/286/9
f 57/284/9 58/287/9 124/288/9 123/285/9
f 58/287/9 53/289/9 119/290/9 124/288/9
f 44/262/13 56/291/13 122/292/13 110/263/13
f 39/293/11 42/294/11 108/295/11 105/296/11
f 41/297/13 40/298/13 106/299/13 107/300/13
f 59/301/9 60/302/9 126/303/9 125/304/9
f 60/305/11 39/293/11 105/296/11 126/306/11
f 61/307/13 62/308/13 128/309/13 127/310/13
f 62/311/9 59/301/9 125/304/9 128/312/9
f 40/313/10 61/314/10 127/315/10 106/316/10
f 64/317/11 63/318/11 129/319/11 130/320/11
f 65/321/13 66/322/13 132/323/13 131/324/13
f 63/325/10 65/326/10 131/327/10 129/328/10
f 66/329/9 64/330/9 130/331/9 132/332/9
