# Blender 4.1.1
# www.blender.org
o Walls
v -0.999990 -1.000000 0.999990
v -1.100000 -1.000000 1.100000
v -1.100000 1.000000 1.100000
v -0.999990 1.000000 0.999990
v -0.999990 -1.000000 -1.000000
v -1.100000 -1.000000 -1.000000
v -0.999990 1.000000 -1.000000
v -1.100000 1.000000 -1.000000
v 0.999990 -1.000000 0.999990
v 1.100000 -1.000000 1.100000
v 0.999990 1.000000 0.999990
v 1.100000 1.000000 1.100000
v 0.999990 -1.000000 -1.000000
v 1.100000 -1.000000 -1.000000
v 0.999990 1.000000 -1.000000
v 1.100000 1.000000 -1.000000
v -1.100000 0.000000 -3.000000
v -0.999990 0.000000 -3.000000
v -1.100000 -2.000000 -3.000000
v -0.999990 -2.000000 -3.000000
v 0.999990 -2.000000 -3.000010
v 1.100000 -2.000000 -2.900000
v 0.999990 0.000000 -3.000010
v 1.100000 0.000000 -2.900000
v -0.999990 0.000000 -4.999990
v -1.100000 0.000000 -5.100000
v -0.999990 -2.000000 -4.999990
v -1.100000 -2.000000 -5.100000
v 1.000000 -2.000000 -4.999990
v 1.000000 -2.000000 -5.100000
v 1.000000 0.000000 -4.999990
v 1.000000 0.000000 -5.100000
v 3.000010 -1.000000 -3.000010
v 2.900000 -1.000000 -2.900000
v 3.000010 -3.000000 -3.000010
v 2.900000 -3.000000 -2.900000
v 2.900000 -1.000000 -5.100000
v 3.000010 -1.000000 -4.999990
v 2.900000 -3.000000 -5.100000
v 3.000010 -3.000000 -4.999990
v 8.999990 -1.000000 -3.000010
v 9.100000 -1.000000 -2.900000
v 8.999990 -3.000000 -3.000010
v 9.100000 -3.000000 -2.900000
v 9.100000 -1.000000 -5.100000
v 8.999990 -1.000000 -4.999990
v 9.100000 -3.000000 -5.100000
v 8.999990 -3.000000 -4.999990
v 3.000010 -1.000000 -6.999990
v 2.900000 -1.000000 -7.100000
v 3.000010 -3.000000 -6.999990
v 2.900000 -3.000000 -7.100000
v 9.100000 -1.000000 -7.100000
v 8.999990 -1.000000 -6.999990
v 9.100000 -3.000000 -7.100000
v 8.999990 -3.000000 -6.999990
v 2.900000 -1.000000 -0.900000
v 3.000010 -1.000000 -1.000010
v 2.900000 -3.000000 -0.900000
v 3.000010 -3.000000 -1.000010
v 9.100000 -1.000000 -0.900000
v 8.999990 -1.000000 -1.000010
v 9.100000 -3.000000 -0.900000
v 8.999990 -3.000000 -1.000010
v 3.000010 1.000000 -3.000000
v 2.900000 1.000000 -3.000000
v 3.000010 1.000000 -5.000000
v 2.900000 1.000000 -5.000000
v 8.999990 1.000000 -3.000000
v 9.100000 1.000000 -3.000000
v 9.100000 1.000000 -5.000000
v 8.999990 1.000000 -5.000000
v 9.100000 1.000000 -7.100000
v 8.999990 1.000000 -6.999990
v 2.900000 1.000000 -7.100000
v 3.000010 1.000000 -6.999990
v 2.900000 1.000000 -0.900000
v 3.000010 1.000000 -1.000010
v 9.100000 1.000000 -0.900000
v 8.999990 1.000000 -1.000010
v 19.000000 -1.000000 -3.000010
v 19.000000 -1.000000 -2.900000
v 19.000000 -3.000000 -3.000010
v 19.000000 -3.000000 -2.900000
v 18.900000 -1.000000 -5.100000
v 19.000010 -1.000000 -4.999990
v 18.900000 -3.000000 -5.100000
v 19.000010 -3.000000 -4.999990
v 21.100000 -1.000000 -2.900000
v 20.999990 -1.000000 -3.000010
v 21.100000 -3.000000 -2.900000
v 20.999990 -3.000000 -3.000010
v 20.999990 -1.000000 -5.000000
v 21.100000 -1.000000 -5.000000
v 20.999990 -3.000000 -5.000000
v 21.100000 -3.000000 -5.000000
v 18.900000 -1.000000 -8.900000
v 19.000010 -1.000000 -9.000010
v 18.900000 -3.000000 -8.900000
v 19.000010 -3.000000 -9.000010
v 21.100000 -1.000000 -8.900000
v 20.999990 -1.000000 -9.000010
v 21.100000 -3.000000 -8.900000
v 20.999990 -3.000000 -9.000010
v 18.900000 -1.000000 -25.100000
v 19.000010 -1.000000 -24.999990
v 18.900000 -3.000000 -25.100000
v 19.000010 -3.000000 -24.999990
v 20.999990 -1.000000 -24.999990
v 21.100000 -1.000000 -25.100000
v 20.999990 -3.000000 -24.999990
v 21.100000 -3.000000 -25.100000
v 18.900000 -1.000000 -28.900000
v 19.000010 -1.000000 -29.000010
v 18.900000 -3.000000 -28.900000
v 19.000010 -3.000000 -29.000010
v 20.999990 -1.000000 -29.000000
v 21.100000 -1.000000 -29.000000
v 20.999990 -3.000000 -29.000000
v 21.100000 -3.000000 -29.000000
v 19.000000 -1.000000 -30.999990
v 19.000000 -1.000000 -31.100000
v 19.000000 -3.000000 -30.999990
v 19.000000 -3.000000 -31.100000
v 21.100000 -1.000000 -31.100000
v 20.999990 -1.000000 -30.999990
v 21.100000 -3.000000 -31.100000
v 20.999990 -3.000000 -30.999990
v 15.100000 -1.000000 -28.900000
v 14.999990 -1.000000 -29.000010
v 15.100000 -3.000000 -28.900000
v 14.999990 -3.000000 -29.000010
v 15.000000 -1.000000 -30.999990
v 15.000000 -1.000000 -31.100000
v 15.000000 -3.000000 -30.999990
v 15.000000 -3.000000 -31.100000
v 13.000010 -1.000000 -29.000000
v 12.900000 -1.000000 -29.000000
v 13.000010 -3.000000 -29.000000
v 12.900000 -3.000000 -29.000000
v 12.900000 -1.000000 -31.100000
v 13.000010 -1.000000 -30.999990
v 12.900000 -3.000000 -31.100000
v 13.000010 -3.000000 -30.999990
v 15.100000 -1.000000 -25.100000
v 14.999990 -1.000000 -24.999990
v 15.100000 -3.000000 -25.100000
v 14.999990 -3.000000 -24.999990
v 13.000010 -1.000000 -24.999990
v 12.900000 -1.000000 -25.100000
v 13.000010 -3.000000 -24.999990
v 12.900000 -3.000000 -25.100000
v 3.000000 -3.000000 -10.900000
v 3.000000 -3.000000 -11.000010
v 3.000000 -1.000000 -10.900000
v 3.000000 -1.000000 -11.000010
v 16.999990 -1.000000 -24.999990
v 17.100000 -1.000000 -25.100000
v 16.999990 -3.000000 -24.999990
v 17.100000 -3.000000 -25.100000
v 17.100000 -1.000000 -13.000000
v 16.999990 -1.000000 -13.000000
v 16.999990 -3.000000 -13.000000
v 17.100000 -3.000000 -13.000000
v 2.999990 -3.000000 -12.999990
v 3.100000 -3.000000 -13.100000
v 2.999990 -1.000000 -12.999990
v 3.100000 -1.000000 -13.100000
v 17.100000 -1.000000 -11.000000
v 16.999990 -1.000000 -11.000000
v 17.100000 -3.000000 -11.000000
v 16.999990 -3.000000 -11.000000
v 15.000000 -1.000000 -8.900000
v 15.000000 -1.000000 -9.000010
v 15.000000 -3.000000 -9.000010
v 15.000000 -3.000000 -8.900000
v 13.000000 -1.000000 -8.900000
v 13.000000 -1.000000 -9.000010
v 13.000000 -3.000000 -9.000010
v 13.000000 -3.000000 -8.900000
v 16.999990 -1.000000 -9.000010
v 17.100000 -1.000000 -8.900000
v 17.100000 -3.000000 -8.900000
v 16.999990 -3.000000 -9.000010
v 5.000010 -1.000000 -24.999990
v 4.900000 -1.000000 -25.100000
v 4.900000 -3.000000 -25.100000
v 5.000010 -3.000000 -24.999990
v 5.000010 -1.000000 -12.999990
v 4.900000 -1.000000 -13.100000
v 5.000010 -3.000000 -12.999990
v 4.900000 -3.000000 -13.100000
v 5.000010 -1.000000 -11.000010
v 4.900000 -1.000000 -10.900000
v 5.000010 -3.000000 -11.000010
v 4.900000 -3.000000 -10.900000
v 5.000010 -1.000000 -9.000010
v 4.900000 -1.000000 -8.900000
v 5.000010 -3.000000 -9.000010
v 4.900000 -3.000000 -8.900000
v 15.000000 3.000000 -25.100000
v 15.000000 3.000000 -24.999990
v 13.000000 3.000000 -24.999990
v 13.000000 3.000000 -25.100000
v 17.100000 3.000000 -13.000000
v 16.999990 3.000000 -13.000000
v 17.100000 3.000000 -11.000000
v 16.999990 3.000000 -11.000000
v 17.100000 3.000000 -25.100000
v 16.999990 3.000000 -24.999990
v 15.000000 3.000000 -8.900000
v 15.000000 3.000000 -9.000010
v 13.000000 3.000000 -8.900000
v 13.000000 3.000000 -9.000010
v 5.000010 3.000000 -9.000010
v 4.900000 3.000000 -8.900000
v 16.999990 3.000000 -9.000010
v 17.100000 3.000000 -8.900000
v 5.000010 3.000000 -24.999990
v 4.900000 3.000000 -25.100000
v 5.000010 3.000000 -13.000000
v 4.900000 3.000000 -13.000000
v 5.000010 3.000000 -11.000000
v 4.900000 3.000000 -11.000000
v 0.900000 -1.000000 -13.000000
v 1.000010 -1.000000 -13.000000
v 0.900000 -3.000000 -13.000000
v 1.000010 -3.000000 -13.000000
v 1.000010 -1.000000 -11.000010
v 0.900000 -1.000000 -10.900000
v 1.000010 -3.000000 -11.000010
v 0.900000 -3.000000 -10.900000
v 3.100000 -1.000000 -24.100000
v 2.999990 -1.000000 -23.999990
v 3.100000 -3.000000 -24.100000
v 2.999990 -3.000000 -23.999990
v 0.900000 -1.000000 -24.100000
v 1.000010 -1.000000 -23.999990
v 0.900000 -3.000000 -24.100000
v 1.000010 -3.000000 -23.999990
v 20.999990 1.000000 -9.000010
v 21.100000 1.000000 -8.900000
v 19.000010 1.000000 -9.000010
v 18.900000 1.000000 -8.900000
v 21.100000 1.000000 -25.100000
v 20.999990 1.000000 -24.999990
v 18.900000 1.000000 -25.100000
v 19.000010 1.000000 -24.999990
v 19.000010 -7.000000 -9.000010
v 18.900000 -7.000000 -8.900000
v 20.999990 -7.000000 -9.000010
v 21.100000 -7.000000 -8.900000
v 18.900000 -7.000000 -25.100000
v 19.000010 -7.000000 -24.999990
v 21.100000 -7.000000 -25.100000
v 20.999990 -7.000000 -24.999990
vn -0.0000 -1.0000 -0.0000
vn -0.0000 1.0000 -0.0000
vn 0.2224 0.8675 -0.4449
vn -0.0000 0.8944 -0.4472
vn -0.0000 -0.8944 0.4472
vn -0.2224 -0.8675 0.4449
vn -0.4449 -0.8675 0.2224
vn -0.4657 -0.8849 -0.0000
vn 0.4449 0.8675 -0.2224
vn 0.4657 0.8849 -0.0000
vn 1.0000 -0.0000 -0.0000
vn -1.0000 -0.0000 -0.0000
vn -0.0000 -0.0000 -1.0000
vn -0.0000 -0.0000 1.0000
vt 0.249395 0.292578
vt 0.235387 0.289760
vt 0.234828 0.288919
vt 0.249536 0.291877
vt 0.738178 0.461913
vt 0.738173 0.476202
vt 0.737458 0.476202
vt 0.737464 0.461199
vt 0.232564 0.303767
vt 0.246572 0.306585
vt 0.246431 0.307285
vt 0.231722 0.304326
vt 0.752461 0.476202
vt 0.752467 0.461913
vt 0.753181 0.461199
vt 0.753176 0.476202
vt 0.753311 0.489915
vt 0.752596 0.490629
vt 0.737593 0.490629
vt 0.738308 0.490629
vt 0.263511 0.295561
vt 0.263652 0.294861
vt 0.260688 0.309568
vt 0.259846 0.310127
vt 0.274696 0.312386
vt 0.277519 0.298379
vt 0.278361 0.297819
vt 0.275396 0.312527
vt 0.738302 0.504918
vt 0.752591 0.504918
vt 0.752591 0.505632
vt 0.737588 0.505632
vt 0.029851 0.938977
vt 0.029851 0.954694
vt 0.029136 0.953980
vt 0.029136 0.939691
vt 0.272822 0.325999
vt 0.271981 0.326558
vt 0.257413 0.322899
vt 0.257973 0.323740
vt 0.767020 0.505056
vt 0.766306 0.505771
vt 0.767026 0.490768
vt 0.766312 0.490053
vt 0.955866 0.333613
vt 0.955866 0.347901
vt 0.955151 0.348615
vt 0.955151 0.332898
vt 0.286830 0.328816
vt 0.278079 0.372238
vt 0.277519 0.371397
vt 0.285989 0.329376
vt 0.264070 0.369420
vt 0.263511 0.368579
vt 0.243965 0.320922
vt 0.235495 0.362943
vt 0.234653 0.363503
vt 0.243405 0.320081
vt 0.249503 0.365761
vt 0.248661 0.366321
vt 0.029851 0.663409
vt 0.029851 0.677698
vt 0.029136 0.677698
vt 0.029136 0.663409
vt 0.073431 0.663392
vt 0.073431 0.677681
vt 0.072717 0.677681
vt 0.072717 0.663393
vt 0.073431 0.692684
vt 0.029136 0.692701
vt 0.029851 0.691986
vt 0.072717 0.691970
vt 0.029136 0.648406
vt 0.073431 0.648389
vt 0.072717 0.649104
vt 0.029851 0.649120
vt 0.390742 0.516545
vt 0.390742 0.587274
vt 0.390027 0.587274
vt 0.390027 0.515830
vt 0.692757 0.273910
vt 0.692730 0.203896
vt 0.693444 0.203182
vt 0.693471 0.274625
vt 0.235387 0.435796
vt 0.234687 0.435655
vt 0.250237 0.438054
vt 0.249395 0.438614
vt 0.390742 0.602277
vt 0.375738 0.602271
vt 0.375738 0.601557
vt 0.390027 0.601562
vt 0.232564 0.449803
vt 0.246572 0.452621
vt 0.246431 0.453321
vt 0.231722 0.450362
vt 0.563747 0.957268
vt 0.563747 0.941551
vt 0.564461 0.942265
vt 0.564461 0.956553
vt 0.825735 0.940116
vt 0.825735 0.955834
vt 0.825020 0.955119
vt 0.825020 0.940831
vt 0.276852 0.443408
vt 0.277411 0.444250
vt 0.273747 0.458816
vt 0.274588 0.458257
vt 0.347875 0.602261
vt 0.347161 0.601546
vt 0.665608 0.273910
vt 0.664894 0.274625
vt 0.970149 0.651678
vt 0.970149 0.637390
vt 0.970864 0.636675
vt 0.970864 0.652392
vt 0.970494 0.853975
vt 0.970494 0.868264
vt 0.969780 0.868978
vt 0.969780 0.853261
vt 0.606613 0.695275
vt 0.578750 0.695264
vt 0.578750 0.694550
vt 0.607327 0.694561
vt 0.347875 0.825289
vt 0.375024 0.825299
vt 0.375738 0.826014
vt 0.347161 0.826003
vt 0.044150 0.172739
vt 0.044139 0.144161
vt 0.044854 0.144875
vt 0.044864 0.172024
vt 0.029147 0.172738
vt 0.029136 0.144875
vt 0.029851 0.144161
vt 0.029862 0.172738
vt 0.563747 0.695258
vt 0.563747 0.680255
vt 0.564461 0.680256
vt 0.564461 0.694544
vt 0.044156 0.187742
vt 0.029153 0.187742
vt 0.029867 0.187027
vt 0.044156 0.187027
vt 0.072013 0.172024
vt 0.072728 0.172739
vt 0.072733 0.187742
vt 0.072733 0.187027
vt 0.564461 0.651678
vt 0.563747 0.651678
vt 0.347875 0.798141
vt 0.347161 0.797426
vt 0.087731 0.172738
vt 0.087736 0.187742
vt 0.087022 0.187027
vt 0.087016 0.172738
vt 0.563747 0.636675
vt 0.578750 0.636681
vt 0.578750 0.637395
vt 0.564461 0.637390
vt 0.958001 0.948191
vt 0.958001 0.933903
vt 0.958716 0.933188
vt 0.958716 0.948906
vt 0.375738 0.797437
vt 0.375024 0.798151
vt 0.072717 0.144161
vt 0.072002 0.144875
vt 0.606613 0.636691
vt 0.607327 0.637406
vt 0.087720 0.144875
vt 0.087005 0.144161
vt 0.144116 0.029851
vt 0.086962 0.029851
vt 0.086961 0.029136
vt 0.144830 0.029136
vt 0.057714 0.144875
vt 0.057681 0.058428
vt 0.058395 0.058428
vt 0.058428 0.144161
vt 0.058390 0.044140
vt 0.057675 0.044140
vt 0.072673 0.029136
vt 0.072673 0.029851
vt 0.058384 0.029851
vt 0.057670 0.029136
vt 0.144842 0.059143
vt 0.144875 0.144875
vt 0.144160 0.144161
vt 0.144127 0.058428
vt 0.899014 0.948191
vt 0.899014 0.933902
vt 0.899728 0.933188
vt 0.899728 0.948906
vt 0.144836 0.043425
vt 0.144122 0.044140
vt 0.534757 0.144881
vt 0.520469 0.144887
vt 0.520469 0.144172
vt 0.534757 0.144167
vt 0.549046 0.058429
vt 0.549046 0.044140
vt 0.549760 0.044140
vt 0.549760 0.058428
vt 0.549046 0.144161
vt 0.549760 0.144875
vt 0.520469 0.029862
vt 0.463314 0.029884
vt 0.462599 0.029170
vt 0.520469 0.029148
vt 0.534757 0.029857
vt 0.534757 0.029142
vt 0.549046 0.029851
vt 0.549760 0.029136
vt 0.462599 0.144909
vt 0.462599 0.058462
vt 0.463314 0.058461
vt 0.463314 0.144194
vt 0.462599 0.044173
vt 0.463314 0.044173
vt 0.637325 0.029851
vt 0.623036 0.029856
vt 0.623036 0.029142
vt 0.636611 0.029136
vt 0.158410 0.044140
vt 0.158410 0.043425
vt 0.636611 0.044854
vt 0.623751 0.044859
vt 0.623036 0.044145
vt 0.637325 0.044139
vt 0.158416 0.058428
vt 0.157702 0.059143
vt 0.608033 0.044151
vt 0.608033 0.029147
vt 0.608748 0.029862
vt 0.608748 0.044150
vt 0.172704 0.058428
vt 0.172699 0.044140
vt 0.173413 0.043425
vt 0.173419 0.058428
vt 0.623751 0.123447
vt 0.608033 0.123453
vt 0.608748 0.122738
vt 0.623036 0.122733
vt 0.158446 0.137017
vt 0.172734 0.137017
vt 0.173449 0.137731
vt 0.157732 0.137731
vt 0.159578 0.246729
vt 0.145290 0.246735
vt 0.144575 0.246021
vt 0.160293 0.246015
vt 0.160293 0.361753
vt 0.144575 0.361759
vt 0.145290 0.361045
vt 0.159578 0.361039
vt 0.477602 0.551969
vt 0.463314 0.551963
vt 0.462599 0.551249
vt 0.478317 0.551255
vt 0.478317 0.666994
vt 0.462599 0.666988
vt 0.463314 0.666273
vt 0.477602 0.666279
vt 0.235188 0.792270
vt 0.249053 0.795736
vt 0.245587 0.809601
vt 0.231722 0.806135
vt 0.145589 0.785265
vt 0.149144 0.799843
vt 0.135260 0.803230
vt 0.131704 0.788651
vt 0.872349 0.043001
vt 0.858484 0.046467
vt 0.855018 0.032603
vt 0.868883 0.029136
vt 0.838600 0.217739
vt 0.842240 0.203182
vt 0.856104 0.206648
vt 0.852465 0.221206
vt 0.940365 0.120338
vt 0.940365 0.134630
vt 0.926074 0.134630
vt 0.926074 0.120338
vt 0.825299 0.578067
vt 0.825299 0.562346
vt 0.839590 0.562346
vt 0.839590 0.578067
vt 0.249053 0.825199
vt 0.235188 0.821732
vt 0.145589 0.815421
vt 0.131704 0.818808
vt 0.868883 0.058599
vt 0.855018 0.062065
vt 0.856104 0.236110
vt 0.842240 0.232644
vt 0.741631 0.841828
vt 0.755495 0.845294
vt 0.752029 0.859158
vt 0.738165 0.855692
vt 0.476464 0.827843
vt 0.480104 0.842401
vt 0.466239 0.845867
vt 0.462599 0.831309
vt 0.245587 0.839063
vt 0.231722 0.835597
vt 0.149144 0.830000
vt 0.135260 0.833386
vt 0.043428 0.750974
vt 0.043428 0.793848
vt 0.029136 0.793848
vt 0.029136 0.750974
vt 0.752456 0.680978
vt 0.738165 0.680978
vt 0.738165 0.636675
vt 0.752456 0.636675
vt 0.755495 0.874756
vt 0.741631 0.871290
vt 0.476464 0.857305
vt 0.462599 0.860771
vt 0.855018 0.126729
vt 0.867801 0.120338
vt 0.867801 0.136317
vt 0.855018 0.142708
vt 0.911507 0.860201
vt 0.911507 0.874915
vt 0.899014 0.867975
vt 0.899014 0.853261
vt 0.578038 0.782130
vt 0.592330 0.782130
vt 0.592330 0.796422
vt 0.578038 0.796422
vt 0.476891 0.739558
vt 0.476891 0.725266
vt 0.491182 0.725266
vt 0.491182 0.739558
vt 0.782454 0.029136
vt 0.796745 0.029136
vt 0.796745 0.072011
vt 0.782454 0.072011
vt 0.766036 0.247485
vt 0.766036 0.203182
vt 0.780327 0.203182
vt 0.780327 0.247485
vt 0.563747 0.796422
vt 0.563747 0.782130
vt 0.462599 0.740272
vt 0.462599 0.725266
vt 0.592330 0.767839
vt 0.578038 0.767839
vt 0.578038 0.753548
vt 0.592330 0.753548
vt 0.491182 0.755278
vt 0.491182 0.769570
vt 0.476891 0.769570
vt 0.476891 0.755278
vt 0.665600 0.809279
vt 0.679892 0.809279
vt 0.679892 0.823571
vt 0.665600 0.823571
vt 0.752456 0.753543
vt 0.752456 0.739251
vt 0.766748 0.739251
vt 0.766747 0.753543
vt 0.057719 0.793848
vt 0.057719 0.750974
vt 0.766748 0.636675
vt 0.766748 0.680978
vt 0.679892 0.794988
vt 0.665600 0.794988
vt 0.665600 0.780696
vt 0.679892 0.780696
vt 0.766747 0.769263
vt 0.766747 0.783555
vt 0.752456 0.783555
vt 0.752456 0.769263
vt 0.563747 0.767839
vt 0.462599 0.754564
vt 0.651309 0.809279
vt 0.651309 0.794988
vt 0.738165 0.768549
vt 0.738165 0.754257
vt 0.563747 0.753548
vt 0.462599 0.769570
vt 0.651309 0.780696
vt 0.738165 0.783555
vt 0.768162 0.072011
vt 0.768162 0.029136
vt 0.751744 0.247485
vt 0.751744 0.203182
vt 0.651309 0.823571
vt 0.738165 0.739251
vt 0.709889 0.114885
vt 0.695598 0.114885
vt 0.695598 0.043428
vt 0.709889 0.043428
vt 0.679892 0.636675
vt 0.679892 0.707418
vt 0.665600 0.707418
vt 0.665600 0.636675
vt 0.231722 0.662540
vt 0.246014 0.662540
vt 0.246014 0.733997
vt 0.231722 0.733997
vt 0.737458 0.402926
vt 0.737458 0.332898
vt 0.751750 0.332898
vt 0.751750 0.402926
vt 0.375744 0.229216
vt 0.361452 0.229216
vt 0.361452 0.214925
vt 0.375744 0.214925
vt 0.260305 0.029136
vt 0.260305 0.044142
vt 0.246014 0.044142
vt 0.246014 0.029136
vt 0.695598 0.029136
vt 0.709889 0.029136
vt 0.679892 0.722424
vt 0.665600 0.722424
vt 0.375744 0.186342
vt 0.361452 0.186342
vt 0.361452 0.072011
vt 0.375744 0.072011
vt 0.260305 0.072011
vt 0.260305 0.187771
vt 0.246014 0.187771
vt 0.246014 0.072011
vt 0.043428 0.246015
vt 0.057719 0.246015
vt 0.057719 0.274598
vt 0.043428 0.274598
vt 0.361452 0.457558
vt 0.361452 0.430404
vt 0.375744 0.430404
vt 0.375744 0.457558
vt 0.782454 0.144575
vt 0.768162 0.144575
vt 0.768162 0.130283
vt 0.782454 0.130283
vt 0.145996 0.907380
vt 0.131704 0.907380
vt 0.131704 0.891659
vt 0.145996 0.891659
vt 0.057719 0.388929
vt 0.043428 0.388929
vt 0.361452 0.314643
vt 0.375744 0.314643
vt 0.404327 0.072011
vt 0.404327 0.186342
vt 0.288888 0.072011
vt 0.288888 0.187771
vt 0.057719 0.417512
vt 0.043428 0.417512
vt 0.361452 0.287489
vt 0.375744 0.287489
vt 0.361452 0.043428
vt 0.375744 0.043428
vt 0.260305 0.215640
vt 0.246014 0.215640
vt 0.825020 0.679549
vt 0.839312 0.679549
vt 0.839312 0.693841
vt 0.825020 0.693841
vt 0.810023 0.347904
vt 0.810023 0.332898
vt 0.824314 0.332898
vt 0.824314 0.347904
vt 0.361452 0.029136
vt 0.375744 0.029136
vt 0.260305 0.230646
vt 0.246014 0.230646
vt 0.825020 0.650966
vt 0.839312 0.650966
vt 0.824314 0.376487
vt 0.810023 0.376487
vt 0.563747 0.854695
vt 0.578038 0.854695
vt 0.578038 0.883278
vt 0.563747 0.883278
vt 0.347161 0.911441
vt 0.347161 0.884287
vt 0.361452 0.884287
vt 0.361452 0.911441
vt 0.825020 0.780696
vt 0.839312 0.780696
vt 0.839312 0.794988
vt 0.825020 0.794988
vt 0.825299 0.476205
vt 0.825299 0.461199
vt 0.839590 0.461199
vt 0.839590 0.476205
vt 0.882587 0.332898
vt 0.896878 0.332898
vt 0.896878 0.361481
vt 0.882587 0.361481
vt 0.897863 0.575208
vt 0.897863 0.548055
vt 0.912155 0.548055
vt 0.912155 0.575208
vt 0.825020 0.636675
vt 0.839312 0.636675
vt 0.824314 0.391493
vt 0.810023 0.391493
vt 0.825020 0.752113
vt 0.839312 0.752113
vt 0.839590 0.504073
vt 0.825299 0.504073
vt 0.592330 0.348632
vt 0.592330 0.362924
vt 0.563747 0.362924
vt 0.563747 0.348632
vt 0.260305 0.604267
vt 0.231722 0.604267
vt 0.231722 0.589261
vt 0.260305 0.589261
vt 0.057719 0.561533
vt 0.072011 0.561533
vt 0.072011 0.575825
vt 0.057719 0.575825
vt 0.491182 0.232479
vt 0.491182 0.218188
vt 0.505474 0.218188
vt 0.505474 0.232479
vt 0.592330 0.377215
vt 0.592330 0.434381
vt 0.563747 0.434381
vt 0.563747 0.377215
vt 0.260305 0.574969
vt 0.231722 0.574969
vt 0.231722 0.517089
vt 0.260305 0.517089
vt 0.057719 0.475785
vt 0.072011 0.475785
vt 0.491182 0.318942
vt 0.505474 0.318942
vt 0.592330 0.564111
vt 0.606621 0.564111
vt 0.606621 0.578402
vt 0.592330 0.578402
vt 0.592330 0.217473
vt 0.592330 0.203182
vt 0.606621 0.203182
vt 0.606621 0.217473
vt 0.592330 0.492653
vt 0.592330 0.549819
vt 0.563747 0.549819
vt 0.563747 0.492653
vt 0.592330 0.290359
vt 0.563747 0.290359
vt 0.563747 0.232479
vt 0.592330 0.233194
vt 0.072011 0.590116
vt 0.057719 0.590116
vt 0.491182 0.203182
vt 0.505474 0.203182
vt 0.158867 0.504368
vt 0.158867 0.590116
vt 0.130284 0.590116
vt 0.130284 0.504368
vt 0.491182 0.462964
vt 0.462599 0.463678
vt 0.462599 0.377215
vt 0.491182 0.377215
vt 0.563747 0.564111
vt 0.563747 0.218188
vt 0.158867 0.475785
vt 0.158867 0.490076
vt 0.130284 0.490076
vt 0.130284 0.475785
vt 0.491182 0.492976
vt 0.462599 0.492976
vt 0.462599 0.477970
vt 0.491182 0.478684
vt 0.606621 0.362924
vt 0.606621 0.377215
vt 0.274596 0.574969
vt 0.274596 0.589261
vt 0.606621 0.348632
vt 0.274596 0.604267
vt 0.029136 0.590116
vt 0.029136 0.575825
vt 0.462599 0.218188
vt 0.462599 0.203182
vt 0.606621 0.434381
vt 0.274596 0.517089
vt 0.173158 0.590116
vt 0.173158 0.504368
vt 0.505474 0.377215
vt 0.505474 0.462964
vt 0.651309 0.881844
vt 0.665600 0.881844
vt 0.665600 0.896135
vt 0.651309 0.896135
vt 0.897585 0.665258
vt 0.897585 0.651681
vt 0.911876 0.651681
vt 0.911876 0.665258
vt 0.173158 0.490076
vt 0.173158 0.475785
vt 0.505474 0.478684
vt 0.505474 0.492976
vt 0.029136 0.561533
vt 0.029136 0.475785
vt 0.462599 0.318942
vt 0.462599 0.232479
vt 0.606621 0.549819
vt 0.606621 0.492653
vt 0.606621 0.233194
vt 0.606621 0.290359
vt 0.563747 0.578402
vt 0.563747 0.203182
vt 0.751750 0.578335
vt 0.737458 0.578335
vt 0.737458 0.564044
vt 0.751750 0.564044
vt 0.751027 0.947321
vt 0.738165 0.947321
vt 0.738165 0.933029
vt 0.751027 0.933029
vt 0.679185 0.499786
vt 0.664894 0.499786
vt 0.664894 0.485494
vt 0.679185 0.485494
vt 0.679185 0.412215
vt 0.679185 0.427221
vt 0.664894 0.427221
vt 0.664894 0.412215
vt 0.679185 0.578389
vt 0.664894 0.578389
vt 0.664894 0.332898
vt 0.679185 0.332898
vt 0.665600 0.910426
vt 0.651309 0.910426
vt 0.897585 0.636675
vt 0.911876 0.636675
vt 0.930622 0.043428
vt 0.930622 0.029136
vt 0.944913 0.029136
vt 0.944913 0.043428
vt 0.246014 0.897336
vt 0.246014 0.913057
vt 0.231722 0.913057
vt 0.231722 0.897336
vt 0.145996 0.726992
vt 0.131704 0.726992
vt 0.131704 0.648389
vt 0.145996 0.648389
vt 0.361452 0.660550
vt 0.361452 0.739153
vt 0.347161 0.739153
vt 0.347161 0.660550
vt 0.476891 0.933336
vt 0.462599 0.933336
vt 0.462599 0.919044
vt 0.476891 0.919044
vt 0.928669 0.218902
vt 0.914377 0.218902
vt 0.914377 0.203182
vt 0.928669 0.203182
vt 0.347161 0.186342
vt 0.347161 0.072011
vt 0.231722 0.187771
vt 0.231722 0.072011
vt 0.029136 0.388929
vt 0.029136 0.274598
vt 0.347161 0.430404
vt 0.347161 0.314643
vt 0.086302 0.274598
vt 0.086302 0.388929
vt 0.404327 0.314643
vt 0.404327 0.430404
vt 0.897585 0.723531
vt 0.911876 0.723531
vt 0.911876 0.752114
vt 0.897585 0.752114
vt 0.044857 0.852121
vt 0.044857 0.880704
vt 0.029136 0.880704
vt 0.029136 0.852121
vt 0.897863 0.461199
vt 0.912154 0.461199
vt 0.912154 0.489782
vt 0.897863 0.489782
vt 0.840741 0.853261
vt 0.840741 0.881844
vt 0.825020 0.881844
vt 0.825020 0.853261
s 0
f 5/1/1 1/2/1 2/3/1 6/4/1
f 4/5/2 7/6/2 8/7/2 3/8/2
f 9/9/1 13/10/1 14/11/1 10/12/1
f 15/13/2 11/14/2 12/15/2 16/16/2
f 1/2/1 9/9/1 10/12/1 2/3/1
f 11/14/2 4/5/2 3/8/2 12/15/2
f 16/16/3 24/17/3 23/18/3 15/13/3
f 17/19/4 8/7/4 7/6/4 18/20/4
f 20/21/5 5/1/5 6/4/5 19/22/5
f 13/10/6 21/23/6 22/24/6 14/11/6
f 29/25/1 27/26/1 28/27/1 30/28/1
f 25/29/2 31/30/2 32/31/2 26/32/2
f 26/32/2 17/19/2 18/20/2 25/29/2
f 27/26/1 20/21/1 19/22/1 28/27/1
f 34/33/1 37/34/1 38/35/1 33/36/1
f 30/28/7 39/37/7 40/38/7 29/25/7
f 36/39/8 22/24/8 21/23/8 35/40/8
f 31/30/9 38/41/9 37/42/9 32/31/9
f 33/43/10 23/18/10 24/17/10 34/44/10
f 41/45/1 46/46/1 45/47/1 42/48/1
f 52/49/1 55/50/1 56/51/1 51/52/1
f 39/37/1 52/49/1 51/52/1 40/38/1
f 55/50/1 47/53/1 48/54/1 56/51/1
f 60/55/1 64/56/1 63/57/1 59/58/1
f 64/56/1 43/59/1 44/60/1 63/57/1
f 35/40/1 60/55/1 59/58/1 36/39/1
f 65/61/2 67/62/2 68/63/2 66/64/2
f 70/65/2 71/66/2 72/67/2 69/68/2
f 73/69/2 75/70/2 76/71/2 74/72/2
f 71/66/2 73/69/2 74/72/2 72/67/2
f 75/70/2 68/63/2 67/62/2 76/71/2
f 77/73/2 79/74/2 80/75/2 78/76/2
f 69/68/2 80/75/2 79/74/2 70/65/2
f 78/76/2 65/61/2 66/64/2 77/73/2
f 42/77/2 82/78/2 81/79/2 41/80/2
f 85/81/2 45/82/2 46/83/2 86/84/2
f 43/59/1 83/85/1 84/86/1 44/60/1
f 47/53/1 87/87/1 88/88/1 48/54/1
f 89/89/2 94/90/2 93/91/2 90/92/2
f 92/93/1 95/94/1 96/95/1 91/96/1
f 82/78/2 89/89/2 90/92/2 81/79/2
f 83/85/1 92/93/1 91/96/1 84/86/1
f 101/97/1 97/98/1 98/99/1 102/100/1
f 99/101/2 103/102/2 104/103/2 100/104/2
f 87/87/1 99/105/1 100/106/1 88/88/1
f 103/107/1 96/95/1 95/94/1 104/108/1
f 94/90/2 101/109/2 102/110/2 93/91/2
f 97/111/2 85/81/2 86/84/2 98/112/2
f 109/113/1 106/114/1 105/115/1 110/116/1
f 108/117/2 111/118/2 112/119/2 107/120/2
f 110/121/2 118/122/2 117/123/2 109/124/2
f 113/125/2 105/126/2 106/127/2 114/128/2
f 116/129/1 108/130/1 107/131/1 115/132/1
f 120/133/1 112/134/1 111/135/1 119/136/1
f 125/137/2 122/138/2 121/139/2 126/140/2
f 124/141/1 127/142/1 128/143/1 123/144/1
f 127/142/1 120/133/1 119/136/1 128/143/1
f 126/140/2 117/123/2 118/122/2 125/137/2
f 115/132/1 131/145/1 132/146/1 116/129/1
f 136/147/1 124/141/1 123/144/1 135/148/1
f 133/149/2 121/139/2 122/138/2 134/150/2
f 129/151/2 113/125/2 114/128/2 130/152/2
f 140/153/1 143/154/1 144/155/1 139/156/1
f 141/157/2 138/158/2 137/159/2 142/160/2
f 143/154/1 136/147/1 135/148/1 144/155/1
f 134/150/2 141/157/2 142/160/2 133/149/2
f 146/161/1 149/162/1 150/163/1 145/164/1
f 130/152/2 146/165/2 145/166/2 129/151/2
f 148/167/1 132/146/1 131/145/1 147/168/1
f 138/158/2 150/169/2 149/170/2 137/159/2
f 152/171/1 140/153/1 139/156/1 151/172/1
f 199/173/1 179/174/1 180/175/1 200/176/1
f 160/177/1 164/178/1 163/179/1 159/180/1
f 159/180/1 148/167/1 147/168/1 160/177/1
f 172/181/1 163/179/1 164/178/1 171/182/1
f 176/183/1 180/175/1 179/174/1 175/184/1
f 175/184/1 184/185/1 183/186/1 176/183/1
f 184/185/1 172/181/1 171/182/1 183/186/1
f 192/187/1 187/188/1 188/189/1 191/190/1
f 189/191/1 193/192/1 194/193/1 190/194/1
f 200/176/1 196/195/1 195/196/1 199/173/1
f 187/188/1 152/171/1 151/172/1 188/189/1
f 201/197/2 204/198/2 203/199/2 202/200/2
f 206/201/2 208/202/2 207/203/2 205/204/2
f 210/205/2 206/201/2 205/204/2 209/206/2
f 202/200/2 210/205/2 209/206/2 201/197/2
f 214/207/2 215/208/2 216/209/2 213/210/2
f 212/211/2 214/207/2 213/210/2 211/212/2
f 217/213/2 212/211/2 211/212/2 218/214/2
f 218/214/2 207/203/2 208/202/2 217/213/2
f 220/215/2 222/216/2 221/217/2 219/218/2
f 222/216/2 224/219/2 223/220/2 221/217/2
f 224/219/2 216/209/2 215/208/2 223/220/2
f 204/198/2 220/215/2 219/218/2 203/199/2
f 193/221/2 156/222/2 155/223/2 194/224/2
f 154/225/1 195/196/1 196/195/1 153/226/1
f 190/227/2 168/228/2 167/229/2 189/230/2
f 191/190/1 165/231/1 166/232/1 192/187/1
f 225/233/2 230/234/2 229/235/2 226/236/2
f 228/237/1 231/238/1 232/239/1 227/240/1
f 230/234/2 155/223/2 156/222/2 229/235/2
f 153/226/1 232/239/1 231/238/1 154/225/1
f 233/241/2 237/242/2 238/243/2 234/244/2
f 236/245/1 240/246/1 239/247/1 235/248/1
f 226/236/2 238/243/2 237/242/2 225/233/2
f 240/246/1 228/237/1 227/240/1 239/247/1
f 165/231/1 236/245/1 235/248/1 166/232/1
f 234/244/2 167/229/2 168/228/2 233/241/2
f 241/249/2 243/250/2 244/251/2 242/252/2
f 245/253/2 247/254/2 248/255/2 246/256/2
f 246/256/2 241/249/2 242/252/2 245/253/2
f 247/254/2 244/251/2 243/250/2 248/255/2
f 249/257/1 251/258/1 252/259/1 250/260/1
f 253/261/1 255/262/1 256/263/1 254/264/1
f 251/258/1 256/263/1 255/262/1 252/259/1
f 254/264/1 249/257/1 250/260/1 253/261/1
f 4/265/11 1/266/11 5/267/11 7/268/11
f 3/269/12 8/270/12 6/271/12 2/272/12
f 15/273/12 13/274/12 9/275/12 11/276/12
f 16/277/11 12/278/11 10/279/11 14/280/11
f 11/281/13 9/282/13 1/283/13 4/284/13
f 12/285/14 3/286/14 2/287/14 10/288/14
f 7/268/11 5/267/11 20/289/11 18/290/11
f 8/270/12 17/291/12 19/292/12 6/271/12
f 13/274/12 15/273/12 23/293/12 21/294/12
f 14/280/11 22/295/11 24/296/11 16/277/11
f 25/297/14 27/298/14 29/299/14 31/300/14
f 26/301/13 32/302/13 30/303/13 28/304/13
f 18/290/11 20/289/11 27/305/11 25/306/11
f 17/291/12 26/307/12 28/308/12 19/292/12
f 62/309/13 58/310/13 78/311/13 80/312/13
f 61/313/14 79/314/14 77/315/14 57/316/14
f 31/300/14 29/299/14 40/317/14 38/318/14
f 32/302/13 37/319/13 39/320/13 30/303/13
f 21/321/13 23/322/13 33/323/13 35/324/13
f 22/325/14 36/326/14 34/327/14 24/328/14
f 41/329/12 43/330/12 64/331/12 62/332/12
f 42/333/11 61/334/11 63/335/11 44/336/11
f 49/337/14 51/338/14 56/339/14 54/340/14
f 50/341/13 53/342/13 55/343/13 52/344/13
f 41/329/12 62/332/12 80/345/12 69/346/12
f 42/333/11 70/347/11 79/348/11 61/334/11
f 48/349/12 46/350/12 54/351/12 56/352/12
f 47/353/11 55/354/11 53/355/11 45/356/11
f 38/357/11 40/358/11 51/359/11 49/360/11
f 37/361/12 50/362/12 52/363/12 39/364/12
f 60/365/13 58/310/13 62/309/13 64/366/13
f 59/367/14 63/368/14 61/313/14 57/316/14
f 35/369/11 33/370/11 58/371/11 60/372/11
f 36/373/12 59/374/12 57/375/12 34/376/12
f 46/350/12 41/329/12 69/346/12 72/377/12
f 45/356/11 71/378/11 70/347/11 42/333/11
f 33/370/11 38/357/11 67/379/11 65/380/11
f 34/376/12 66/381/12 68/382/12 37/361/12
f 54/351/12 46/350/12 72/377/12 74/383/12
f 53/355/11 73/384/11 71/378/11 45/356/11
f 58/371/11 33/370/11 65/380/11 78/385/11
f 57/375/12 77/386/12 66/381/12 34/376/12
f 49/337/14 54/340/14 74/387/14 76/388/14
f 50/341/13 75/389/13 73/390/13 53/342/13
f 38/357/11 49/360/11 76/391/11 67/379/11
f 37/361/12 68/382/12 75/392/12 50/362/12
f 43/393/13 41/394/13 81/395/13 83/396/13
f 44/397/14 84/398/14 82/399/14 42/400/14
f 46/401/14 48/402/14 88/403/14 86/404/14
f 45/405/13 85/406/13 87/407/13 47/408/13
f 92/409/12 90/410/12 93/411/12 95/412/12
f 91/413/11 96/414/11 94/415/11 89/416/11
f 83/396/13 81/395/13 90/417/13 92/418/13
f 84/398/14 91/419/14 89/420/14 82/399/14
f 104/421/12 102/422/12 109/423/12 111/424/12
f 103/425/11 112/426/11 110/427/11 101/428/11
f 95/412/12 93/411/12 102/422/12 104/421/12
f 96/414/11 103/425/11 101/428/11 94/415/11
f 86/429/11 88/430/11 100/431/11 98/432/11
f 85/433/12 97/434/12 99/435/12 87/436/12
f 106/437/14 109/438/14 246/439/14 248/440/14
f 105/441/13 247/442/13 245/443/13 110/444/13
f 98/432/11 100/431/11 108/445/11 106/446/11
f 97/434/12 105/447/12 107/448/12 99/435/12
f 104/421/12 111/424/12 256/449/12 251/450/12
f 103/425/11 252/451/11 255/452/11 112/426/11
f 106/446/11 108/445/11 116/453/11 114/454/11
f 105/447/12 113/455/12 115/456/12 107/448/12
f 111/424/12 109/423/12 117/457/12 119/458/12
f 112/426/11 120/459/11 118/460/11 110/427/11
f 121/461/14 123/462/14 128/463/14 126/464/14
f 122/465/13 125/466/13 127/467/13 124/468/13
f 119/458/12 117/457/12 126/469/12 128/470/12
f 120/459/11 127/471/11 125/472/11 118/460/11
f 123/462/14 121/461/14 133/473/14 135/474/14
f 124/468/13 136/475/13 134/476/13 122/465/13
f 114/477/13 116/478/13 132/479/13 130/480/13
f 113/481/14 129/482/14 131/483/14 115/484/14
f 137/485/11 139/486/11 144/487/11 142/488/11
f 138/489/12 141/490/12 143/491/12 140/492/12
f 130/493/12 132/494/12 148/495/12 146/496/12
f 129/497/11 145/498/11 147/499/11 131/500/11
f 135/474/14 133/473/14 142/501/14 144/502/14
f 136/475/13 143/503/13 141/504/13 134/476/13
f 139/486/11 137/485/11 149/505/11 151/506/11
f 140/492/12 152/507/12 150/508/12 138/489/12
f 181/509/13 174/510/13 212/511/13 217/512/13
f 182/513/14 218/514/14 211/515/14 173/516/14
f 162/517/12 163/518/12 172/519/12 170/520/12
f 161/521/11 169/522/11 171/523/11 164/524/11
f 178/525/13 197/526/13 215/527/13 214/528/13
f 177/529/14 213/530/14 216/531/14 198/532/14
f 157/533/12 159/534/12 163/518/12 162/517/12
f 158/535/11 161/521/11 164/524/11 160/536/11
f 146/537/14 148/538/14 159/539/14 157/540/14
f 145/541/13 158/542/13 160/543/13 147/544/13
f 185/545/14 149/546/14 203/547/14 219/548/14
f 186/549/13 220/550/13 204/551/13 150/552/13
f 170/520/12 172/519/12 184/553/12 181/554/12
f 169/522/11 182/555/11 183/556/11 171/523/11
f 189/557/11 185/558/11 219/559/11 221/560/11
f 190/561/12 222/562/12 220/563/12 186/564/12
f 149/546/14 146/537/14 202/565/14 203/547/14
f 150/552/13 204/551/13 201/566/13 145/541/13
f 197/567/11 193/568/11 223/569/11 215/570/11
f 198/571/12 216/572/12 224/573/12 194/574/12
f 174/510/13 175/575/13 179/576/13 178/525/13
f 173/516/14 177/529/14 180/577/14 176/578/14
f 175/575/13 174/510/13 181/509/13 184/579/13
f 176/578/14 183/580/14 182/513/14 173/516/14
f 170/520/12 181/554/12 217/581/12 208/582/12
f 169/522/11 207/583/11 218/584/11 182/555/11
f 178/525/13 179/576/13 199/585/13 197/526/13
f 177/529/14 198/532/14 200/586/14 180/577/14
f 188/587/11 185/558/11 189/557/11 191/588/11
f 187/589/12 192/590/12 190/561/12 186/564/12
f 193/591/13 195/592/13 154/593/13 156/594/13
f 194/595/14 155/596/14 153/597/14 196/598/14
f 195/599/11 193/568/11 197/567/11 199/600/11
f 196/601/12 200/602/12 198/571/12 194/574/12
f 157/533/12 162/517/12 206/603/12 210/604/12
f 158/535/11 209/605/11 205/606/11 161/521/11
f 151/607/14 149/546/14 185/545/14 188/608/14
f 152/609/13 187/610/13 186/549/13 150/552/13
f 193/568/11 189/557/11 221/560/11 223/569/11
f 194/574/12 224/573/12 222/562/12 190/561/12
f 162/517/12 170/520/12 208/582/12 206/603/12
f 161/521/11 205/606/11 207/583/11 169/522/11
f 146/537/14 157/540/14 210/611/14 202/565/14
f 145/541/13 201/566/13 209/612/13 158/542/13
f 174/510/13 178/525/13 214/528/13 212/511/13
f 173/516/14 211/515/14 213/530/14 177/529/14
f 191/613/14 189/614/14 167/615/14 165/616/14
f 192/617/13 166/618/13 168/619/13 190/620/13
f 228/621/11 226/622/11 229/623/11 231/624/11
f 227/625/12 232/626/12 230/627/12 225/628/12
f 226/622/11 228/621/11 240/629/11 238/630/11
f 225/628/12 237/631/12 239/632/12 227/625/12
f 156/594/13 154/593/13 231/633/13 229/634/13
f 155/596/14 230/635/14 232/636/14 153/597/14
f 236/637/14 234/638/14 238/639/14 240/640/14
f 235/641/13 239/642/13 237/643/13 233/644/13
f 165/645/12 167/646/12 234/647/12 236/648/12
f 166/649/11 235/650/11 233/651/11 168/652/11
f 102/653/13 98/654/13 243/655/13 241/656/13
f 101/657/14 242/658/14 244/659/14 97/660/14
f 109/423/12 102/422/12 241/661/12 246/662/12
f 110/427/11 245/663/11 242/664/11 101/428/11
f 98/432/11 106/446/11 248/665/11 243/666/11
f 97/434/12 244/667/12 247/668/12 105/447/12
f 108/445/11 100/431/11 249/669/11 254/670/11
f 107/448/12 253/671/12 250/672/12 99/435/12
f 111/673/14 108/674/14 254/675/14 256/676/14
f 112/677/13 255/678/13 253/679/13 107/680/13
f 100/681/13 104/682/13 251/683/13 249/684/13
f 99/685/14 250/686/14 252/687/14 103/688/14
